<svg xmlns="http://www.w3.org/2000/svg" width="58.784" height="59.981" viewBox="0 0 58.784 59.981">
  <g id="culture" transform="translate(0)" opacity="0.25">
    <path id="Fill_1" data-name="Fill 1" d="M56.867,59.981H1.881a.816.816,0,0,1-.815-.814V56.753a2.49,2.49,0,0,1,1.588-2.3v-3.62a2.283,2.283,0,0,1,2.174-2.272V27.581a2.283,2.283,0,0,1-2.174-2.273V21.678A2.461,2.461,0,0,1,1.066,19.4V16.928a2.513,2.513,0,0,1,.038-.359.815.815,0,0,1-.668-1.484L28.987.094a.814.814,0,0,1,.761,0L58.3,15.1a.812.812,0,0,1-.33,1.554.8.8,0,0,1-.328-.07,2.426,2.426,0,0,1,.038.359V19.4a2.458,2.458,0,0,1-1.587,2.283v3.631a2.282,2.282,0,0,1-2.174,2.273V48.535a2.282,2.282,0,0,1,2.174,2.272v3.641a2.489,2.489,0,0,1,1.587,2.3v2.414A.815.815,0,0,1,56.867,59.981ZM3.528,55.943a.843.843,0,0,0-.842.842v1.6H56.051V56.769a.847.847,0,0,0-.842-.826ZM45.06,53.051V54.3h9.413V53.051ZM35.7,21.836v3.473a2.282,2.282,0,0,1-2.174,2.273V48.556A2.284,2.284,0,0,1,35.7,50.828V54.3h7.739V50.828a2.283,2.283,0,0,1,2.174-2.272V27.587l-.011-.005A2.282,2.282,0,0,1,43.43,25.3V21.836H35.7ZM24.666,53.051V54.3H34.08V53.051Zm-9.36-31.216v3.473a2.282,2.282,0,0,1-2.174,2.273V48.556a2.284,2.284,0,0,1,2.174,2.272V54.3h7.739V50.828a2.283,2.283,0,0,1,2.174-2.272V27.587l-.011-.005A2.282,2.282,0,0,1,23.036,25.3V21.836ZM4.272,53.051V54.3h9.4V53.051Zm41.44-2.859a.653.653,0,0,0-.652.653v.593h9.4v-.609a.651.651,0,0,0-.635-.636Zm-40.787,0a.653.653,0,0,0-.653.653v.593h9.4v-.593a.653.653,0,0,0-.653-.653Zm20.394-.016a.653.653,0,0,0-.653.653v.593h9.4v-.593a.653.653,0,0,0-.652-.653h-8.1ZM47.235,27.6V48.562l5.06-.016V27.6Zm-20.394,0V48.546H31.9V27.6Zm-20.394,0V48.546H11.5V27.614Zm38.619-2.875v.608a.653.653,0,0,0,.653.653h8.094a.653.653,0,0,0,.652-.653l.005-.608Zm-20.4,0v.592a.653.653,0,0,0,.653.653h8.1a.653.653,0,0,0,.652-.653v-.592Zm-20.394,0v.6a.65.65,0,0,0,.636.648h8.115a.653.653,0,0,0,.653-.653v-.592Zm40.8-2.886v1.255l9.4-.011V21.836h-9.4Zm-20.394,0v1.255l9.4-.011V21.836Zm-20.393,0V23.09l9.4-.01V21.836ZM3.5,16.129a.816.816,0,0,0-.815.815v2.468a.816.816,0,0,0,.815.815H55.236a.816.816,0,0,0,.815-.815V16.944a.816.816,0,0,0-.815-.815Zm25.867-14.4h0L5.089,14.487H53.644L29.368,1.725Z" transform="translate(0 0)" fill="#1d2128"/>
  </g>
</svg>
