<svg xmlns="http://www.w3.org/2000/svg" xmlns:xlink="http://www.w3.org/1999/xlink" width="59.609" height="59.822" viewBox="0 0 59.609 59.822">
  <defs>
    <clipPath id="clip-path">
      <path id="Clip_2" data-name="Clip 2" d="M0,0H56.731V56.731H0Z" transform="translate(0.014 0.027)" fill="none"/>
    </clipPath>
    <clipPath id="clip-path-2">
      <path id="Clip_17" data-name="Clip 17" d="M0,0H6.632V6.632H0Z" transform="translate(0 0.15)" fill="none"/>
    </clipPath>
  </defs>
  <g id="future" transform="translate(0 -0.151)">
    <g id="Page_1" data-name="Page 1">
      <g id="Group_3" data-name="Group 3" transform="translate(2.864 0.124)">
        <path id="Clip_2-2" data-name="Clip 2" d="M0,0H56.731V56.731H0Z" transform="translate(0.014 0.027)" fill="none"/>
        <g id="Group_3-2" data-name="Group 3" clip-path="url(#clip-path)">
          <path id="Fill_1" data-name="Fill 1" d="M27.141,56.731a1.129,1.129,0,0,1-1.112-.924l-1.469-7.93L23,46.319l-1.8,3.317a1.135,1.135,0,0,1-.831.58,1.1,1.1,0,0,1-.163.012,1.139,1.139,0,0,1-.8-.331L6.834,37.319a1.131,1.131,0,0,1,.261-1.794l3.317-1.8L8.854,32.171.925,30.7A1.131,1.131,0,0,1,.331,28.79L10.818,18.3a1.133,1.133,0,0,1,.655-.321l10.876-1.4,7.535-7.535A30.872,30.872,0,0,1,51.756,0,30.747,30.747,0,0,1,55.516.23a1.13,1.13,0,0,1,.984.984,31.07,31.07,0,0,1-1.444,13.834,31.059,31.059,0,0,1-7.368,11.8l-7.536,7.536-1.4,10.876a1.135,1.135,0,0,1-.322.655L27.94,56.4A1.138,1.138,0,0,1,27.141,56.731ZM37.535,37h0L26.828,47.7l1.033,5.575,8.694-8.693L37.535,37ZM12.08,35.4h0L9.5,36.791,19.939,47.226l1.4-2.575L12.08,35.4Zm30-31.461h0a28.815,28.815,0,0,0-10.6,6.707L11,31.123l14.6,14.6,20.481-20.48a28.823,28.823,0,0,0,6.707-10.6A13.531,13.531,0,0,1,42.08,3.936ZM19.733,19.2h0l-7.588.978L3.45,28.87,9.025,29.9,19.733,19.2ZM51.759,2.262a28.849,28.849,0,0,0-7.507.994A11.222,11.222,0,0,0,47.4,9.336a11.22,11.22,0,0,0,6.08,3.143,28.637,28.637,0,0,0,.876-10.1C53.5,2.3,52.63,2.262,51.759,2.262Z" transform="translate(0.014 0.027)" fill="#403e75"/>
        </g>
      </g>
      <path id="Fill_4" data-name="Fill 4" d="M6.856,13.712A6.859,6.859,0,0,1,2.006,2.006a6.859,6.859,0,0,1,9.7,9.7A6.813,6.813,0,0,1,6.856,13.712Zm0-11.453A4.6,4.6,0,1,0,10.107,3.6,4.567,4.567,0,0,0,6.856,2.26Z" transform="translate(31.253 14.795)" fill="#403e75"/>
      <path id="Fill_6" data-name="Fill 6" d="M11.631.331a1.13,1.13,0,0,0-1.6,0l-9.7,9.7a1.131,1.131,0,0,0,1.6,1.6l9.7-9.7a1.131,1.131,0,0,0,0-1.6" transform="translate(3.091 44.92)" fill="#403e75"/>
      <path id="Fill_8" data-name="Fill 8" d="M4.7.331.331,4.7a1.131,1.131,0,0,0,1.6,1.6L6.3,1.93A1.131,1.131,0,0,0,4.7.331" transform="translate(11.513 48.011)" fill="#403e75"/>
      <path id="Fill_10" data-name="Fill 10" d="M1.129,0A1.141,1.141,0,0,0,.065.75,1.143,1.143,0,0,0,.429,2.018a1.141,1.141,0,0,0,1.346.04A1.131,1.131,0,0,0,1.129,0" transform="translate(9.185 54.711)" fill="#403e75"/>
      <path id="Fill_12" data-name="Fill 12" d="M.025.065c.1.225-.09-.225,0,0" transform="translate(11.35 55.39)" fill="#403e75"/>
      <path id="Fill_14" data-name="Fill 14" d="M.933.331l-.6.6a1.131,1.131,0,0,0,1.6,1.6l.6-.6a1.131,1.131,0,0,0-1.6-1.6" transform="translate(6.183 57.11)" fill="#403e75"/>
      <g id="Group_18" data-name="Group 18" transform="translate(0 47.008)">
        <path id="Clip_17-2" data-name="Clip 17" d="M0,0H6.632V6.632H0Z" transform="translate(0 0.15)" fill="none"/>
        <g id="Group_18-2" data-name="Group 18" clip-path="url(#clip-path-2)">
          <path id="Fill_16" data-name="Fill 16" d="M6.3.331a1.131,1.131,0,0,0-1.6,0L.331,4.7a1.131,1.131,0,0,0,1.6,1.6L6.3,1.93a1.131,1.131,0,0,0,0-1.6" transform="translate(0 0.15)" fill="#403e75"/>
        </g>
      </g>
      <path id="Fill_19" data-name="Fill 19" d="M1.4,2.224a1.142,1.142,0,0,0,.851-.985A1.131,1.131,0,0,0,.312.344,1.144,1.144,0,0,0,.184,1.752c-.009-.014-.016-.024,0,0s.013.018,0,0A1.143,1.143,0,0,0,1.4,2.224" transform="translate(6.704 44.831)" fill="#403e75"/>
      <path id="Fill_21" data-name="Fill 21" d="M1.93,2.532l.6-.6a1.131,1.131,0,1,0-1.6-1.6l-.6.6a1.131,1.131,0,0,0,1.6,1.6" transform="translate(9.099 41.828)" fill="#403e75"/>
    </g>
  </g>
</svg>
