<?xml version="1.0" standalone="no"?>
<!DOCTYPE svg PUBLIC "-//W3C//DTD SVG 1.1//EN" "http://www.w3.org/Graphics/SVG/1.1/DTD/svg11.dtd" >
<svg xmlns="http://www.w3.org/2000/svg" xmlns:xlink="http://www.w3.org/1999/xlink" version="1.1">
<metadata>
Created by FontForge 20170731 at Sun Oct 28 19:06:32 2007
 By Aleksey,,,
Copyright (c) 2004-7 by Kris Sowersby. All rights reserved.
</metadata>
<defs>
<font id="National-Extrabold" horiz-adv-x="565" >
  <font-face 
    font-family="National Extrabold"
    font-weight="900"
    font-stretch="normal"
    units-per-em="1000"
    panose-1="2 0 5 3 0 0 0 2 0 4"
    ascent="800"
    descent="-200"
    x-height="462"
    cap-height="589"
    bbox="-122 -258 1241 1029"
    underline-thickness="57"
    underline-position="-140"
    unicode-range="U+0020-F778"
  />
<missing-glyph horiz-adv-x="608" 
 />
    <glyph glyph-name="f_b" unicode="fb" horiz-adv-x="866" 
d="M508 257v-64q0 -52 24.5 -75.5t57.5 -23.5q42 0 69.5 35t27.5 100q0 126 -89 126q-35 0 -62.5 -27t-27.5 -71zM361 543q-32 21 -68 21q-67 0 -67 -68v-34h88v-114h-88v-348h-148v348h-68v114h68v28q0 96 55 141t139 45q54 0 104 -19l133 11v-291q36 96 150 96
q85 0 131 -60.5t46 -170.5q0 -117 -52 -185.5t-145 -68.5q-56 0 -91 22t-45 57l-37 -67h-105v543z" />
    <glyph glyph-name="f_f_b" unicode="ffb" horiz-adv-x="1149" 
d="M791 257v-64q0 -52 24.5 -75.5t56.5 -23.5q42 0 70 35t28 100q0 126 -90 126q-35 0 -62 -27t-27 -71zM792 668v-291q36 96 150 96q85 0 131 -60.5t46 -170.5q0 -117 -52 -185.5t-145 -68.5q-56 0 -91 22t-45 57l-37 -67h-105v543q-32 21 -68 21q-67 0 -67 -68v-34h88
v-114h-88v-348h-148v348h-135v-348h-148v348h-68v114h68v27q0 92 52 134.5t124 42.5q53 0 97 -18l-21 -124q-24 18 -50 18q-54 0 -54 -58v-22h135v28q0 96 55 141t139 45q54 0 104 -19z" />
    <glyph glyph-name="f_f_h" unicode="ffh" horiz-adv-x="1127" 
d="M792 668v-294q36 99 146 99q57 0 95.5 -36.5t38.5 -110.5v-326h-148v268q0 40 -12 60.5t-44 20.5q-76 0 -76 -98v-251h-148v543q-32 21 -68 21q-67 0 -67 -68v-34h88v-114h-88v-348h-148v348h-135v-348h-148v348h-68v114h68v27q0 92 52 134.5t124 42.5q53 0 97 -18
l-21 -124q-24 18 -50 18q-54 0 -54 -58v-22h135v28q0 96 55 141t139 45q54 0 104 -19z" />
    <glyph glyph-name="f_f_j" unicode="ffj" horiz-adv-x="852" 
d="M509 348v-348h-148v348h-135v-348h-148v348h-68v114h68v27q0 92 52 134.5t124 42.5q53 0 97 -18l-21 -124q-24 18 -50 18q-54 0 -54 -58v-22h135v25q0 52 19 90.5t51 59t68 30t77 9.5q83 0 148 -34l-51 -119q-38 28 -86 28q-78 0 -78 -69v-20h283v-453q0 -112 -76 -166
t-201 -45v125q68 -11 98.5 12t30.5 103v310h-135z" />
    <glyph glyph-name="f_f_k" unicode="ffk" horiz-adv-x="1120" 
d="M792 668v-369h27l106 163h170l-152 -215l167 -247h-171l-119 185h-28v-185h-148v543q-32 21 -68 21q-67 0 -67 -68v-34h88v-114h-88v-348h-148v348h-135v-348h-148v348h-68v114h68v27q0 92 52 134.5t124 42.5q53 0 97 -18l-21 -124q-24 18 -50 18q-54 0 -54 -58v-22h135
v28q0 96 55 141t139 45q54 0 104 -19z" />
    <glyph glyph-name="f_h" unicode="fh" horiz-adv-x="844" 
d="M509 668v-294q36 99 146 99q57 0 95.5 -36.5t38.5 -110.5v-326h-148v268q0 40 -12 60.5t-44 20.5q-76 0 -76 -98v-251h-148v543q-32 21 -68 21q-67 0 -67 -68v-34h88v-114h-88v-348h-148v348h-68v114h68v28q0 96 55 141t139 45q54 0 104 -19z" />
    <glyph glyph-name="f_j" unicode="fj" horiz-adv-x="569" 
d="M361 38v310h-135v-348h-148v348h-68v114h68v25q0 52 19 90.5t51 59t68 30t77 9.5q83 0 148 -34l-51 -119q-38 28 -86 28q-78 0 -78 -69v-20h283v-453q0 -112 -76 -166t-201 -45v125q68 -11 98.5 12t30.5 103z" />
    <glyph glyph-name="f_k" unicode="fk" horiz-adv-x="837" 
d="M509 668v-369h27l106 163h170l-152 -215l167 -247h-171l-119 185h-28v-185h-148v543q-32 21 -68 21q-67 0 -67 -68v-34h88v-114h-88v-348h-148v348h-68v114h68v28q0 96 55 141t139 45q54 0 104 -19z" />
    <glyph glyph-name="ff" unicode="ff" horiz-adv-x="614" 
d="M361 348h-135v-348h-148v348h-68v114h68v27q0 92 52 134.5t124 42.5q53 0 97 -18l-21 -124q-24 18 -50 18q-54 0 -54 -58v-22h135v28q0 96 55 140.5t139 45.5q62 0 119 -18l-22 -138q-37 27 -76 27q-67 0 -67 -66v-19h118v-114h-118v-348h-148v348z" />
    <glyph glyph-name="ffi" unicode="ffi" horiz-adv-x="852" 
d="M361 462v25q0 52 19 90.5t51 59t68 30t77 9.5q83 0 148 -34l-51 -119q-38 28 -86 28q-78 0 -78 -69v-20h283v-462h-148v348h-135v-348h-148v348h-135v-348h-148v348h-68v114h68v27q0 92 52 134.5t124 42.5q53 0 97 -18l-21 -124q-24 18 -50 18q-54 0 -54 -58v-22h135z
" />
    <glyph glyph-name="ffl" unicode="ffl" horiz-adv-x="892" 
d="M361 462v28q0 96 55 141t139 45q54 0 104 -19l133 11v-508q0 -39 43 -39q20 0 37 7l-8 -124q-47 -14 -84 -14q-59 0 -97.5 30t-38.5 94v429q-32 21 -68 21q-67 0 -67 -68v-34h88v-114h-88v-348h-148v348h-135v-348h-148v348h-68v114h68v27q0 92 52 134.5t124 42.5
q53 0 97 -18l-21 -124q-24 18 -50 18q-54 0 -54 -58v-22h135z" />
    <glyph glyph-name="fi" unicode="fi" horiz-adv-x="569" 
d="M78 348h-68v114h68v25q0 52 19 90.5t51 59t68 30t77 9.5q83 0 148 -34l-51 -119q-38 28 -86 28q-78 0 -78 -69v-20h283v-462h-148v348h-135v-348h-148v348z" />
    <glyph glyph-name="fl" unicode="fl" horiz-adv-x="609" 
d="M589 128l-8 -124q-47 -14 -84 -14q-59 0 -97.5 30t-38.5 94v429q-32 21 -68 21q-67 0 -67 -68v-34h88v-114h-88v-348h-148v348h-68v114h68v28q0 96 55 141t139 45q54 0 104 -19l133 11v-508q0 -39 43 -39q20 0 37 7z" />
    <glyph glyph-name=".notdef" horiz-adv-x="608" 
 />
    <glyph glyph-name=".null" horiz-adv-x="0" 
 />
    <glyph glyph-name="nonmarkingreturn" horiz-adv-x="333" 
 />
    <glyph glyph-name="space" unicode=" " horiz-adv-x="221" 
 />
    <glyph glyph-name="exclam" unicode="!" horiz-adv-x="248" 
d="M35 589h178l-40 -383h-98zM35 77q0 37 25.5 60t63.5 23q40 0 65.5 -22.5t25.5 -60.5q0 -37 -25.5 -59.5t-65.5 -22.5q-38 0 -63.5 22.5t-25.5 59.5z" />
    <glyph glyph-name="quotedbl" unicode="&#x22;" horiz-adv-x="437" 
d="M65 412v256h142l-54 -256h-88zM250 412v256h142l-54 -256h-88z" />
    <glyph glyph-name="numbersign" unicode="#" horiz-adv-x="651" 
d="M601 114h-171l-36 -114h-106l35 114h-85l-36 -114h-106l35 114h-101v100h132l22 70h-134v100h165l30 97h108l-31 -97h85l30 97h108l-31 -97h107v-100h-138l-22 -70h140v-100zM291 284l-22 -70h85l22 70h-85z" />
    <glyph glyph-name="dollar" unicode="$" horiz-adv-x="502" 
d="M228 -106v95q-167 8 -188 120l111 52q18 -59 77 -71v89l-42 8q-131 30 -131 147q0 145 173 158v82h50v-82q81 -4 127.5 -39t47.5 -97l-126 -16q-5 43 -49 52v-93l38 -6q146 -24 146 -154q0 -72 -50 -109t-134 -41v-95h-50zM327 123q0 19 -11 29t-38 17v-81q49 6 49 35z
M186 352q0 -36 42 -45v86q-42 -7 -42 -41z" />
    <glyph glyph-name="percent" unicode="%" horiz-adv-x="890" 
d="M181 229q-78 0 -117 51t-39 133q0 80 41 132t115 52t115 -52t41 -132q0 -82 -39 -133t-117 -51zM181 504q-23 0 -36.5 -25t-13.5 -68q0 -41 14 -66.5t36 -25.5q23 0 37 25.5t14 66.5q0 44 -13.5 68.5t-37.5 24.5zM246 0l305 589h87l-308 -589h-84zM709 -7q-78 0 -117 51
t-39 133q0 80 41 132t115 52t115 -52t41 -132q0 -82 -39 -133t-117 -51zM709 268q-23 0 -36.5 -25t-13.5 -68q0 -41 14 -66.5t36 -25.5q23 0 37 25.5t14 66.5q0 44 -13.5 68.5t-37.5 24.5z" />
    <glyph glyph-name="ampersand" unicode="&#x26;" horiz-adv-x="589" 
d="M584 80l-107 -95l-67 63q-77 -60 -203 -60q-81 0 -139 39t-58 119q0 54 34.5 95t102.5 55l-35 34q-58 54 -58 123q0 73 55.5 110.5t143.5 37.5q81 0 134 -38t53 -108q0 -51 -38.5 -82.5t-93.5 -38.5l111 -103q20 35 23 81l118 -45q-5 -32 -21.5 -65t-34.5 -52zM158 165
q0 -31 21.5 -50t58.5 -19q60 0 88 32l-126 119q-42 -38 -42 -82zM252 503q-21 0 -33.5 -12t-12.5 -30q0 -24 21 -45l38 -39q38 35 38 77q0 23 -13.5 36t-37.5 13z" />
    <glyph glyph-name="quotesingle" unicode="'" horiz-adv-x="252" 
d="M65 412v256h142l-54 -256h-88z" />
    <glyph glyph-name="parenleft" unicode="(" horiz-adv-x="370" 
d="M194 233q0 -130 41.5 -225t124.5 -210h-155q-33 45 -54.5 79.5t-48 89.5t-39.5 122t-13 144t13 144t39.5 122t48 89.5t54.5 79.5h155q-83 -114 -124.5 -209.5t-41.5 -225.5z" />
    <glyph glyph-name="parenright" unicode=")" horiz-adv-x="370" 
d="M176 233q-1 130 -42.5 226t-123.5 209h156q33 -45 54.5 -79.5t47.5 -89.5t39 -122t13 -144t-13 -144t-39 -122t-47.5 -89.5t-54.5 -79.5h-156q40 56 65 96t50.5 94.5t38 115t12.5 129.5z" />
    <glyph glyph-name="asterisk" unicode="*" horiz-adv-x="419" 
d="M265 601l-21 -108l100 50l30 -98l-108 -18l80 -78l-89 -64l-46 100l-49 -100l-86 64l78 78l-109 18l33 97l98 -49l-19 108h108z" />
    <glyph glyph-name="plus" unicode="+" horiz-adv-x="498" 
d="M45 289h161v156h82v-156h165v-82h-165v-170h-82v170h-161v82z" />
    <glyph glyph-name="comma" unicode="," horiz-adv-x="292" 
d="M242 57q0 -94 -53 -137.5t-144 -43.5v59q99 8 99 76q-38 -6 -67 15.5t-29 62.5t26 62.5t65 21.5q46 0 74.5 -32t28.5 -84z" />
    <glyph glyph-name="hyphen" unicode="-" horiz-adv-x="374" 
d="M60 197v125h254v-125h-254z" />
    <glyph glyph-name="period" unicode="." horiz-adv-x="294" 
d="M55 85q0 40 26 67t64 27q41 0 67.5 -26.5t26.5 -67.5q0 -38 -27 -64t-67 -26q-37 0 -63.5 26.5t-26.5 63.5z" />
    <glyph glyph-name="slash" unicode="/" horiz-adv-x="441" 
d="M10 -203l273 871h128l-275 -871h-126z" />
    <glyph glyph-name="zero" unicode="0" horiz-adv-x="584" 
d="M292 -12q-117 0 -184.5 71.5t-67.5 182.5q0 108 68 179.5t184 71.5t184 -71.5t68 -179.5q0 -111 -67.5 -182.5t-184.5 -71.5zM292 362q-51 0 -80.5 -34.5t-29.5 -88.5q0 -55 29.5 -90t80.5 -35q52 0 81.5 35t29.5 90q0 54 -29.5 88.5t-81.5 34.5z" />
    <glyph glyph-name="one" unicode="1" horiz-adv-x="370" 
d="M290 0h-138v349l-132 -14v120l270 34v-489z" />
    <glyph glyph-name="two" unicode="2" horiz-adv-x="490" 
d="M450 123v-123h-409v100q146 76 197 120t51 88q0 26 -14.5 40.5t-40.5 14.5q-56 0 -63 -77l-136 34q11 83 68 128t147 45q80 0 131.5 -46t51.5 -126q0 -79 -48.5 -124t-147.5 -70v-4h213z" />
    <glyph glyph-name="three" unicode="3" horiz-adv-x="487" 
d="M289 188v-5q78 -7 115.5 -48.5t37.5 -107.5q0 -80 -60.5 -122.5t-168.5 -42.5q-84 0 -139.5 36t-68.5 104l140 55q6 -84 80 -84q32 0 52 15t20 46q0 48 -35.5 73t-118.5 24v101q46 1 76 9t42.5 23t16 26.5t3.5 28.5q0 26 -15 40.5t-38 14.5q-26 0 -43.5 -18.5
t-18.5 -53.5l-140 39q12 72 68.5 112t142.5 40q88 0 141 -40.5t53 -116.5q0 -131 -142 -148z" />
    <glyph glyph-name="four" unicode="4" horiz-adv-x="583" 
d="M307 -131v150h-287v99l299 363h136v-353h98v-109h-98v-150h-148zM218 128h89v98l5 89h-4q-14 -28 -32 -51l-63 -82q-12 -16 -26.5 -29.5t-22.5 -19.5l-8 -6v-4q25 5 62 5z" />
    <glyph glyph-name="five" unicode="5" horiz-adv-x="505" 
d="M78 125l14 356h338v-132h-220l-5 -111q31 20 77 20q79 0 126 -50t47 -135q0 -103 -66 -157t-164 -54q-193 0 -220 139l133 58q3 -43 27.5 -66.5t64.5 -23.5t63 25t23 77q0 81 -75 81q-34 0 -56 -27h-107z" />
    <glyph glyph-name="six" unicode="6" horiz-adv-x="530" 
d="M482 502l-97 -79q-25 58 -92 58q-59 0 -90 -55.5t-31 -155.5h4q12 50 48 77.5t84 27.5q83 0 132.5 -53t49.5 -130q0 -94 -58.5 -149t-161.5 -55q-107 0 -168.5 74t-61.5 208q0 164 71.5 247.5t182.5 83.5q64 0 114 -26.5t74 -72.5zM200 183q0 -35 23 -58t55 -23
q34 0 56.5 23t22.5 58q0 37 -22.5 59.5t-56.5 22.5q-33 0 -55.5 -22.5t-22.5 -59.5z" />
    <glyph glyph-name="seven" unicode="7" horiz-adv-x="503" 
d="M304 349h-155v-72h-119v204h428v-106l-204 -506h-147z" />
    <glyph glyph-name="eight" unicode="8" horiz-adv-x="532" 
d="M266 -12q-112 0 -169 45t-57 117q0 56 35 96.5t91 52.5v4q-56 11 -84 49t-28 87q0 71 56.5 116.5t155.5 45.5t155.5 -45.5t56.5 -116.5q0 -49 -28 -87t-84 -49v-4q55 -12 90.5 -52.5t35.5 -96.5q0 -72 -57 -117t-169 -45zM266 498q-33 0 -51.5 -20.5t-18.5 -50.5
q0 -35 21 -54t49 -19t49 19t21 54q0 30 -18.5 50.5t-51.5 20.5zM266 243q-32 0 -56 -19t-24 -53q0 -32 21.5 -53t58.5 -21t58.5 21t21.5 53q0 34 -24 53t-56 19z" />
    <glyph glyph-name="nine" unicode="9" horiz-adv-x="527" 
d="M21 -35l97 77q27 -62 96 -62q71 0 106 62.5t35 169.5h-4q-24 -106 -132 -106q-83 0 -131.5 52t-48.5 134q0 94 57.5 147.5t156.5 53.5q234 0 234 -286q0 -169 -74 -257t-207 -88q-61 0 -111.5 27.5t-73.5 75.5zM327 298q0 35 -22.5 57t-54.5 22q-33 0 -55.5 -22
t-22.5 -57q0 -37 22.5 -59t55.5 -22t55 22t22 59z" />
    <glyph glyph-name="colon" unicode=":" horiz-adv-x="294" 
d="M55 85q0 40 26 67t64 27q41 0 67.5 -26.5t26.5 -67.5q0 -38 -27 -64t-67 -26q-37 0 -63.5 26.5t-26.5 63.5zM55 374q0 40 26 67t64 27q41 0 67.5 -27t26.5 -67q0 -38 -27 -64t-67 -26q-37 0 -63.5 26t-26.5 64z" />
    <glyph glyph-name="semicolon" unicode=";" horiz-adv-x="292" 
d="M242 57q0 -94 -53 -137.5t-144 -43.5v59q99 8 99 76q-38 -6 -67 15.5t-29 62.5t26 62.5t65 21.5q46 0 74.5 -32t28.5 -84zM48 374q0 40 26 67t64 27q40 0 67 -27t27 -67q0 -38 -27 -64t-67 -26q-38 0 -64 26t-26 64z" />
    <glyph glyph-name="less" unicode="&#x3c;" horiz-adv-x="403" 
d="M358 392l-183 -145l178 -145l-60 -71l-248 216l254 212z" />
    <glyph glyph-name="equal" unicode="=" horiz-adv-x="498" 
d="M453 128h-408v82h408v-82zM453 282h-408v82h408v-82z" />
    <glyph glyph-name="greater" unicode="&#x3e;" horiz-adv-x="403" 
d="M228 247l-183 145l59 67l254 -212l-248 -216l-60 71z" />
    <glyph glyph-name="question" unicode="?" horiz-adv-x="454" 
d="M140 380l-140 50q19 86 74.5 128.5t156.5 42.5q96 0 157 -52t61 -135q0 -47 -16 -81t-44 -51t-58 -24.5t-64 -7.5v-54h-128v134h53q53 0 76 16t23 57q0 31 -19 49.5t-51 18.5q-41 0 -60 -23t-21 -68zM114 77q0 37 25.5 60t63.5 23q40 0 65.5 -22.5t25.5 -60.5
q0 -37 -25.5 -59.5t-65.5 -22.5q-38 0 -63.5 22.5t-25.5 59.5z" />
    <glyph glyph-name="at" unicode="@" horiz-adv-x="894" 
d="M509 172v65q0 35 -20.5 53.5t-47.5 18.5t-48.5 -27t-21.5 -82q0 -47 19 -73t51 -26q27 0 47.5 17.5t20.5 53.5zM646 401v-290q0 -26 7.5 -37.5t25.5 -11.5q40 0 65 51t25 141q0 135 -85 206.5t-221 71.5q-141 0 -239 -92t-98 -251q0 -153 93.5 -239t259.5 -86
q94 0 201 34l17 -69q-100 -32 -219 -32q-215 1 -324 109t-109 284q0 180 118.5 293.5t299.5 113.5t283 -94.5t102 -239.5q0 -275 -206 -275q-56 0 -88.5 23.5t-36.5 69.5q-22 -93 -132 -93q-70 0 -115 52t-45 149q0 103 46.5 162t132.5 59q89 0 118 -62l30 53h94z" />
    <glyph glyph-name="A" unicode="A" horiz-adv-x="631" 
d="M460 0l-39 110h-217l-37 -110h-157l213 589h183l215 -589h-161zM262 281l-16 -46h131l-16 45q-16 44 -27.5 87t-15.5 64l-4 21h-4q-15 -75 -48 -171z" />
    <glyph glyph-name="B" unicode="B" horiz-adv-x="586" 
d="M411 304v-4q64 -9 97 -47t33 -93q0 -75 -52 -117.5t-157 -42.5h-257v589h259q88 0 135 -39t47 -109q0 -54 -28 -89t-77 -48zM225 347h75q67 0 67 56q0 59 -70 59h-72v-115zM225 239v-112h94q35 0 52.5 12.5t17.5 44.5q0 55 -70 55h-94z" />
    <glyph glyph-name="C" unicode="C" horiz-adv-x="593" 
d="M442 202l131 -75q-42 -72 -101 -105.5t-158 -33.5q-124 0 -199 81.5t-75 226.5q0 146 76.5 225.5t215.5 79.5q177 0 246 -152l-146 -71q-13 45 -36.5 67.5t-67.5 22.5q-62 0 -98 -47t-36 -129t35 -126.5t103 -44.5q78 0 110 81z" />
    <glyph glyph-name="D" unicode="D" horiz-adv-x="631" 
d="M225 127h53q80 0 118.5 36.5t38.5 128.5q0 95 -37 132.5t-112 37.5h-61v-335zM292 0h-217v589h228q130 0 209 -70.5t79 -217.5q0 -156 -80.5 -228.5t-218.5 -72.5z" />
    <glyph glyph-name="E" unicode="E" horiz-adv-x="531" 
d="M481 130v-130h-406v589h406v-130h-256v-98h225v-125h-225v-106h256z" />
    <glyph glyph-name="F" unicode="F" horiz-adv-x="507" 
d="M225 0h-150v589h397v-130h-247v-128h216v-125h-216v-206z" />
    <glyph glyph-name="G" unicode="G" horiz-adv-x="635" 
d="M320 318h260v-318h-88l-25 63q-46 -75 -162 -75q-120 0 -192.5 76.5t-72.5 227.5q0 148 76.5 228.5t215.5 80.5q90 0 153 -40t93 -112l-146 -71q-26 90 -104 90q-22 0 -42.5 -7.5t-42.5 -26t-35.5 -56t-13.5 -89.5q0 -80 32.5 -129.5t105.5 -49.5q55 0 80 22t25 56v12
h-117v118z" />
    <glyph glyph-name="H" unicode="H" horiz-adv-x="659" 
d="M225 0h-150v589h150v-225h209v225h150v-589h-150v234h-209v-234z" />
    <glyph glyph-name="I" unicode="I" horiz-adv-x="300" 
d="M75 589h150v-589h-150v589z" />
    <glyph glyph-name="J" unicode="J" horiz-adv-x="480" 
d="M270 589h150v-418q0 -94 -58.5 -138.5t-154.5 -44.5q-149 0 -207 112l109 103q18 -46 40 -69t55 -23q36 0 51 20t15 65v393z" />
    <glyph glyph-name="K" unicode="K" horiz-adv-x="596" 
d="M586 0h-179l-150 234h-32v-234h-150v589h150v-225h33l137 225h172l-180 -285z" />
    <glyph glyph-name="L" unicode="L" horiz-adv-x="475" 
d="M75 589h150v-459h220v-130h-370v589z" />
    <glyph glyph-name="M" unicode="M" horiz-adv-x="746" 
d="M406 133h-66l-72 112q-13 20 -24 41.5t-16 33.5l-5 12h-4q6 -32 6 -98v-234h-150v589h148l102 -174q16 -28 27.5 -51t15.5 -32l3 -9h4q9 29 46 92l102 174h148v-589h-150v234q0 29 1.5 53.5t3.5 34.5l1 10h-4q-16 -42 -45 -87z" />
    <glyph glyph-name="N" unicode="N" horiz-adv-x="684" 
d="M214 589l200 -267q14 -19 25 -36.5t15 -25.5l4 -7h4q-3 46 -3 121v215h150v-589h-134l-200 261q-17 22 -30 41.5t-17 28.5l-5 9h-4q6 -44 6 -131v-209h-150v589h139z" />
    <glyph glyph-name="O" unicode="O" horiz-adv-x="648" 
d="M324 -12q-134 0 -209 79.5t-75 226.5t75 227t209 80t209 -80t75 -227t-75 -226.5t-209 -79.5zM324 467q-63 0 -95.5 -46t-32.5 -129t32 -128.5t96 -45.5t96 45.5t32 128.5t-32.5 129t-95.5 46z" />
    <glyph glyph-name="P" unicode="P" horiz-adv-x="542" 
d="M225 463v-159h65q74 0 74 75q0 44 -17.5 64t-55.5 20h-66zM225 0h-150v589h221q113 0 164.5 -51t51.5 -154q0 -96 -53.5 -149.5t-148.5 -53.5h-85v-181z" />
    <glyph glyph-name="Q" unicode="Q" horiz-adv-x="648" 
d="M537 -44l-40 -127q-108 0 -168 44t-87 124q-97 22 -149.5 98t-52.5 199q0 147 75 227t209 80t209 -80t75 -227q0 -129 -58.5 -206.5t-164.5 -94.5q55 -46 152 -37zM324 467q-63 0 -95.5 -46t-32.5 -129t32 -128.5t96 -45.5t96 45.5t32 128.5t-32.5 129t-95.5 46z" />
    <glyph glyph-name="R" unicode="R" horiz-adv-x="593" 
d="M568 0h-167q-22 16 -33 63l-21 83q-8 32 -22.5 41.5t-47.5 9.5h-52v-197h-150v589h241q105 0 162 -42.5t57 -141.5q0 -66 -33.5 -103.5t-93.5 -44.5v-3q41 -7 63.5 -25.5t32.5 -56.5l30 -108q12 -41 34 -64zM225 462v-140h80q77 0 77 69q0 71 -76 71h-81z" />
    <glyph glyph-name="S" unicode="S" horiz-adv-x="528" 
d="M20 129l136 65q8 -40 37.5 -65.5t68.5 -25.5q69 0 69 49q0 25 -18.5 39.5t-71.5 30.5q-110 34 -154 79.5t-44 119.5q0 95 61.5 138t152.5 43q213 0 231 -152l-150 -40q-4 34 -26 50.5t-52 16.5q-58 0 -58 -45q0 -25 20.5 -39.5t71.5 -28.5q106 -32 149.5 -74t43.5 -124
q0 -93 -65 -135.5t-172 -42.5q-91 0 -148.5 32.5t-81.5 108.5z" />
    <glyph glyph-name="T" unicode="T" horiz-adv-x="486" 
d="M316 0h-149v459h-157v130h466v-130h-160v-459z" />
    <glyph glyph-name="U" unicode="U" horiz-adv-x="617" 
d="M407 589h150v-391q0 -210 -248 -210q-249 0 -249 210v391h150v-348q0 -65 19.5 -96.5t79.5 -31.5q59 0 78.5 32t19.5 98v346z" />
    <glyph glyph-name="V" unicode="V" horiz-adv-x="587" 
d="M170 589l93 -299q11 -36 19.5 -75.5t11.5 -61.5l2 -22h4q7 80 30 158l89 300h158l-194 -589h-179l-194 589h160z" />
    <glyph glyph-name="W" unicode="W" horiz-adv-x="889" 
d="M538 589l66 -309q8 -36 14.5 -78.5t9.5 -66.5l3 -24h4q8 89 23 168l58 310h153l-122 -589h-219l-60 272q-8 36 -13.5 78t-6.5 66l-2 24h-4q-5 -87 -24 -169l-64 -271h-212l-122 589h159l61 -309q7 -36 13.5 -78.5t8.5 -66.5l3 -24h4q9 88 25 168l63 310h181z" />
    <glyph glyph-name="X" unicode="X" horiz-adv-x="608" 
d="M424 0l-76 116q-18 28 -28.5 49t-11.5 29l-2 7h-4q-6 -23 -44 -85l-72 -116h-176l202 296l-194 293h180l61 -99q20 -32 32 -56t13 -32l2 -7h5q1 20 44 95l56 99h169l-181 -287l199 -302h-174z" />
    <glyph glyph-name="Y" unicode="Y" 
d="M181 589l60 -125q17 -36 28.5 -70t14.5 -50l3 -16h4q5 56 45 136l61 125h158l-191 -402v-187h-150v187l-204 402h171z" />
    <glyph glyph-name="Z" unicode="Z" horiz-adv-x="526" 
d="M485 483l-211 -281q-16 -22 -32.5 -40t-24.5 -26l-8 -7v-4q29 5 78 5h209v-130h-466v112l203 275q16 22 32 40t25 25l8 8v4q-29 -5 -78 -5h-185v130h450v-106z" />
    <glyph glyph-name="bracketleft" unicode="[" horiz-adv-x="386" 
d="M226 557v-650h125v-110h-276v871h276v-111h-125z" />
    <glyph glyph-name="backslash" unicode="\" horiz-adv-x="441" 
d="M159 668l272 -871h-126l-275 871h129z" />
    <glyph glyph-name="bracketright" unicode="]" horiz-adv-x="386" 
d="M160 -93v650h-125v111h276v-871h-276v110h125z" />
    <glyph glyph-name="asciicircum" unicode="^" horiz-adv-x="539" 
d="M363 321l-46 102q-19 42 -31 77.5t-14 49.5l-2 15h-4q-4 -50 -48 -141l-50 -103h-138l174 347h132l173 -347h-146z" />
    <glyph glyph-name="underscore" unicode="_" horiz-adv-x="481" 
d="M50 -132v110h381v-110h-381z" />
    <glyph glyph-name="grave" unicode="`" horiz-adv-x="413" 
d="M333 525h-136l-117 156h184z" />
    <glyph glyph-name="a" unicode="a" horiz-adv-x="508" 
d="M283 147v40q-110 4 -110 -56q0 -17 12 -28t32 -11q27 0 46.5 13t19.5 42zM430 317v-167q0 -42 33 -42q12 0 30 8v-106q-29 -19 -84 -19q-91 0 -115 72q-28 -75 -134 -75q-62 0 -98.5 34t-36.5 94q0 79 64.5 117t193.5 31v39q0 59 -44 59q-46 0 -49 -65l-149 28
q5 72 60 110t142 38q187 0 187 -156z" />
    <glyph glyph-name="b" unicode="b" 
d="M207 254v-61q0 -52 24.5 -75.5t56.5 -23.5q42 0 70 35t28 100q0 126 -90 126q-35 0 -62 -27.5t-27 -73.5zM202 67l-37 -67h-105v668h148v-291q36 96 150 96q85 0 131 -60.5t46 -170.5q0 -117 -52 -185.5t-145 -68.5q-56 0 -91 22t-45 57z" />
    <glyph glyph-name="c" unicode="c" horiz-adv-x="474" 
d="M327 170l132 -43q-13 -68 -67 -103.5t-133 -35.5q-105 0 -167 64t-62 177q0 114 62 179t167 65q84 0 136 -42t57 -112l-124 -37q-10 75 -69 75q-41 0 -63 -33t-22 -92q0 -63 22.5 -96.5t63.5 -33.5q53 0 67 68z" />
    <glyph glyph-name="d" unicode="d" 
d="M358 195v80q0 45 -23.5 67t-59.5 22q-40 0 -68 -33t-28 -103q0 -60 25 -93.5t69 -33.5q35 0 60 25t25 69zM357 402v266h148v-668h-129l-18 80q-20 -92 -143 -92q-81 0 -133 61.5t-52 170.5q0 119 54 186t152 67q45 0 78 -19t43 -52z" />
    <glyph glyph-name="e" unicode="e" horiz-adv-x="491" 
d="M261 102q55 0 74 58l126 -45q-18 -66 -73 -96.5t-129 -30.5q-103 0 -166 63t-63 172q0 119 61 184.5t169 65.5q97 0 148 -56.5t51 -150.5q0 -28 -6 -60h-280q2 -49 24.5 -76.5t63.5 -27.5zM177 284h140q1 5 1 14q0 30 -16 48t-47 18q-33 0 -54 -22.5t-24 -57.5z" />
    <glyph glyph-name="f" unicode="f" horiz-adv-x="331" 
d="M78 348h-68v114h68v28q0 97 53 141.5t141 44.5q69 0 118 -23l-20 -122q-35 20 -81 20q-31 0 -47 -14t-16 -51v-24h118v-114h-118v-348h-148v348z" />
    <glyph glyph-name="g" unicode="g" horiz-adv-x="508" 
d="M243 473q77 0 131 -26q21 24 34 70l115 -38q-3 -31 -28.5 -54.5t-57.5 -33.5q20 -34 20 -81q0 -77 -61 -118t-158 -41q-38 0 -55 6q-18 -12 -18 -35q0 -24 32 -24h138q77 0 121 -39t44 -100q0 -48 -23 -83t-64 -53t-87 -26t-101 -8q-220 0 -220 114q0 80 123 89
q-35 2 -56.5 27t-21.5 58q0 30 20.5 57t59.5 38q-50 20 -74 52t-24 86q0 80 57 121.5t154 41.5zM140 -66q0 -47 103 -47q67 0 92.5 11t25.5 35q0 18 -11.5 24.5t-37.5 6.5h-119q-53 0 -53 -30zM183 310q0 -63 60 -63q62 0 62 63t-62 63q-60 0 -60 -63z" />
    <glyph glyph-name="h" unicode="h" horiz-adv-x="543" 
d="M208 668v-294q36 99 146 99q57 0 95.5 -36.5t38.5 -110.5v-326h-148v268q0 40 -12 60.5t-44 20.5q-76 0 -76 -98v-251h-148v668h148z" />
    <glyph glyph-name="i" unicode="i" horiz-adv-x="268" 
d="M46 601q0 40 25 61.5t63 21.5q41 0 66 -21t25 -62q0 -39 -25.5 -60.5t-65.5 -21.5q-38 0 -63 21.5t-25 60.5zM60 462h148v-462h-148v462z" />
    <glyph glyph-name="j" unicode="j" horiz-adv-x="268" 
d="M60 462h148v-453q0 -112 -76 -166t-201 -45v125q68 -11 98.5 12t30.5 103v424zM44 601q0 40 24.5 61.5t63.5 21.5q41 0 66 -21t25 -62q0 -39 -25.5 -60.5t-65.5 -21.5q-38 0 -63 21.5t-25 60.5z" />
    <glyph glyph-name="k" unicode="k" horiz-adv-x="536" 
d="M359 247l167 -247h-171l-119 185h-28v-185h-148v668h148v-369h27l106 163h170z" />
    <glyph glyph-name="l" unicode="l" horiz-adv-x="298" 
d="M278 128l-8 -124q-47 -14 -84 -14q-59 0 -97.5 30t-38.5 94v554h148v-508q0 -39 43 -39q20 0 37 7z" />
    <glyph glyph-name="m" unicode="m" horiz-adv-x="805" 
d="M468 372q37 101 151 101q60 0 95.5 -36t35.5 -111v-326h-148v268q0 40 -12 60.5t-44 20.5q-67 0 -67 -98v-251h-148v268q0 40 -12 60.5t-44 20.5q-67 0 -67 -99v-250h-148v462h128l18 -89q36 100 142 100q104 0 120 -101z" />
    <glyph glyph-name="n" unicode="n" horiz-adv-x="543" 
d="M188 462l18 -89q36 100 148 100q57 0 95.5 -36.5t38.5 -110.5v-326h-148v268q0 40 -12 60.5t-44 20.5q-33 0 -54.5 -23t-21.5 -76v-250h-148v462h128z" />
    <glyph glyph-name="o" unicode="o" horiz-adv-x="516" 
d="M258 -12q-104 0 -166 64.5t-62 179.5q0 116 61.5 178.5t166.5 62.5t166.5 -62.5t61.5 -178.5q0 -115 -62 -179.5t-166 -64.5zM258 355q-82 0 -82 -124q0 -66 20 -97t62 -31t62 31t20 97q0 124 -82 124z" />
    <glyph glyph-name="p" unicode="p" 
d="M207 249v-56q0 -52 24.5 -75.5t56.5 -23.5q42 0 70 35t28 100q0 126 -90 126q-35 0 -62 -28.5t-27 -77.5zM208 61v-264h-148v665h128l19 -89q36 100 151 100q85 0 131 -60.5t46 -170.5q0 -117 -52.5 -185.5t-145.5 -68.5q-50 0 -84.5 21t-44.5 52z" />
    <glyph glyph-name="q" unicode="q" 
d="M358 193v82q0 45 -23.5 67t-59.5 22q-40 0 -68 -33t-28 -103q0 -60 25 -93.5t69 -33.5q35 0 60 25t25 67zM369 402l33 60h103v-665h-147v283q-20 -92 -143 -92q-81 0 -133 61.5t-52 170.5q0 119 54 186t152 67q100 0 133 -71z" />
    <glyph glyph-name="r" unicode="r" horiz-adv-x="407" 
d="M397 472l-18 -163q-29 9 -56 9q-47 0 -81 -25t-34 -89v-204h-148v462h129l18 -128q17 69 59.5 106.5t130.5 31.5z" />
    <glyph glyph-name="s" unicode="s" horiz-adv-x="453" 
d="M15 108l120 51q15 -67 86 -67q54 0 54 32q0 16 -12.5 25t-42.5 16l-68 16q-119 31 -119 139q0 43 16 74t44.5 47.5t61.5 24t72 7.5q179 0 188 -132l-138 -20q-4 24 -17.5 33.5t-39.5 9.5q-18 0 -30 -8t-12 -22q0 -27 39 -35l66 -13q140 -29 140 -152q0 -75 -55 -110.5
t-148 -35.5q-91 0 -141 28t-64 92z" />
    <glyph glyph-name="t" unicode="t" horiz-adv-x="402" 
d="M362 144l25 -125q-62 -31 -152 -31q-158 0 -158 155v205h-67v114h68v98l148 17v-115h137v-114h-138v-171q0 -35 13.5 -49t41.5 -14q39 0 82 30z" />
    <glyph glyph-name="u" unicode="u" horiz-adv-x="538" 
d="M350 0l-18 87q-22 -99 -143 -99q-65 0 -102 36t-37 112v326h148v-281q0 -81 57 -81q75 0 75 122v240h148v-462h-128z" />
    <glyph glyph-name="v" unicode="v" horiz-adv-x="495" 
d="M162 0l-162 462h156l58 -196q9 -32 16.5 -69.5t10.5 -58.5l3 -22h4q10 80 32 150l63 196h152l-172 -462h-161z" />
    <glyph glyph-name="w" unicode="w" horiz-adv-x="738" 
d="M437 462l45 -164q12 -41 19.5 -88t9.5 -73l2 -26h4q5 92 26 185l38 166h147l-119 -462h-176l-39 147q-8 31 -14 68.5t-8 59.5l-1 22h-4q-5 -79 -22 -151l-34 -146h-175l-126 462h150l43 -166q11 -41 18 -87.5t9 -72.5l2 -25h4q5 94 27 187l40 164h134z" />
    <glyph glyph-name="x" unicode="x" horiz-adv-x="511" 
d="M341 0l-46 77q-16 27 -26 49.5t-12 31.5l-2 8h-4q-7 -29 -42 -89l-44 -77h-160l147 230l-138 232h173l27 -55q16 -33 27 -58t13 -34l3 -9h4q6 27 46 101l30 55h161l-141 -227l149 -235h-165z" />
    <glyph glyph-name="y" unicode="y" horiz-adv-x="498" 
d="M162 462l54 -196q11 -40 18.5 -77.5t9.5 -54.5l2 -18h4q5 61 32 150l60 196h156l-187 -504q-38 -102 -87 -134t-132 -32q-39 0 -87 11l23 132q26 -17 61 -17q60 0 82 56l-171 488h162z" />
    <glyph glyph-name="z" unicode="z" horiz-adv-x="438" 
d="M399 370l-139 -184q-16 -22 -32.5 -40t-24.5 -26l-8 -7v-4q29 5 78 5h135v-114h-378v91l132 183q16 22 32.5 40t24.5 26l8 7v4q-29 -5 -78 -5h-112v116h362v-92z" />
    <glyph glyph-name="braceleft" unicode="{" horiz-adv-x="430" 
d="M160 234v-4q49 -4 77.5 -29t28.5 -84v-144q0 -33 10 -48t36 -15q32 0 64 18l24 -102q-45 -32 -128 -32q-147 0 -147 150v155q0 43 -18 60t-51 17h-41v112h41q33 0 51 17t18 60v155q0 150 147 150q83 0 128 -32l-24 -102q-32 18 -64 18q-26 0 -36 -15t-10 -48v-144
q0 -62 -28 -85.5t-78 -27.5z" />
    <glyph glyph-name="bar" unicode="|" horiz-adv-x="317" 
d="M217 -203h-117v871h117v-871z" />
    <glyph glyph-name="braceright" unicode="}" horiz-adv-x="430" 
d="M270 230v4q-50 4 -78 27.5t-28 85.5v144q0 33 -10 48t-36 15q-32 0 -64 -18l-24 102q45 32 128 32q147 0 147 -150v-155q0 -43 18 -60t51 -17h41v-112h-41q-33 0 -51 -17t-18 -60v-155q0 -150 -147 -150q-83 0 -128 32l24 102q32 -18 64 -18q26 0 36 15t10 48v144
q0 59 28.5 84t77.5 29z" />
    <glyph glyph-name="asciitilde" unicode="~" horiz-adv-x="521" 
d="M339 193q-37 0 -75 22q-43 25 -57 25q-16 0 -25.5 -12.5t-5.5 -36.5h-81q-30 60 -0.5 113.5t92.5 53.5q31 0 64 -19q50 -29 64 -29q34 0 26 45h84q30 -64 3.5 -113t-89.5 -49z" />
    <glyph glyph-name="nbspace" unicode="&#xa0;" horiz-adv-x="153" 
 />
    <glyph glyph-name="exclamdown" unicode="&#xa1;" horiz-adv-x="248" 
d="M213 -126h-178l40 383h98zM35 386q0 37 25.5 59.5t63.5 22.5q40 0 65.5 -22.5t25.5 -59.5q0 -38 -25.5 -60.5t-65.5 -22.5q-38 0 -63.5 23t-25.5 60z" />
    <glyph glyph-name="cent" unicode="&#xa2;" horiz-adv-x="519" 
d="M258 -106v95q-102 6 -160 69.5t-58 180.5q0 114 56.5 179t161.5 73v83h50v-82q140 -6 190 -130l-128 -65q-19 64 -62 75v-263q47 8 69 67l122 -73q-30 -56 -75 -83t-116 -31v-95h-50zM191 241q0 -111 67 -131v262q-67 -17 -67 -131z" />
    <glyph glyph-name="sterling" unicode="&#xa3;" horiz-adv-x="522" 
d="M363 194h-110q-7 -58 -37 -74h111q57 0 74 47l101 -60q-7 -51 -48 -79t-99 -28h-310v120h32q28 0 40 18t12 41q0 5 -2 15h-87v73h54q-16 34 -16 76q0 66 54 108t128 42q176 0 194 -139l-130 -35q-6 27 -22 42.5t-37 15.5q-56 0 -56 -51q0 -11 3 -19.5t14 -23t12 -16.5
h125v-73z" />
    <glyph glyph-name="currency" unicode="&#xa4;" horiz-adv-x="452" 
d="M324 425l65 65l33 -33l-63 -63q32 -40 32 -104q0 -61 -28 -101l59 -58l-33 -33l-59 59q-41 -29 -101 -29q-65 0 -105 31l-61 -61l-33 33l62 62q-25 41 -25 97q0 61 29 101l-66 66l33 33l66 -67q41 27 100 27q54 0 95 -25zM229 371q-46 0 -46 -83q0 -81 46 -81t46 81
q0 83 -46 83z" />
    <glyph glyph-name="yen" unicode="&#xa5;" horiz-adv-x="585" 
d="M535 140h-161v-140h-150v140h-164v53h139l-27 47h-112v53h81l-111 188h170l62 -116q16 -28 25 -54.5t10 -38.5l1 -12h4q1 40 34 104l59 117h160l-103 -188h83v-53h-112l-26 -47h138v-53z" />
    <glyph glyph-name="brokenbar" unicode="&#xa6;" horiz-adv-x="317" 
d="M217 278h-117v390h117v-390zM217 -202h-117v389h117v-389z" />
    <glyph glyph-name="section" unicode="&#xa7;" horiz-adv-x="487" 
d="M40 33l115 52q22 -68 86 -68q23 0 36 9t13 23t-12.5 22t-42.5 17l-72 21q-57 17 -82 43t-25 72q0 42 22 66.5t55 31.5q-39 16 -57 53t-18 73q0 43 16 74t44.5 47.5t61.5 24t72 7.5q86 0 136 -34t51 -98l-137 -20q-2 43 -55 43q-39 0 -39 -30q0 -14 9.5 -22.5t35.5 -14.5
l69 -18q64 -16 94.5 -48t30.5 -83q0 -41 -22.5 -67t-56.5 -32q75 -38 75 -121q0 -75 -54.5 -110t-145.5 -35q-182 0 -203 122zM294 249q0 17 -15.5 27t-50.5 20q-25 -9 -25 -33q0 -17 14.5 -27t51.5 -21q25 9 25 34z" />
    <glyph glyph-name="dieresis" unicode="&#xa8;" horiz-adv-x="546" 
d="M80 596q0 39 22.5 60t56.5 21q37 0 59.5 -20.5t22.5 -60.5q0 -38 -22.5 -59t-59.5 -21q-34 0 -56.5 21t-22.5 59zM305 596q0 39 22.5 60t56.5 21q37 0 59.5 -20.5t22.5 -60.5q0 -38 -22.5 -59t-59.5 -21q-34 0 -56.5 21t-22.5 59z" />
    <glyph glyph-name="copyright" unicode="&#xa9;" horiz-adv-x="703" 
d="M425 255l103 -67q-30 -46 -71 -67.5t-108 -21.5q-85 0 -136.5 51.5t-51.5 144.5q0 95 52 146t148 51q120 0 166 -103l-108 -52q-8 28 -21 42t-40 14q-31 0 -51 -26t-20 -70q0 -45 18.5 -69.5t51.5 -24.5q47 0 68 52zM45 294q0 132 89 219.5t217 87.5t217.5 -87.5
t89.5 -219.5t-89.5 -219t-217.5 -87t-217 87t-89 219zM76 294q0 -120 80.5 -198.5t196.5 -78.5q115 0 195 78.5t80 198.5t-80 199t-195 79q-116 0 -196.5 -79t-80.5 -199z" />
    <glyph glyph-name="ordfeminine" unicode="&#xaa;" horiz-adv-x="401" 
d="M209 382v34q-63 0 -63 -42q0 -25 26 -25q15 0 26 8t11 25zM324 497v-112q0 -20 18 -20q15 0 24 5v-75q-24 -13 -67 -13q-35 0 -53.5 9t-31.5 33q-23 -45 -91 -45q-41 0 -64.5 21.5t-23.5 60.5q0 101 174 101v29q0 31 -26 31q-14 0 -21.5 -11.5t-7.5 -27.5l-109 19
q4 48 43.5 73.5t104.5 25.5q59 0 95 -25t36 -79z" />
    <glyph glyph-name="guillemotleft" unicode="&#xab;" horiz-adv-x="571" 
d="M399 237v-4q23 -6 51 -36l91 -100l-73 -72l-203 212l203 212l72 -73l-91 -100q-12 -13 -24.5 -23t-18.5 -13zM164 237v-4q23 -6 51 -36l91 -100l-73 -72l-203 212l203 212l72 -73l-91 -100q-12 -13 -24.5 -23t-19.5 -13z" />
    <glyph glyph-name="logicalnot" unicode="&#xac;" horiz-adv-x="508" 
d="M369 233h-319v82h408v-194h-89v112z" />
    <glyph glyph-name="uni00AD" unicode="&#xad;" horiz-adv-x="344" 
d="M60 197v125h224v-125h-224z" />
    <glyph glyph-name="registered" unicode="&#xae;" horiz-adv-x="703" 
d="M538 121h-135q-16 13 -23 40l-9 32q-5 19 -13 25t-26 6h-8v-103h-117v361h159q148 0 148 -119q0 -47 -27 -71t-66 -29q30 -4 45 -14.5t24 -31.5l21 -54q11 -25 27 -42zM324 387v-74h24q51 0 51 34q0 40 -45 40h-30zM45 294q0 132 89 219.5t217 87.5t217.5 -87.5
t89.5 -219.5t-89.5 -219t-217.5 -87t-217 87t-89 219zM76 294q0 -120 80.5 -198.5t196.5 -78.5q115 0 195 78.5t80 198.5t-80 199t-195 79q-116 0 -196.5 -79t-80.5 -199z" />
    <glyph glyph-name="macron" unicode="&#xaf;" horiz-adv-x="465" 
d="M385 533h-305v120h305v-120z" />
    <glyph glyph-name="degree" unicode="&#xb0;" horiz-adv-x="267" 
d="M20 487q0 48 31.5 81t81.5 33q49 0 81.5 -33.5t32.5 -80.5q0 -48 -32 -80.5t-82 -32.5t-81.5 32.5t-31.5 80.5zM95 487q0 -18 10.5 -29.5t27.5 -11.5q18 0 28.5 11.5t10.5 29.5t-10.5 30t-28.5 12q-17 0 -27.5 -12t-10.5 -30z" />
    <glyph glyph-name="plusminus" unicode="&#xb1;" horiz-adv-x="498" 
d="M45 366h161v120h82v-120h165v-82h-165v-134h-82v134h-161v82zM453 18h-408v82h408v-82z" />
    <glyph glyph-name="twosuperior" unicode="&#xb2;" horiz-adv-x="341" 
d="M314 320v-84h-283v68q95 68 128 100t33 63q0 37 -36 37q-18 0 -31.5 -14.5t-13.5 -44.5l-91 34q3 50 40 84t106 34q62 0 100 -30t38 -86q0 -57 -40 -96t-94 -61v-4h144z" />
    <glyph glyph-name="threesuperior" unicode="&#xb3;" horiz-adv-x="328" 
d="M203 415v-2q100 -7 100 -88q0 -47 -39.5 -71.5t-112.5 -24.5q-56 0 -94 21t-47 60l87 36q10 -40 56 -40q36 0 36 27q0 42 -84 44v60q79 2 79 45q0 30 -29 30q-18 0 -30 -9.5t-13 -27.5l-86 33q7 43 45 66t94 23q57 0 91 -24t34 -69q0 -72 -87 -89z" />
    <glyph glyph-name="acute" unicode="&#xb4;" horiz-adv-x="413" 
d="M216 525h-136l69 156h184z" />
    <glyph glyph-name="mu" unicode="&#xb5;" horiz-adv-x="548" 
d="M360 0l-18 87q-9 -51 -38 -75t-68 -24q-16 0 -28 7v-198h-148v665h148v-277q0 -78 57 -78q32 0 53.5 25t21.5 79v251h148v-462h-128z" />
    <glyph glyph-name="paragraph" unicode="&#xb6;" horiz-adv-x="573" 
d="M459 468v-475q0 -82 -47 -119t-124 -37q-64 0 -113 27l24 128q35 -29 77 -29t42 59v152h-49q-105 0 -167 51t-62 150q0 214 250 214h248v-121h-79z" />
    <glyph glyph-name="periodcentered" unicode="&#xb7;" horiz-adv-x="294" 
d="M55 264q0 40 26 67t64 27q41 0 67.5 -27t26.5 -67q0 -38 -27 -64t-67 -26q-37 0 -63.5 26t-26.5 64z" />
    <glyph glyph-name="periodcentered" unicode="&#x22c5;" horiz-adv-x="294" 
d="M55 264q0 40 26 67t64 27q41 0 67.5 -27t26.5 -67q0 -38 -27 -64t-67 -26q-37 0 -63.5 26t-26.5 64z" />
    <glyph glyph-name="cedilla" unicode="&#xb8;" horiz-adv-x="380" 
d="M300 -116q0 -46 -33.5 -70.5t-85.5 -24.5q-77 0 -110 36l26 67q31 -34 66 -34q28 0 28 24q0 31 -47 38l12 101h61l-5 -56q88 -5 88 -81z" />
    <glyph glyph-name="onesuperior" unicode="&#xb9;" horiz-adv-x="320" 
d="M300 236h-261v79h81v177l-90 -7v84l196 20v-274h74v-79z" />
    <glyph glyph-name="ordmasculine" unicode="&#xba;" horiz-adv-x="404" 
d="M202 279q-74 0 -118 42.5t-44 119.5q0 76 44 118t118 42t118 -42t44 -118q0 -77 -44 -119.5t-118 -42.5zM202 522q-46 0 -46 -83q0 -81 46 -81t46 81q0 83 -46 83z" />
    <glyph glyph-name="guillemotright" unicode="&#xbb;" horiz-adv-x="571" 
d="M172 233v4q-22 9 -50 39l-91 100l72 73l203 -212l-203 -212l-73 72l91 100q12 13 25 22t20 11zM407 233v4q-22 9 -50 39l-91 100l72 73l203 -212l-203 -212l-73 72l91 100q12 13 25 22t19 11z" />
    <glyph glyph-name="onequarter" unicode="&#xbc;" horiz-adv-x="872" 
d="M309 236h-261v79h81v177l-90 -7v84l196 20v-274h74v-79zM240 0l305 589h87l-308 -589h-84zM705 0v64h-173v72l177 217h104v-212h47v-77h-47v-64h-108zM707 139v58l4 72h-4q-8 -25 -26 -48l-29 -37q-9 -12 -21 -23.5t-19 -17.5l-7 -6v-4q23 6 56 6h46z" />
    <glyph glyph-name="onehalf" unicode="&#xbd;" horiz-adv-x="872" 
d="M309 236h-261v79h81v177l-90 -7v84l196 20v-274h74v-79zM240 0l305 589h87l-308 -589h-84zM836 84v-84h-283v68q95 68 128 100t33 63q0 37 -36 37q-18 0 -31.5 -14.5t-13.5 -44.5l-91 34q3 50 40 84t106 34q62 0 100 -30t38 -86q0 -57 -40 -96t-94 -61v-4h144z" />
    <glyph glyph-name="threequarters" unicode="&#xbe;" horiz-adv-x="872" 
d="M222 415v-2q100 -7 100 -88q0 -47 -39.5 -71.5t-112.5 -24.5q-56 0 -94 21t-47 60l87 36q10 -40 56 -40q36 0 36 27q0 42 -84 44v60q79 2 79 45q0 30 -29 30q-18 0 -30 -9.5t-13 -27.5l-86 33q7 43 45 66t94 23q57 0 91 -24t34 -69q0 -72 -87 -89zM240 0l305 589h87
l-308 -589h-84zM705 0v64h-173v72l177 217h104v-212h47v-77h-47v-64h-108zM707 139v58l4 72h-4q-8 -25 -26 -48l-29 -37q-9 -12 -21 -23.5t-19 -17.5l-7 -6v-4q23 6 56 6h46z" />
    <glyph glyph-name="questiondown" unicode="&#xbf;" horiz-adv-x="454" 
d="M314 82l140 -50q-19 -86 -74.5 -128.5t-156.5 -42.5q-96 0 -157 52t-61 135q0 47 16 81t44 51t58 24.5t64 7.5v54h128v-134h-53q-53 0 -76 -16t-23 -57q0 -31 19 -49.5t51 -18.5q41 0 60 23t21 68zM340 385q0 -37 -25.5 -60t-63.5 -23q-40 0 -65.5 22.5t-25.5 60.5
q0 37 25.5 59.5t65.5 22.5q38 0 63.5 -22.5t25.5 -59.5z" />
    <glyph glyph-name="Agrave" unicode="&#xc0;" horiz-adv-x="631" 
d="M460 0l-39 110h-217l-37 -110h-157l213 589h183l215 -589h-161zM262 281l-16 -46h131l-16 45q-16 44 -27.5 87t-15.5 64l-4 21h-4q-15 -75 -48 -171zM392 645h-136l-113 150h184z" />
    <glyph glyph-name="Aacute" unicode="&#xc1;" horiz-adv-x="631" 
d="M460 0l-39 110h-217l-37 -110h-157l213 589h183l215 -589h-161zM262 281l-16 -46h131l-16 45q-16 44 -27.5 87t-15.5 64l-4 21h-4q-15 -75 -48 -171zM373 645h-136l65 150h184z" />
    <glyph glyph-name="Acircumflex" unicode="&#xc2;" horiz-adv-x="631" 
d="M460 0l-39 110h-217l-37 -110h-157l213 589h183l215 -589h-161zM262 281l-16 -46h131l-16 45q-16 44 -27.5 87t-15.5 64l-4 21h-4q-15 -75 -48 -171zM266 795h95l138 -150h-134l-30 30q-8 8 -12.5 15t-5.5 10l-1 4h-5q-2 -12 -19 -29l-30 -30h-134z" />
    <glyph glyph-name="Atilde" unicode="&#xc3;" horiz-adv-x="631" 
d="M460 0l-39 110h-217l-37 -110h-157l213 589h183l215 -589h-161zM262 281l-16 -46h131l-16 45q-16 44 -27.5 87t-15.5 64l-4 21h-4q-15 -75 -48 -171zM391 647q-37 0 -75 22q-43 25 -57 25q-16 0 -25.5 -12.5t-5.5 -36.5h-81q-30 60 -0.5 113.5t92.5 53.5q31 0 64 -19
q50 -29 64 -29q34 0 26 45h84q30 -64 3.5 -113t-89.5 -49z" />
    <glyph glyph-name="Adieresis" unicode="&#xc4;" horiz-adv-x="631" 
d="M460 0l-39 110h-217l-37 -110h-157l213 589h183l215 -589h-161zM262 281l-16 -46h131l-16 45q-16 44 -27.5 87t-15.5 64l-4 21h-4q-15 -75 -48 -171zM119 726q0 39 22.5 60t56.5 21q37 0 59.5 -20.5t22.5 -60.5q0 -38 -22.5 -59t-59.5 -21q-34 0 -56.5 21t-22.5 59z
M344 726q0 39 22.5 60t56.5 21q37 0 59.5 -20.5t22.5 -60.5q0 -38 -22.5 -59t-59.5 -21q-34 0 -56.5 21t-22.5 59z" />
    <glyph glyph-name="Aring" unicode="&#xc5;" horiz-adv-x="631" 
d="M460 0l-39 110h-217l-37 -110h-157l213 589h183l215 -589h-161zM262 281l-16 -46h131l-16 45q-16 44 -27.5 87t-15.5 64l-4 21h-4q-15 -75 -48 -171zM312 628q-56 0 -87.5 33t-31.5 83q0 46 33 79t86 33t86 -33t33 -79q0 -50 -31.5 -83t-87.5 -33zM312 790
q-22 0 -34.5 -13t-12.5 -34q0 -19 12.5 -32.5t34.5 -13.5t34.5 13.5t12.5 32.5q0 21 -12.5 34t-34.5 13z" />
    <glyph glyph-name="AE" unicode="&#xc6;" horiz-adv-x="891" 
d="M841 0h-406v110h-200l-69 -110h-166l348 589h493v-130h-256v-98h225v-125h-225v-106h256v-130zM437 480l-137 -245h135v81q0 46 1.5 87t3.5 59l1 18h-4z" />
    <glyph glyph-name="Ccedilla" unicode="&#xc7;" horiz-adv-x="593" 
d="M441 -116q0 -46 -33.5 -70.5t-85.5 -24.5q-77 0 -110 36l26 67q31 -34 66 -34q28 0 28 24q0 31 -47 38l8 69q-115 7 -184 87.5t-69 219.5q0 146 76.5 225.5t215.5 79.5q177 0 246 -152l-146 -71q-13 45 -36.5 67.5t-67.5 22.5q-62 0 -98 -47t-36 -129t35 -126.5
t103 -44.5q78 0 110 81l131 -75q-38 -65 -88.5 -98t-129.5 -39l-2 -25q88 -5 88 -81z" />
    <glyph glyph-name="Egrave" unicode="&#xc8;" horiz-adv-x="531" 
d="M481 130v-130h-406v589h406v-130h-256v-98h225v-125h-225v-106h256zM355 645h-136l-113 150h184z" />
    <glyph glyph-name="Eacute" unicode="&#xc9;" horiz-adv-x="531" 
d="M481 130v-130h-406v589h406v-130h-256v-98h225v-125h-225v-106h256zM336 645h-136l65 150h184z" />
    <glyph glyph-name="Ecircumflex" unicode="&#xca;" horiz-adv-x="531" 
d="M481 130v-130h-406v589h406v-130h-256v-98h225v-125h-225v-106h256zM231 795h95l138 -150h-134l-30 30q-8 8 -12.5 15t-5.5 10l-1 4h-5q-2 -12 -19 -29l-30 -30h-134z" />
    <glyph glyph-name="Edieresis" unicode="&#xcb;" horiz-adv-x="531" 
d="M481 130v-130h-406v589h406v-130h-256v-98h225v-125h-225v-106h256zM82 726q0 39 22.5 60t56.5 21q37 0 59.5 -20.5t22.5 -60.5q0 -38 -22.5 -59t-59.5 -21q-34 0 -56.5 21t-22.5 59zM307 726q0 39 22.5 60t56.5 21q37 0 59.5 -20.5t22.5 -60.5q0 -38 -22.5 -59
t-59.5 -21q-34 0 -56.5 21t-22.5 59z" />
    <glyph glyph-name="Igrave" unicode="&#xcc;" horiz-adv-x="300" 
d="M75 589h150v-589h-150v589zM224 645h-136l-113 150h184z" />
    <glyph glyph-name="Iacute" unicode="&#xcd;" horiz-adv-x="300" 
d="M75 589h150v-589h-150v589zM211 645h-136l65 150h184z" />
    <glyph glyph-name="Icircumflex" unicode="&#xce;" horiz-adv-x="300" 
d="M75 589h150v-589h-150v589zM103 795h95l138 -150h-134l-30 30q-8 8 -12.5 15t-5.5 10l-1 4h-5q-2 -12 -19 -29l-30 -30h-134z" />
    <glyph glyph-name="Idieresis" unicode="&#xcf;" horiz-adv-x="300" 
d="M75 589h150v-589h-150v589zM-46 726q0 39 22.5 60t56.5 21q37 0 59.5 -20.5t22.5 -60.5q0 -38 -22.5 -59t-59.5 -21q-34 0 -56.5 21t-22.5 59zM179 726q0 39 22.5 60t56.5 21q37 0 59.5 -20.5t22.5 -60.5q0 -38 -22.5 -59t-59.5 -21q-34 0 -56.5 21t-22.5 59z" />
    <glyph glyph-name="Eth" unicode="&#xd0;" horiz-adv-x="631" 
d="M292 0h-217v238h-67v120h67v231h228q130 0 209 -70.5t79 -217.5q0 -156 -80.5 -228.5t-218.5 -72.5zM225 127h53q80 0 118.5 36.5t38.5 128.5q0 95 -37 132.5t-112 37.5h-61v-104h88v-120h-88v-111z" />
    <glyph glyph-name="Ntilde" unicode="&#xd1;" horiz-adv-x="684" 
d="M214 589l200 -267q14 -19 25 -36.5t15 -25.5l4 -7h4q-3 46 -3 121v215h150v-589h-134l-200 261q-17 22 -30 41.5t-17 28.5l-5 9h-4q6 -44 6 -131v-209h-150v589h139zM420 647q-37 0 -75 22q-43 25 -57 25q-16 0 -25.5 -12.5t-5.5 -36.5h-81q-30 60 -0.5 113.5t92.5 53.5
q31 0 64 -19q50 -29 64 -29q34 0 26 45h84q30 -64 3.5 -113t-89.5 -49z" />
    <glyph glyph-name="Ograve" unicode="&#xd2;" horiz-adv-x="648" 
d="M324 -12q-134 0 -209 79.5t-75 226.5t75 227t209 80t209 -80t75 -227t-75 -226.5t-209 -79.5zM324 467q-63 0 -95.5 -46t-32.5 -129t32 -128.5t96 -45.5t96 45.5t32 128.5t-32.5 129t-95.5 46zM401 645h-136l-113 150h184z" />
    <glyph glyph-name="Oacute" unicode="&#xd3;" horiz-adv-x="648" 
d="M324 -12q-134 0 -209 79.5t-75 226.5t75 227t209 80t209 -80t75 -227t-75 -226.5t-209 -79.5zM324 467q-63 0 -95.5 -46t-32.5 -129t32 -128.5t96 -45.5t96 45.5t32 128.5t-32.5 129t-95.5 46zM382 645h-136l65 150h184z" />
    <glyph glyph-name="Ocircumflex" unicode="&#xd4;" horiz-adv-x="648" 
d="M324 -12q-134 0 -209 79.5t-75 226.5t75 227t209 80t209 -80t75 -227t-75 -226.5t-209 -79.5zM324 467q-63 0 -95.5 -46t-32.5 -129t32 -128.5t96 -45.5t96 45.5t32 128.5t-32.5 129t-95.5 46zM277 795h95l138 -150h-134l-30 30q-8 8 -12.5 15t-5.5 10l-1 4h-5
q-2 -12 -19 -29l-30 -30h-134z" />
    <glyph glyph-name="Otilde" unicode="&#xd5;" horiz-adv-x="648" 
d="M324 -12q-134 0 -209 79.5t-75 226.5t75 227t209 80t209 -80t75 -227t-75 -226.5t-209 -79.5zM324 467q-63 0 -95.5 -46t-32.5 -129t32 -128.5t96 -45.5t96 45.5t32 128.5t-32.5 129t-95.5 46zM402 647q-37 0 -75 22q-43 25 -57 25q-16 0 -25.5 -12.5t-5.5 -36.5h-81
q-30 60 -0.5 113.5t92.5 53.5q31 0 64 -19q50 -29 64 -29q34 0 26 45h84q30 -64 3.5 -113t-89.5 -49z" />
    <glyph glyph-name="Odieresis" unicode="&#xd6;" horiz-adv-x="648" 
d="M324 -12q-134 0 -209 79.5t-75 226.5t75 227t209 80t209 -80t75 -227t-75 -226.5t-209 -79.5zM324 467q-63 0 -95.5 -46t-32.5 -129t32 -128.5t96 -45.5t96 45.5t32 128.5t-32.5 129t-95.5 46zM128 726q0 39 22.5 60t56.5 21q37 0 59.5 -20.5t22.5 -60.5q0 -38 -22.5 -59
t-59.5 -21q-34 0 -56.5 21t-22.5 59zM353 726q0 39 22.5 60t56.5 21q37 0 59.5 -20.5t22.5 -60.5q0 -38 -22.5 -59t-59.5 -21q-34 0 -56.5 21t-22.5 59z" />
    <glyph glyph-name="multiply" unicode="&#xd7;" horiz-adv-x="465" 
d="M45 123l126 126l-122 124l57 57l123 -122l129 129l59 -58l-130 -130l133 -133l-58 -57l-133 133l-126 -127z" />
    <glyph glyph-name="Oslash" unicode="&#xd8;" horiz-adv-x="648" 
d="M96 -12l-47 40l51 57q-60 78 -60 209q0 147 75 227t209 80q110 0 182 -55l45 51l49 -40l-50 -57q58 -80 58 -206q0 -147 -75 -226.5t-209 -79.5q-110 0 -181 53zM452 292q0 49 -12 85l-201 -227q32 -32 85 -32q64 0 96 45.5t32 128.5zM324 467q-63 0 -95.5 -46
t-32.5 -129q0 -52 11 -85l201 227q-33 33 -84 33z" />
    <glyph glyph-name="Ugrave" unicode="&#xd9;" horiz-adv-x="617" 
d="M407 589h150v-391q0 -210 -248 -210q-249 0 -249 210v391h150v-348q0 -65 19.5 -96.5t79.5 -31.5q59 0 78.5 32t19.5 98v346zM385 645h-136l-113 150h184z" />
    <glyph glyph-name="Uacute" unicode="&#xda;" horiz-adv-x="617" 
d="M407 589h150v-391q0 -210 -248 -210q-249 0 -249 210v391h150v-348q0 -65 19.5 -96.5t79.5 -31.5q59 0 78.5 32t19.5 98v346zM366 645h-136l65 150h184z" />
    <glyph glyph-name="Ucircumflex" unicode="&#xdb;" horiz-adv-x="617" 
d="M407 589h150v-391q0 -210 -248 -210q-249 0 -249 210v391h150v-348q0 -65 19.5 -96.5t79.5 -31.5q59 0 78.5 32t19.5 98v346zM261 795h95l138 -150h-134l-30 30q-8 8 -12.5 15t-5.5 10l-1 4h-5q-2 -12 -19 -29l-30 -30h-134z" />
    <glyph glyph-name="Udieresis" unicode="&#xdc;" horiz-adv-x="617" 
d="M407 589h150v-391q0 -210 -248 -210q-249 0 -249 210v391h150v-348q0 -65 19.5 -96.5t79.5 -31.5q59 0 78.5 32t19.5 98v346zM112 726q0 39 22.5 60t56.5 21q37 0 59.5 -20.5t22.5 -60.5q0 -38 -22.5 -59t-59.5 -21q-34 0 -56.5 21t-22.5 59zM337 726q0 39 22.5 60
t56.5 21q37 0 59.5 -20.5t22.5 -60.5q0 -38 -22.5 -59t-59.5 -21q-34 0 -56.5 21t-22.5 59z" />
    <glyph glyph-name="Yacute" unicode="&#xdd;" 
d="M181 589l60 -125q17 -36 28.5 -70t14.5 -50l3 -16h4q5 56 45 136l61 125h158l-191 -402v-187h-150v187l-204 402h171zM340 645h-136l65 150h184z" />
    <glyph glyph-name="Thorn" unicode="&#xde;" horiz-adv-x="532" 
d="M225 380v-149h65q39 0 56.5 16t17.5 54q0 43 -17 61t-56 18h-66zM225 0h-150v589h150v-83h71q113 0 164.5 -48.5t51.5 -151.5q0 -95 -53.5 -146.5t-148.5 -51.5h-85v-108z" />
    <glyph glyph-name="germandbls" unicode="&#xdf;" horiz-adv-x="595" 
d="M60 0v402q0 274 261 274q99 0 152.5 -46.5t53.5 -123.5q0 -118 -114 -136v-4q74 -7 113 -52.5t39 -126.5q0 -93 -52 -146t-146 -53q-88 0 -127 52l29 115q39 -49 89 -49q32 0 47 20.5t15 68.5q0 107 -110 107h-55v118h65q68 0 68 66q0 68 -80 68q-51 0 -75.5 -35
t-24.5 -110v-409h-148z" />
    <glyph glyph-name="agrave" unicode="&#xe0;" horiz-adv-x="508" 
d="M283 147v40q-110 4 -110 -56q0 -17 12 -28t32 -11q27 0 46.5 13t19.5 42zM430 317v-167q0 -42 33 -42q12 0 30 8v-106q-29 -19 -84 -19q-91 0 -115 72q-28 -75 -134 -75q-62 0 -98.5 34t-36.5 94q0 79 64.5 117t193.5 31v39q0 59 -44 59q-46 0 -49 -65l-149 28
q5 72 60 110t142 38q187 0 187 -156zM323 525h-136l-117 156h184z" />
    <glyph glyph-name="aacute" unicode="&#xe1;" horiz-adv-x="508" 
d="M283 147v40q-110 4 -110 -56q0 -17 12 -28t32 -11q27 0 46.5 13t19.5 42zM430 317v-167q0 -42 33 -42q12 0 30 8v-106q-29 -19 -84 -19q-91 0 -115 72q-28 -75 -134 -75q-62 0 -98.5 34t-36.5 94q0 79 64.5 117t193.5 31v39q0 59 -44 59q-46 0 -49 -65l-149 28
q5 72 60 110t142 38q187 0 187 -156zM304 525h-136l69 156h184z" />
    <glyph glyph-name="acircumflex" unicode="&#xe2;" horiz-adv-x="508" 
d="M283 147v40q-110 4 -110 -56q0 -17 12 -28t32 -11q27 0 46.5 13t19.5 42zM430 317v-167q0 -42 33 -42q12 0 30 8v-106q-29 -19 -84 -19q-91 0 -115 72q-28 -75 -134 -75q-62 0 -98.5 34t-36.5 94q0 79 64.5 117t193.5 31v39q0 59 -44 59q-46 0 -49 -65l-149 28
q5 72 60 110t142 38q187 0 187 -156zM192 685h95l138 -163h-134l-30 32q-8 9 -13 16.5t-6 11.5v3h-5q0 -11 -19 -31l-30 -32h-134z" />
    <glyph glyph-name="atilde" unicode="&#xe3;" horiz-adv-x="508" 
d="M283 147v40q-110 4 -110 -56q0 -17 12 -28t32 -11q27 0 46.5 13t19.5 42zM430 317v-167q0 -42 33 -42q12 0 30 8v-106q-29 -19 -84 -19q-91 0 -115 72q-28 -75 -134 -75q-62 0 -98.5 34t-36.5 94q0 79 64.5 117t193.5 31v39q0 59 -44 59q-46 0 -49 -65l-149 28
q5 72 60 110t142 38q187 0 187 -156zM317 519q-37 0 -75 22q-43 25 -57 25q-16 0 -25.5 -12.5t-5.5 -36.5h-81q-30 60 -0.5 113.5t92.5 53.5q31 0 64 -19q50 -29 64 -29q34 0 26 45h84q30 -64 3.5 -113t-89.5 -49z" />
    <glyph glyph-name="adieresis" unicode="&#xe4;" horiz-adv-x="508" 
d="M283 147v40q-110 4 -110 -56q0 -17 12 -28t32 -11q27 0 46.5 13t19.5 42zM430 317v-167q0 -42 33 -42q12 0 30 8v-106q-29 -19 -84 -19q-91 0 -115 72q-28 -75 -134 -75q-62 0 -98.5 34t-36.5 94q0 79 64.5 117t193.5 31v39q0 59 -44 59q-46 0 -49 -65l-149 28
q5 72 60 110t142 38q187 0 187 -156zM50 596q0 39 22.5 60t56.5 21q37 0 59.5 -20.5t22.5 -60.5q0 -38 -22.5 -59t-59.5 -21q-34 0 -56.5 21t-22.5 59zM275 596q0 39 22.5 60t56.5 21q37 0 59.5 -20.5t22.5 -60.5q0 -38 -22.5 -59t-59.5 -21q-34 0 -56.5 21t-22.5 59z" />
    <glyph glyph-name="aring" unicode="&#xe5;" horiz-adv-x="508" 
d="M283 147v40q-110 4 -110 -56q0 -17 12 -28t32 -11q27 0 46.5 13t19.5 42zM430 317v-167q0 -42 33 -42q12 0 30 8v-106q-29 -19 -84 -19q-91 0 -115 72q-28 -75 -134 -75q-62 0 -98.5 34t-36.5 94q0 79 64.5 117t193.5 31v39q0 59 -44 59q-46 0 -49 -65l-149 28
q5 72 60 110t142 38q187 0 187 -156zM241 502q-56 0 -87.5 33t-31.5 83q0 46 33 79t86 33t86 -33t33 -79q0 -50 -31.5 -83t-87.5 -33zM241 664q-22 0 -34.5 -13t-12.5 -34q0 -19 12.5 -32.5t34.5 -13.5t34.5 13.5t12.5 32.5q0 21 -12.5 34t-34.5 13z" />
    <glyph glyph-name="ae" unicode="&#xe6;" horiz-adv-x="742" 
d="M512 102q55 0 74 58l126 -45q-18 -66 -73 -96.5t-129 -30.5q-109 0 -170 70q-39 -70 -157 -70q-71 0 -114.5 35t-43.5 98q0 154 262 155q4 21 7 34q-3 52 -55 52q-46 0 -49 -65l-149 28q5 71 58.5 109.5t136.5 38.5q90 0 131 -43q57 43 144 43q97 0 148 -60t51 -155
q0 -28 -6 -60h-280q3 -96 88 -96zM428 276h140q1 5 1 14q0 31 -16.5 52.5t-46.5 21.5q-70 0 -78 -88zM217 92q61 0 78 47q-9 31 -10 59q-112 -1 -112 -67q0 -17 12 -28t32 -11z" />
    <glyph glyph-name="ccedilla" unicode="&#xe7;" horiz-adv-x="474" 
d="M376 -116q0 -46 -33.5 -70.5t-85.5 -24.5q-77 0 -110 36l26 67q31 -34 66 -34q28 0 28 24q0 31 -47 38l8 70q-92 8 -145 71t-53 168q0 114 62 179t167 65q84 0 136 -42t57 -112l-124 -37q-10 75 -69 75q-41 0 -63 -33t-22 -92q0 -63 22.5 -96.5t63.5 -33.5q53 0 67 68
l132 -43q-12 -61 -57 -96t-112 -41l-2 -25q88 -5 88 -81z" />
    <glyph glyph-name="egrave" unicode="&#xe8;" horiz-adv-x="491" 
d="M261 102q55 0 74 58l126 -45q-18 -66 -73 -96.5t-129 -30.5q-103 0 -166 63t-63 172q0 119 61 184.5t169 65.5q97 0 148 -56.5t51 -150.5q0 -28 -6 -60h-280q2 -49 24.5 -76.5t63.5 -27.5zM177 284h140q1 5 1 14q0 30 -16 48t-47 18q-33 0 -54 -22.5t-24 -57.5zM322 525
h-136l-117 156h184z" />
    <glyph glyph-name="eacute" unicode="&#xe9;" horiz-adv-x="491" 
d="M261 102q55 0 74 58l126 -45q-18 -66 -73 -96.5t-129 -30.5q-103 0 -166 63t-63 172q0 119 61 184.5t169 65.5q97 0 148 -56.5t51 -150.5q0 -28 -6 -60h-280q2 -49 24.5 -76.5t63.5 -27.5zM177 284h140q1 5 1 14q0 30 -16 48t-47 18q-33 0 -54 -22.5t-24 -57.5zM303 525
h-136l69 156h184z" />
    <glyph glyph-name="ecircumflex" unicode="&#xea;" horiz-adv-x="491" 
d="M261 102q55 0 74 58l126 -45q-18 -66 -73 -96.5t-129 -30.5q-103 0 -166 63t-63 172q0 119 61 184.5t169 65.5q97 0 148 -56.5t51 -150.5q0 -28 -6 -60h-280q2 -49 24.5 -76.5t63.5 -27.5zM177 284h140q1 5 1 14q0 30 -16 48t-47 18q-33 0 -54 -22.5t-24 -57.5zM206 685
h95l138 -163h-134l-30 32q-8 9 -13 16.5t-6 11.5v3h-5q0 -11 -19 -31l-30 -32h-134z" />
    <glyph glyph-name="edieresis" unicode="&#xeb;" horiz-adv-x="491" 
d="M261 102q55 0 74 58l126 -45q-18 -66 -73 -96.5t-129 -30.5q-103 0 -166 63t-63 172q0 119 61 184.5t169 65.5q97 0 148 -56.5t51 -150.5q0 -28 -6 -60h-280q2 -49 24.5 -76.5t63.5 -27.5zM177 284h140q1 5 1 14q0 30 -16 48t-47 18q-33 0 -54 -22.5t-24 -57.5zM63 596
q0 39 22.5 60t56.5 21q37 0 59.5 -20.5t22.5 -60.5q0 -38 -22.5 -59t-59.5 -21q-34 0 -56.5 21t-22.5 59zM288 596q0 39 22.5 60t56.5 21q37 0 59.5 -20.5t22.5 -60.5q0 -38 -22.5 -59t-59.5 -21q-34 0 -56.5 21t-22.5 59z" />
    <glyph glyph-name="igrave" unicode="&#xec;" horiz-adv-x="268" 
d="M208 525h-136l-117 156h184zM60 462h148v-462h-148v462z" />
    <glyph glyph-name="iacute" unicode="&#xed;" horiz-adv-x="268" 
d="M196 525h-136l69 156h184zM60 462h148v-462h-148v462z" />
    <glyph glyph-name="icircumflex" unicode="&#xee;" horiz-adv-x="268" 
d="M60 462h148v-462h-148v462zM87 685h95l138 -163h-134l-30 32q-8 9 -13 16.5t-5 11.5l-1 3h-5q0 -11 -19 -31l-30 -32h-134z" />
    <glyph glyph-name="idieresis" unicode="&#xef;" horiz-adv-x="268" 
d="M-62 596q0 39 22.5 60t56.5 21q37 0 59.5 -20.5t22.5 -60.5q0 -38 -22.5 -59t-59.5 -21q-34 0 -56.5 21t-22.5 59zM163 596q0 39 22.5 60t56.5 21q37 0 59.5 -20.5t22.5 -60.5q0 -38 -22.5 -59t-59.5 -21q-34 0 -56.5 21t-22.5 59zM60 462h148v-462h-148v462z" />
    <glyph glyph-name="eth" unicode="&#xf0;" horiz-adv-x="522" 
d="M108 481l-12 53l116 24q-50 39 -106 71l151 52q70 -45 102 -77l108 27l18 -54l-86 -20q93 -124 93 -288q0 -140 -62 -208t-171 -68q-107 0 -168 59t-61 179q0 115 58.5 173t133.5 58q44 0 71 -15t49 -45h4q-17 38 -35.5 62.5t-49.5 50.5zM344 225q0 126 -84 126
q-82 0 -82 -126q0 -119 83 -119t83 119z" />
    <glyph glyph-name="ntilde" unicode="&#xf1;" horiz-adv-x="543" 
d="M188 462l18 -89q36 100 148 100q57 0 95.5 -36.5t38.5 -110.5v-326h-148v268q0 40 -12 60.5t-44 20.5q-33 0 -54.5 -23t-21.5 -76v-250h-148v462h128zM352 519q-37 0 -75 22q-43 25 -57 25q-16 0 -25.5 -12.5t-5.5 -36.5h-81q-30 60 -0.5 113.5t92.5 53.5q31 0 64 -19
q50 -29 64 -29q34 0 26 45h84q30 -64 3.5 -113t-89.5 -49z" />
    <glyph glyph-name="ograve" unicode="&#xf2;" horiz-adv-x="516" 
d="M258 -12q-104 0 -166 64.5t-62 179.5q0 116 61.5 178.5t166.5 62.5t166.5 -62.5t61.5 -178.5q0 -115 -62 -179.5t-166 -64.5zM258 355q-82 0 -82 -124q0 -66 20 -97t62 -31t62 31t20 97q0 124 -82 124zM335 525h-136l-117 156h184z" />
    <glyph glyph-name="oacute" unicode="&#xf3;" horiz-adv-x="516" 
d="M258 -12q-104 0 -166 64.5t-62 179.5q0 116 61.5 178.5t166.5 62.5t166.5 -62.5t61.5 -178.5q0 -115 -62 -179.5t-166 -64.5zM258 355q-82 0 -82 -124q0 -66 20 -97t62 -31t62 31t20 97q0 124 -82 124zM316 525h-136l69 156h184z" />
    <glyph glyph-name="ocircumflex" unicode="&#xf4;" horiz-adv-x="516" 
d="M258 -12q-104 0 -166 64.5t-62 179.5q0 116 61.5 178.5t166.5 62.5t166.5 -62.5t61.5 -178.5q0 -115 -62 -179.5t-166 -64.5zM258 355q-82 0 -82 -124q0 -66 20 -97t62 -31t62 31t20 97q0 124 -82 124zM211 685h95l138 -163h-134l-30 32q-8 9 -13 16.5t-5 11.5l-1 3h-5
q0 -11 -19 -31l-30 -32h-134z" />
    <glyph glyph-name="otilde" unicode="&#xf5;" horiz-adv-x="516" 
d="M258 -12q-104 0 -166 64.5t-62 179.5q0 116 61.5 178.5t166.5 62.5t166.5 -62.5t61.5 -178.5q0 -115 -62 -179.5t-166 -64.5zM258 355q-82 0 -82 -124q0 -66 20 -97t62 -31t62 31t20 97q0 124 -82 124zM337 519q-37 0 -75 22q-43 25 -57 25q-16 0 -25.5 -12.5t-5.5 -36.5
h-81q-30 60 -0.5 113.5t92.5 53.5q31 0 64 -19q50 -29 64 -29q34 0 26 45h84q30 -64 3.5 -113t-89.5 -49z" />
    <glyph glyph-name="odieresis" unicode="&#xf6;" horiz-adv-x="516" 
d="M258 -12q-104 0 -166 64.5t-62 179.5q0 116 61.5 178.5t166.5 62.5t166.5 -62.5t61.5 -178.5q0 -115 -62 -179.5t-166 -64.5zM258 355q-82 0 -82 -124q0 -66 20 -97t62 -31t62 31t20 97q0 124 -82 124zM62 596q0 39 22.5 60t56.5 21q37 0 59.5 -20.5t22.5 -60.5
q0 -38 -22.5 -59t-59.5 -21q-34 0 -56.5 21t-22.5 59zM287 596q0 39 22.5 60t56.5 21q37 0 59.5 -20.5t22.5 -60.5q0 -38 -22.5 -59t-59.5 -21q-34 0 -56.5 21t-22.5 59z" />
    <glyph glyph-name="divide" unicode="&#xf7;" horiz-adv-x="498" 
d="M453 207h-408v82h408v-82zM185 89q0 25 17 42.5t42 17.5t42.5 -17.5t17.5 -42.5q0 -24 -17.5 -41t-42.5 -17t-42 17t-17 41zM185 401q0 26 17 43.5t42 17.5t42.5 -18t17.5 -43q0 -24 -17.5 -41t-42.5 -17t-42 17t-17 41z" />
    <glyph glyph-name="oslash" unicode="&#xf8;" horiz-adv-x="516" 
d="M74 -15l-44 42l44 47q-44 63 -44 158q0 116 61.5 178.5t166.5 62.5q87 0 145 -44l42 45l47 -41l-47 -50q41 -60 41 -151q0 -115 -62 -179.5t-166 -64.5q-85 0 -142 42zM258 355q-82 0 -82 -124q0 -31 2 -44l135 145q-20 23 -55 23zM340 231q0 15 -2 37l-135 -144
q20 -21 55 -21q42 0 62 31t20 97z" />
    <glyph glyph-name="ugrave" unicode="&#xf9;" horiz-adv-x="538" 
d="M350 0l-18 87q-22 -99 -143 -99q-65 0 -102 36t-37 112v326h148v-281q0 -81 57 -81q75 0 75 122v240h148v-462h-128zM341 525h-136l-117 156h184z" />
    <glyph glyph-name="uacute" unicode="&#xfa;" horiz-adv-x="538" 
d="M350 0l-18 87q-22 -99 -143 -99q-65 0 -102 36t-37 112v326h148v-281q0 -81 57 -81q75 0 75 122v240h148v-462h-128zM322 525h-136l69 156h184z" />
    <glyph glyph-name="ucircumflex" unicode="&#xfb;" horiz-adv-x="538" 
d="M350 0l-18 87q-22 -99 -143 -99q-65 0 -102 36t-37 112v326h148v-281q0 -81 57 -81q75 0 75 122v240h148v-462h-128zM217 685h95l138 -163h-134l-30 32q-8 9 -13 16.5t-5 11.5l-1 3h-5q0 -11 -19 -31l-30 -32h-134z" />
    <glyph glyph-name="udieresis" unicode="&#xfc;" horiz-adv-x="538" 
d="M350 0l-18 87q-22 -99 -143 -99q-65 0 -102 36t-37 112v326h148v-281q0 -81 57 -81q75 0 75 122v240h148v-462h-128zM68 596q0 39 22.5 60t56.5 21q37 0 59.5 -20.5t22.5 -60.5q0 -38 -22.5 -59t-59.5 -21q-34 0 -56.5 21t-22.5 59zM293 596q0 39 22.5 60t56.5 21
q37 0 59.5 -20.5t22.5 -60.5q0 -38 -22.5 -59t-59.5 -21q-34 0 -56.5 21t-22.5 59z" />
    <glyph glyph-name="yacute" unicode="&#xfd;" horiz-adv-x="498" 
d="M162 462l54 -196q11 -40 18.5 -77.5t9.5 -54.5l2 -18h4q5 61 32 150l60 196h156l-187 -504q-38 -102 -87 -134t-132 -32q-39 0 -87 11l23 132q26 -17 61 -17q60 0 82 56l-171 488h162zM307 525h-136l69 156h184z" />
    <glyph glyph-name="thorn" unicode="&#xfe;" 
d="M207 249v-56q0 -52 24.5 -75.5t56.5 -23.5q42 0 70 35t28 100q0 126 -90 126q-35 0 -62 -28.5t-27 -77.5zM208 61v-264h-148v871h148v-295q35 100 150 100q85 0 131 -60.5t46 -170.5q0 -117 -52.5 -185.5t-145.5 -68.5q-50 0 -84.5 21t-44.5 52z" />
    <glyph glyph-name="ydieresis" unicode="&#xff;" horiz-adv-x="498" 
d="M162 462l54 -196q11 -40 18.5 -77.5t9.5 -54.5l2 -18h4q5 61 32 150l60 196h156l-187 -504q-38 -102 -87 -134t-132 -32q-39 0 -87 11l23 132q26 -17 61 -17q60 0 82 56l-171 488h162zM53 596q0 39 22.5 60t56.5 21q37 0 59.5 -20.5t22.5 -60.5q0 -38 -22.5 -59
t-59.5 -21q-34 0 -56.5 21t-22.5 59zM278 596q0 39 22.5 60t56.5 21q37 0 59.5 -20.5t22.5 -60.5q0 -38 -22.5 -59t-59.5 -21q-34 0 -56.5 21t-22.5 59z" />
    <glyph glyph-name="Amacron" unicode="&#x100;" horiz-adv-x="631" 
d="M460 0l-39 110h-217l-37 -110h-157l213 589h183l215 -589h-161zM262 281l-16 -46h131l-16 45q-16 44 -27.5 87t-15.5 64l-4 21h-4q-15 -75 -48 -171zM470 661h-314v120h314v-120z" />
    <glyph glyph-name="amacron" unicode="&#x101;" horiz-adv-x="508" 
d="M283 147v40q-110 4 -110 -56q0 -17 12 -28t32 -11q27 0 46.5 13t19.5 42zM430 317v-167q0 -42 33 -42q12 0 30 8v-106q-29 -19 -84 -19q-91 0 -115 72q-28 -75 -134 -75q-62 0 -98.5 34t-36.5 94q0 79 64.5 117t193.5 31v39q0 59 -44 59q-46 0 -49 -65l-149 28
q5 72 60 110t142 38q187 0 187 -156zM396 533h-305v120h305v-120z" />
    <glyph glyph-name="Abreve" unicode="&#x102;" horiz-adv-x="631" 
d="M460 0l-39 110h-217l-37 -110h-157l213 589h183l215 -589h-161zM262 281l-16 -46h131l-16 45q-16 44 -27.5 87t-15.5 64l-4 21h-4q-15 -75 -48 -171zM312 640q-155 0 -155 154h109q0 -27 10 -39t36 -12t36 12t10 39h109q0 -154 -155 -154z" />
    <glyph glyph-name="abreve" unicode="&#x103;" horiz-adv-x="508" 
d="M283 147v40q-110 4 -110 -56q0 -17 12 -28t32 -11q27 0 46.5 13t19.5 42zM430 317v-167q0 -42 33 -42q12 0 30 8v-106q-29 -19 -84 -19q-91 0 -115 72q-28 -75 -134 -75q-62 0 -98.5 34t-36.5 94q0 79 64.5 117t193.5 31v39q0 59 -44 59q-46 0 -49 -65l-149 28
q5 72 60 110t142 38q187 0 187 -156zM244 518q-79 0 -117 45.5t-38 117.5h109q0 -30 9 -44t37 -14t37 14t9 44h109q0 -72 -38 -117.5t-117 -45.5z" />
    <glyph glyph-name="Aogonek" unicode="&#x104;" horiz-adv-x="631" 
d="M323 -96q0 57 36.5 90.5t85.5 46.5l-24 69h-217l-37 -110h-157l213 589h183l215 -589h-101q-36 -2 -57.5 -19t-21.5 -48q0 -23 13 -35.5t35 -12.5q35 0 64 25l29 -76q-45 -45 -127 -45q-55 0 -93.5 27.5t-38.5 87.5zM262 281l-16 -46h131l-16 45q-16 44 -27.5 87
t-15.5 64l-4 21h-4q-15 -75 -48 -171z" />
    <glyph glyph-name="aogonek" unicode="&#x105;" horiz-adv-x="508" 
d="M251 -96q0 40 21 69.5t52 44.5q-18 10 -30 45q-28 -75 -134 -75q-62 0 -98.5 34t-36.5 94q0 79 64.5 117t193.5 31v39q0 59 -44 59q-46 0 -49 -65l-149 28q5 72 60 110t142 38q187 0 187 -156v-167q0 -42 33 -42q12 0 30 8v-106q-5 -1 -24.5 -6t-28.5 -7.5t-25.5 -9
t-24.5 -13t-14.5 -17.5t-6.5 -24q0 -23 13 -35.5t35 -12.5q35 0 64 25l29 -76q-45 -45 -127 -45q-55 0 -93.5 27.5t-38.5 87.5zM283 147v40q-110 4 -110 -56q0 -17 12 -28t32 -11q27 0 46.5 13t19.5 42z" />
    <glyph glyph-name="Cacute" unicode="&#x106;" horiz-adv-x="593" 
d="M442 202l131 -75q-42 -72 -101 -105.5t-158 -33.5q-124 0 -199 81.5t-75 226.5q0 146 76.5 225.5t215.5 79.5q177 0 246 -152l-146 -71q-13 45 -36.5 67.5t-67.5 22.5q-62 0 -98 -47t-36 -129t35 -126.5t103 -44.5q78 0 110 81zM389 645h-136l65 150h184z" />
    <glyph glyph-name="cacute" unicode="&#x107;" horiz-adv-x="474" 
d="M327 170l132 -43q-13 -68 -67 -103.5t-133 -35.5q-105 0 -167 64t-62 177q0 114 62 179t167 65q84 0 136 -42t57 -112l-124 -37q-10 75 -69 75q-41 0 -63 -33t-22 -92q0 -63 22.5 -96.5t63.5 -33.5q53 0 67 68zM324 525h-136l69 156h184z" />
    <glyph glyph-name="Ccircumflex" unicode="&#x108;" horiz-adv-x="593" 
d="M442 202l131 -75q-42 -72 -101 -105.5t-158 -33.5q-124 0 -199 81.5t-75 226.5q0 146 76.5 225.5t215.5 79.5q177 0 246 -152l-146 -71q-13 45 -36.5 67.5t-67.5 22.5q-62 0 -98 -47t-36 -129t35 -126.5t103 -44.5q78 0 110 81zM280 795h95l138 -150h-134l-30 30
q-8 8 -12.5 15t-5.5 10l-1 4h-5q-2 -12 -19 -29l-30 -30h-134z" />
    <glyph glyph-name="ccircumflex" unicode="&#x109;" horiz-adv-x="474" 
d="M327 170l132 -43q-13 -68 -67 -103.5t-133 -35.5q-105 0 -167 64t-62 177q0 114 62 179t167 65q84 0 136 -42t57 -112l-124 -37q-10 75 -69 75q-41 0 -63 -33t-22 -92q0 -63 22.5 -96.5t63.5 -33.5q53 0 67 68zM209 685h95l138 -163h-134l-30 32q-8 9 -13 16.5t-5 11.5
l-1 3h-5q0 -11 -19 -31l-30 -32h-134z" />
    <glyph glyph-name="Cdotaccent" unicode="&#x10a;" horiz-adv-x="593" 
d="M442 202l131 -75q-42 -72 -101 -105.5t-158 -33.5q-124 0 -199 81.5t-75 226.5q0 146 76.5 225.5t215.5 79.5q177 0 246 -152l-146 -71q-13 45 -36.5 67.5t-67.5 22.5q-62 0 -98 -47t-36 -129t35 -126.5t103 -44.5q78 0 110 81zM230 727q0 40 24.5 61.5t63.5 21.5
q41 0 66 -21t25 -62q0 -39 -25.5 -60.5t-65.5 -21.5q-38 0 -63 21.5t-25 60.5z" />
    <glyph glyph-name="cdotaccent" unicode="&#x10b;" horiz-adv-x="474" 
d="M327 170l132 -43q-13 -68 -67 -103.5t-133 -35.5q-105 0 -167 64t-62 177q0 114 62 179t167 65q84 0 136 -42t57 -112l-124 -37q-10 75 -69 75q-41 0 -63 -33t-22 -92q0 -63 22.5 -96.5t63.5 -33.5q53 0 67 68zM167 595q0 40 25 61.5t63 21.5q41 0 66 -21t25 -62
q0 -39 -25 -60.5t-66 -21.5q-38 0 -63 21.5t-25 60.5z" />
    <glyph glyph-name="Ccaron" unicode="&#x10c;" horiz-adv-x="593" 
d="M442 202l131 -75q-42 -72 -101 -105.5t-158 -33.5q-124 0 -199 81.5t-75 226.5q0 146 76.5 225.5t215.5 79.5q177 0 246 -152l-146 -71q-13 45 -36.5 67.5t-67.5 22.5q-62 0 -98 -47t-36 -129t35 -126.5t103 -44.5q78 0 110 81zM364 645h-95l-138 150h134l30 -30
q8 -8 12.5 -15t5.5 -10l1 -4h5q2 12 19 29l30 30h134z" />
    <glyph glyph-name="ccaron" unicode="&#x10d;" horiz-adv-x="474" 
d="M327 170l132 -43q-13 -68 -67 -103.5t-133 -35.5q-105 0 -167 64t-62 177q0 114 62 179t167 65q84 0 136 -42t57 -112l-124 -37q-10 75 -69 75q-41 0 -63 -33t-22 -92q0 -63 22.5 -96.5t63.5 -33.5q53 0 67 68zM308 522h-95l-138 163h134l30 -32q8 -9 13 -16.5t6 -10.5
v-4h5q0 11 19 31l30 32h134z" />
    <glyph glyph-name="Dcaron" unicode="&#x10e;" horiz-adv-x="631" 
d="M225 127h53q80 0 118.5 36.5t38.5 128.5q0 95 -37 132.5t-112 37.5h-61v-335zM292 0h-217v589h228q130 0 209 -70.5t79 -217.5q0 -156 -80.5 -228.5t-218.5 -72.5zM343 645h-95l-138 150h134l30 -30q8 -8 12.5 -15t5.5 -10l1 -4h5q2 12 19 29l30 30h134z" />
    <glyph glyph-name="dcaron" unicode="&#x10f;" 
d="M724 698l-59 -179h-106l15 179h150zM358 195v80q0 45 -23.5 67t-59.5 22q-40 0 -68 -33t-28 -103q0 -60 25 -93.5t69 -33.5q35 0 60 25t25 69zM357 402v266h148v-668h-129l-18 80q-20 -92 -143 -92q-81 0 -133 61.5t-52 170.5q0 119 54 186t152 67q45 0 78 -19t43 -52z
" />
    <glyph glyph-name="Dcroat" unicode="&#x110;" horiz-adv-x="631" 
d="M292 0h-217v238h-67v120h67v231h228q130 0 209 -70.5t79 -217.5q0 -156 -80.5 -228.5t-218.5 -72.5zM225 127h53q80 0 118.5 36.5t38.5 128.5q0 95 -37 132.5t-112 37.5h-61v-104h88v-120h-88v-111z" />
    <glyph glyph-name="dcroat" unicode="&#x111;" 
d="M217 515v87h140v66h148v-66h71v-87h-71v-515h-129l-18 80q-20 -92 -143 -92q-81 0 -133 61.5t-52 170.5q0 119 54 186t152 67q45 0 78 -19t43 -52v113h-140zM358 195v80q0 45 -23.5 67t-59.5 22q-40 0 -68 -33t-28 -103q0 -60 25 -93.5t69 -33.5q35 0 60 25t25 69z" />
    <glyph glyph-name="Emacron" unicode="&#x112;" horiz-adv-x="531" 
d="M481 130v-130h-406v589h406v-130h-256v-98h225v-125h-225v-106h256zM435 661h-314v120h314v-120z" />
    <glyph glyph-name="emacron" unicode="&#x113;" horiz-adv-x="491" 
d="M261 102q55 0 74 58l126 -45q-18 -66 -73 -96.5t-129 -30.5q-103 0 -166 63t-63 172q0 119 61 184.5t169 65.5q97 0 148 -56.5t51 -150.5q0 -28 -6 -60h-280q2 -49 24.5 -76.5t63.5 -27.5zM177 284h140q1 5 1 14q0 30 -16 48t-47 18q-33 0 -54 -22.5t-24 -57.5zM401 533
h-305v120h305v-120z" />
    <glyph glyph-name="Ebreve" unicode="&#x114;" horiz-adv-x="531" 
d="M481 130v-130h-406v589h406v-130h-256v-98h225v-125h-225v-106h256zM268 640q-155 0 -155 154h109q0 -27 10 -39t36 -12t36 12t10 39h109q0 -154 -155 -154z" />
    <glyph glyph-name="ebreve" unicode="&#x115;" horiz-adv-x="491" 
d="M261 102q55 0 74 58l126 -45q-18 -66 -73 -96.5t-129 -30.5q-103 0 -166 63t-63 172q0 119 61 184.5t169 65.5q97 0 148 -56.5t51 -150.5q0 -28 -6 -60h-280q2 -49 24.5 -76.5t63.5 -27.5zM177 284h140q1 5 1 14q0 30 -16 48t-47 18q-33 0 -54 -22.5t-24 -57.5zM253 518
q-79 0 -117 45.5t-38 117.5h109q0 -30 9 -44t37 -14t37 14t9 44h109q0 -72 -38 -117.5t-117 -45.5z" />
    <glyph glyph-name="Edotaccent" unicode="&#x116;" horiz-adv-x="531" 
d="M481 130v-130h-406v589h406v-130h-256v-98h225v-125h-225v-106h256zM189 726q0 40 24.5 61.5t63.5 21.5q41 0 66 -21.5t25 -61.5q0 -39 -25.5 -60.5t-65.5 -21.5q-38 0 -63 21.5t-25 60.5z" />
    <glyph glyph-name="edotaccent" unicode="&#x117;" horiz-adv-x="491" 
d="M261 102q55 0 74 58l126 -45q-18 -66 -73 -96.5t-129 -30.5q-103 0 -166 63t-63 172q0 119 61 184.5t169 65.5q97 0 148 -56.5t51 -150.5q0 -28 -6 -60h-280q2 -49 24.5 -76.5t63.5 -27.5zM177 284h140q1 5 1 14q0 30 -16 48t-47 18q-33 0 -54 -22.5t-24 -57.5zM156 595
q0 40 25 61.5t63 21.5q41 0 66 -21t25 -62q0 -39 -25 -60.5t-66 -21.5q-38 0 -63 21.5t-25 60.5z" />
    <glyph glyph-name="Eogonek" unicode="&#x118;" horiz-adv-x="531" 
d="M481 130v-130h-41q-79 0 -79 -63q0 -25 13 -38.5t35 -13.5q35 0 64 25l29 -76q-45 -45 -127 -45q-55 0 -93.5 27.5t-38.5 87.5q0 63 60 96h-228v589h406v-130h-256v-98h225v-125h-225v-106h256z" />
    <glyph glyph-name="eogonek" unicode="&#x119;" horiz-adv-x="491" 
d="M177 -96q0 52 34 88q-83 14 -132 74.5t-49 156.5q0 119 61 184.5t169 65.5q97 0 148 -56.5t51 -150.5q0 -28 -6 -60h-280q2 -49 24.5 -76.5t63.5 -27.5q55 0 74 58l126 -45q-23 -81 -109 -112q-57 -20 -57 -65q0 -26 13 -39.5t35 -13.5q35 0 64 25l29 -76
q-45 -45 -127 -45q-55 0 -93.5 27.5t-38.5 87.5zM177 284h140q1 5 1 14q0 30 -16 48t-47 18q-33 0 -54 -22.5t-24 -57.5z" />
    <glyph glyph-name="Ecaron" unicode="&#x11a;" horiz-adv-x="531" 
d="M481 130v-130h-406v589h406v-130h-256v-98h225v-125h-225v-106h256zM316 645h-95l-138 150h134l30 -30q8 -8 12.5 -15t5.5 -10l1 -4h5q2 12 19 29l30 30h134z" />
    <glyph glyph-name="ecaron" unicode="&#x11b;" horiz-adv-x="491" 
d="M261 102q55 0 74 58l126 -45q-18 -66 -73 -96.5t-129 -30.5q-103 0 -166 63t-63 172q0 119 61 184.5t169 65.5q97 0 148 -56.5t51 -150.5q0 -28 -6 -60h-280q2 -49 24.5 -76.5t63.5 -27.5zM177 284h140q1 5 1 14q0 30 -16 48t-47 18q-33 0 -54 -22.5t-24 -57.5zM299 522
h-95l-138 163h134l30 -32q8 -9 13 -16.5t5 -10.5l1 -4h5q0 11 19 31l30 32h134z" />
    <glyph glyph-name="Gcircumflex" unicode="&#x11c;" horiz-adv-x="635" 
d="M320 318h260v-318h-88l-25 63q-46 -75 -162 -75q-120 0 -192.5 76.5t-72.5 227.5q0 148 76.5 228.5t215.5 80.5q90 0 153 -40t93 -112l-146 -71q-26 90 -104 90q-22 0 -42.5 -7.5t-42.5 -26t-35.5 -56t-13.5 -89.5q0 -80 32.5 -129.5t105.5 -49.5q55 0 80 22t25 56v12
h-117v118zM287 795h95l138 -150h-134l-30 30q-8 8 -12.5 15t-5.5 10l-1 4h-5q-2 -12 -19 -29l-30 -30h-134z" />
    <glyph glyph-name="gcircumflex" unicode="&#x11d;" horiz-adv-x="508" 
d="M243 473q77 0 131 -26q21 24 34 70l115 -38q-3 -31 -28.5 -54.5t-57.5 -33.5q20 -34 20 -81q0 -77 -61 -118t-158 -41q-38 0 -55 6q-18 -12 -18 -35q0 -24 32 -24h138q77 0 121 -39t44 -100q0 -48 -23 -83t-64 -53t-87 -26t-101 -8q-220 0 -220 114q0 80 123 89
q-35 2 -56.5 27t-21.5 58q0 30 20.5 57t59.5 38q-50 20 -74 52t-24 86q0 80 57 121.5t154 41.5zM140 -66q0 -47 103 -47q67 0 92.5 11t25.5 35q0 18 -11.5 24.5t-37.5 6.5h-119q-53 0 -53 -30zM183 310q0 -63 60 -63q62 0 62 63t-62 63q-60 0 -60 -63zM217 695h95l138 -163
h-134l-30 32q-8 9 -13 16.5t-5 11.5l-1 3h-5q0 -11 -19 -31l-30 -32h-134z" />
    <glyph glyph-name="Gbreve" unicode="&#x11e;" horiz-adv-x="635" 
d="M320 318h260v-318h-88l-25 63q-46 -75 -162 -75q-120 0 -192.5 76.5t-72.5 227.5q0 148 76.5 228.5t215.5 80.5q90 0 153 -40t93 -112l-146 -71q-26 90 -104 90q-22 0 -42.5 -7.5t-42.5 -26t-35.5 -56t-13.5 -89.5q0 -80 32.5 -129.5t105.5 -49.5q55 0 80 22t25 56v12
h-117v118zM334 640q-155 0 -155 154h109q0 -27 10 -39t36 -12t36 12t10 39h109q0 -154 -155 -154z" />
    <glyph glyph-name="gbreve" unicode="&#x11f;" horiz-adv-x="508" 
d="M243 473q77 0 131 -26q21 24 34 70l115 -38q-3 -31 -28.5 -54.5t-57.5 -33.5q20 -34 20 -81q0 -77 -61 -118t-158 -41q-38 0 -55 6q-18 -12 -18 -35q0 -24 32 -24h138q77 0 121 -39t44 -100q0 -48 -23 -83t-64 -53t-87 -26t-101 -8q-220 0 -220 114q0 80 123 89
q-35 2 -56.5 27t-21.5 58q0 30 20.5 57t59.5 38q-50 20 -74 52t-24 86q0 80 57 121.5t154 41.5zM140 -66q0 -47 103 -47q67 0 92.5 11t25.5 35q0 18 -11.5 24.5t-37.5 6.5h-119q-53 0 -53 -30zM183 310q0 -63 60 -63q62 0 62 63t-62 63q-60 0 -60 -63zM247 518
q-79 0 -117 45.5t-38 117.5h109q0 -30 9 -44t37 -14t37 14t9 44h109q0 -72 -38 -117.5t-117 -45.5z" />
    <glyph glyph-name="Gdotaccent" unicode="&#x120;" horiz-adv-x="635" 
d="M320 318h260v-318h-88l-25 63q-46 -75 -162 -75q-120 0 -192.5 76.5t-72.5 227.5q0 148 76.5 228.5t215.5 80.5q90 0 153 -40t93 -112l-146 -71q-26 90 -104 90q-22 0 -42.5 -7.5t-42.5 -26t-35.5 -56t-13.5 -89.5q0 -80 32.5 -129.5t105.5 -49.5q55 0 80 22t25 56v12
h-117v118zM245 728q0 40 24.5 61.5t63.5 21.5q41 0 66 -21.5t25 -61.5q0 -39 -25.5 -60.5t-65.5 -21.5q-38 0 -63 21.5t-25 60.5z" />
    <glyph glyph-name="gdotaccent" unicode="&#x121;" horiz-adv-x="508" 
d="M243 473q77 0 131 -26q21 24 34 70l115 -38q-3 -31 -28.5 -54.5t-57.5 -33.5q20 -34 20 -81q0 -77 -61 -118t-158 -41q-38 0 -55 6q-18 -12 -18 -35q0 -24 32 -24h138q77 0 121 -39t44 -100q0 -48 -23 -83t-64 -53t-87 -26t-101 -8q-220 0 -220 114q0 80 123 89
q-35 2 -56.5 27t-21.5 58q0 30 20.5 57t59.5 38q-50 20 -74 52t-24 86q0 80 57 121.5t154 41.5zM140 -66q0 -47 103 -47q67 0 92.5 11t25.5 35q0 18 -11.5 24.5t-37.5 6.5h-119q-53 0 -53 -30zM183 310q0 -63 60 -63q62 0 62 63t-62 63q-60 0 -60 -63zM154 597q0 40 25 61.5
t63 21.5q41 0 66 -21t25 -62q0 -39 -25 -60.5t-66 -21.5q-38 0 -63 21.5t-25 60.5z" />
    <glyph glyph-name="Gcommaaccent" unicode="&#x122;" horiz-adv-x="635" 
d="M320 318h260v-318h-88l-25 63q-46 -75 -162 -75q-120 0 -192.5 76.5t-72.5 227.5q0 148 76.5 228.5t215.5 80.5q90 0 153 -40t93 -112l-146 -71q-26 90 -104 90q-22 0 -42.5 -7.5t-42.5 -26t-35.5 -56t-13.5 -89.5q0 -80 32.5 -129.5t105.5 -49.5q55 0 80 22t25 56v12
h-117v118zM423 -140q0 -118 -151 -118v48q69 2 69 37q-31 -5 -53.5 10t-22.5 48q0 34 21 51.5t53 17.5q38 0 61 -26t23 -68z" />
    <glyph glyph-name="gcommaaccent" unicode="&#x123;" horiz-adv-x="508" 
d="M243 473q77 0 131 -26q21 24 34 70l115 -38q-3 -31 -28.5 -54.5t-57.5 -33.5q20 -34 20 -81q0 -77 -61 -118t-158 -41q-38 0 -55 6q-18 -12 -18 -35q0 -24 32 -24h138q77 0 121 -39t44 -100q0 -48 -23 -83t-64 -53t-87 -26t-101 -8q-220 0 -220 114q0 80 123 89
q-35 2 -56.5 27t-21.5 58q0 30 20.5 57t59.5 38q-50 20 -74 52t-24 86q0 80 57 121.5t154 41.5zM140 -66q0 -47 103 -47q67 0 92.5 11t25.5 35q0 18 -11.5 24.5t-37.5 6.5h-119q-53 0 -53 -30zM183 310q0 -63 60 -63q62 0 62 63t-62 63q-60 0 -60 -63zM170 612
q0 118 151 118v-48q-69 -2 -69 -37q31 5 53.5 -10t22.5 -48q0 -34 -21 -51.5t-53 -17.5q-38 0 -61 26t-23 68z" />
    <glyph glyph-name="Hcircumflex" unicode="&#x124;" horiz-adv-x="659" 
d="M225 0h-150v589h150v-225h209v225h150v-589h-150v234h-209v-234zM282 795h95l138 -150h-134l-30 30q-8 8 -12.5 15t-5.5 10l-1 4h-5q-2 -12 -19 -29l-30 -30h-134z" />
    <glyph glyph-name="hcircumflex" unicode="&#x125;" horiz-adv-x="543" 
d="M208 668v-294q36 99 146 99q57 0 95.5 -36.5t38.5 -110.5v-326h-148v268q0 40 -12 60.5t-44 20.5q-76 0 -76 -98v-251h-148v668h148zM93 863h95l138 -150h-134l-30 30q-8 8 -12.5 15t-5.5 10l-1 4h-5q-2 -12 -19 -29l-30 -30h-134z" />
    <glyph glyph-name="Hbar" unicode="&#x126;" horiz-adv-x="668" 
d="M5 410v113h75v66h150v-66h209v66h150v-66h74v-113h-74v-410h-150v224h-209v-224h-150v410h-75zM230 343h209v67h-209v-67z" />
    <glyph glyph-name="hbar" unicode="&#x127;" horiz-adv-x="543" 
d="M208 668v-66h138v-87h-138v-141q36 99 146 99q57 0 95.5 -36.5t38.5 -110.5v-326h-148v268q0 40 -12 60.5t-44 20.5q-76 0 -76 -98v-251h-148v515h-73v87h73v66h148z" />
    <glyph glyph-name="Itilde" unicode="&#x128;" horiz-adv-x="300" 
d="M75 589h150v-589h-150v589zM229 647q-37 0 -75 22q-43 25 -57 25q-16 0 -25.5 -12.5t-5.5 -36.5h-81q-30 60 -0.5 113.5t92.5 53.5q31 0 64 -19q50 -29 64 -29q34 0 26 45h84q30 -64 3.5 -113t-89.5 -49z" />
    <glyph glyph-name="itilde" unicode="&#x129;" horiz-adv-x="268" 
d="M213 519q-37 0 -75 22q-43 25 -57 25q-16 0 -25.5 -12.5t-5.5 -36.5h-81q-30 60 -0.5 113.5t92.5 53.5q31 0 64 -19q50 -29 64 -29q34 0 26 45h84q30 -64 3.5 -113t-89.5 -49zM60 462h148v-462h-148v462z" />
    <glyph glyph-name="Imacron" unicode="&#x12a;" horiz-adv-x="300" 
d="M75 589h150v-589h-150v589zM307 661h-314v120h314v-120z" />
    <glyph glyph-name="imacron" unicode="&#x12b;" horiz-adv-x="268" 
d="M269 533h-270v120h270v-120zM60 462h148v-462h-148v462z" />
    <glyph glyph-name="Ibreve" unicode="&#x12c;" horiz-adv-x="300" 
d="M75 589h150v-589h-150v589zM150 640q-155 0 -155 154h109q0 -27 10 -39t36 -12t36 12t10 39h109q0 -154 -155 -154z" />
    <glyph glyph-name="Iogonek" unicode="&#x12e;" horiz-adv-x="300" 
d="M20 -96q0 69 55 106v579h150v-589q-40 0 -63.5 -17.5t-23.5 -49.5q0 -23 13 -35.5t35 -12.5q35 0 64 25l29 -76q-45 -45 -127 -45q-55 0 -93.5 27.5t-38.5 87.5z" />
    <glyph glyph-name="iogonek" unicode="&#x12f;" horiz-adv-x="268" 
d="M3 -96q0 70 57 107v451h148v-462q-40 0 -63.5 -17.5t-23.5 -49.5q0 -23 13 -35.5t35 -12.5q35 0 64 25l29 -76q-45 -45 -127 -45q-55 0 -93.5 27.5t-38.5 87.5zM46 601q0 40 25 61.5t63 21.5q41 0 66 -21t25 -62q0 -39 -25.5 -60.5t-65.5 -21.5q-38 0 -63 21.5t-25 60.5z
" />
    <glyph glyph-name="Idotaccent" unicode="&#x130;" horiz-adv-x="300" 
d="M75 589h150v-589h-150v589zM61 728q0 40 24.5 61.5t63.5 21.5q41 0 66 -21.5t25 -61.5q0 -39 -25.5 -60.5t-65.5 -21.5q-38 0 -63 21.5t-25 60.5z" />
    <glyph glyph-name="dotlessi" unicode="&#x131;" horiz-adv-x="268" 
d="M60 462h148v-462h-148v462z" />
    <glyph glyph-name="IJ" unicode="&#x132;" horiz-adv-x="772" 
d="M75 589h150v-589h-150v589zM562 589h150v-418q0 -94 -58.5 -138.5t-154.5 -44.5q-149 0 -207 112l109 103q18 -46 40 -69t55 -23q36 0 51 20t15 65v393z" />
    <glyph glyph-name="ij" unicode="&#x133;" horiz-adv-x="535" 
d="M46 601q0 40 25 61.5t63 21.5q41 0 66 -21t25 -62q0 -39 -25.5 -60.5t-65.5 -21.5q-38 0 -63 21.5t-25 60.5zM60 462h148v-462h-148v462zM327 462h148v-453q0 -112 -76 -166t-201 -45v125q68 -11 98.5 12t30.5 103v424zM311 601q0 40 24.5 61.5t63.5 21.5q41 0 66 -21
t25 -62q0 -39 -25.5 -60.5t-65.5 -21.5q-38 0 -63 21.5t-25 60.5z" />
    <glyph glyph-name="Jcircumflex" unicode="&#x134;" horiz-adv-x="480" 
d="M270 589h150v-418q0 -94 -58.5 -138.5t-154.5 -44.5q-149 0 -207 112l109 103q18 -46 40 -69t55 -23q36 0 51 20t15 65v393zM293 795h95l138 -150h-134l-30 30q-8 8 -12.5 15t-5.5 10l-1 4h-5q-2 -12 -19 -29l-30 -30h-134z" />
    <glyph glyph-name="jcircumflex" unicode="&#x135;" horiz-adv-x="267" 
d="M60 462h147v-453q0 -112 -76 -166t-201 -45v125q68 -11 99 12.5t31 102.5v424zM83 685h95l138 -163h-134l-30 32q-8 9 -13 16.5t-5 11.5l-1 3h-5q0 -11 -19 -31l-30 -32h-134z" />
    <glyph glyph-name="Kcommaaccent" unicode="&#x136;" horiz-adv-x="596" 
d="M586 0h-179l-150 234h-32v-234h-150v589h150v-225h33l137 225h172l-180 -285zM383 -140q0 -118 -151 -118v48q69 2 69 37q-31 -5 -53.5 10t-22.5 48q0 34 21 51.5t53 17.5q38 0 61 -26t23 -68z" />
    <glyph glyph-name="kcommaaccent" unicode="&#x137;" horiz-adv-x="536" 
d="M359 247l167 -247h-171l-119 185h-28v-185h-148v668h148v-369h27l106 163h170zM352 -140q0 -118 -151 -118v48q69 2 69 37q-31 -5 -53.5 10t-22.5 48q0 34 21 51.5t53 17.5q38 0 61 -26t23 -68z" />
    <glyph glyph-name="kgreenlandic" unicode="&#x138;" horiz-adv-x="536" 
d="M359 247l167 -247h-171l-119 185h-28v-185h-148v462h147v-163h28l106 163h170z" />
    <glyph glyph-name="Lacute" unicode="&#x139;" horiz-adv-x="475" 
d="M75 589h150v-459h220v-130h-370v589zM210 645h-136l65 150h184z" />
    <glyph glyph-name="lacute" unicode="&#x13a;" horiz-adv-x="298" 
d="M278 128l-8 -124q-47 -14 -84 -14q-59 0 -97.5 30t-38.5 94v554h148v-508q0 -39 43 -39q20 0 37 7zM192 726h-136l65 150h184z" />
    <glyph glyph-name="Lcommaaccent" unicode="&#x13b;" horiz-adv-x="475" 
d="M75 589h150v-459h220v-130h-370v589zM349 -140q0 -118 -151 -118v48q69 2 69 37q-31 -5 -53.5 10t-22.5 48q0 34 21 51.5t53 17.5q38 0 61 -26t23 -68z" />
    <glyph glyph-name="lcommaaccent" unicode="&#x13c;" horiz-adv-x="298" 
d="M278 128l-8 -124q-47 -14 -84 -14q-59 0 -97.5 30t-38.5 94v554h148v-508q0 -39 43 -39q20 0 37 7zM249 -140q0 -118 -151 -118v48q69 2 69 37q-31 -5 -53.5 10t-22.5 48q0 34 21 51.5t53 17.5q38 0 61 -26t23 -68z" />
    <glyph glyph-name="Lcaron" unicode="&#x13d;" horiz-adv-x="475" 
d="M75 589h150v-459h220v-130h-370v589zM476 622l-59 -199h-106l15 199h150z" />
    <glyph glyph-name="lcaron" unicode="&#x13e;" horiz-adv-x="298" 
d="M418 698l-59 -179h-106l15 179h150zM278 128l-8 -124q-47 -14 -84 -14q-59 0 -97.5 30t-38.5 94v554h148v-508q0 -39 43 -39q20 0 37 7z" />
    <glyph glyph-name="Ldot" unicode="&#x13f;" horiz-adv-x="475" 
d="M75 589h150v-459h220v-130h-370v589zM269 346q0 40 26 67t64 27q41 0 67.5 -27t26.5 -67q0 -38 -27 -64t-67 -26q-37 0 -63.5 26t-26.5 64z" />
    <glyph glyph-name="ldot" unicode="&#x140;" horiz-adv-x="397" 
d="M278 128l-8 -124q-47 -14 -84 -14q-59 0 -97.5 30t-38.5 94v554h148v-508q0 -39 43 -39q20 0 37 7zM239 330q0 40 26 67t64 27q41 0 67.5 -27t26.5 -67q0 -38 -27 -64t-67 -26q-37 0 -63.5 26t-26.5 64z" />
    <glyph glyph-name="Lslash" unicode="&#x141;" horiz-adv-x="490" 
d="M30 211v94l60 21v263h150v-211l132 47v-95l-132 -46v-154h220v-130h-370v232z" />
    <glyph glyph-name="lslash" unicode="&#x142;" horiz-adv-x="319" 
d="M0 229v104l65 31v304h148v-232l86 42v-102l-86 -43v-173q0 -39 43 -39q20 0 37 7l-8 -124q-47 -14 -84 -14q-59 0 -97.5 30t-38.5 94v147z" />
    <glyph glyph-name="Nacute" unicode="&#x143;" horiz-adv-x="684" 
d="M214 589l200 -267q14 -19 25 -36.5t15 -25.5l4 -7h4q-3 46 -3 121v215h150v-589h-134l-200 261q-17 22 -30 41.5t-17 28.5l-5 9h-4q6 -44 6 -131v-209h-150v589h139zM400 645h-136l65 150h184z" />
    <glyph glyph-name="nacute" unicode="&#x144;" horiz-adv-x="543" 
d="M188 462l18 -89q36 100 148 100q57 0 95.5 -36.5t38.5 -110.5v-326h-148v268q0 40 -12 60.5t-44 20.5q-33 0 -54.5 -23t-21.5 -76v-250h-148v462h128zM332 525h-136l69 156h184z" />
    <glyph glyph-name="Ncommaaccent" unicode="&#x145;" horiz-adv-x="684" 
d="M214 589l200 -267q14 -19 25 -36.5t15 -25.5l4 -7h4q-3 46 -3 121v215h150v-589h-134l-200 261q-17 22 -30 41.5t-17 28.5l-5 9h-4q6 -44 6 -131v-209h-150v589h139zM431 -140q0 -118 -151 -118v48q69 2 69 37q-31 -5 -53.5 10t-22.5 48q0 34 21 51.5t53 17.5
q38 0 61 -26t23 -68z" />
    <glyph glyph-name="ncommaaccent" unicode="&#x146;" horiz-adv-x="543" 
d="M188 462l18 -89q36 100 148 100q57 0 95.5 -36.5t38.5 -110.5v-326h-148v268q0 40 -12 60.5t-44 20.5q-33 0 -54.5 -23t-21.5 -76v-250h-148v462h128zM354 -140q0 -118 -151 -118v48q69 2 69 37q-31 -5 -53.5 10t-22.5 48q0 34 21 51.5t53 17.5q38 0 61 -26t23 -68z" />
    <glyph glyph-name="Ncaron" unicode="&#x147;" horiz-adv-x="684" 
d="M214 589l200 -267q14 -19 25 -36.5t15 -25.5l4 -7h4q-3 46 -3 121v215h150v-589h-134l-200 261q-17 22 -30 41.5t-17 28.5l-5 9h-4q6 -44 6 -131v-209h-150v589h139zM390 645h-95l-138 150h134l30 -30q8 -8 12.5 -15t5.5 -10l1 -4h5q2 12 19 29l30 30h134z" />
    <glyph glyph-name="ncaron" unicode="&#x148;" horiz-adv-x="543" 
d="M188 462l18 -89q36 100 148 100q57 0 95.5 -36.5t38.5 -110.5v-326h-148v268q0 40 -12 60.5t-44 20.5q-33 0 -54.5 -23t-21.5 -76v-250h-148v462h128zM322 522h-95l-138 163h134l30 -32q8 -9 13 -16.5t6 -10.5v-4h5q0 11 19 31l30 32h134z" />
    <glyph glyph-name="Eng" unicode="&#x14a;" horiz-adv-x="684" 
d="M609 589v-617q0 -50 -17.5 -87t-48.5 -57t-67 -29.5t-78 -9.5q-128 0 -197 74l81 124q16 -35 46 -54t59 -19q39 0 55.5 19t16.5 64v24l-184 240q-17 22 -30 41.5t-17 28.5l-5 9h-4q6 -44 6 -131v-209h-150v589h139l200 -267q14 -19 25 -36.5t15 -25.5l4 -7h4
q-3 46 -3 121v215h150z" />
    <glyph glyph-name="eng" unicode="&#x14b;" horiz-adv-x="543" 
d="M208 0h-148v462h128l18 -89q36 100 148 100q57 0 95.5 -36.5t38.5 -110.5v-317q0 -112 -76 -166t-201 -45v125q68 -11 98.5 12t30.5 103v230q0 40 -12 60.5t-44 20.5q-33 0 -54.5 -23t-21.5 -76v-250z" />
    <glyph glyph-name="Omacron" unicode="&#x14c;" horiz-adv-x="648" 
d="M324 -12q-134 0 -209 79.5t-75 226.5t75 227t209 80t209 -80t75 -227t-75 -226.5t-209 -79.5zM324 467q-63 0 -95.5 -46t-32.5 -129t32 -128.5t96 -45.5t96 45.5t32 128.5t-32.5 129t-95.5 46zM481 661h-314v120h314v-120z" />
    <glyph glyph-name="omacron" unicode="&#x14d;" horiz-adv-x="516" 
d="M258 -12q-104 0 -166 64.5t-62 179.5q0 116 61.5 178.5t166.5 62.5t166.5 -62.5t61.5 -178.5q0 -115 -62 -179.5t-166 -64.5zM258 355q-82 0 -82 -124q0 -66 20 -97t62 -31t62 31t20 97q0 124 -82 124zM411 533h-305v120h305v-120z" />
    <glyph glyph-name="Obreve" unicode="&#x14e;" horiz-adv-x="648" 
d="M324 -12q-134 0 -209 79.5t-75 226.5t75 227t209 80t209 -80t75 -227t-75 -226.5t-209 -79.5zM324 467q-63 0 -95.5 -46t-32.5 -129t32 -128.5t96 -45.5t96 45.5t32 128.5t-32.5 129t-95.5 46zM324 640q-155 0 -155 154h109q0 -27 10 -39t36 -12t36 12t10 39h109
q0 -154 -155 -154z" />
    <glyph glyph-name="obreve" unicode="&#x14f;" horiz-adv-x="516" 
d="M258 -12q-104 0 -166 64.5t-62 179.5q0 116 61.5 178.5t166.5 62.5t166.5 -62.5t61.5 -178.5q0 -115 -62 -179.5t-166 -64.5zM258 355q-82 0 -82 -124q0 -66 20 -97t62 -31t62 31t20 97q0 124 -82 124zM258 518q-79 0 -117 45.5t-38 117.5h109q0 -30 9 -44t37 -14t37 14
t9 44h109q0 -72 -38 -117.5t-117 -45.5z" />
    <glyph glyph-name="Ohungarumlaut" unicode="&#x150;" horiz-adv-x="648" 
d="M324 -12q-134 0 -209 79.5t-75 226.5t75 227t209 80t209 -80t75 -227t-75 -226.5t-209 -79.5zM324 467q-63 0 -95.5 -46t-32.5 -129t32 -128.5t96 -45.5t96 45.5t32 128.5t-32.5 129t-95.5 46zM288 645h-104l49 150h152zM471 645h-115l69 150h163z" />
    <glyph glyph-name="ohungarumlaut" unicode="&#x151;" horiz-adv-x="516" 
d="M258 -12q-104 0 -166 64.5t-62 179.5q0 116 61.5 178.5t166.5 62.5t166.5 -62.5t61.5 -178.5q0 -115 -62 -179.5t-166 -64.5zM258 355q-82 0 -82 -124q0 -66 20 -97t62 -31t62 31t20 97q0 124 -82 124zM218 525h-104l49 156h152zM401 525h-115l69 156h163z" />
    <glyph glyph-name="OE" unicode="&#x152;" horiz-adv-x="880" 
d="M324 -12q-134 0 -209 79.5t-75 226.5t75 227t209 80q50 0 94 -12h412v-130h-255q21 -47 28 -98h196v-125h-194q-7 -57 -30 -106h255v-130h-412q-44 -12 -94 -12zM324 467q-63 0 -95.5 -46t-32.5 -129t32 -128.5t96 -45.5t96 45.5t32 128.5t-32.5 129t-95.5 46z" />
    <glyph glyph-name="oe" unicode="&#x153;" horiz-adv-x="802" 
d="M572 102q55 0 74 58l126 -45q-18 -66 -73 -96.5t-129 -30.5q-104 0 -158 65q-48 -65 -154 -65q-104 0 -166 64.5t-62 179.5q0 116 61.5 178.5t166.5 62.5q104 0 156 -72q49 72 157 72q97 0 148 -56.5t51 -150.5q0 -28 -6 -60h-280q2 -49 24.5 -76.5t63.5 -27.5zM258 355
q-82 0 -82 -124q0 -66 20 -97t62 -31t62 31t20 97q0 124 -82 124zM488 284h140q1 5 1 14q0 30 -16 48t-47 18q-33 0 -54 -22.5t-24 -57.5z" />
    <glyph glyph-name="Racute" unicode="&#x154;" horiz-adv-x="593" 
d="M568 0h-167q-22 16 -33 63l-21 83q-8 32 -22.5 41.5t-47.5 9.5h-52v-197h-150v589h241q105 0 162 -42.5t57 -141.5q0 -66 -33.5 -103.5t-93.5 -44.5v-3q41 -7 63.5 -25.5t32.5 -56.5l30 -108q12 -41 34 -64zM225 462v-140h80q77 0 77 69q0 71 -76 71h-81zM341 645h-136
l65 150h184z" />
    <glyph glyph-name="racute" unicode="&#x155;" horiz-adv-x="407" 
d="M397 472l-18 -163q-29 9 -56 9q-47 0 -81 -25t-34 -89v-204h-148v462h129l18 -128q17 69 59.5 106.5t130.5 31.5zM286 525h-136l69 156h184z" />
    <glyph glyph-name="Rcommaaccent" unicode="&#x156;" horiz-adv-x="593" 
d="M568 0h-167q-22 16 -33 63l-21 83q-8 32 -22.5 41.5t-47.5 9.5h-52v-197h-150v589h241q105 0 162 -42.5t57 -141.5q0 -66 -33.5 -103.5t-93.5 -44.5v-3q41 -7 63.5 -25.5t32.5 -56.5l30 -108q12 -41 34 -64zM225 462v-140h80q77 0 77 69q0 71 -76 71h-81zM372 -140
q0 -118 -151 -118v48q69 2 69 37q-31 -5 -53.5 10t-22.5 48q0 34 21 51.5t53 17.5q38 0 61 -26t23 -68z" />
    <glyph glyph-name="rcommaaccent" unicode="&#x157;" horiz-adv-x="407" 
d="M397 472l-18 -163q-29 9 -56 9q-47 0 -81 -25t-34 -89v-204h-148v462h129l18 -128q17 69 59.5 106.5t130.5 31.5zM211 -140q0 -118 -151 -118v48q69 2 69 37q-31 -5 -53.5 10t-22.5 48q0 34 21 51.5t53 17.5q38 0 61 -26t23 -68z" />
    <glyph glyph-name="Rcaron" unicode="&#x158;" horiz-adv-x="593" 
d="M568 0h-167q-22 16 -33 63l-21 83q-8 32 -22.5 41.5t-47.5 9.5h-52v-197h-150v589h241q105 0 162 -42.5t57 -141.5q0 -66 -33.5 -103.5t-93.5 -44.5v-3q41 -7 63.5 -25.5t32.5 -56.5l30 -108q12 -41 34 -64zM225 462v-140h80q77 0 77 69q0 71 -76 71h-81zM331 645h-95
l-138 150h134l30 -30q8 -8 12.5 -15t5.5 -10l1 -4h5q2 12 19 29l30 30h134z" />
    <glyph glyph-name="rcaron" unicode="&#x159;" horiz-adv-x="407" 
d="M397 472l-18 -163q-29 9 -56 9q-47 0 -81 -25t-34 -89v-204h-148v462h129l18 -128q17 69 59.5 106.5t130.5 31.5zM269 522h-95l-138 163h134l30 -32q8 -9 13 -16.5t5 -10.5l1 -4h5q0 11 19 31l30 32h134z" />
    <glyph glyph-name="Sacute" unicode="&#x15a;" horiz-adv-x="528" 
d="M20 129l136 65q8 -40 37.5 -65.5t68.5 -25.5q69 0 69 49q0 25 -18.5 39.5t-71.5 30.5q-110 34 -154 79.5t-44 119.5q0 95 61.5 138t152.5 43q213 0 231 -152l-150 -40q-4 34 -26 50.5t-52 16.5q-58 0 -58 -45q0 -25 20.5 -39.5t71.5 -28.5q106 -32 149.5 -74t43.5 -124
q0 -93 -65 -135.5t-172 -42.5q-91 0 -148.5 32.5t-81.5 108.5zM324 645h-136l65 150h184z" />
    <glyph glyph-name="sacute" unicode="&#x15b;" horiz-adv-x="453" 
d="M15 108l120 51q15 -67 86 -67q54 0 54 32q0 16 -12.5 25t-42.5 16l-68 16q-119 31 -119 139q0 43 16 74t44.5 47.5t61.5 24t72 7.5q179 0 188 -132l-138 -20q-4 24 -17.5 33.5t-39.5 9.5q-18 0 -30 -8t-12 -22q0 -27 39 -35l66 -13q140 -29 140 -152q0 -75 -55 -110.5
t-148 -35.5q-91 0 -141 28t-64 92zM293 525h-136l69 156h184z" />
    <glyph glyph-name="Scircumflex" unicode="&#x15c;" horiz-adv-x="528" 
d="M20 129l136 65q8 -40 37.5 -65.5t68.5 -25.5q69 0 69 49q0 25 -18.5 39.5t-71.5 30.5q-110 34 -154 79.5t-44 119.5q0 95 61.5 138t152.5 43q213 0 231 -152l-150 -40q-4 34 -26 50.5t-52 16.5q-58 0 -58 -45q0 -25 20.5 -39.5t71.5 -28.5q106 -32 149.5 -74t43.5 -124
q0 -93 -65 -135.5t-172 -42.5q-91 0 -148.5 32.5t-81.5 108.5zM219 795h95l138 -150h-134l-30 30q-8 8 -12.5 15t-5.5 10l-1 4h-5q-2 -12 -19 -29l-30 -30h-134z" />
    <glyph glyph-name="scircumflex" unicode="&#x15d;" horiz-adv-x="453" 
d="M15 108l120 51q15 -67 86 -67q54 0 54 32q0 16 -12.5 25t-42.5 16l-68 16q-119 31 -119 139q0 43 16 74t44.5 47.5t61.5 24t72 7.5q179 0 188 -132l-138 -20q-4 24 -17.5 33.5t-39.5 9.5q-18 0 -30 -8t-12 -22q0 -27 39 -35l66 -13q140 -29 140 -152q0 -75 -55 -110.5
t-148 -35.5q-91 0 -141 28t-64 92zM188 685h95l138 -163h-134l-30 32q-8 9 -13 16.5t-6 11.5v3h-5q0 -11 -19 -31l-30 -32h-134z" />
    <glyph glyph-name="Scedilla" unicode="&#x15e;" horiz-adv-x="528" 
d="M376 -116q0 -46 -33.5 -70.5t-85.5 -24.5q-77 0 -110 36l26 67q31 -34 66 -34q28 0 28 24q0 31 -47 38l8 69q-164 6 -208 140l136 65q8 -40 37.5 -65.5t68.5 -25.5q69 0 69 49q0 25 -18.5 39.5t-71.5 30.5q-110 34 -154 79.5t-44 119.5q0 95 61.5 138t152.5 43
q213 0 231 -152l-150 -40q-4 34 -26 50.5t-52 16.5q-58 0 -58 -45q0 -25 20.5 -39.5t71.5 -28.5q106 -32 149.5 -74t43.5 -124q0 -84 -53.5 -126.5t-143.5 -49.5l-2 -25q88 -5 88 -81z" />
    <glyph glyph-name="scedilla" unicode="&#x15f;" horiz-adv-x="453" 
d="M334 -116q0 -46 -33.5 -70.5t-85.5 -24.5q-77 0 -110 36l26 67q31 -34 66 -34q28 0 28 24q0 31 -47 38l8 69q-74 5 -116.5 33t-54.5 86l120 51q15 -67 86 -67q54 0 54 32q0 16 -12.5 25t-42.5 16l-68 16q-119 31 -119 139q0 43 16 74t44.5 47.5t61.5 24t72 7.5
q179 0 188 -132l-138 -20q-4 24 -17.5 33.5t-39.5 9.5q-18 0 -30 -8t-12 -22q0 -27 39 -35l66 -13q140 -29 140 -152q0 -69 -47 -104.5t-128 -40.5l-2 -24q88 -5 88 -81z" />
    <glyph glyph-name="Scaron" unicode="&#x160;" horiz-adv-x="528" 
d="M20 129l136 65q8 -40 37.5 -65.5t68.5 -25.5q69 0 69 49q0 25 -18.5 39.5t-71.5 30.5q-110 34 -154 79.5t-44 119.5q0 95 61.5 138t152.5 43q213 0 231 -152l-150 -40q-4 34 -26 50.5t-52 16.5q-58 0 -58 -45q0 -25 20.5 -39.5t71.5 -28.5q106 -32 149.5 -74t43.5 -124
q0 -93 -65 -135.5t-172 -42.5q-91 0 -148.5 32.5t-81.5 108.5zM314 645h-95l-138 150h134l30 -30q8 -8 12.5 -15t5.5 -10l1 -4h5q2 12 19 29l30 30h134z" />
    <glyph glyph-name="scaron" unicode="&#x161;" horiz-adv-x="453" 
d="M15 108l120 51q15 -67 86 -67q54 0 54 32q0 16 -12.5 25t-42.5 16l-68 16q-119 31 -119 139q0 43 16 74t44.5 47.5t61.5 24t72 7.5q179 0 188 -132l-138 -20q-4 24 -17.5 33.5t-39.5 9.5q-18 0 -30 -8t-12 -22q0 -27 39 -35l66 -13q140 -29 140 -152q0 -75 -55 -110.5
t-148 -35.5q-91 0 -141 28t-64 92zM273 522h-95l-138 163h134l30 -32q8 -9 13 -16.5t5 -10.5l1 -4h5q0 11 19 31l30 32h134z" />
    <glyph glyph-name="Tcommaaccent" unicode="&#x162;" horiz-adv-x="486" 
d="M316 0h-149v459h-157v130h466v-130h-160v-459zM318 -140q0 -118 -151 -118v48q69 2 69 37q-31 -5 -53.5 10t-22.5 48q0 34 21 51.5t53 17.5q38 0 61 -26t23 -68z" />
    <glyph glyph-name="tcommaaccent" unicode="&#x163;" horiz-adv-x="402" 
d="M362 144l25 -125q-62 -31 -152 -31q-158 0 -158 155v205h-67v114h68v98l148 17v-115h137v-114h-138v-171q0 -35 13.5 -49t41.5 -14q39 0 82 30zM287 -140q0 -118 -151 -118v48q69 2 69 37q-31 -5 -53.5 10t-22.5 48q0 34 21 51.5t53 17.5q38 0 61 -26t23 -68z" />
    <glyph glyph-name="Tcaron" unicode="&#x164;" horiz-adv-x="486" 
d="M316 0h-149v459h-157v130h466v-130h-160v-459zM291 645h-95l-138 150h134l30 -30q8 -8 12.5 -15t5.5 -10l1 -4h5q2 12 19 29l30 30h134z" />
    <glyph glyph-name="tcaron" unicode="&#x165;" horiz-adv-x="402" 
d="M362 144l25 -125q-62 -31 -152 -31q-158 0 -158 155v205h-67v114h68v98l148 17v-115h137v-114h-138v-171q0 -35 13.5 -49t41.5 -14q39 0 82 30zM436 716l-59 -199h-106l15 199h150z" />
    <glyph glyph-name="Tbar" unicode="&#x166;" horiz-adv-x="486" 
d="M316 0h-149v211h-97v120h97v128h-157v130h466v-130h-160v-128h101v-120h-101v-211z" />
    <glyph glyph-name="tbar" unicode="&#x167;" horiz-adv-x="402" 
d="M10 192v107h67v49h-67v114h68v98l148 17v-115h137v-114h-138v-49h138v-107h-138v-15q0 -35 13.5 -49t41.5 -14q39 0 82 30l25 -125q-62 -31 -152 -31q-158 0 -158 155v49h-67z" />
    <glyph glyph-name="Utilde" unicode="&#x168;" horiz-adv-x="617" 
d="M407 589h150v-391q0 -210 -248 -210q-249 0 -249 210v391h150v-348q0 -65 19.5 -96.5t79.5 -31.5q59 0 78.5 32t19.5 98v346zM386 647q-37 0 -75 22q-43 25 -57 25q-16 0 -25.5 -12.5t-5.5 -36.5h-81q-30 60 -0.5 113.5t92.5 53.5q31 0 64 -19q50 -29 64 -29q34 0 26 45
h84q30 -64 3.5 -113t-89.5 -49z" />
    <glyph glyph-name="utilde" unicode="&#x169;" horiz-adv-x="538" 
d="M350 0l-18 87q-22 -99 -143 -99q-65 0 -102 36t-37 112v326h148v-281q0 -81 57 -81q75 0 75 122v240h148v-462h-128zM342 519q-37 0 -75 22q-43 25 -57 25q-16 0 -25.5 -12.5t-5.5 -36.5h-81q-30 60 -0.5 113.5t92.5 53.5q31 0 64 -19q50 -29 64 -29q34 0 26 45h84
q30 -64 3.5 -113t-89.5 -49z" />
    <glyph glyph-name="Umacron" unicode="&#x16a;" horiz-adv-x="617" 
d="M407 589h150v-391q0 -210 -248 -210q-249 0 -249 210v391h150v-348q0 -65 19.5 -96.5t79.5 -31.5q59 0 78.5 32t19.5 98v346zM465 661h-314v120h314v-120z" />
    <glyph glyph-name="umacron" unicode="&#x16b;" horiz-adv-x="538" 
d="M350 0l-18 87q-22 -99 -143 -99q-65 0 -102 36t-37 112v326h148v-281q0 -81 57 -81q75 0 75 122v240h148v-462h-128zM417 533h-305v120h305v-120z" />
    <glyph glyph-name="Ubreve" unicode="&#x16c;" horiz-adv-x="617" 
d="M407 589h150v-391q0 -210 -248 -210q-249 0 -249 210v391h150v-348q0 -65 19.5 -96.5t79.5 -31.5q59 0 78.5 32t19.5 98v346zM308 640q-155 0 -155 154h109q0 -27 10 -39t36 -12t36 12t10 39h109q0 -154 -155 -154z" />
    <glyph glyph-name="ubreve" unicode="&#x16d;" horiz-adv-x="538" 
d="M350 0l-18 87q-22 -99 -143 -99q-65 0 -102 36t-37 112v326h148v-281q0 -81 57 -81q75 0 75 122v240h148v-462h-128zM264 518q-79 0 -117 45.5t-38 117.5h109q0 -30 9 -44t37 -14t37 14t9 44h109q0 -72 -38 -117.5t-117 -45.5z" />
    <glyph glyph-name="Uring" unicode="&#x16e;" horiz-adv-x="617" 
d="M407 589h150v-391q0 -210 -248 -210q-249 0 -249 210v391h150v-348q0 -65 19.5 -96.5t79.5 -31.5q59 0 78.5 32t19.5 98v346zM314 628q-56 0 -87.5 33t-31.5 83q0 46 33 79t86 33t86 -33t33 -79q0 -50 -31.5 -83t-87.5 -33zM314 790q-22 0 -34.5 -13t-12.5 -34
q0 -19 12.5 -32.5t34.5 -13.5t34.5 13.5t12.5 32.5q0 21 -12.5 34t-34.5 13z" />
    <glyph glyph-name="uring" unicode="&#x16f;" horiz-adv-x="538" 
d="M350 0l-18 87q-22 -99 -143 -99q-65 0 -102 36t-37 112v326h148v-281q0 -81 57 -81q75 0 75 122v240h148v-462h-128zM264 502q-56 0 -87.5 33t-31.5 83q0 46 33 79t86 33t86 -33t33 -79q0 -50 -31.5 -83t-87.5 -33zM264 664q-22 0 -34.5 -13t-12.5 -34q0 -19 12.5 -32.5
t34.5 -13.5t34.5 13.5t12.5 32.5q0 21 -12.5 34t-34.5 13z" />
    <glyph glyph-name="Uhungarumlaut" unicode="&#x170;" horiz-adv-x="617" 
d="M407 589h150v-391q0 -210 -248 -210q-249 0 -249 210v391h150v-348q0 -65 19.5 -96.5t79.5 -31.5q59 0 78.5 32t19.5 98v346zM272 645h-104l49 150h152zM455 645h-115l69 150h163z" />
    <glyph glyph-name="uhungarumlaut" unicode="&#x171;" horiz-adv-x="538" 
d="M350 0l-18 87q-22 -99 -143 -99q-65 0 -102 36t-37 112v326h148v-281q0 -81 57 -81q75 0 75 122v240h148v-462h-128zM224 525h-104l49 156h152zM407 525h-115l69 156h163z" />
    <glyph glyph-name="Uogonek" unicode="&#x172;" horiz-adv-x="617" 
d="M202 -96q0 53 35 90q-177 28 -177 204v391h150v-348q0 -65 19.5 -96.5t79.5 -31.5q59 0 78.5 32t19.5 98v346h150v-391q0 -189 -201 -208q-36 -16 -36 -57q0 -23 13 -35.5t35 -12.5q35 0 64 25l29 -76q-45 -45 -127 -45q-55 0 -93.5 27.5t-38.5 87.5z" />
    <glyph glyph-name="uogonek" unicode="&#x173;" horiz-adv-x="538" 
d="M273 -96q0 75 73 112l-14 71q-22 -99 -143 -99q-65 0 -102 36t-37 112v326h148v-281q0 -81 57 -81q75 0 75 122v240h148v-462q-87 -3 -87 -67q0 -23 13 -35.5t35 -12.5q35 0 64 25l29 -76q-45 -45 -127 -45q-55 0 -93.5 27.5t-38.5 87.5z" />
    <glyph glyph-name="Wcircumflex" unicode="&#x174;" horiz-adv-x="889" 
d="M538 589l66 -309q8 -36 14.5 -78.5t9.5 -66.5l3 -24h4q8 89 23 168l58 310h153l-122 -589h-219l-60 272q-8 36 -13.5 78t-6.5 66l-2 24h-4q-5 -87 -24 -169l-64 -271h-212l-122 589h159l61 -309q7 -36 13.5 -78.5t8.5 -66.5l3 -24h4q9 88 25 168l63 310h181zM397 795h95
l138 -150h-134l-30 30q-8 8 -12.5 15t-5.5 10l-1 4h-5q-2 -12 -19 -29l-30 -30h-134z" />
    <glyph glyph-name="wcircumflex" unicode="&#x175;" horiz-adv-x="738" 
d="M437 462l45 -164q12 -41 19.5 -88t9.5 -73l2 -26h4q5 92 26 185l38 166h147l-119 -462h-176l-39 147q-8 31 -14 68.5t-8 59.5l-1 22h-4q-5 -79 -22 -151l-34 -146h-175l-126 462h150l43 -166q11 -41 18 -87.5t9 -72.5l2 -25h4q5 94 27 187l40 164h134zM322 685h95
l138 -163h-134l-30 32q-8 9 -13 16.5t-6 11.5v3h-5q0 -11 -19 -31l-30 -32h-134z" />
    <glyph glyph-name="Ycircumflex" unicode="&#x176;" 
d="M181 589l60 -125q17 -36 28.5 -70t14.5 -50l3 -16h4q5 56 45 136l61 125h158l-191 -402v-187h-150v187l-204 402h171zM235 795h95l138 -150h-134l-30 30q-8 8 -12.5 15t-5.5 10l-1 4h-5q-2 -12 -19 -29l-30 -30h-134z" />
    <glyph glyph-name="ycircumflex" unicode="&#x177;" horiz-adv-x="498" 
d="M162 462l54 -196q11 -40 18.5 -77.5t9.5 -54.5l2 -18h4q5 61 32 150l60 196h156l-187 -504q-38 -102 -87 -134t-132 -32q-39 0 -87 11l23 132q26 -17 61 -17q60 0 82 56l-171 488h162zM202 685h95l138 -163h-134l-30 32q-8 9 -13 16.5t-6 11.5v3h-5q0 -11 -19 -31
l-30 -32h-134z" />
    <glyph glyph-name="Ydieresis" unicode="&#x178;" 
d="M181 589l60 -125q17 -36 28.5 -70t14.5 -50l3 -16h4q5 56 45 136l61 125h158l-191 -402v-187h-150v187l-204 402h171zM86 726q0 39 22.5 60t56.5 21q37 0 59.5 -20.5t22.5 -60.5q0 -38 -22.5 -59t-59.5 -21q-34 0 -56.5 21t-22.5 59zM311 726q0 39 22.5 60t56.5 21
q37 0 59.5 -20.5t22.5 -60.5q0 -38 -22.5 -59t-59.5 -21q-34 0 -56.5 21t-22.5 59z" />
    <glyph glyph-name="Zacute" unicode="&#x179;" horiz-adv-x="526" 
d="M485 483l-211 -281q-16 -22 -32.5 -40t-24.5 -26l-8 -7v-4q29 5 78 5h209v-130h-466v112l203 275q16 22 32 40t25 25l8 8v4q-29 -5 -78 -5h-185v130h450v-106zM321 645h-136l65 150h184z" />
    <glyph glyph-name="zacute" unicode="&#x17a;" horiz-adv-x="438" 
d="M399 370l-139 -184q-16 -22 -32.5 -40t-24.5 -26l-8 -7v-4q29 5 78 5h135v-114h-378v91l132 183q16 22 32.5 40t24.5 26l8 7v4q-29 -5 -78 -5h-112v116h362v-92zM277 525h-136l69 156h184z" />
    <glyph glyph-name="Zdotaccent" unicode="&#x17b;" horiz-adv-x="526" 
d="M485 483l-211 -281q-16 -22 -32.5 -40t-24.5 -26l-8 -7v-4q29 5 78 5h209v-130h-466v112l203 275q16 22 32 40t25 25l8 8v4q-29 -5 -78 -5h-185v130h450v-106zM174 733q0 40 24.5 61.5t63.5 21.5q41 0 66 -21t25 -62q0 -39 -25.5 -60.5t-65.5 -21.5q-38 0 -63 21.5
t-25 60.5z" />
    <glyph glyph-name="zdotaccent" unicode="&#x17c;" horiz-adv-x="438" 
d="M399 370l-139 -184q-16 -22 -32.5 -40t-24.5 -26l-8 -7v-4q29 5 78 5h135v-114h-378v91l132 183q16 22 32.5 40t24.5 26l8 7v4q-29 -5 -78 -5h-112v116h362v-92zM130 595q0 40 25 61.5t63 21.5q41 0 66 -21t25 -62q0 -39 -25 -60.5t-66 -21.5q-38 0 -63 21.5t-25 60.5z
" />
    <glyph glyph-name="Zcaron" unicode="&#x17d;" horiz-adv-x="526" 
d="M485 483l-211 -281q-16 -22 -32.5 -40t-24.5 -26l-8 -7v-4q29 5 78 5h209v-130h-466v112l203 275q16 22 32 40t25 25l8 8v4q-29 -5 -78 -5h-185v130h450v-106zM311 645h-95l-138 150h134l30 -30q8 -8 12.5 -15t5.5 -10l1 -4h5q2 12 19 29l30 30h134z" />
    <glyph glyph-name="zcaron" unicode="&#x17e;" horiz-adv-x="438" 
d="M399 370l-139 -184q-16 -22 -32.5 -40t-24.5 -26l-8 -7v-4q29 5 78 5h135v-114h-378v91l132 183q16 22 32.5 40t24.5 26l8 7v4q-29 -5 -78 -5h-112v116h362v-92zM276 522h-95l-138 163h134l30 -32q8 -9 13 -16.5t6 -10.5v-4h5q0 11 19 31l30 32h134z" />
    <glyph glyph-name="Schwa" unicode="&#x18f;" horiz-adv-x="599" 
d="M40 438q21 85 87 124t155 39q126 0 201.5 -78t75.5 -219q0 -153 -73 -234.5t-205 -81.5q-118 0 -179.5 71t-61.5 189q0 58 12 92h351q-4 55 -36.5 90.5t-87.5 35.5q-36 0 -65 -20t-42 -58zM403 228h-210q-2 -6 -2 -19q2 -42 27 -68t69 -26q54 0 82.5 32t33.5 81z" />
    <glyph glyph-name="florin" unicode="&#x192;" horiz-adv-x="519" 
d="M30 -121l57 238h-67l19 110h69l18 88q18 91 81.5 134.5t145.5 43.5q101 0 156 -67l-88 -112q-11 22 -31.5 36t-42.5 14q-53 0 -70 -64l-18 -73h118l-19 -110h-120l-58 -238h-150z" />
    <glyph glyph-name="Khook" unicode="&#x198;" horiz-adv-x="596" 
d="M427 411l-44 -110l203 -301h-179l-150 225h-32v-225h-150v589h150v-229h33l41 112q47 129 158 129q92 0 135 -83l-82 -103q-17 30 -41 30q-28 0 -42 -34z" />
    <glyph glyph-name="khook" unicode="&#x199;" horiz-adv-x="536" 
d="M208 185v-185h-148v497q0 65 29 107t75.5 57t100 13t107.5 -20l-21 -134q-35 24 -66.5 30t-54.5 -15.5t-23 -72.5v-163h28l106 163h170l-152 -215l167 -247h-171l-119 185h-28z" />
    <glyph glyph-name="Ezh" unicode="&#x1b7;" horiz-adv-x="515" 
d="M153 274l76 113q15 22 31.5 40.5t25.5 25.5l8 7v4q-29 -5 -78 -5h-173v130h430v-106l-172 -225v-3q96 -7 142.5 -67.5t46.5 -147.5q0 -101 -63 -159.5t-178 -58.5q-108 0 -175 45.5t-84 132.5l126 69q9 -64 42.5 -98t86.5 -34q99 0 99 98q0 58 -45.5 96.5t-145.5 41.5
v101z" />
    <glyph glyph-name="Acaron" unicode="&#x1cd;" horiz-adv-x="631" 
d="M460 0l-39 110h-217l-37 -110h-157l213 589h183l215 -589h-161zM262 281l-16 -46h131l-16 45q-16 44 -27.5 87t-15.5 64l-4 21h-4q-15 -75 -48 -171zM360 645h-95l-138 150h134l30 -30q8 -8 12.5 -15t5.5 -10l1 -4h5q2 12 19 29l30 30h134z" />
    <glyph glyph-name="acaron" unicode="&#x1ce;" horiz-adv-x="508" 
d="M283 147v40q-110 4 -110 -56q0 -17 12 -28t32 -11q27 0 46.5 13t19.5 42zM430 317v-167q0 -42 33 -42q12 0 30 8v-106q-29 -19 -84 -19q-91 0 -115 72q-28 -75 -134 -75q-62 0 -98.5 34t-36.5 94q0 79 64.5 117t193.5 31v39q0 59 -44 59q-46 0 -49 -65l-149 28
q5 72 60 110t142 38q187 0 187 -156zM294 522h-95l-138 163h134l30 -32q8 -9 13 -16.5t6 -10.5v-4h5q0 11 19 31l30 32h134z" />
    <glyph glyph-name="Icaron" unicode="&#x1cf;" horiz-adv-x="300" 
d="M75 589h150v-589h-150v589zM198 645h-95l-138 150h134l30 -30q8 -8 12.5 -15t5.5 -10l1 -4h5q2 12 19 29l30 30h134z" />
    <glyph glyph-name="icaron" unicode="&#x1d0;" horiz-adv-x="268" 
d="M182 522h-95l-138 163h134l30 -32q8 -9 13 -16.5t6 -10.5v-4h5q0 11 19 31l30 32h134zM60 462h148v-462h-148v462z" />
    <glyph glyph-name="Ocaron" unicode="&#x1d1;" horiz-adv-x="648" 
d="M324 -12q-134 0 -209 79.5t-75 226.5t75 227t209 80t209 -80t75 -227t-75 -226.5t-209 -79.5zM324 467q-63 0 -95.5 -46t-32.5 -129t32 -128.5t96 -45.5t96 45.5t32 128.5t-32.5 129t-95.5 46zM372 645h-95l-138 150h134l30 -30q8 -8 12.5 -15t5.5 -10l1 -4h5q2 12 19 29
l30 30h134z" />
    <glyph glyph-name="ocaron" unicode="&#x1d2;" horiz-adv-x="516" 
d="M258 -12q-104 0 -166 64.5t-62 179.5q0 116 61.5 178.5t166.5 62.5t166.5 -62.5t61.5 -178.5q0 -115 -62 -179.5t-166 -64.5zM258 355q-82 0 -82 -124q0 -66 20 -97t62 -31t62 31t20 97q0 124 -82 124zM306 522h-95l-138 163h134l30 -32q8 -9 13 -16.5t6 -10.5v-4h5
q0 11 19 31l30 32h134z" />
    <glyph glyph-name="Ucaron" unicode="&#x1d3;" horiz-adv-x="617" 
d="M407 589h150v-391q0 -210 -248 -210q-249 0 -249 210v391h150v-348q0 -65 19.5 -96.5t79.5 -31.5q59 0 78.5 32t19.5 98v346zM356 645h-95l-138 150h134l30 -30q8 -8 12.5 -15t5.5 -10l1 -4h5q2 12 19 29l30 30h134z" />
    <glyph glyph-name="ucaron" unicode="&#x1d4;" horiz-adv-x="538" 
d="M350 0l-18 87q-22 -99 -143 -99q-65 0 -102 36t-37 112v326h148v-281q0 -81 57 -81q75 0 75 122v240h148v-462h-128zM312 522h-95l-138 163h134l30 -32q8 -9 13 -16.5t6 -10.5v-4h5q0 11 19 31l30 32h134z" />
    <glyph glyph-name="uni004100A800AF" unicode="&#x1de;" horiz-adv-x="631" 
d="M460 0l-39 110h-217l-37 -110h-157l213 589h183l215 -589h-161zM262 281l-16 -46h131l-16 45q-16 44 -27.5 87t-15.5 64l-4 21h-4q-15 -75 -48 -171zM469 840h-314v120h314v-120zM119 712q0 39 22.5 60t56.5 21q37 0 59.5 -20.5t22.5 -60.5q0 -38 -22.5 -59t-59.5 -21
q-34 0 -56.5 21t-22.5 59zM344 712q0 39 22.5 60t56.5 21q37 0 59.5 -20.5t22.5 -60.5q0 -38 -22.5 -59t-59.5 -21q-34 0 -56.5 21t-22.5 59z" />
    <glyph glyph-name="adieresismacron" unicode="&#x1df;" horiz-adv-x="508" 
d="M283 147v40q-110 4 -110 -56q0 -17 12 -28t32 -11q27 0 46.5 13t19.5 42zM430 317v-167q0 -42 33 -42q12 0 30 8v-106q-29 -19 -84 -19q-91 0 -115 72q-28 -75 -134 -75q-62 0 -98.5 34t-36.5 94q0 79 64.5 117t193.5 31v39q0 59 -44 59q-46 0 -49 -65l-149 28
q5 72 60 110t142 38q187 0 187 -156zM399 702h-305v120h305v-120zM50 579q0 39 22.5 60t56.5 21q37 0 59.5 -20.5t22.5 -60.5q0 -38 -22.5 -59t-59.5 -21q-34 0 -56.5 21t-22.5 59zM275 579q0 39 22.5 60t56.5 21q37 0 59.5 -20.5t22.5 -60.5q0 -38 -22.5 -59t-59.5 -21
q-34 0 -56.5 21t-22.5 59z" />
    <glyph glyph-name="AEmacron" unicode="&#x1e2;" horiz-adv-x="891" 
d="M841 0h-406v110h-200l-69 -110h-166l348 589h493v-130h-256v-98h225v-125h-225v-106h256v-130zM437 480l-137 -245h135v81q0 46 1.5 87t3.5 59l1 18h-4zM725 661h-314v120h314v-120z" />
    <glyph glyph-name="aemacron" unicode="&#x1e3;" horiz-adv-x="743" 
d="M513 108q49 0 74 54l126 -47q-18 -66 -73 -96.5t-129 -30.5q-111 0 -172 69q-46 -69 -165 -69q-69 0 -109 33.5t-40 94.5q0 75 65 117t195 43q4 27 7 36q-6 50 -51 50q-46 0 -49 -65l-149 28q5 71 61 109.5t144 38.5q78 0 128 -37q55 37 136 37q96 0 147.5 -58.5
t51.5 -145.5q0 -39 -6 -71h-272q0 -39 20 -64.5t60 -25.5zM434 276h133q1 5 1 22q0 30 -14.5 48t-43.5 18q-34 0 -54 -26.5t-22 -61.5zM227 95q21 0 40.5 11t26.5 31q-10 30 -11 61q-100 -3 -100 -60q0 -43 44 -43zM518 533h-305v120h305v-120z" />
    <glyph glyph-name="Gstroke" unicode="&#x1e4;" horiz-adv-x="666" 
d="M320 338h260v-117h56v-75h-56v-146h-88l-25 63q-46 -75 -162 -75q-120 0 -192.5 76.5t-72.5 227.5q0 148 76.5 228.5t215.5 80.5q90 0 153 -40t93 -112l-146 -71q-26 90 -104 90q-22 0 -42.5 -7.5t-42.5 -26t-35.5 -56t-13.5 -89.5q0 -81 32.5 -132.5t105.5 -51.5
q76 0 105 41h-117v75h117v38h-117v79z" />
    <glyph glyph-name="gstroke" unicode="&#x1e5;" horiz-adv-x="585" 
d="M280 473q77 0 131 -26q21 24 34 70l115 -38q-3 -31 -28.5 -54.5t-57.5 -33.5q20 -34 20 -81q0 -77 -61 -118t-158 -41q-39 0 -55 6q-18 -12 -18 -35q0 -24 32 -24h138q77 0 121 -39t44 -100q0 -3 -0.5 -9.5t-0.5 -9.5h49v-35h-57q-43 -116 -266 -116q-220 0 -220 114v2
h-42v35h49q23 46 116 52q-35 2 -56.5 27t-21.5 58q0 30 20.5 57t59.5 38q-50 20 -74 52t-24 86q0 80 57 121.5t154 41.5zM220 310q0 -63 60 -63q62 0 62 63t-62 63q-60 0 -60 -63zM231 -32q-48 0 -55 -28h229q-2 16 -14 22t-36 6h-124zM283 -122q93 0 115 27h-213
q23 -27 98 -27z" />
    <glyph glyph-name="Gcaron" unicode="&#x1e6;" horiz-adv-x="635" 
d="M320 318h260v-318h-88l-25 63q-46 -75 -162 -75q-120 0 -192.5 76.5t-72.5 227.5q0 148 76.5 228.5t215.5 80.5q90 0 153 -40t93 -112l-146 -71q-26 90 -104 90q-22 0 -42.5 -7.5t-42.5 -26t-35.5 -56t-13.5 -89.5q0 -80 32.5 -129.5t105.5 -49.5q55 0 80 22t25 56v12
h-117v118zM382 645h-95l-138 150h134l30 -30q8 -8 12.5 -15t5.5 -10l1 -4h5q2 12 19 29l30 30h134z" />
    <glyph glyph-name="gcaron" unicode="&#x1e7;" horiz-adv-x="508" 
d="M243 473q77 0 131 -26q21 24 34 70l115 -38q-3 -31 -28.5 -54.5t-57.5 -33.5q20 -34 20 -81q0 -77 -61 -118t-158 -41q-38 0 -55 6q-18 -12 -18 -35q0 -24 32 -24h138q77 0 121 -39t44 -100q0 -48 -23 -83t-64 -53t-87 -26t-101 -8q-220 0 -220 114q0 80 123 89
q-35 2 -56.5 27t-21.5 58q0 30 20.5 57t59.5 38q-50 20 -74 52t-24 86q0 80 57 121.5t154 41.5zM140 -66q0 -47 103 -47q67 0 92.5 11t25.5 35q0 18 -11.5 24.5t-37.5 6.5h-119q-53 0 -53 -30zM183 310q0 -63 60 -63q62 0 62 63t-62 63q-60 0 -60 -63zM296 522h-95l-138 163
h134l30 -32q8 -9 13 -16.5t6 -10.5v-4h5q0 11 19 31l30 32h134z" />
    <glyph glyph-name="Kcaron" unicode="&#x1e8;" horiz-adv-x="596" 
d="M586 0h-179l-150 234h-32v-234h-150v589h150v-225h33l137 225h172l-180 -285zM342 645h-95l-138 150h134l30 -30q8 -8 12.5 -15t5.5 -10l1 -4h5q2 12 19 29l30 30h134z" />
    <glyph glyph-name="kcaron" unicode="&#x1e9;" horiz-adv-x="536" 
d="M359 247l167 -247h-171l-119 185h-28v-185h-148v668h148v-369h27l106 163h170zM184 711h-95l-138 150h134l30 -30q8 -8 12.5 -15t5.5 -10l1 -4h5q2 12 19 29l30 30h134z" />
    <glyph glyph-name="Oogonek" unicode="&#x1ea;" horiz-adv-x="648" 
d="M212 -96q0 55 37 92q-100 20 -154.5 96.5t-54.5 201.5q0 147 75 227t209 80t209 -80t75 -227q0 -135 -63.5 -213.5t-178.5 -89.5q-36 -17 -36 -58q0 -23 13 -35.5t35 -12.5q35 0 64 25l29 -76q-45 -45 -127 -45q-55 0 -93.5 27.5t-38.5 87.5zM324 467q-63 0 -95.5 -46
t-32.5 -129t32 -128.5t96 -45.5t96 45.5t32 128.5t-32.5 129t-95.5 46z" />
    <glyph glyph-name="oogonek" unicode="&#x1eb;" horiz-adv-x="516" 
d="M134 -96q0 58 42 96q-69 22 -107.5 81.5t-38.5 150.5q0 116 61.5 178.5t166.5 62.5t166.5 -62.5t61.5 -178.5q0 -107 -54 -170.5t-146 -71.5q-34 -18 -34 -57q0 -23 13 -35.5t35 -12.5q35 0 64 25l29 -76q-45 -45 -127 -45q-55 0 -93.5 27.5t-38.5 87.5zM258 355
q-82 0 -82 -124q0 -66 20 -97t62 -31t62 31t20 97q0 124 -82 124z" />
    <glyph glyph-name="uni004F02DB00AF" unicode="&#x1ec;" horiz-adv-x="648" 
d="M481 661h-314v120h314v-120zM212 -96q0 55 37 92q-100 20 -154.5 96.5t-54.5 201.5q0 147 75 227t209 80t209 -80t75 -227q0 -135 -63.5 -213.5t-178.5 -89.5q-36 -17 -36 -58q0 -23 13 -35.5t35 -12.5q35 0 64 25l29 -76q-45 -45 -127 -45q-55 0 -93.5 27.5t-38.5 87.5z
M324 467q-63 0 -95.5 -46t-32.5 -129t32 -128.5t96 -45.5t96 45.5t32 128.5t-32.5 129t-95.5 46z" />
    <glyph glyph-name="oogonekmacron" unicode="&#x1ed;" horiz-adv-x="516" 
d="M411 533h-305v120h305v-120zM134 -96q0 58 42 96q-69 22 -107.5 81.5t-38.5 150.5q0 116 61.5 178.5t166.5 62.5t166.5 -62.5t61.5 -178.5q0 -107 -54 -170.5t-146 -71.5q-34 -18 -34 -57q0 -23 13 -35.5t35 -12.5q35 0 64 25l29 -76q-45 -45 -127 -45q-55 0 -93.5 27.5
t-38.5 87.5zM258 355q-82 0 -82 -124q0 -66 20 -97t62 -31t62 31t20 97q0 124 -82 124z" />
    <glyph glyph-name="Ezhcaron" unicode="&#x1ee;" horiz-adv-x="515" 
d="M153 274l76 113q15 22 31.5 40.5t25.5 25.5l8 7v4q-29 -5 -78 -5h-173v130h430v-106l-172 -225v-3q96 -7 142.5 -67.5t46.5 -147.5q0 -101 -63 -159.5t-178 -58.5q-108 0 -175 45.5t-84 132.5l126 69q9 -64 42.5 -98t86.5 -34q99 0 99 98q0 58 -45.5 96.5t-145.5 41.5
v101zM318 645h-95l-138 150h134l30 -30q8 -8 12.5 -15t5.5 -10l1 -4h5q2 12 19 29l30 30h134z" />
    <glyph glyph-name="ezhcaron" unicode="&#x1ef;" horiz-adv-x="440" 
d="M119 227l34 47q16 22 32.5 40t24.5 26l8 7v4q-29 -5 -78 -5h-112v116h363v-92l-139 -163v-3q77 -7 117.5 -55.5t40.5 -122.5q0 -86 -57.5 -132.5t-163.5 -46.5q-82 0 -136 36t-68 104l138 55q2 -39 24 -59t56 -20q28 0 45 16.5t17 42.5q0 99 -146 116v89zM267 522h-95
l-138 163h134l30 -32q8 -9 13 -16.5t5 -10.5l1 -4h5q0 11 19 31l30 32h134z" />
    <glyph glyph-name="jcaron" unicode="&#x1f0;" horiz-adv-x="267" 
d="M178 522h-95l-138 163h134l30 -32q8 -9 13 -16.5t6 -10.5v-4h5q0 11 19 31l30 32h134zM60 462h147v-453q0 -112 -76 -166t-201 -45v125q68 -11 99 12.5t31 102.5v424z" />
    <glyph glyph-name="jcaron" unicode="&#xe10c;" horiz-adv-x="267" 
d="M178 522h-95l-138 163h134l30 -32q8 -9 13 -16.5t6 -10.5v-4h5q0 11 19 31l30 32h134zM60 462h147v-453q0 -112 -76 -166t-201 -45v125q68 -11 99 12.5t31 102.5v424z" />
    <glyph glyph-name="Gacute" unicode="&#x1f4;" horiz-adv-x="635" 
d="M320 318h260v-318h-88l-25 63q-46 -75 -162 -75q-120 0 -192.5 76.5t-72.5 227.5q0 148 76.5 228.5t215.5 80.5q90 0 153 -40t93 -112l-146 -71q-26 90 -104 90q-22 0 -42.5 -7.5t-42.5 -26t-35.5 -56t-13.5 -89.5q0 -80 32.5 -129.5t105.5 -49.5q55 0 80 22t25 56v12
h-117v118zM392 645h-136l65 150h184z" />
    <glyph glyph-name="gacute" unicode="&#x1f5;" horiz-adv-x="508" 
d="M243 473q77 0 131 -26q21 24 34 70l115 -38q-3 -31 -28.5 -54.5t-57.5 -33.5q20 -34 20 -81q0 -77 -61 -118t-158 -41q-38 0 -55 6q-18 -12 -18 -35q0 -24 32 -24h138q77 0 121 -39t44 -100q0 -48 -23 -83t-64 -53t-87 -26t-101 -8q-220 0 -220 114q0 80 123 89
q-35 2 -56.5 27t-21.5 58q0 30 20.5 57t59.5 38q-50 20 -74 52t-24 86q0 80 57 121.5t154 41.5zM140 -66q0 -47 103 -47q67 0 92.5 11t25.5 35q0 18 -11.5 24.5t-37.5 6.5h-119q-53 0 -53 -30zM183 310q0 -63 60 -63q62 0 62 63t-62 63q-60 0 -60 -63zM322 525h-136l69 156
h184z" />
    <glyph glyph-name="Ngrave" unicode="&#x1f8;" horiz-adv-x="684" 
d="M214 589l200 -267q14 -19 25 -36.5t15 -25.5l4 -7h4q-3 46 -3 121v215h150v-589h-134l-200 261q-17 22 -30 41.5t-17 28.5l-5 9h-4q6 -44 6 -131v-209h-150v589h139zM419 645h-136l-113 150h184z" />
    <glyph glyph-name="ngrave" unicode="&#x1f9;" horiz-adv-x="543" 
d="M188 462l18 -89q36 100 148 100q57 0 95.5 -36.5t38.5 -110.5v-326h-148v268q0 40 -12 60.5t-44 20.5q-33 0 -54.5 -23t-21.5 -76v-250h-148v462h128zM351 525h-136l-117 156h184z" />
    <glyph glyph-name="uni004102DA00B4" unicode="&#x1fa;" horiz-adv-x="631" 
d="M460 0l-39 110h-217l-37 -110h-157l213 589h183l215 -589h-161zM262 281l-16 -46h131l-16 45q-16 44 -27.5 87t-15.5 64l-4 21h-4q-15 -75 -48 -171zM312 618q-56 0 -87.5 33t-31.5 83q0 46 33 79t86 33t86 -33t33 -79q0 -50 -31.5 -83t-87.5 -33zM312 780
q-22 0 -34.5 -13t-12.5 -34q0 -19 12.5 -32.5t34.5 -13.5t34.5 13.5t12.5 32.5q0 21 -12.5 34t-34.5 13zM381 879h-136l65 150h184z" />
    <glyph glyph-name="aringacute" unicode="&#x1fb;" horiz-adv-x="508" 
d="M283 147v40q-110 4 -110 -56q0 -17 12 -28t32 -11q27 0 46.5 13t19.5 42zM430 317v-167q0 -42 33 -42q12 0 30 8v-106q-29 -19 -84 -19q-91 0 -115 72q-28 -75 -134 -75q-62 0 -98.5 34t-36.5 94q0 79 64.5 117t193.5 31v39q0 59 -44 59q-46 0 -49 -65l-149 28
q5 72 60 110t142 38q187 0 187 -156zM246 499q-56 0 -87.5 33t-31.5 83q0 46 33 79t86 33t86 -33t33 -79q0 -50 -31.5 -83t-87.5 -33zM246 661q-22 0 -34.5 -13t-12.5 -34q0 -19 12.5 -32.5t34.5 -13.5t34.5 13.5t12.5 32.5q0 21 -12.5 34t-34.5 13zM304 756h-136l65 150
h184z" />
    <glyph glyph-name="AEacute" unicode="&#x1fc;" horiz-adv-x="891" 
d="M841 0h-406v110h-200l-69 -110h-166l348 589h493v-130h-256v-98h225v-125h-225v-106h256v-130zM437 480l-137 -245h135v81q0 46 1.5 87t3.5 59l1 18h-4zM626 645h-136l65 150h184z" />
    <glyph glyph-name="aeacute" unicode="&#x1fd;" horiz-adv-x="743" 
d="M513 108q49 0 74 54l126 -47q-18 -66 -73 -96.5t-129 -30.5q-111 0 -172 69q-46 -69 -165 -69q-69 0 -109 33.5t-40 94.5q0 75 65 117t195 43q4 27 7 36q-6 50 -51 50q-46 0 -49 -65l-149 28q5 71 61 109.5t144 38.5q78 0 128 -37q55 37 136 37q96 0 147.5 -58.5
t51.5 -145.5q0 -39 -6 -71h-272q0 -39 20 -64.5t60 -25.5zM434 276h133q1 5 1 22q0 30 -14.5 48t-43.5 18q-34 0 -54 -26.5t-22 -61.5zM227 95q21 0 40.5 11t26.5 31q-10 30 -11 61q-100 -3 -100 -60q0 -43 44 -43zM423 525h-136l69 156h184z" />
    <glyph glyph-name="Oslashacute" unicode="&#x1fe;" horiz-adv-x="648" 
d="M96 -12l-47 40l51 57q-60 78 -60 209q0 147 75 227t209 80q110 0 182 -55l45 51l49 -40l-50 -57q58 -80 58 -206q0 -147 -75 -226.5t-209 -79.5q-110 0 -181 53zM452 292q0 49 -12 85l-201 -227q32 -32 85 -32q64 0 96 45.5t32 128.5zM324 467q-63 0 -95.5 -46
t-32.5 -129q0 -52 11 -85l201 227q-33 33 -84 33zM382 645h-136l65 150h184z" />
    <glyph glyph-name="oslashacute" unicode="&#x1ff;" horiz-adv-x="516" 
d="M74 -15l-44 42l44 47q-44 63 -44 158q0 116 61.5 178.5t166.5 62.5q87 0 145 -44l42 45l47 -41l-47 -50q41 -60 41 -151q0 -115 -62 -179.5t-166 -64.5q-85 0 -142 42zM317 525h-136l69 156h184zM258 355q-82 0 -82 -124q0 -31 2 -44l135 145q-20 23 -55 23zM340 231
q0 15 -2 37l-135 -144q20 -21 55 -21q42 0 62 31t20 97z" />
    <glyph glyph-name="Adoublegrave" unicode="&#x200;" horiz-adv-x="631" 
d="M460 0l-39 110h-217l-37 -110h-157l213 589h183l215 -589h-161zM262 281l-16 -46h131l-16 45q-16 44 -27.5 87t-15.5 64l-4 21h-4q-15 -75 -48 -171zM459 645h-104l-97 150h152zM287 645h-115l-117 150h163z" />
    <glyph glyph-name="edoublegrave" unicode="&#x201;" horiz-adv-x="491" 
d="M261 102q55 0 74 58l126 -45q-18 -66 -73 -96.5t-129 -30.5q-103 0 -166 63t-63 172q0 119 61 184.5t169 65.5q97 0 148 -56.5t51 -150.5q0 -28 -6 -60h-280q2 -49 24.5 -76.5t63.5 -27.5zM177 284h140q1 5 1 14q0 30 -16 48t-47 18q-33 0 -54 -22.5t-24 -57.5zM403 525
h-104l-97 156h152zM231 525h-115l-117 156h163z" />
    <glyph glyph-name="edoublegrave" unicode="&#x205;" horiz-adv-x="491" 
d="M261 102q55 0 74 58l126 -45q-18 -66 -73 -96.5t-129 -30.5q-103 0 -166 63t-63 172q0 119 61 184.5t169 65.5q97 0 148 -56.5t51 -150.5q0 -28 -6 -60h-280q2 -49 24.5 -76.5t63.5 -27.5zM177 284h140q1 5 1 14q0 30 -16 48t-47 18q-33 0 -54 -22.5t-24 -57.5zM403 525
h-104l-97 156h152zM231 525h-115l-117 156h163z" />
    <glyph glyph-name="Ainvertedbreve" unicode="&#x202;" horiz-adv-x="631" 
d="M460 0l-39 110h-217l-37 -110h-157l213 589h183l215 -589h-161zM262 281l-16 -46h131l-16 45q-16 44 -27.5 87t-15.5 64l-4 21h-4q-15 -75 -48 -171zM312 802q155 0 155 -154h-109q0 27 -10 39t-36 12t-36 -12t-10 -39h-109q0 154 155 154z" />
    <glyph glyph-name="ainvertedbreve" unicode="&#x203;" horiz-adv-x="508" 
d="M283 147v40q-110 4 -110 -56q0 -17 12 -28t32 -11q27 0 46.5 13t19.5 42zM430 317v-167q0 -42 33 -42q12 0 30 8v-106q-29 -19 -84 -19q-91 0 -115 72q-28 -75 -134 -75q-62 0 -98.5 34t-36.5 94q0 79 64.5 117t193.5 31v39q0 59 -44 59q-46 0 -49 -65l-149 28
q5 72 60 110t142 38q187 0 187 -156zM240 690q79 0 117 -45.5t38 -117.5h-109q0 30 -9 44t-37 14t-37 -14t-9 -44h-109q0 72 38 117.5t117 45.5z" />
    <glyph glyph-name="Edoublegrave" unicode="&#x204;" horiz-adv-x="531" 
d="M481 130v-130h-406v589h406v-130h-256v-98h225v-125h-225v-106h256zM422 645h-104l-97 150h152zM250 645h-115l-117 150h163z" />
    <glyph glyph-name="Einvertedbreve" unicode="&#x206;" horiz-adv-x="531" 
d="M481 130v-130h-406v589h406v-130h-256v-98h225v-125h-225v-106h256zM275 802q155 0 155 -154h-109q0 27 -10 39t-36 12t-36 -12t-10 -39h-109q0 154 155 154z" />
    <glyph glyph-name="einvertedbreve" unicode="&#x207;" horiz-adv-x="491" 
d="M261 102q55 0 74 58l126 -45q-18 -66 -73 -96.5t-129 -30.5q-103 0 -166 63t-63 172q0 119 61 184.5t169 65.5q97 0 148 -56.5t51 -150.5q0 -28 -6 -60h-280q2 -49 24.5 -76.5t63.5 -27.5zM177 284h140q1 5 1 14q0 30 -16 48t-47 18q-33 0 -54 -22.5t-24 -57.5zM256 690
q79 0 117 -45.5t38 -117.5h-109q0 30 -9 44t-37 14t-37 -14t-9 -44h-109q0 72 38 117.5t117 45.5z" />
    <glyph glyph-name="Idoublegrave" unicode="&#x208;" horiz-adv-x="300" 
d="M75 589h150v-589h-150v589zM294 645h-104l-97 150h152zM122 645h-115l-117 150h163z" />
    <glyph glyph-name="idoublegrave" unicode="&#x209;" horiz-adv-x="268" 
d="M60 462h148v-462h-148v462zM282 525h-104l-97 156h152zM110 525h-115l-117 156h163z" />
    <glyph glyph-name="Iinvertedbreve" unicode="&#x20a;" horiz-adv-x="300" 
d="M75 589h150v-589h-150v589zM150 802q155 0 155 -154h-109q0 27 -10 39t-36 12t-36 -12t-10 -39h-109q0 154 155 154z" />
    <glyph glyph-name="iinvertedbreve" unicode="&#x20b;" horiz-adv-x="268" 
d="M60 462h148v-462h-148v462zM134 690q79 0 117 -45.5t38 -117.5h-109q0 30 -9 44t-37 14t-37 -14t-9 -44h-109q0 72 38 117.5t117 45.5z" />
    <glyph glyph-name="Odoublegrave" unicode="&#x20c;" horiz-adv-x="648" 
d="M324 -12q-134 0 -209 79.5t-75 226.5t75 227t209 80t209 -80t75 -227t-75 -226.5t-209 -79.5zM324 467q-63 0 -95.5 -46t-32.5 -129t32 -128.5t96 -45.5t96 45.5t32 128.5t-32.5 129t-95.5 46zM468 645h-104l-97 150h152zM296 645h-115l-117 150h163z" />
    <glyph glyph-name="odoublegrave" unicode="&#x20d;" horiz-adv-x="516" 
d="M258 -12q-104 0 -166 64.5t-62 179.5q0 116 61.5 178.5t166.5 62.5t166.5 -62.5t61.5 -178.5q0 -115 -62 -179.5t-166 -64.5zM258 355q-82 0 -82 -124q0 -66 20 -97t62 -31t62 31t20 97q0 124 -82 124zM406 525h-104l-97 156h152zM234 525h-115l-117 156h163z" />
    <glyph glyph-name="Oinvertedbreve" unicode="&#x20e;" horiz-adv-x="648" 
d="M324 -12q-134 0 -209 79.5t-75 226.5t75 227t209 80t209 -80t75 -227t-75 -226.5t-209 -79.5zM324 467q-63 0 -95.5 -46t-32.5 -129t32 -128.5t96 -45.5t96 45.5t32 128.5t-32.5 129t-95.5 46zM324 802q155 0 155 -154h-109q0 27 -10 39t-36 12t-36 -12t-10 -39h-109
q0 154 155 154z" />
    <glyph glyph-name="oinvertedbreve" unicode="&#x20f;" horiz-adv-x="516" 
d="M258 -12q-104 0 -166 64.5t-62 179.5q0 116 61.5 178.5t166.5 62.5t166.5 -62.5t61.5 -178.5q0 -115 -62 -179.5t-166 -64.5zM258 355q-82 0 -82 -124q0 -66 20 -97t62 -31t62 31t20 97q0 124 -82 124zM258 690q79 0 117 -45.5t38 -117.5h-109q0 30 -9 44t-37 14t-37 -14
t-9 -44h-109q0 72 38 117.5t117 45.5z" />
    <glyph glyph-name="Rinvertedbreve" unicode="&#x212;" horiz-adv-x="593" 
d="M568 0h-167q-22 16 -33 63l-21 83q-8 32 -22.5 41.5t-47.5 9.5h-52v-197h-150v589h241q105 0 162 -42.5t57 -141.5q0 -66 -33.5 -103.5t-93.5 -44.5v-3q41 -7 63.5 -25.5t32.5 -56.5l30 -108q12 -41 34 -64zM225 462v-140h80q77 0 77 69q0 71 -76 71h-81zM283 802
q155 0 155 -154h-109q0 27 -10 39t-36 12t-36 -12t-10 -39h-109q0 154 155 154z" />
    <glyph glyph-name="rinvertedbreve" unicode="&#x213;" horiz-adv-x="407" 
d="M397 472l-18 -163q-29 9 -56 9q-47 0 -81 -25t-34 -89v-204h-148v462h129l18 -128q17 69 59.5 106.5t130.5 31.5zM228 690q79 0 117 -45.5t38 -117.5h-109q0 30 -9 44t-37 14t-37 -14t-9 -44h-109q0 72 38 117.5t117 45.5z" />
    <glyph glyph-name="Udoublegrave" unicode="&#x214;" horiz-adv-x="617" 
d="M407 589h150v-391q0 -210 -248 -210q-249 0 -249 210v391h150v-348q0 -65 19.5 -96.5t79.5 -31.5q59 0 78.5 32t19.5 98v346zM452 645h-104l-97 150h152zM280 645h-115l-117 150h163z" />
    <glyph glyph-name="udoublegrave" unicode="&#x215;" horiz-adv-x="538" 
d="M350 0l-18 87q-22 -99 -143 -99q-65 0 -102 36t-37 112v326h148v-281q0 -81 57 -81q75 0 75 122v240h148v-462h-128zM412 525h-104l-97 156h152zM240 525h-115l-117 156h163z" />
    <glyph glyph-name="Uinvertedbreve" unicode="&#x216;" horiz-adv-x="617" 
d="M407 589h150v-391q0 -210 -248 -210q-249 0 -249 210v391h150v-348q0 -65 19.5 -96.5t79.5 -31.5q59 0 78.5 32t19.5 98v346zM308 802q155 0 155 -154h-109q0 27 -10 39t-36 12t-36 -12t-10 -39h-109q0 154 155 154z" />
    <glyph glyph-name="uinvertedbreve" unicode="&#x217;" horiz-adv-x="538" 
d="M350 0l-18 87q-22 -99 -143 -99q-65 0 -102 36t-37 112v326h148v-281q0 -81 57 -81q75 0 75 122v240h148v-462h-128zM264 690q79 0 117 -45.5t38 -117.5h-109q0 30 -9 44t-37 14t-37 -14t-9 -44h-109q0 72 38 117.5t117 45.5z" />
    <glyph glyph-name="Scommaaccent" unicode="&#x218;" horiz-adv-x="528" 
d="M20 129l136 65q8 -40 37.5 -65.5t68.5 -25.5q69 0 69 49q0 25 -18.5 39.5t-71.5 30.5q-110 34 -154 79.5t-44 119.5q0 95 61.5 138t152.5 43q213 0 231 -152l-150 -40q-4 34 -26 50.5t-52 16.5q-58 0 -58 -45q0 -25 20.5 -39.5t71.5 -28.5q106 -32 149.5 -74t43.5 -124
q0 -93 -65 -135.5t-172 -42.5q-91 0 -148.5 32.5t-81.5 108.5zM355 -140q0 -118 -151 -118v48q69 2 69 37q-31 -5 -53.5 10t-22.5 48q0 34 21 51.5t53 17.5q38 0 61 -26t23 -68z" />
    <glyph glyph-name="scommaaccent" unicode="&#x219;" horiz-adv-x="453" 
d="M15 108l120 51q15 -67 86 -67q54 0 54 32q0 16 -12.5 25t-42.5 16l-68 16q-119 31 -119 139q0 43 16 74t44.5 47.5t61.5 24t72 7.5q179 0 188 -132l-138 -20q-4 24 -17.5 33.5t-39.5 9.5q-18 0 -30 -8t-12 -22q0 -27 39 -35l66 -13q140 -29 140 -152q0 -75 -55 -110.5
t-148 -35.5q-91 0 -141 28t-64 92zM306 -140q0 -118 -151 -118v48q69 2 69 37q-31 -5 -53.5 10t-22.5 48q0 34 21 51.5t53 17.5q38 0 61 -26t23 -68z" />
    <glyph glyph-name="Hcaron" unicode="&#x21e;" horiz-adv-x="659" 
d="M225 0h-150v589h150v-225h209v225h150v-589h-150v234h-209v-234zM377 645h-95l-138 150h134l30 -30q8 -8 12.5 -15t5.5 -10l1 -4h5q2 12 19 29l30 30h134z" />
    <glyph glyph-name="hcaron" unicode="&#x21f;" horiz-adv-x="543" 
d="M208 668v-294q36 99 146 99q57 0 95.5 -36.5t38.5 -110.5v-326h-148v268q0 40 -12 60.5t-44 20.5q-76 0 -76 -98v-251h-148v668h148zM184 711h-95l-138 150h134l30 -30q8 -8 12.5 -15t5.5 -10l1 -4h5q2 12 19 29l30 30h134z" />
    <glyph glyph-name="Adotabove" unicode="&#x226;" horiz-adv-x="631" 
d="M460 0l-39 110h-217l-37 -110h-157l213 589h183l215 -589h-161zM262 281l-16 -46h131l-16 45q-16 44 -27.5 87t-15.5 64l-4 21h-4q-15 -75 -48 -171zM224 725q0 40 24.5 61.5t63.5 21.5q41 0 66 -21t25 -62q0 -39 -25.5 -60.5t-65.5 -21.5q-38 0 -63 21.5t-25 60.5z" />
    <glyph glyph-name="adotabove" unicode="&#x227;" horiz-adv-x="508" 
d="M283 147v40q-110 4 -110 -56q0 -17 12 -28t32 -11q27 0 46.5 13t19.5 42zM430 317v-167q0 -42 33 -42q12 0 30 8v-106q-29 -19 -84 -19q-91 0 -115 72q-28 -75 -134 -75q-62 0 -98.5 34t-36.5 94q0 79 64.5 117t193.5 31v39q0 59 -44 59q-46 0 -49 -65l-149 28
q5 72 60 110t142 38q187 0 187 -156zM149 595q0 40 25 61.5t63 21.5q41 0 66 -21t25 -62q0 -39 -25 -60.5t-66 -21.5q-38 0 -63 21.5t-25 60.5z" />
    <glyph glyph-name="Otildemacron" unicode="&#x22c;" horiz-adv-x="648" 
d="M324 -12q-134 0 -209 79.5t-75 226.5t75 227t209 80t209 -80t75 -227t-75 -226.5t-209 -79.5zM324 467q-63 0 -95.5 -46t-32.5 -129t32 -128.5t96 -45.5t96 45.5t32 128.5t-32.5 129t-95.5 46zM402 637q-37 0 -75 22q-43 25 -57 25q-16 0 -25.5 -12.5t-5.5 -36.5h-81
q-30 60 -0.5 113.5t92.5 53.5q31 0 64 -19q50 -29 64 -29q34 0 26 45h84q30 -64 3.5 -113t-89.5 -49zM481 845h-314v120h314v-120z" />
    <glyph glyph-name="otildemacron" unicode="&#x22d;" horiz-adv-x="516" 
d="M258 -12q-104 0 -166 64.5t-62 179.5q0 116 61.5 178.5t166.5 62.5t166.5 -62.5t61.5 -178.5q0 -115 -62 -179.5t-166 -64.5zM258 355q-82 0 -82 -124q0 -66 20 -97t62 -31t62 31t20 97q0 124 -82 124zM337 505q-37 0 -75 22q-43 25 -57 25q-16 0 -25.5 -12.5t-5.5 -36.5
h-81q-30 60 -0.5 113.5t92.5 53.5q31 0 64 -19q50 -29 64 -29q34 0 26 45h84q30 -64 3.5 -113t-89.5 -49zM411 706h-305v120h305v-120z" />
    <glyph glyph-name="Odotabove" unicode="&#x22e;" horiz-adv-x="648" 
d="M324 -12q-134 0 -209 79.5t-75 226.5t75 227t209 80t209 -80t75 -227t-75 -226.5t-209 -79.5zM324 467q-63 0 -95.5 -46t-32.5 -129t32 -128.5t96 -45.5t96 45.5t32 128.5t-32.5 129t-95.5 46zM235 726q0 40 24.5 61.5t63.5 21.5q41 0 66 -21.5t25 -61.5
q0 -39 -25.5 -60.5t-65.5 -21.5q-38 0 -63 21.5t-25 60.5z" />
    <glyph glyph-name="odotabove" unicode="&#x22f;" horiz-adv-x="516" 
d="M258 -12q-104 0 -166 64.5t-62 179.5q0 116 61.5 178.5t166.5 62.5t166.5 -62.5t61.5 -178.5q0 -115 -62 -179.5t-166 -64.5zM258 355q-82 0 -82 -124q0 -66 20 -97t62 -31t62 31t20 97q0 124 -82 124zM169 595q0 40 25 61.5t63 21.5q41 0 66 -21t25 -62q0 -39 -25 -60.5
t-66 -21.5q-38 0 -63 21.5t-25 60.5z" />
    <glyph glyph-name="odotabovemacron" unicode="&#x231;" horiz-adv-x="516" 
d="M258 -12q-104 0 -166 64.5t-62 179.5q0 116 61.5 178.5t166.5 62.5t166.5 -62.5t61.5 -178.5q0 -115 -62 -179.5t-166 -64.5zM258 355q-82 0 -82 -124q0 -66 20 -97t62 -31t62 31t20 97q0 124 -82 124zM411 706h-305v120h305v-120zM169 590q0 40 25 61.5t63 21.5
q41 0 66 -21t25 -62q0 -39 -25 -60.5t-66 -21.5q-38 0 -63 21.5t-25 60.5z" />
    <glyph glyph-name="odotabovemacron" unicode="&#xe11e;" horiz-adv-x="516" 
d="M258 -12q-104 0 -166 64.5t-62 179.5q0 116 61.5 178.5t166.5 62.5t166.5 -62.5t61.5 -178.5q0 -115 -62 -179.5t-166 -64.5zM258 355q-82 0 -82 -124q0 -66 20 -97t62 -31t62 31t20 97q0 124 -82 124zM411 706h-305v120h305v-120zM169 590q0 40 25 61.5t63 21.5
q41 0 66 -21t25 -62q0 -39 -25 -60.5t-66 -21.5q-38 0 -63 21.5t-25 60.5z" />
    <glyph glyph-name="Ymacron" unicode="&#x232;" 
d="M181 589l60 -125q17 -36 28.5 -70t14.5 -50l3 -16h4q5 56 45 136l61 125h158l-191 -402v-187h-150v187l-204 402h171zM439 661h-314v120h314v-120z" />
    <glyph glyph-name="ymacron" unicode="&#x233;" horiz-adv-x="498" 
d="M162 462l54 -196q11 -40 18.5 -77.5t9.5 -54.5l2 -18h4q5 61 32 150l60 196h156l-187 -504q-38 -102 -87 -134t-132 -32q-39 0 -87 11l23 132q26 -17 61 -17q60 0 82 56l-171 488h162zM402 533h-305v120h305v-120z" />
    <glyph glyph-name="dotlessj" unicode="&#x237;" horiz-adv-x="267" 
d="M60 462h147v-453q0 -112 -76 -166t-201 -45v125q68 -11 99 12.5t31 102.5v424z" />
    <glyph glyph-name="schwa" unicode="&#x259;" horiz-adv-x="491" 
d="M232 353q-51 0 -76 -56l-126 43q19 66 74 99.5t128 33.5q103 0 166 -63t63 -172q0 -119 -61 -184.5t-169 -65.5q-97 0 -148 56.5t-51 150.5q0 29 6 60h272q0 45 -20 71.5t-58 26.5zM309 175h-133q-1 -5 -1 -14q0 -30 14.5 -48t43.5 -18q34 0 54 23t22 57z" />
    <glyph glyph-name="ezh" unicode="&#x292;" horiz-adv-x="440" 
d="M119 227l34 47q16 22 32.5 40t24.5 26l8 7v4q-29 -5 -78 -5h-112v116h363v-92l-139 -163v-3q77 -7 117.5 -55.5t40.5 -122.5q0 -86 -57.5 -132.5t-163.5 -46.5q-82 0 -136 36t-68 104l138 55q2 -39 24 -59t56 -20q28 0 45 16.5t17 42.5q0 99 -146 116v89z" />
    <glyph glyph-name="circumflex" unicode="&#x2c6;" horiz-adv-x="531" 
d="M218 685h95l138 -163h-134l-30 32q-8 9 -13 16.5t-6 11.5v3h-5q0 -11 -19 -31l-30 -32h-134z" />
    <glyph glyph-name="caron" unicode="&#x2c7;" horiz-adv-x="531" 
d="M313 522h-95l-138 163h134l30 -32q8 -9 13 -16.5t5 -10.5l1 -4h5q0 11 19 31l30 32h134z" />
    <glyph glyph-name="breve" unicode="&#x2d8;" horiz-adv-x="470" 
d="M235 518q-79 0 -117 45.5t-38 117.5h109q0 -30 9 -44t37 -14t37 14t9 44h109q0 -72 -38 -117.5t-117 -45.5z" />
    <glyph glyph-name="dotaccent" unicode="&#x2d9;" horiz-adv-x="339" 
d="M80 595q0 40 25 61.5t63 21.5q41 0 66 -21t25 -62q0 -39 -25 -60.5t-66 -21.5q-38 0 -63 21.5t-25 60.5z" />
    <glyph glyph-name="ring" unicode="&#x2da;" horiz-adv-x="398" 
d="M199 502q-56 0 -87.5 33t-31.5 83q0 46 33 79t86 33t86 -33t33 -79q0 -50 -31.5 -83t-87.5 -33zM199 664q-22 0 -34.5 -13t-12.5 -34q0 -19 12.5 -32.5t34.5 -13.5t34.5 13.5t12.5 32.5q0 21 -12.5 34t-34.5 13z" />
    <glyph glyph-name="ogonek" unicode="&#x2db;" horiz-adv-x="418" 
d="M70 -96q0 40 20 70.5t49.5 45t55 21.5t44.5 7l36 -48q-40 0 -63.5 -17.5t-23.5 -49.5q0 -23 13 -35.5t35 -12.5q35 0 64 25l29 -76q-45 -45 -127 -45q-55 0 -93.5 27.5t-38.5 87.5z" />
    <glyph glyph-name="tilde" unicode="&#x2dc;" horiz-adv-x="521" 
d="M339 519q-37 0 -75 22q-43 25 -57 25q-16 0 -25.5 -12.5t-5.5 -36.5h-81q-30 60 -0.5 113.5t92.5 53.5q31 0 64 -19q50 -29 64 -29q34 0 26 45h84q30 -64 3.5 -113t-89.5 -49z" />
    <glyph glyph-name="hungarumlaut" unicode="&#x2dd;" horiz-adv-x="564" 
d="M184 525h-104l49 156h152zM367 525h-115l69 156h163z" />
    <glyph glyph-name="uni0312" unicode="&#x312;" horiz-adv-x="318" 
d="M80 737q0 118 151 118v-48q-69 -2 -69 -37q31 5 53.5 -10t22.5 -48q0 -34 -21 -51.5t-53 -17.5q-38 0 -61 26t-23 68z" />
    <glyph glyph-name="uni0320" unicode="&#x320;" horiz-adv-x="465" 
d="M385 -196h-305v120h305v-120z" />
    <glyph glyph-name="uni0323" unicode="&#x323;" horiz-adv-x="339" 
d="M80 -129q0 40 24.5 61.5t63.5 21.5q41 0 66 -21t25 -62q0 -39 -25.5 -60.5t-65.5 -21.5q-38 0 -63 21.5t-25 60.5z" />
    <glyph glyph-name="uni0329" unicode="&#x329;" horiz-adv-x="308" 
d="M80 -219v180h148v-169z" />
    <glyph glyph-name="pi" unicode="&#x3c0;" horiz-adv-x="729" 
d="M157 481h488v-110h-96v-210q0 -49 38 -49q39 0 68 46l44 -91q-35 -79 -149 -79q-74 0 -112.5 36t-38.5 127v220h-75l-48 -371h-151l51 371h-11q-38 0 -45 -56h-110q0 166 147 166z" />
    <glyph glyph-name="uni0E3F" unicode="&#xe3f;" horiz-adv-x="581" 
d="M279 -106v106h-199v481h199v93h50v-93h34q74 0 115.5 -30.5t41.5 -90.5q0 -98 -99 -112v-5q120 -14 120 -113q0 -130 -179 -130h-33v-106h-50zM330 198h-1v-99h1q33 0 48.5 11.5t15.5 39.5q0 48 -64 48zM229 284h50v102h-50v-102zM229 198v-99h50v99h-50zM378 334
q0 48 -49 51v-101q49 1 49 50z" />
    <glyph glyph-name="Ddotbelow" unicode="&#x1e0c;" horiz-adv-x="631" 
d="M225 127h53q80 0 118.5 36.5t38.5 128.5q0 95 -37 132.5t-112 37.5h-61v-335zM292 0h-217v589h228q130 0 209 -70.5t79 -217.5q0 -156 -80.5 -228.5t-218.5 -72.5zM206 -129q0 40 24.5 61.5t63.5 21.5q41 0 66 -21t25 -62q0 -39 -25.5 -60.5t-65.5 -21.5q-38 0 -63 21.5
t-25 60.5z" />
    <glyph glyph-name="ddotbelow" unicode="&#x1e0d;" 
d="M358 195v80q0 45 -23.5 67t-59.5 22q-40 0 -68 -33t-28 -103q0 -60 25 -93.5t69 -33.5q35 0 60 25t25 69zM357 402v266h148v-668h-129l-18 80q-20 -92 -143 -92q-81 0 -133 61.5t-52 170.5q0 119 54 186t152 67q45 0 78 -19t43 -52zM178 -129q0 40 24.5 61.5t63.5 21.5
q41 0 66 -21t25 -62q0 -39 -25.5 -60.5t-65.5 -21.5q-38 0 -63 21.5t-25 60.5z" />
    <glyph glyph-name="Dcedilla" unicode="&#x1e10;" horiz-adv-x="631" 
d="M405 -116q0 -46 -33.5 -70.5t-85.5 -24.5q-77 0 -110 36l26 67q31 -34 66 -34q28 0 28 24q0 31 -47 38l9 80h-183v589h228q130 0 209 -70.5t79 -217.5q0 -148 -72.5 -221t-198.5 -80l-3 -35q88 -5 88 -81zM225 127h53q80 0 118.5 36.5t38.5 128.5q0 95 -37 132.5
t-112 37.5h-61v-335z" />
    <glyph glyph-name="dcedilla" unicode="&#x1e11;" 
d="M377 -116q0 -46 -33.5 -70.5t-85.5 -24.5q-77 0 -110 36l26 67q31 -34 66 -34q28 0 28 24q0 31 -47 38l8 68h-14q-81 0 -133 61.5t-52 170.5q0 119 54 186t152 67q45 0 78 -19t43 -52v266h148v-668h-129l-18 80q-13 -59 -66 -80l-3 -35q88 -5 88 -81zM358 195v80
q0 45 -23.5 67t-59.5 22q-40 0 -68 -33t-28 -103q0 -60 25 -93.5t69 -33.5q35 0 60 25t25 69z" />
    <glyph glyph-name="Hdotbelow" unicode="&#x1e24;" horiz-adv-x="659" 
d="M225 0h-150v589h150v-225h209v225h150v-589h-150v234h-209v-234zM240 -129q0 40 24.5 61.5t63.5 21.5q41 0 66 -21t25 -62q0 -39 -25.5 -60.5t-65.5 -21.5q-38 0 -63 21.5t-25 60.5z" />
    <glyph glyph-name="hdotbelow" unicode="&#x1e25;" horiz-adv-x="543" 
d="M208 668v-294q36 99 146 99q57 0 95.5 -36.5t38.5 -110.5v-326h-148v268q0 40 -12 60.5t-44 20.5q-76 0 -76 -98v-251h-148v668h148zM185 -129q0 40 24.5 61.5t63.5 21.5q41 0 66 -21t25 -62q0 -39 -25.5 -60.5t-65.5 -21.5q-38 0 -63 21.5t-25 60.5z" />
    <glyph glyph-name="Ldotbelow" unicode="&#x1e36;" horiz-adv-x="475" 
d="M75 589h150v-459h220v-130h-370v589zM171 -129q0 40 24.5 61.5t63.5 21.5q41 0 66 -21t25 -62q0 -39 -25.5 -60.5t-65.5 -21.5q-38 0 -63 21.5t-25 60.5z" />
    <glyph glyph-name="ldotbelow" unicode="&#x1e37;" horiz-adv-x="298" 
d="M278 128l-8 -124q-47 -14 -84 -14q-59 0 -97.5 30t-38.5 94v554h148v-508q0 -39 43 -39q20 0 37 7zM75 -129q0 40 24.5 61.5t63.5 21.5q41 0 66 -21t25 -62q0 -39 -25.5 -60.5t-65.5 -21.5q-38 0 -63 21.5t-25 60.5z" />
    <glyph glyph-name="uni004C032300AF" unicode="&#x1e38;" horiz-adv-x="475" 
d="M75 589h150v-459h220v-130h-370v589zM171 -129q0 40 24.5 61.5t63.5 21.5q41 0 66 -21t25 -62q0 -39 -25.5 -60.5t-65.5 -21.5q-38 0 -63 21.5t-25 60.5zM329 661h-314v120h314v-120z" />
    <glyph glyph-name="ldotbelowmacron" unicode="&#x1e39;" horiz-adv-x="298" 
d="M278 128l-8 -124q-47 -14 -84 -14q-59 0 -97.5 30t-38.5 94v554h148v-508q0 -39 43 -39q20 0 37 7zM75 -129q0 40 24.5 61.5t63.5 21.5q41 0 66 -21t25 -62q0 -39 -25.5 -60.5t-65.5 -21.5q-38 0 -63 21.5t-25 60.5zM287 729h-314v120h314v-120z" />
    <glyph glyph-name="Mdotbelow" unicode="&#x1e42;" horiz-adv-x="746" 
d="M406 133h-66l-72 112q-13 20 -24 41.5t-16 33.5l-5 12h-4q6 -32 6 -98v-234h-150v589h148l102 -174q16 -28 27.5 -51t15.5 -32l3 -9h4q9 29 46 92l102 174h148v-589h-150v234q0 29 1.5 53.5t3.5 34.5l1 10h-4q-16 -42 -45 -87zM284 -129q0 40 24.5 61.5t63.5 21.5
q41 0 66 -21t25 -62q0 -39 -25.5 -60.5t-65.5 -21.5q-38 0 -63 21.5t-25 60.5z" />
    <glyph glyph-name="mdotbelow" unicode="&#x1e43;" horiz-adv-x="805" 
d="M468 372q37 101 151 101q60 0 95.5 -36t35.5 -111v-326h-148v268q0 40 -12 60.5t-44 20.5q-67 0 -67 -98v-251h-148v268q0 40 -12 60.5t-44 20.5q-67 0 -67 -99v-250h-148v462h128l18 -89q36 100 142 100q104 0 120 -101zM316 -129q0 40 24.5 61.5t63.5 21.5q41 0 66 -21
t25 -62q0 -39 -25.5 -60.5t-65.5 -21.5q-38 0 -63 21.5t-25 60.5z" />
    <glyph glyph-name="Ndotaccent" unicode="&#x1e44;" horiz-adv-x="684" 
d="M214 589l200 -267q14 -19 25 -36.5t15 -25.5l4 -7h4q-3 46 -3 121v215h150v-589h-134l-200 261q-17 22 -30 41.5t-17 28.5l-5 9h-4q6 -44 6 -131v-209h-150v589h139zM253 726q0 40 24.5 61.5t63.5 21.5q41 0 66 -21.5t25 -61.5q0 -39 -25.5 -60.5t-65.5 -21.5
q-38 0 -63 21.5t-25 60.5z" />
    <glyph glyph-name="ndotaccent" unicode="&#x1e45;" horiz-adv-x="543" 
d="M188 462l18 -89q36 100 148 100q57 0 95.5 -36.5t38.5 -110.5v-326h-148v268q0 40 -12 60.5t-44 20.5q-33 0 -54.5 -23t-21.5 -76v-250h-148v462h128zM185 595q0 40 25 61.5t63 21.5q41 0 66 -21t25 -62q0 -39 -25 -60.5t-66 -21.5q-38 0 -63 21.5t-25 60.5z" />
    <glyph glyph-name="Ndotbelow" unicode="&#x1e46;" horiz-adv-x="684" 
d="M214 589l200 -267q14 -19 25 -36.5t15 -25.5l4 -7h4q-3 46 -3 121v215h150v-589h-134l-200 261q-17 22 -30 41.5t-17 28.5l-5 9h-4q6 -44 6 -131v-209h-150v589h139zM253 -129q0 40 24.5 61.5t63.5 21.5q41 0 66 -21t25 -62q0 -39 -25.5 -60.5t-65.5 -21.5
q-38 0 -63 21.5t-25 60.5z" />
    <glyph glyph-name="ndotbelow" unicode="&#x1e47;" horiz-adv-x="543" 
d="M188 462l18 -89q36 100 148 100q57 0 95.5 -36.5t38.5 -110.5v-326h-148v268q0 40 -12 60.5t-44 20.5q-33 0 -54.5 -23t-21.5 -76v-250h-148v462h128zM185 -129q0 40 24.5 61.5t63.5 21.5q41 0 66 -21t25 -62q0 -39 -25.5 -60.5t-65.5 -21.5q-38 0 -63 21.5t-25 60.5z
" />
    <glyph glyph-name="Rdotbelow" unicode="&#x1e5a;" horiz-adv-x="593" 
d="M568 0h-167q-22 16 -33 63l-21 83q-8 32 -22.5 41.5t-47.5 9.5h-52v-197h-150v589h241q105 0 162 -42.5t57 -141.5q0 -66 -33.5 -103.5t-93.5 -44.5v-3q41 -7 63.5 -25.5t32.5 -56.5l30 -108q12 -41 34 -64zM225 462v-140h80q77 0 77 69q0 71 -76 71h-81zM194 -129
q0 40 24.5 61.5t63.5 21.5q41 0 66 -21t25 -62q0 -39 -25.5 -60.5t-65.5 -21.5q-38 0 -63 21.5t-25 60.5z" />
    <glyph glyph-name="rdotbelow" unicode="&#x1e5b;" horiz-adv-x="407" 
d="M397 472l-18 -163q-29 9 -56 9q-47 0 -81 -25t-34 -89v-204h-148v462h129l18 -128q17 69 59.5 106.5t130.5 31.5zM45 -129q0 40 24.5 61.5t63.5 21.5q41 0 66 -21t25 -62q0 -39 -25.5 -60.5t-65.5 -21.5q-38 0 -63 21.5t-25 60.5z" />
    <glyph glyph-name="Rdotbelowmacron" unicode="&#x1e5c;" horiz-adv-x="593" 
d="M568 0h-167q-22 16 -33 63l-21 83q-8 32 -22.5 41.5t-47.5 9.5h-52v-197h-150v589h241q105 0 162 -42.5t57 -141.5q0 -66 -33.5 -103.5t-93.5 -44.5v-3q41 -7 63.5 -25.5t32.5 -56.5l30 -108q12 -41 34 -64zM225 462v-140h80q77 0 77 69q0 71 -76 71h-81zM194 -129
q0 40 24.5 61.5t63.5 21.5q41 0 66 -21t25 -62q0 -39 -25.5 -60.5t-65.5 -21.5q-38 0 -63 21.5t-25 60.5zM440 661h-314v120h314v-120z" />
    <glyph glyph-name="rdotbelowmacron" unicode="&#x1e5d;" horiz-adv-x="407" 
d="M397 472l-18 -163q-29 9 -56 9q-47 0 -81 -25t-34 -89v-204h-148v462h129l18 -128q17 69 59.5 106.5t130.5 31.5zM381 533h-305v120h305v-120zM45 -129q0 40 24.5 61.5t63.5 21.5q41 0 66 -21t25 -62q0 -39 -25.5 -60.5t-65.5 -21.5q-38 0 -63 21.5t-25 60.5z" />
    <glyph glyph-name="Sdotbelow" unicode="&#x1e62;" horiz-adv-x="528" 
d="M20 129l136 65q8 -40 37.5 -65.5t68.5 -25.5q69 0 69 49q0 25 -18.5 39.5t-71.5 30.5q-110 34 -154 79.5t-44 119.5q0 95 61.5 138t152.5 43q213 0 231 -152l-150 -40q-4 34 -26 50.5t-52 16.5q-58 0 -58 -45q0 -25 20.5 -39.5t71.5 -28.5q106 -32 149.5 -74t43.5 -124
q0 -93 -65 -135.5t-172 -42.5q-91 0 -148.5 32.5t-81.5 108.5zM177 -129q0 40 24.5 61.5t63.5 21.5q41 0 66 -21t25 -62q0 -39 -25.5 -60.5t-65.5 -21.5q-38 0 -63 21.5t-25 60.5z" />
    <glyph glyph-name="sdotbelow" unicode="&#x1e63;" horiz-adv-x="453" 
d="M15 108l120 51q15 -67 86 -67q54 0 54 32q0 16 -12.5 25t-42.5 16l-68 16q-119 31 -119 139q0 43 16 74t44.5 47.5t61.5 24t72 7.5q179 0 188 -132l-138 -20q-4 24 -17.5 33.5t-39.5 9.5q-18 0 -30 -8t-12 -22q0 -27 39 -35l66 -13q140 -29 140 -152q0 -75 -55 -110.5
t-148 -35.5q-91 0 -141 28t-64 92zM136 -129q0 40 24.5 61.5t63.5 21.5q41 0 66 -21t25 -62q0 -39 -25.5 -60.5t-65.5 -21.5q-38 0 -63 21.5t-25 60.5z" />
    <glyph glyph-name="Tdotbelow" unicode="&#x1e6c;" horiz-adv-x="486" 
d="M316 0h-149v459h-157v130h466v-130h-160v-459zM154 -129q0 40 24.5 61.5t63.5 21.5q41 0 66 -21t25 -62q0 -39 -25.5 -60.5t-65.5 -21.5q-38 0 -63 21.5t-25 60.5z" />
    <glyph glyph-name="tdotbelow" unicode="&#x1e6d;" horiz-adv-x="402" 
d="M362 144l25 -125q-62 -31 -152 -31q-158 0 -158 155v205h-67v114h68v98l148 17v-115h137v-114h-138v-171q0 -35 13.5 -49t41.5 -14q39 0 82 30zM111 -129q0 40 24.5 61.5t63.5 21.5q41 0 66 -21t25 -62q0 -39 -25.5 -60.5t-65.5 -21.5q-38 0 -63 21.5t-25 60.5z" />
    <glyph glyph-name="Wgrave" unicode="&#x1e80;" horiz-adv-x="889" 
d="M538 589l66 -309q8 -36 14.5 -78.5t9.5 -66.5l3 -24h4q8 89 23 168l58 310h153l-122 -589h-219l-60 272q-8 36 -13.5 78t-6.5 66l-2 24h-4q-5 -87 -24 -169l-64 -271h-212l-122 589h159l61 -309q7 -36 13.5 -78.5t8.5 -66.5l3 -24h4q9 88 25 168l63 310h181zM521 645
h-136l-113 150h184z" />
    <glyph glyph-name="wgrave" unicode="&#x1e81;" horiz-adv-x="738" 
d="M437 462l45 -164q12 -41 19.5 -88t9.5 -73l2 -26h4q5 92 26 185l38 166h147l-119 -462h-176l-39 147q-8 31 -14 68.5t-8 59.5l-1 22h-4q-5 -79 -22 -151l-34 -146h-175l-126 462h150l43 -166q11 -41 18 -87.5t9 -72.5l2 -25h4q5 94 27 187l40 164h134zM446 525h-136
l-117 156h184z" />
    <glyph glyph-name="Wacute" unicode="&#x1e82;" horiz-adv-x="889" 
d="M538 589l66 -309q8 -36 14.5 -78.5t9.5 -66.5l3 -24h4q8 89 23 168l58 310h153l-122 -589h-219l-60 272q-8 36 -13.5 78t-6.5 66l-2 24h-4q-5 -87 -24 -169l-64 -271h-212l-122 589h159l61 -309q7 -36 13.5 -78.5t8.5 -66.5l3 -24h4q9 88 25 168l63 310h181zM502 645
h-136l65 150h184z" />
    <glyph glyph-name="wacute" unicode="&#x1e83;" horiz-adv-x="738" 
d="M437 462l45 -164q12 -41 19.5 -88t9.5 -73l2 -26h4q5 92 26 185l38 166h147l-119 -462h-176l-39 147q-8 31 -14 68.5t-8 59.5l-1 22h-4q-5 -79 -22 -151l-34 -146h-175l-126 462h150l43 -166q11 -41 18 -87.5t9 -72.5l2 -25h4q5 94 27 187l40 164h134zM427 525h-136
l69 156h184z" />
    <glyph glyph-name="Wdieresis" unicode="&#x1e84;" horiz-adv-x="889" 
d="M538 589l66 -309q8 -36 14.5 -78.5t9.5 -66.5l3 -24h4q8 89 23 168l58 310h153l-122 -589h-219l-60 272q-8 36 -13.5 78t-6.5 66l-2 24h-4q-5 -87 -24 -169l-64 -271h-212l-122 589h159l61 -309q7 -36 13.5 -78.5t8.5 -66.5l3 -24h4q9 88 25 168l63 310h181zM248 726
q0 39 22.5 60t56.5 21q37 0 59.5 -20.5t22.5 -60.5q0 -38 -22.5 -59t-59.5 -21q-34 0 -56.5 21t-22.5 59zM473 726q0 39 22.5 60t56.5 21q37 0 59.5 -20.5t22.5 -60.5q0 -38 -22.5 -59t-59.5 -21q-34 0 -56.5 21t-22.5 59z" />
    <glyph glyph-name="wdieresis" unicode="&#x1e85;" horiz-adv-x="738" 
d="M437 462l45 -164q12 -41 19.5 -88t9.5 -73l2 -26h4q5 92 26 185l38 166h147l-119 -462h-176l-39 147q-8 31 -14 68.5t-8 59.5l-1 22h-4q-5 -79 -22 -151l-34 -146h-175l-126 462h150l43 -166q11 -41 18 -87.5t9 -72.5l2 -25h4q5 94 27 187l40 164h134zM173 596
q0 39 22.5 60t56.5 21q37 0 59.5 -20.5t22.5 -60.5q0 -38 -22.5 -59t-59.5 -21q-34 0 -56.5 21t-22.5 59zM398 596q0 39 22.5 60t56.5 21q37 0 59.5 -20.5t22.5 -60.5q0 -38 -22.5 -59t-59.5 -21q-34 0 -56.5 21t-22.5 59z" />
    <glyph glyph-name="Idotbelow" unicode="&#x1eca;" horiz-adv-x="300" 
d="M75 589h150v-589h-150v589zM61 -129q0 40 24.5 61.5t63.5 21.5q41 0 66 -21t25 -62q0 -39 -25.5 -60.5t-65.5 -21.5q-38 0 -63 21.5t-25 60.5z" />
    <glyph glyph-name="idotbelow" unicode="&#x1ecb;" horiz-adv-x="268" 
d="M46 601q0 40 25 61.5t63 21.5q41 0 66 -21t25 -62q0 -39 -25.5 -60.5t-65.5 -21.5q-38 0 -63 21.5t-25 60.5zM60 462h148v-462h-148v462zM46 -129q0 40 24.5 61.5t63.5 21.5q41 0 66 -21t25 -62q0 -39 -25.5 -60.5t-65.5 -21.5q-38 0 -63 21.5t-25 60.5z" />
    <glyph glyph-name="Odotbelow" unicode="&#x1ecc;" horiz-adv-x="648" 
d="M324 -12q-134 0 -209 79.5t-75 226.5t75 227t209 80t209 -80t75 -227t-75 -226.5t-209 -79.5zM324 467q-63 0 -95.5 -46t-32.5 -129t32 -128.5t96 -45.5t96 45.5t32 128.5t-32.5 129t-95.5 46zM235 -129q0 40 24.5 61.5t63.5 21.5q41 0 66 -21t25 -62q0 -39 -25.5 -60.5
t-65.5 -21.5q-38 0 -63 21.5t-25 60.5z" />
    <glyph glyph-name="odotbelow" unicode="&#x1ecd;" horiz-adv-x="516" 
d="M258 -12q-104 0 -166 64.5t-62 179.5q0 116 61.5 178.5t166.5 62.5t166.5 -62.5t61.5 -178.5q0 -115 -62 -179.5t-166 -64.5zM258 355q-82 0 -82 -124q0 -66 20 -97t62 -31t62 31t20 97q0 124 -82 124zM169 -129q0 40 24.5 61.5t63.5 21.5q41 0 66 -21t25 -62
q0 -39 -25.5 -60.5t-65.5 -21.5q-38 0 -63 21.5t-25 60.5z" />
    <glyph glyph-name="Udotbelow" unicode="&#x1ee4;" horiz-adv-x="617" 
d="M407 589h150v-391q0 -210 -248 -210q-249 0 -249 210v391h150v-348q0 -65 19.5 -96.5t79.5 -31.5q59 0 78.5 32t19.5 98v346zM219 -129q0 40 24.5 61.5t63.5 21.5q41 0 66 -21t25 -62q0 -39 -25.5 -60.5t-65.5 -21.5q-38 0 -63 21.5t-25 60.5z" />
    <glyph glyph-name="udotbelow" unicode="&#x1ee5;" horiz-adv-x="538" 
d="M350 0l-18 87q-22 -99 -143 -99q-65 0 -102 36t-37 112v326h148v-281q0 -81 57 -81q75 0 75 122v240h148v-462h-128zM175 -129q0 40 24.5 61.5t63.5 21.5q41 0 66 -21t25 -62q0 -39 -25.5 -60.5t-65.5 -21.5q-38 0 -63 21.5t-25 60.5z" />
    <glyph glyph-name="Ygrave" unicode="&#x1ef2;" 
d="M181 589l60 -125q17 -36 28.5 -70t14.5 -50l3 -16h4q5 56 45 136l61 125h158l-191 -402v-187h-150v187l-204 402h171zM359 645h-136l-113 150h184z" />
    <glyph glyph-name="ygrave" unicode="&#x1ef3;" horiz-adv-x="498" 
d="M162 462l54 -196q11 -40 18.5 -77.5t9.5 -54.5l2 -18h4q5 61 32 150l60 196h156l-187 -504q-38 -102 -87 -134t-132 -32q-39 0 -87 11l23 132q26 -17 61 -17q60 0 82 56l-171 488h162zM326 525h-136l-117 156h184z" />
    <glyph glyph-name="Ytilde" unicode="&#x1ef8;" 
d="M181 589l60 -125q17 -36 28.5 -70t14.5 -50l3 -16h4q5 56 45 136l61 125h158l-191 -402v-187h-150v187l-204 402h171zM360 647q-37 0 -75 22q-43 25 -57 25q-16 0 -25.5 -12.5t-5.5 -36.5h-81q-30 60 -0.5 113.5t92.5 53.5q31 0 64 -19q50 -29 64 -29q34 0 26 45h84
q30 -64 3.5 -113t-89.5 -49z" />
    <glyph glyph-name="ytilde" unicode="&#x1ef9;" horiz-adv-x="498" 
d="M162 462l54 -196q11 -40 18.5 -77.5t9.5 -54.5l2 -18h4q5 61 32 150l60 196h156l-187 -504q-38 -102 -87 -134t-132 -32q-39 0 -87 11l23 132q26 -17 61 -17q60 0 82 56l-171 488h162zM328 519q-37 0 -75 22q-43 25 -57 25q-16 0 -25.5 -12.5t-5.5 -36.5h-81
q-30 60 -0.5 113.5t92.5 53.5q31 0 64 -19q50 -29 64 -29q34 0 26 45h84q30 -64 3.5 -113t-89.5 -49z" />
    <glyph glyph-name="enspace" unicode="&#x2002;" horiz-adv-x="450" 
 />
    <glyph glyph-name="emspace" unicode="&#x2003;" horiz-adv-x="900" 
 />
    <glyph glyph-name="threeperemspace" unicode="&#x2004;" horiz-adv-x="300" 
 />
    <glyph glyph-name="fourperemspace" unicode="&#x2005;" horiz-adv-x="225" 
 />
    <glyph glyph-name="sixperemspace" unicode="&#x2006;" horiz-adv-x="150" 
 />
    <glyph glyph-name="figurespace" unicode="&#x2007;" horiz-adv-x="513" 
 />
    <glyph glyph-name="punctuationspace" unicode="&#x2008;" horiz-adv-x="171" 
 />
    <glyph glyph-name="thinspace" unicode="&#x2009;" horiz-adv-x="90" 
 />
    <glyph glyph-name="hairspace" unicode="&#x200a;" horiz-adv-x="45" 
 />
    <glyph glyph-name="zerowidthspace" unicode="&#x200b;" horiz-adv-x="0" 
 />
    <glyph glyph-name="figuredash" unicode="&#x2012;" horiz-adv-x="579" 
d="M60 206v98h459v-98h-459z" />
    <glyph glyph-name="endash" unicode="&#x2013;" horiz-adv-x="500" 
d="M60 206v98h380v-98h-380z" />
    <glyph glyph-name="emdash" unicode="&#x2014;" horiz-adv-x="1000" 
d="M60 206v98h880v-98h-880z" />
    <glyph glyph-name="uni2015" unicode="&#x2015;" horiz-adv-x="1250" 
d="M60 206v98h1130v-98h-1130z" />
    <glyph glyph-name="doublebar" unicode="&#x2016;" horiz-adv-x="531" 
d="M217 -203h-117v871h117v-871zM431 -203h-117v871h117v-871z" />
    <glyph glyph-name="quoteleft" unicode="&#x2018;" horiz-adv-x="257" 
d="M30 501q0 94 53 137.5t144 43.5v-59q-99 -8 -99 -76q38 6 67 -15.5t29 -62.5t-26 -62.5t-65 -21.5q-46 0 -74.5 32t-28.5 84z" />
    <glyph glyph-name="quoteright" unicode="&#x2019;" horiz-adv-x="257" 
d="M227 566q0 -94 -53 -137.5t-144 -43.5v59q99 8 99 76q-38 -6 -67 15.5t-29 62.5t26 62.5t65 21.5q46 0 74.5 -32t28.5 -84z" />
    <glyph glyph-name="quotesinglbase" unicode="&#x201a;" horiz-adv-x="257" 
d="M227 47q0 -94 -53 -137.5t-144 -43.5v59q99 8 99 76q-38 -6 -67 15.5t-29 62.5t26 62.5t65 21.5q46 0 74.5 -32t28.5 -84z" />
    <glyph glyph-name="reversequoteleft" unicode="&#x201b;" horiz-adv-x="257" 
d="M30 566q0 52 28.5 84t74.5 32q39 0 65 -21.5t26 -62.5t-29 -62.5t-67 -15.5q0 -68 99 -76v-59q-91 0 -144 43.5t-53 137.5z" />
    <glyph glyph-name="quotedblleft" unicode="&#x201c;" horiz-adv-x="502" 
d="M30 501q0 94 53 137.5t144 43.5v-59q-99 -8 -99 -76q38 6 67 -15.5t29 -62.5t-26 -62.5t-65 -21.5q-46 0 -74.5 32t-28.5 84zM275 501q0 94 53 137.5t144 43.5v-59q-99 -8 -99 -76q38 6 67 -15.5t29 -62.5t-26 -62.5t-65 -21.5q-46 0 -74.5 32t-28.5 84z" />
    <glyph glyph-name="quotedblright" unicode="&#x201d;" horiz-adv-x="502" 
d="M227 566q0 -94 -53 -137.5t-144 -43.5v59q99 8 99 76q-38 -6 -67 15.5t-29 62.5t26 62.5t65 21.5q46 0 74.5 -32t28.5 -84zM472 566q0 -94 -53 -137.5t-144 -43.5v59q99 8 99 76q-38 -6 -67 15.5t-29 62.5t26 62.5t65 21.5q46 0 74.5 -32t28.5 -84z" />
    <glyph glyph-name="quotedblbase" unicode="&#x201e;" horiz-adv-x="502" 
d="M227 47q0 -94 -53 -137.5t-144 -43.5v59q99 8 99 76q-38 -6 -67 15.5t-29 62.5t26 62.5t65 21.5q46 0 74.5 -32t28.5 -84zM472 47q0 -94 -53 -137.5t-144 -43.5v59q99 8 99 76q-38 -6 -67 15.5t-29 62.5t26 62.5t65 21.5q46 0 74.5 -32t28.5 -84z" />
    <glyph glyph-name="reversequotedblleft" unicode="&#x201f;" horiz-adv-x="502" 
d="M30 566q0 52 28.5 84t74.5 32q39 0 65 -21.5t26 -62.5t-29 -62.5t-67 -15.5q0 -68 99 -76v-59q-91 0 -144 43.5t-53 137.5zM275 566q0 52 28.5 84t74.5 32q39 0 65 -21.5t26 -62.5t-29 -62.5t-67 -15.5q0 -68 99 -76v-59q-91 0 -144 43.5t-53 137.5z" />
    <glyph glyph-name="dagger" unicode="&#x2020;" horiz-adv-x="556" 
d="M216 243l-176 -11v133l175 -10l-10 234h146l-10 -234l175 10v-133l-175 11l10 -393h-145z" />
    <glyph glyph-name="daggerdbl" unicode="&#x2021;" horiz-adv-x="557" 
d="M341 293v-128l176 10v-133l-176 11l10 -203h-144l11 203l-178 -11v133l176 -10v128l-176 -11v134l176 -11l-10 184h145l-10 -184l176 11v-134z" />
    <glyph glyph-name="bullet" unicode="&#x2022;" horiz-adv-x="369" 
d="M55 262q0 52 38.5 90.5t90.5 38.5q53 0 91.5 -38t38.5 -91t-38.5 -91.5t-91.5 -38.5t-91 38.5t-38 91.5z" />
    <glyph glyph-name="ellipsis" unicode="&#x2026;" horiz-adv-x="882" 
d="M55 85q0 40 26 67t64 27q41 0 67.5 -26.5t26.5 -67.5q0 -38 -27 -64t-67 -26q-37 0 -63.5 26.5t-26.5 63.5zM349 85q0 40 26 67t64 27q41 0 67.5 -26.5t26.5 -67.5q0 -38 -27 -64t-67 -26q-37 0 -63.5 26.5t-26.5 63.5zM643 85q0 40 26 67t64 27q41 0 67.5 -26.5
t26.5 -67.5q0 -38 -27 -64t-67 -26q-37 0 -63.5 26.5t-26.5 63.5z" />
    <glyph glyph-name="perthousand" unicode="&#x2030;" horiz-adv-x="1240" 
d="M181 229q-78 0 -117 51t-39 133q0 80 41 132t115 52t115 -52t41 -132q0 -82 -39 -133t-117 -51zM181 504q-23 0 -36.5 -25t-13.5 -68q0 -41 14 -66.5t36 -25.5q23 0 37 25.5t14 66.5q0 44 -13.5 68.5t-37.5 24.5zM246 0l305 589h87l-308 -589h-84zM709 -7q-78 0 -117 51
t-39 133q0 80 41 132t115 52t115 -52t41 -132q0 -82 -39 -133t-117 -51zM709 268q-23 0 -36.5 -25t-13.5 -68q0 -41 14 -66.5t36 -25.5q23 0 37 25.5t14 66.5q0 44 -13.5 68.5t-37.5 24.5zM1059 -7q-78 0 -117 51t-39 133q0 80 41 132t115 52t115 -52t41 -132
q0 -82 -39 -133t-117 -51zM1059 268q-23 0 -36.5 -25t-13.5 -68q0 -41 14 -66.5t36 -25.5q23 0 37 25.5t14 66.5q0 44 -13.5 68.5t-37.5 24.5z" />
    <glyph glyph-name="tripleprime" unicode="&#x2034;" horiz-adv-x="622" 
d="M65 412v256h142l-54 -256h-88zM250 412v256h142l-54 -256h-88zM435 412v256h142l-54 -256h-88z" />
    <glyph glyph-name="guilsinglleft" unicode="&#x2039;" horiz-adv-x="336" 
d="M164 237v-4q23 -6 51 -36l91 -100l-73 -72l-203 212l203 212l72 -73l-91 -100q-12 -13 -24.5 -23t-19.5 -13z" />
    <glyph glyph-name="guilsinglright" unicode="&#x203a;" horiz-adv-x="336" 
d="M172 233v4q-22 9 -50 39l-91 100l72 73l203 -212l-203 -212l-73 72l91 100q12 13 25 22t20 11z" />
    <glyph glyph-name="fraction" unicode="&#x2044;" horiz-adv-x="172" 
d="M-110 0l305 589h87l-308 -589h-84z" />
    <glyph glyph-name="uni2070" unicode="&#x2070;" horiz-adv-x="362" 
d="M181 229q-78 0 -117 51t-39 133q0 80 41 132t115 52t115 -52t41 -132q0 -82 -39 -133t-117 -51zM181 504q-23 0 -36.5 -25t-13.5 -68q0 -41 14 -66.5t36 -25.5q23 0 37 25.5t14 66.5q0 44 -13.5 68.5t-37.5 24.5z" />
    <glyph glyph-name="uni2074" unicode="&#x2074;" horiz-adv-x="358" 
d="M183 236v64h-173v72l177 217h104v-212h47v-77h-47v-64h-108zM185 375v58l4 72h-4q-8 -25 -26 -48l-29 -37q-9 -12 -21 -24t-19 -18l-7 -5v-4q23 6 56 6h46z" />
    <glyph glyph-name="uni2075" unicode="&#x2075;" horiz-adv-x="333" 
d="M40 381l9 208h238v-88h-156l-4 -59q22 23 72 23q48 0 78.5 -31t30.5 -81q0 -62 -43.5 -93t-109.5 -31q-127 0 -145 84l93 43q2 -20 16 -33.5t37 -13.5q49 0 49 44q0 19 -11 31t-29 12q-23 0 -36 -15h-89z" />
    <glyph glyph-name="uni2076" unicode="&#x2076;" horiz-adv-x="346" 
d="M313 542l-71 -63q-16 32 -52 32q-63 0 -63 -102h4q18 49 84 49q48 0 77 -30t29 -79q0 -56 -38.5 -88t-105.5 -32q-74 0 -113 45t-39 132q0 92 48 141.5t120 49.5q78 0 120 -55zM142 349q0 -18 12 -29t31 -11q18 0 30 11t12 29q0 19 -12 30.5t-30 11.5q-19 0 -31 -11.5
t-12 -30.5z" />
    <glyph glyph-name="uni2077" unicode="&#x2077;" horiz-adv-x="328" 
d="M198 501h-94v-55h-89v143h298v-81l-130 -272h-116z" />
    <glyph glyph-name="uni2078" unicode="&#x2078;" horiz-adv-x="342" 
d="M171 379q-40 0 -40 -37q0 -15 11 -25.5t29 -10.5t29 10.5t11 25.5q0 37 -40 37zM171 229q-67 0 -106.5 25.5t-39.5 74.5q0 72 83 85v4q-35 2 -54 24.5t-19 50.5q0 48 35.5 76t100.5 28t100.5 -28t35.5 -76q0 -28 -19 -50.5t-54 -24.5v-4q83 -13 83 -85q0 -49 -39.5 -74.5
t-106.5 -25.5zM171 523q-18 0 -27 -9.5t-9 -24.5q0 -32 36 -32t36 32q0 15 -9 24.5t-27 9.5z" />
    <glyph glyph-name="uni2079" unicode="&#x2079;" horiz-adv-x="346" 
d="M33 284l71 63q16 -32 52 -32q63 0 63 102h-4q-18 -49 -84 -49q-48 0 -77 30t-29 79q0 56 38.5 88t105.5 32q74 0 113 -45t39 -132q0 -92 -48 -141.5t-120 -49.5q-78 0 -120 55zM204 476q0 18 -12 29t-31 11q-18 0 -30 -11t-12 -29q0 -19 12 -30.5t30 -11.5q19 0 31 11.5
t12 30.5z" />
    <glyph glyph-name="uni207A" unicode="&#x207a;" horiz-adv-x="443" 
d="M45 454h139v135h72v-135h142v-72h-142v-146h-72v146h-139v72z" />
    <glyph glyph-name="uni207B" unicode="&#x207b;" horiz-adv-x="443" 
d="M398 382h-353v72h353v-72z" />
    <glyph glyph-name="uni207C" unicode="&#x207c;" horiz-adv-x="443" 
d="M398 320h-353v71h353v-71zM398 456h-353v71h353v-71z" />
    <glyph glyph-name="uni207D" unicode="&#x207d;" horiz-adv-x="233" 
d="M124 408q0 -47 13.5 -91.5t25.5 -67t40 -67.5h-83q-22 33 -34.5 56t-26 70t-13.5 100t13.5 101t26 71t34.5 56h83q-27 -43 -40 -67.5t-26 -69t-13 -91.5z" />
    <glyph glyph-name="uni207E" unicode="&#x207e;" horiz-adv-x="233" 
d="M125 408q0 47 -13 91.5t-26 69t-40 67.5h84q22 -34 34 -56.5t25.5 -70.5t13.5 -101t-13.5 -100.5t-25.5 -69.5t-34 -56h-84q28 45 40 67.5t25.5 67t13.5 91.5z" />
    <glyph glyph-name="n.superior" unicode="&#x207f;" horiz-adv-x="422" 
d="M157 593l13 -59q23 67 101 67q44 0 72.5 -25.5t28.5 -78.5v-210h-115v175q0 27 -7.5 40.5t-29.5 13.5q-50 0 -50 -65v-164h-115v306h102z" />
    <glyph glyph-name="uni2080" unicode="&#x2080;" horiz-adv-x="362" 
d="M181 -7q-78 0 -117 51t-39 133q0 80 41 132t115 52t115 -52t41 -132q0 -82 -39 -133t-117 -51zM181 268q-23 0 -36.5 -25t-13.5 -68q0 -41 14 -66.5t36 -25.5q23 0 37 25.5t14 66.5q0 44 -13.5 68.5t-37.5 24.5z" />
    <glyph glyph-name="uni2081" unicode="&#x2081;" horiz-adv-x="320" 
d="M300 0h-261v79h81v177l-90 -7v84l196 20v-274h74v-79z" />
    <glyph glyph-name="uni2082" unicode="&#x2082;" horiz-adv-x="341" 
d="M314 84v-84h-283v68q95 68 128 100t33 63q0 37 -36 37q-18 0 -31.5 -14.5t-13.5 -44.5l-91 34q3 50 40 84t106 34q62 0 100 -30t38 -86q0 -57 -40 -96t-94 -61v-4h144z" />
    <glyph glyph-name="uni2083" unicode="&#x2083;" horiz-adv-x="328" 
d="M203 179v-2q100 -7 100 -88q0 -47 -39.5 -71.5t-112.5 -24.5q-56 0 -94 21t-47 60l87 36q10 -40 56 -40q36 0 36 27q0 42 -84 44v60q79 2 79 45q0 30 -29 30q-18 0 -30 -9.5t-13 -27.5l-86 33q7 43 45 66t94 23q57 0 91 -24t34 -69q0 -72 -87 -89z" />
    <glyph glyph-name="uni2084" unicode="&#x2084;" horiz-adv-x="358" 
d="M183 0v64h-173v72l177 217h104v-212h47v-77h-47v-64h-108zM185 139v58l4 72h-4q-8 -25 -26 -48l-29 -37q-9 -12 -21 -23.5t-19 -17.5l-7 -6v-4q23 6 56 6h46z" />
    <glyph glyph-name="uni2085" unicode="&#x2085;" horiz-adv-x="333" 
d="M40 145l9 208h238v-88h-156l-4 -59q22 23 72 23q48 0 78.5 -31t30.5 -81q0 -62 -43.5 -93t-109.5 -31q-127 0 -145 84l93 43q2 -20 16 -33.5t37 -13.5q49 0 49 44q0 19 -11 31t-29 12q-23 0 -36 -15h-89z" />
    <glyph glyph-name="uni2086" unicode="&#x2086;" horiz-adv-x="346" 
d="M313 306l-71 -63q-16 32 -52 32q-63 0 -63 -102h4q18 49 84 49q48 0 77 -30t29 -79q0 -56 -38.5 -88t-105.5 -32q-74 0 -113 45t-39 132q0 92 48 141.5t120 49.5q78 0 120 -55zM142 113q0 -18 12 -29t31 -11q18 0 30 11t12 29q0 19 -12 30.5t-30 11.5q-19 0 -31 -11.5
t-12 -30.5z" />
    <glyph glyph-name="uni2087" unicode="&#x2087;" horiz-adv-x="328" 
d="M198 265h-94v-55h-89v143h298v-81l-130 -272h-116z" />
    <glyph glyph-name="uni2088" unicode="&#x2088;" horiz-adv-x="342" 
d="M171 143q-40 0 -40 -37q0 -15 11 -25.5t29 -10.5t29 10.5t11 25.5q0 37 -40 37zM171 -7q-67 0 -106.5 25.5t-39.5 74.5q0 72 83 85v4q-35 2 -54 24.5t-19 50.5q0 48 35.5 76t100.5 28t100.5 -28t35.5 -76q0 -28 -19 -50.5t-54 -24.5v-4q83 -13 83 -85q0 -49 -39.5 -74.5
t-106.5 -25.5zM171 287q-18 0 -27 -9.5t-9 -24.5q0 -32 36 -32t36 32q0 15 -9 24.5t-27 9.5z" />
    <glyph glyph-name="uni2089" unicode="&#x2089;" horiz-adv-x="346" 
d="M33 48l71 63q16 -32 52 -32q63 0 63 102h-4q-18 -49 -84 -49q-48 0 -77 30t-29 79q0 56 38.5 88t105.5 32q74 0 113 -45t39 -132q0 -92 -48 -141.5t-120 -49.5q-78 0 -120 55zM204 240q0 18 -12 29t-31 11q-18 0 -30 -11t-12 -29q0 -19 12 -30.5t30 -11.5q19 0 31 11.5
t12 30.5z" />
    <glyph glyph-name="uni208A" unicode="&#x208a;" horiz-adv-x="443" 
d="M45 218h139v135h72v-135h142v-71h-142v-147h-72v147h-139v71z" />
    <glyph glyph-name="uni208B" unicode="&#x208b;" horiz-adv-x="443" 
d="M398 147h-353v71h353v-71z" />
    <glyph glyph-name="uni208C" unicode="&#x208c;" horiz-adv-x="443" 
d="M398 85h-353v71h353v-71zM398 220h-353v72h353v-72z" />
    <glyph glyph-name="uni208D" unicode="&#x208d;" horiz-adv-x="233" 
d="M124 172q0 -47 13.5 -91.5t25.5 -67t40 -67.5h-83q-23 35 -35 57t-25.5 69t-13.5 100t13.5 101t26 71t34.5 56h83q-26 -42 -39.5 -67t-26.5 -69.5t-13 -91.5z" />
    <glyph glyph-name="uni208E" unicode="&#x208e;" horiz-adv-x="233" 
d="M125 172q0 47 -13 91.5t-26.5 69.5t-39.5 67h84q22 -34 34 -56.5t25.5 -70.5t13.5 -101t-13.5 -100.5t-25 -68.5t-34.5 -57h-84q28 45 40 67.5t25.5 67t13.5 91.5z" />
    <glyph glyph-name="uni20A1" unicode="&#x20a1;" horiz-adv-x="519" 
d="M113 -67l32 87q-105 62 -105 219q0 123 65.5 188.5t185.5 65.5q5 0 14 -0.5t14 -0.5l29 79l47 -18l-26 -70q18 -5 33 -12l27 73l47 -17l-32 -85q32 -28 54 -80l-102 -51l-77 -207q43 13 62 69l118 -70q-32 -61 -83.5 -88t-135.5 -27h-4l-36 -99l-47 17l32 87q-21 4 -34 7
l-31 -85zM233 113q15 -10 32 -13l91 246q-11 18 -28 26zM185 241q0 -49 12 -80l82 223q-43 0 -68.5 -35t-25.5 -108z" />
    <glyph glyph-name="uni20A2" unicode="&#x20a2;" horiz-adv-x="519" 
d="M395 164l104 -61q-32 -61 -83.5 -88t-135.5 -27q-112 0 -176 64t-64 187t65.5 188.5t185.5 65.5q154 0 207 -131l-124 -62q-11 40 -31.5 62t-63.5 22t-68.5 -35t-25.5 -108q0 -110 58 -142v181h82l10 -67q8 37 30.5 55.5t73.5 18.5l-13 -102q-13 5 -30 5q-61 0 -61 -54
v-37q44 19 60 65z" />
    <glyph glyph-name="franc" unicode="&#x20a3;" horiz-adv-x="474" 
d="M384 140h-137v-140h-149v140h-58v53h58v47h-58v53h58v188h361v-120h-212v-68h137v-53h-137v-47h137v-53z" />
    <glyph glyph-name="lira" unicode="&#x20a4;" horiz-adv-x="522" 
d="M344 160h-98q-9 -28 -30 -40h111q57 0 74 47l101 -60q-7 -51 -48 -79t-99 -28h-310v120h32q40 0 50 40h-87v53h83q-4 9 -14 27h-69v53h44q-6 21 -6 50q0 66 54 108t128 42q176 0 194 -139l-130 -35q-6 27 -22 42.5t-37 15.5q-56 0 -56 -51q0 -19 11 -33h124v-53h-93
q3 -12 3 -26v-1h90v-53z" />
    <glyph glyph-name="uni20A6" unicode="&#x20a6;" horiz-adv-x="701" 
d="M676 150h-73v-150h-134l-165 201q-17 21 -30.5 41t-17.5 29l-5 9h-4q6 -44 6 -131v-149h-149v150h-79v53h79v57h-78v53h78v168h159l146 -184q15 -19 26.5 -36t14.5 -25l4 -8h4q-4 46 -4 121v132h149v-168h72v-53h-72v-57h73v-53z" />
    <glyph glyph-name="peseta" unicode="&#x20a7;" horiz-adv-x="1275" 
d="M219 0h-149v481h207q152 0 193 -90h356q35 102 194 102q91 0 143 -35t53 -102l-143 -16q-4 47 -59 47q-50 0 -50 -37q0 -33 46 -42l69 -14q73 -14 109.5 -55.5t36.5 -99.5q0 -78 -57 -114.5t-152 -36.5q-190 0 -213 121l111 52q21 -67 108 -67q58 0 58 32q0 13 -7 20
t-15.5 10t-35.5 10l-73 17q-92 20 -120 88h-104v-271h-150v271h-87q-7 -78 -58 -118.5t-139 -40.5h-72v-112zM219 363v-133h52q36 0 53.5 15t17.5 50q0 37 -17 52.5t-53 15.5h-53z" />
    <glyph glyph-name="uni20A8" unicode="&#x20a8;" horiz-adv-x="890" 
d="M219 363v-113h65q62 0 62 57q0 56 -62 56h-65zM295 481q202 0 202 -159q0 -60 -34.5 -91.5t-91.5 -36.5v-4q11 0 19.5 -1t17 -3t13 -3t12.5 -5l11 -5.5l13 -6.5t13 -7l92 -48q60 -32 113 -32q37 0 37 18t-35 26l-63 14q-91 21 -91 108q0 64 45 91.5t113 27.5
q72 0 112 -26t41 -76l-111 -12q-4 34 -45 34q-31 0 -31 -23q0 -11 7 -17t28 -10l43 -9q115 -21 115 -126q0 -111 -173 -111q-163 0 -262 65l-67 44q-64 41 -99 41h-20v-138h-149v481h225z" />
    <glyph glyph-name="uni20A9" unicode="&#x20a9;" horiz-adv-x="907" 
d="M867 158h-120l-37 -158h-184l-50 194q-8 28 -13.5 64.5t-6.5 58.5l-2 22h-4q-4 -79 -21 -146l-48 -193h-184l-37 158h-120v53h108l-13 57h-94v53h81l-37 160h156l48 -230q6 -30 10.5 -65.5t5.5 -55.5l1 -21h3q6 76 20 141l50 231h153l54 -228q7 -30 12 -65.5t6 -55.5
l1 -21h3q1 76 15 141l50 229h149l-37 -160h81v-53h-94l-13 -57h108v-53z" />
    <glyph glyph-name="uni20AA" unicode="&#x20aa;" horiz-adv-x="861" 
d="M587 160h-123v159q0 54 -58 54h-177v-373h-149v481h345q162 0 162 -152v-169zM642 481h149v-329q0 -152 -162 -152h-341v320h122v-212h178q25 0 39.5 14t14.5 37v322z" />
    <glyph glyph-name="Euro" unicode="&#x20ac;" horiz-adv-x="566" 
d="M343 164h-96q21 -57 79 -57q36 0 57.5 17t33.5 52l119 -73q-32 -61 -82 -88t-132 -27q-90 0 -149.5 45t-77.5 131h-75v53h68v22v21h-68v53h75q17 88 78.5 134t159.5 46q150 0 202 -131l-125 -65q-11 38 -29.5 58t-58.5 20q-57 0 -77 -62h125l-10 -53h-125v-19
q0 -17 1 -24h117z" />
    <glyph glyph-name="uni20AE" unicode="&#x20ae;" horiz-adv-x="487" 
d="M317 0h-150v107l-98 -17v53l98 17v47l-98 -17v53l98 17v101h-147v120h447v-120h-150v-76l101 18v-53l-101 -18v-47l101 18v-53l-101 -18v-132z" />
    <glyph glyph-name="uni20B1" unicode="&#x20b1;" horiz-adv-x="604" 
d="M584 268h-68q-7 -76 -58 -116t-139 -40h-72v-112h-149v268h-68v53h68v160h207q101 0 152.5 -38.5t58.5 -121.5h68v-53zM247 371v-50h121q-9 50 -68 50h-53zM299 220q59 0 69 48h-121v-48h52z" />
    <glyph glyph-name="afii61289" unicode="&#x2113;" horiz-adv-x="413" 
d="M39 119l-30 57l84 58v231q0 110 40.5 157t121.5 47q140 0 140 -128q0 -108 -42 -182.5t-120 -139.5v-27q0 -44 14.5 -60.5t44.5 -16.5q33 0 65 16l-9 -125q-58 -18 -109 -18q-62 0 -104 30t-42 97v39zM233 493v-190q45 45 66 95t21 139q0 53 -44 53q-23 0 -33 -23
t-10 -74z" />
    <glyph glyph-name="afii61352" unicode="&#x2116;" horiz-adv-x="1059" 
d="M693 0v105h313v-105h-313zM227 186v-18q0 -102 -46 -143t-138 -45l-23 140q57 0 57 69v400h139l180 -247q14 -19 25 -36.5t15 -25.5l4 -7h4q-3 46 -3 121v18q0 102 46 143t138 45l23 -140q-57 0 -57 -69v-391h-134l-180 241q-17 22 -30 41.5t-17 28.5l-5 9h-4
q6 -47 6 -134zM847 152q-74 0 -118 42.5t-44 119.5q0 76 44 118t118 42t118 -42t44 -118q0 -77 -44 -119.5t-118 -42.5zM847 390q-41 0 -41 -79q0 -77 41 -77t41 77q0 79 -41 79z" />
    <glyph glyph-name="published" unicode="&#x2117;" horiz-adv-x="703" 
d="M378 212h-39v-100h-121v373h165q152 0 152 -132q0 -141 -157 -141zM339 388v-86h29q47 0 47 43t-47 43h-29zM45 294q0 132 89 219.5t217 87.5t217.5 -87.5t89.5 -219.5t-89.5 -219t-217.5 -87t-217 87t-89 219zM76 294q0 -120 80.5 -198.5t196.5 -78.5q115 0 195 78.5
t80 198.5t-80 199t-195 79q-116 0 -196.5 -79t-80.5 -199z" />
    <glyph glyph-name="servicemark" unicode="&#x2120;" horiz-adv-x="630" 
d="M20 402l65 27q13 -36 49 -36q27 0 27 17q0 15 -29 21l-40 10q-64 15 -64 73q0 81 110 81q49 0 77.5 -18t29.5 -52l-79 -11q-1 23 -30 23q-22 0 -22 -16q0 -15 24 -20l31 -6q80 -14 80 -81q0 -77 -113 -77q-104 0 -116 65zM590 341h-81v129h-4l-38 -67h-45l-36 67h-5v-129
h-81v248h85l59 -97h1l58 97h87v-248z" />
    <glyph glyph-name="trademark" unicode="&#x2122;" horiz-adv-x="618" 
d="M168 341h-81v183h-67v65h215v-65h-67v-183zM578 341h-81v129h-4l-38 -67h-45l-36 67h-5v-129h-81v248h85l59 -97h1l58 97h87v-248z" />
    <glyph glyph-name="ohm" unicode="&#x2126;" horiz-adv-x="689" 
d="M344 467q-62 0 -95 -43.5t-33 -115.5q0 -67 23.5 -111t57.5 -62v-135h-247v135h123q-47 19 -80 69t-33 122q0 126 76 200.5t208 74.5t208.5 -74.5t76.5 -200.5q0 -72 -33 -122t-81 -69h124v-135h-248v135q35 18 58.5 62t23.5 111q0 72 -33 115.5t-96 43.5z" />
    <glyph glyph-name="estimated" unicode="&#x212e;" horiz-adv-x="647" 
d="M323 601q71 0 126 -25.5t87.5 -69.5t49 -98t16.5 -114v-26h-431v-169q58 -58 152 -58q130 0 184 104h66q-30 -73 -93 -115t-157 -42q-93 0 -157.5 45t-92.5 112.5t-28 148.5q0 82 28 149.5t92.5 112.5t157.5 45zM323 548q-96 0 -152 -58v-170h305v170q-56 58 -153 58z
" />
    <glyph glyph-name="uni2153" unicode="&#x2153;" horiz-adv-x="872" 
d="M309 236h-261v79h81v177l-90 -7v84l196 20v-274h74v-79zM240 0l305 589h87l-308 -589h-84zM725 179v-2q100 -7 100 -88q0 -47 -39.5 -71.5t-112.5 -24.5q-56 0 -94 21t-47 60l87 36q10 -40 56 -40q36 0 36 27q0 42 -84 44v60q79 2 79 45q0 30 -29 30q-18 0 -30 -9.5
t-13 -27.5l-86 33q7 43 45 66t94 23q57 0 91 -24t34 -69q0 -72 -87 -89z" />
    <glyph glyph-name="uni2154" unicode="&#x2154;" horiz-adv-x="872" 
d="M323 320v-84h-283v68q95 68 128 100t33 63q0 37 -36 37q-18 0 -31.5 -14.5t-13.5 -44.5l-91 34q3 50 40 84t106 34q62 0 100 -30t38 -86q0 -57 -40 -96t-94 -61v-4h144zM240 0l305 589h87l-308 -589h-84zM725 179v-2q100 -7 100 -88q0 -47 -39.5 -71.5t-112.5 -24.5
q-56 0 -94 21t-47 60l87 36q10 -40 56 -40q36 0 36 27q0 42 -84 44v60q79 2 79 45q0 30 -29 30q-18 0 -30 -9.5t-13 -27.5l-86 33q7 43 45 66t94 23q57 0 91 -24t34 -69q0 -72 -87 -89z" />
    <glyph glyph-name="uni215B" unicode="&#x215b;" horiz-adv-x="872" 
d="M309 236h-261v79h81v177l-90 -7v84l196 20v-274h74v-79zM240 0l305 589h87l-308 -589h-84zM693 143q-40 0 -40 -37q0 -15 11 -25.5t29 -10.5t29 10.5t11 25.5q0 37 -40 37zM693 -7q-67 0 -106.5 25.5t-39.5 74.5q0 72 83 85v4q-35 2 -54 24.5t-19 50.5q0 48 35.5 76
t100.5 28t100.5 -28t35.5 -76q0 -28 -19 -50.5t-54 -24.5v-4q83 -13 83 -85q0 -49 -39.5 -74.5t-106.5 -25.5zM693 287q-18 0 -27 -9.5t-9 -24.5q0 -32 36 -32t36 32q0 15 -9 24.5t-27 9.5z" />
    <glyph glyph-name="uni215C" unicode="&#x215c;" horiz-adv-x="872" 
d="M222 415v-2q100 -7 100 -88q0 -47 -39.5 -71.5t-112.5 -24.5q-56 0 -94 21t-47 60l87 36q10 -40 56 -40q36 0 36 27q0 42 -84 44v60q79 2 79 45q0 30 -29 30q-18 0 -30 -9.5t-13 -27.5l-86 33q7 43 45 66t94 23q57 0 91 -24t34 -69q0 -72 -87 -89zM240 0l305 589h87
l-308 -589h-84zM693 143q-40 0 -40 -37q0 -15 11 -25.5t29 -10.5t29 10.5t11 25.5q0 37 -40 37zM693 -7q-67 0 -106.5 25.5t-39.5 74.5q0 72 83 85v4q-35 2 -54 24.5t-19 50.5q0 48 35.5 76t100.5 28t100.5 -28t35.5 -76q0 -28 -19 -50.5t-54 -24.5v-4q83 -13 83 -85
q0 -49 -39.5 -74.5t-106.5 -25.5zM693 287q-18 0 -27 -9.5t-9 -24.5q0 -32 36 -32t36 32q0 15 -9 24.5t-27 9.5z" />
    <glyph glyph-name="uni215D" unicode="&#x215d;" horiz-adv-x="872" 
d="M56 381l9 208h238v-88h-156l-4 -59q22 23 72 23q48 0 78.5 -31t30.5 -81q0 -62 -43.5 -93t-109.5 -31q-127 0 -145 84l93 43q2 -20 16 -33.5t37 -13.5q49 0 49 44q0 19 -11 31t-29 12q-23 0 -36 -15h-89zM240 0l305 589h87l-308 -589h-84zM693 143q-40 0 -40 -37
q0 -15 11 -25.5t29 -10.5t29 10.5t11 25.5q0 37 -40 37zM693 -7q-67 0 -106.5 25.5t-39.5 74.5q0 72 83 85v4q-35 2 -54 24.5t-19 50.5q0 48 35.5 76t100.5 28t100.5 -28t35.5 -76q0 -28 -19 -50.5t-54 -24.5v-4q83 -13 83 -85q0 -49 -39.5 -74.5t-106.5 -25.5zM693 287
q-18 0 -27 -9.5t-9 -24.5q0 -32 36 -32t36 32q0 15 -9 24.5t-27 9.5z" />
    <glyph glyph-name="uni215E" unicode="&#x215e;" horiz-adv-x="831" 
d="M210 501h-94v-55h-89v143h298v-81l-130 -272h-116zM207 0l305 589h87l-308 -589h-84zM660 143q-40 0 -40 -37q0 -15 11 -25.5t29 -10.5t29 10.5t11 25.5q0 37 -40 37zM660 -7q-67 0 -106.5 25.5t-39.5 74.5q0 72 83 85v4q-35 2 -54 24.5t-19 50.5q0 48 35.5 76t100.5 28
t100.5 -28t35.5 -76q0 -28 -19 -50.5t-54 -24.5v-4q83 -13 83 -85q0 -49 -39.5 -74.5t-106.5 -25.5zM660 287q-18 0 -27 -9.5t-9 -24.5q0 -32 36 -32t36 32q0 15 -9 24.5t-27 9.5z" />
    <glyph glyph-name="arrowleft" unicode="&#x2190;" horiz-adv-x="717" 
d="M252 358h420v-126h-420l155 -155l-88 -89l-292 307l290 306l89 -90z" />
    <glyph glyph-name="arrowup" unicode="&#x2191;" horiz-adv-x="685" 
d="M406 376v-376h-126v376l-155 -155l-89 89l307 291l306 -290l-90 -89z" />
    <glyph glyph-name="arrowright" unicode="&#x2192;" horiz-adv-x="717" 
d="M27 358h420l-154 153l89 90l290 -306l-291 -307l-89 89l155 155h-420v126z" />
    <glyph glyph-name="arrowdown" unicode="&#x2193;" horiz-adv-x="685" 
d="M279 213v376h126v-376l155 155l89 -88l-307 -292l-306 290l90 89z" />
    <glyph glyph-name="uni2196" unicode="&#x2196;" horiz-adv-x="684" 
d="M577 0l-382 382v-285h-123v492h479v-118h-267l382 -382z" />
    <glyph glyph-name="uni2197" unicode="&#x2197;" horiz-adv-x="684" 
d="M489 382l-382 -382l-89 89l382 382h-267v118h479v-492h-123v285z" />
    <glyph glyph-name="uni2198" unicode="&#x2198;" horiz-adv-x="684" 
d="M107 589l382 -381v284h123v-492h-479v119h267l-382 381z" />
    <glyph glyph-name="uni2199" unicode="&#x2199;" horiz-adv-x="684" 
d="M195 208l382 381l89 -89l-382 -381h267v-119h-479v492h123v-284z" />
    <glyph glyph-name="partialdiff" unicode="&#x2202;" horiz-adv-x="538" 
d="M135 615l128 71q235 -140 235 -417q0 -140 -60 -208t-169 -68q-105 0 -167 62.5t-62 175.5q0 107 59 165t132 58q46 0 73.5 -17t50.5 -48q-34 74 -87 127.5t-133 98.5zM354 221q0 55 -22 84t-63 29q-81 0 -81 -113q0 -55 21 -85t62 -30q83 0 83 115z" />
    <glyph glyph-name="increment" unicode="&#x2206;" horiz-adv-x="631" 
d="M621 0h-611l213 589h183zM416 125l-55 155q-16 44 -27.5 87t-15.5 64l-4 21h-4q-16 -75 -48 -171l-52 -156h206z" />
    <glyph glyph-name="product" unicode="&#x220f;" horiz-adv-x="658" 
d="M224 -203h-149v792h508v-792h-149v657h-210v-657z" />
    <glyph glyph-name="summation" unicode="&#x2211;" horiz-adv-x="484" 
d="M424 459h-146l-63 4v-4q12 -6 44 -59l63 -105l-62 -106q-14 -24 -25 -38.5t-15 -17.5l-4 -3v-4q14 4 63 4h145v-130h-424l164 296l-164 293h424v-130z" />
    <glyph glyph-name="minus" unicode="&#x2212;" horiz-adv-x="498" 
d="M453 207h-408v82h408v-82z" />
    <glyph glyph-name="radical" unicode="&#x221a;" horiz-adv-x="651" 
d="M230 469l126 -323h4l144 528l137 -19l-212 -655h-136l-140 307l-92 -42l-51 106z" />
    <glyph glyph-name="infinity" unicode="&#x221e;" horiz-adv-x="863" 
d="M153 240q0 -45 22.5 -67.5t55.5 -22.5q46 0 87 41l50 49l-50 49q-41 41 -87 41q-33 0 -55.5 -22.5t-22.5 -67.5zM432 168l-45 -42q-37 -34 -53 -47.5t-47 -26t-68 -12.5q-72 0 -123 51t-51 149t51 149t123 51q37 0 67.5 -12t48.5 -26.5t52 -47.5l44 -42l45 42
q37 34 53 47.5t47 26t68 12.5q72 0 123 -51t51 -149t-51 -149t-123 -51q-37 0 -67.5 12t-48.5 26.5t-52 47.5zM710 240q0 45 -22.5 67.5t-55.5 22.5q-46 0 -87 -41l-50 -49l50 -49q41 -41 87 -41q33 0 55.5 22.5t22.5 67.5z" />
    <glyph glyph-name="integral" unicode="&#x222b;" horiz-adv-x="317" 
d="M74 -4v519q0 82 55 121t139 40q62 0 119 -18l-22 -138q-34 25 -76 25q-67 0 -67 -69v-518q0 -82 -55 -121.5t-139 -39.5q-62 0 -118 18l21 137q35 -25 77 -25q66 0 66 69z" />
    <glyph glyph-name="approxequal" unicode="&#x2248;" horiz-adv-x="498" 
d="M358 242q-30 0 -107 20t-100 20q-59 0 -106 -39v79q51 43 112 43q31 0 100 -18.5t95 -18.5q58 0 101 34v-83q-34 -37 -95 -37zM358 107q-30 0 -107 20t-100 20q-59 0 -106 -39v79q51 43 112 43q31 0 100 -18.5t95 -18.5q58 0 101 34v-83q-34 -37 -95 -37z" />
    <glyph glyph-name="notequal" unicode="&#x2260;" horiz-adv-x="498" 
d="M453 282h-124l-50 -72h174v-82h-232l-82 -118l-66 47l49 71h-77v82h134l50 72h-184v82h242l76 109l67 -46l-44 -63h67v-82z" />
    <glyph glyph-name="lessequal" unicode="&#x2264;" horiz-adv-x="442" 
d="M368 402l-166 -100l165 -104l-57 -74l-259 176l265 172zM397 19h-352v82h352v-82z" />
    <glyph glyph-name="greaterequal" unicode="&#x2265;" horiz-adv-x="442" 
d="M239 302l-165 100l52 70l265 -172l-260 -176l-56 74zM397 19h-352v82h352v-82z" />
    <glyph glyph-name="blacksquare" unicode="&#x25a0;" horiz-adv-x="739" 
d="M75 0v589h589v-589h-589z" />
    <glyph glyph-name="whitesquare" unicode="&#x25a1;" horiz-adv-x="739" 
d="M75 0v589h589v-589h-589zM118 546v-503h504v503h-504z" />
    <glyph glyph-name="blacksmallsquare" unicode="&#x25aa;" horiz-adv-x="474" 
d="M75 139v325h324v-325h-324z" />
    <glyph glyph-name="whitesmallsquare" unicode="&#x25ab;" horiz-adv-x="476" 
d="M75 139v325h326v-325h-326zM118 421v-239h240v239h-240z" />
    <glyph glyph-name="triagup" unicode="&#x25b2;" horiz-adv-x="570" 
d="M40 0l245 601l245 -601h-490z" />
    <glyph glyph-name="triagrt" unicode="&#x25ba;" horiz-adv-x="676" 
d="M75 536l601 -245l-601 -245v490z" />
    <glyph glyph-name="triagdn" unicode="&#x25bc;" horiz-adv-x="570" 
d="M285 -12l-245 601h490z" />
    <glyph glyph-name="triaglf" unicode="&#x25c4;" horiz-adv-x="676" 
d="M0 291l601 245v-490z" />
    <glyph glyph-name="lozenge" unicode="&#x25ca;" horiz-adv-x="522" 
d="M482 301l-167 -335h-109l-166 335l166 329h109zM369 300l-106 220l-105 -220l105 -225z" />
    <glyph glyph-name="circle" unicode="&#x25cb;" horiz-adv-x="516" 
d="M40 295q0 90 63.5 154t154.5 64q89 0 153.5 -64t64.5 -154t-64.5 -154t-153.5 -64q-91 0 -154.5 64t-63.5 154zM87 294q0 -72 49.5 -123t121.5 -51q70 0 120.5 51t50.5 123t-50.5 123.5t-120.5 51.5q-72 0 -121.5 -51t-49.5 -124z" />
    <glyph glyph-name="blackcircle" unicode="&#x25cf;" horiz-adv-x="693" 
d="M40 294q0 127 89.5 217t216.5 90t217 -90t90 -217t-90 -216.5t-217 -89.5t-216.5 89.5t-89.5 216.5z" />
    <glyph glyph-name="whitecircle" unicode="&#x25ef;" horiz-adv-x="693" 
d="M40 294q0 127 89.5 217t216.5 90t217 -90t90 -217t-90 -216.5t-217 -89.5t-216.5 89.5t-89.5 216.5zM84 294q0 -110 76.5 -188t185.5 -78q108 0 185 78t77 188t-77 188t-185 78q-109 0 -185.5 -78t-76.5 -188z" />
    <glyph glyph-name="anglebracketleft" unicode="&#x3008;" horiz-adv-x="350" 
d="M330 -203h-152l-153 439l153 432h152l-152 -435z" />
    <glyph glyph-name="anglebracketright" unicode="&#x3009;" horiz-adv-x="350" 
d="M172 -203h-152l152 436l-152 435h152l153 -432z" />
    <glyph glyph-name="lcedilla" unicode="&#xe100;" horiz-adv-x="298" 
d="M274 -116q0 -46 -33.5 -70.5t-85.5 -24.5q-77 0 -110 36l26 67q31 -34 66 -34q28 0 28 24q0 31 -47 38l9 79q-77 26 -77 115v554h148v-508q0 -39 43 -39q20 0 37 7l-8 -124q-42 -13 -82 -14l-2 -25q88 -5 88 -81z" />
    <glyph glyph-name="uni004500600323" unicode="&#xe101;" horiz-adv-x="531" 
d="M481 130v-130h-406v589h406v-130h-256v-98h225v-125h-225v-106h256zM189 -129q0 40 24.5 61.5t63.5 21.5q41 0 66 -21t25 -62q0 -39 -25.5 -60.5t-65.5 -21.5q-38 0 -63 21.5t-25 60.5zM336 645h-136l65 150h184z" />
    <glyph glyph-name="uni006500600323" unicode="&#xe102;" horiz-adv-x="491" 
d="M261 102q55 0 74 58l126 -45q-18 -66 -73 -96.5t-129 -30.5q-103 0 -166 63t-63 172q0 119 61 184.5t169 65.5q97 0 148 -56.5t51 -150.5q0 -28 -6 -60h-280q2 -49 24.5 -76.5t63.5 -27.5zM177 284h140q1 5 1 14q0 30 -16 48t-47 18q-33 0 -54 -22.5t-24 -57.5zM303 525
h-136l69 156h184zM156 -129q0 40 24.5 61.5t63.5 21.5q41 0 66 -21t25 -62q0 -39 -25.5 -60.5t-65.5 -21.5q-38 0 -63 21.5t-25 60.5z" />
    <glyph glyph-name="uni004500B40323" unicode="&#xe103;" horiz-adv-x="531" 
d="M481 130v-130h-406v589h406v-130h-256v-98h225v-125h-225v-106h256zM189 -129q0 40 24.5 61.5t63.5 21.5q41 0 66 -21t25 -62q0 -39 -25.5 -60.5t-65.5 -21.5q-38 0 -63 21.5t-25 60.5zM355 645h-136l-113 150h184z" />
    <glyph glyph-name="uni006500B40323" unicode="&#xe104;" horiz-adv-x="491" 
d="M261 102q55 0 74 58l126 -45q-18 -66 -73 -96.5t-129 -30.5q-103 0 -166 63t-63 172q0 119 61 184.5t169 65.5q97 0 148 -56.5t51 -150.5q0 -28 -6 -60h-280q2 -49 24.5 -76.5t63.5 -27.5zM177 284h140q1 5 1 14q0 30 -16 48t-47 18q-33 0 -54 -22.5t-24 -57.5zM322 525
h-136l-117 156h184zM156 -129q0 40 24.5 61.5t63.5 21.5q41 0 66 -21t25 -62q0 -39 -25.5 -60.5t-65.5 -21.5q-38 0 -63 21.5t-25 60.5z" />
    <glyph glyph-name="Gtilde" unicode="&#xe105;" horiz-adv-x="635" 
d="M320 318h260v-318h-88l-25 63q-46 -75 -162 -75q-120 0 -192.5 76.5t-72.5 227.5q0 148 76.5 228.5t215.5 80.5q90 0 153 -40t93 -112l-146 -71q-26 90 -104 90q-22 0 -42.5 -7.5t-42.5 -26t-35.5 -56t-13.5 -89.5q0 -80 32.5 -129.5t105.5 -49.5q55 0 80 22t25 56v12
h-117v118zM412 647q-37 0 -75 22q-43 25 -57 25q-16 0 -25.5 -12.5t-5.5 -36.5h-81q-30 60 -0.5 113.5t92.5 53.5q31 0 64 -19q50 -29 64 -29q34 0 26 45h84q30 -64 3.5 -113t-89.5 -49z" />
    <glyph glyph-name="gtilde" unicode="&#xe106;" horiz-adv-x="508" 
d="M243 473q77 0 131 -26q21 24 34 70l115 -38q-3 -31 -28.5 -54.5t-57.5 -33.5q20 -34 20 -81q0 -77 -61 -118t-158 -41q-38 0 -55 6q-18 -12 -18 -35q0 -24 32 -24h138q77 0 121 -39t44 -100q0 -48 -23 -83t-64 -53t-87 -26t-101 -8q-220 0 -220 114q0 80 123 89
q-35 2 -56.5 27t-21.5 58q0 30 20.5 57t59.5 38q-50 20 -74 52t-24 86q0 80 57 121.5t154 41.5zM140 -66q0 -47 103 -47q67 0 92.5 11t25.5 35q0 18 -11.5 24.5t-37.5 6.5h-119q-53 0 -53 -30zM183 310q0 -63 60 -63q62 0 62 63t-62 63q-60 0 -60 -63zM323 519q-37 0 -75 22
q-43 25 -57 25q-16 0 -25.5 -12.5t-5.5 -36.5h-81q-30 60 -0.5 113.5t92.5 53.5q31 0 64 -19q50 -29 64 -29q34 0 26 45h84q30 -64 3.5 -113t-89.5 -49z" />
    <glyph glyph-name="Gcommaturnedabove" unicode="&#xe107;" horiz-adv-x="635" 
d="M320 318h260v-318h-88l-25 63q-46 -75 -162 -75q-120 0 -192.5 76.5t-72.5 227.5q0 148 76.5 228.5t215.5 80.5q90 0 153 -40t93 -112l-146 -71q-26 90 -104 90q-22 0 -42.5 -7.5t-42.5 -26t-35.5 -56t-13.5 -89.5q0 -80 32.5 -129.5t105.5 -49.5q55 0 80 22t25 56v12
h-117v118zM240 737q0 118 151 118v-48q-69 -2 -69 -37q31 5 53.5 -10t22.5 -48q0 -34 -21 -51.5t-53 -17.5q-38 0 -61 26t-23 68z" />
    <glyph glyph-name="gcommaturnedabove" unicode="&#xe108;" horiz-adv-x="508" 
d="M243 473q77 0 131 -26q21 24 34 70l115 -38q-3 -31 -28.5 -54.5t-57.5 -33.5q20 -34 20 -81q0 -77 -61 -118t-158 -41q-38 0 -55 6q-18 -12 -18 -35q0 -24 32 -24h138q77 0 121 -39t44 -100q0 -48 -23 -83t-64 -53t-87 -26t-101 -8q-220 0 -220 114q0 80 123 89
q-35 2 -56.5 27t-21.5 58q0 30 20.5 57t59.5 38q-50 20 -74 52t-24 86q0 80 57 121.5t154 41.5zM140 -66q0 -47 103 -47q67 0 92.5 11t25.5 35q0 18 -11.5 24.5t-37.5 6.5h-119q-53 0 -53 -30zM183 310q0 -63 60 -63q62 0 62 63t-62 63q-60 0 -60 -63zM170 612
q0 118 151 118v-48q-69 -2 -69 -37q31 5 53.5 -10t22.5 -48q0 -34 -21 -51.5t-53 -17.5q-38 0 -61 26t-23 68z" />
    <glyph glyph-name="Hmacronbelow" unicode="&#xe109;" horiz-adv-x="659" 
d="M225 0h-150v589h150v-225h209v225h150v-589h-150v234h-209v-234zM482 -196h-305v120h305v-120z" />
    <glyph glyph-name="hmacronbelow" unicode="&#xe10a;" horiz-adv-x="543" 
d="M208 668v-294q36 99 146 99q57 0 95.5 -36.5t38.5 -110.5v-326h-148v268q0 40 -12 60.5t-44 20.5q-76 0 -76 -98v-251h-148v668h148zM427 -196h-305v120h305v-120z" />
    <glyph glyph-name="Jcaron" unicode="&#xe10b;" horiz-adv-x="480" 
d="M270 589h150v-418q0 -94 -58.5 -138.5t-154.5 -44.5q-149 0 -207 112l109 103q18 -46 40 -69t55 -23q36 0 51 20t15 65v393zM390 645h-95l-138 150h134l30 -30q8 -8 12.5 -15t5.5 -10l1 -4h5q2 12 19 29l30 30h134z" />
    <glyph glyph-name="Kcedilla" unicode="&#xe10d;" horiz-adv-x="596" 
d="M586 0h-179l-150 234h-32v-234h-150v589h150v-225h33l137 225h172l-180 -285zM404 -116q0 -46 -33.5 -70.5t-85.5 -24.5q-77 0 -110 36l26 67q31 -34 66 -34q28 0 28 24q0 31 -47 38l12 101h61l-5 -56q88 -5 88 -81z" />
    <glyph glyph-name="kcedilla" unicode="&#xe10e;" horiz-adv-x="536" 
d="M359 247l167 -247h-171l-119 185h-28v-185h-148v668h148v-369h27l106 163h170zM383 -116q0 -46 -33.5 -70.5t-85.5 -24.5q-77 0 -110 36l26 67q31 -34 66 -34q28 0 28 24q0 31 -47 38l12 101h61l-5 -56q88 -5 88 -81z" />
    <glyph glyph-name="Lcedilla" unicode="&#xe10f;" horiz-adv-x="475" 
d="M370 -116q0 -46 -33.5 -70.5t-85.5 -24.5q-77 0 -110 36l26 67q31 -34 66 -34q28 0 28 24q0 31 -47 38l9 80h-148v589h150v-459h220v-130h-160l-3 -35q88 -5 88 -81z" />
    <glyph glyph-name="ocedilla" unicode="&#xe110;" horiz-adv-x="516" 
d="M368 -116q0 -46 -33.5 -70.5t-85.5 -24.5q-77 0 -110 36l26 67q31 -34 66 -34q28 0 28 24q0 31 -47 38l8 71q-88 11 -139 74t-51 167q0 116 61.5 178.5t166.5 62.5t166.5 -62.5t61.5 -178.5q0 -108 -55 -171.5t-149 -71.5l-2 -24q88 -5 88 -81zM258 355q-82 0 -82 -124
q0 -66 20 -97t62 -31t62 31t20 97q0 124 -82 124z" />
    <glyph glyph-name="Mmacron" unicode="&#xe111;" horiz-adv-x="746" 
d="M406 133h-66l-72 112q-13 20 -24 41.5t-16 33.5l-5 12h-4q6 -32 6 -98v-234h-150v589h148l102 -174q16 -28 27.5 -51t15.5 -32l3 -9h4q9 29 46 92l102 174h148v-589h-150v234q0 29 1.5 53.5t3.5 34.5l1 10h-4q-16 -42 -45 -87zM530 661h-314v120h314v-120z" />
    <glyph glyph-name="mmacron" unicode="&#xe112;" horiz-adv-x="805" 
d="M468 372q37 101 151 101q60 0 95.5 -36t35.5 -111v-326h-148v268q0 40 -12 60.5t-44 20.5q-67 0 -67 -98v-251h-148v268q0 40 -12 60.5t-44 20.5q-67 0 -67 -99v-250h-148v462h128l18 -89q36 100 142 100q104 0 120 -101zM558 533h-305v120h305v-120z" />
    <glyph glyph-name="Mcedilla" unicode="&#xe113;" horiz-adv-x="746" 
d="M406 133h-66l-72 112q-13 20 -24 41.5t-16 33.5l-5 12h-4q6 -32 6 -98v-234h-150v589h148l102 -174q16 -28 27.5 -51t15.5 -32l3 -9h4q9 29 46 92l102 174h148v-589h-150v234q0 29 1.5 53.5t3.5 34.5l1 10h-4q-16 -42 -45 -87zM483 -116q0 -46 -33.5 -70.5t-85.5 -24.5
q-77 0 -110 36l26 67q31 -34 66 -34q28 0 28 24q0 31 -47 38l12 101h61l-5 -56q88 -5 88 -81z" />
    <glyph glyph-name="mcedilla" unicode="&#xe114;" horiz-adv-x="805" 
d="M515 -116q0 -46 -33.5 -70.5t-85.5 -24.5q-77 0 -110 36l26 67q31 -34 66 -34q28 0 28 24q0 31 -47 38l9 80h-37v268q0 40 -12 60.5t-44 20.5q-67 0 -67 -99v-250h-148v462h128l18 -89q36 100 142 100q104 0 120 -101q37 101 151 101q60 0 95.5 -36t35.5 -111v-326h-148
v268q0 40 -12 60.5t-44 20.5q-67 0 -67 -98v-251h-49l-3 -35q88 -5 88 -81z" />
    <glyph glyph-name="Ndieresis" unicode="&#xe115;" horiz-adv-x="684" 
d="M214 589l200 -267q14 -19 25 -36.5t15 -25.5l4 -7h4q-3 46 -3 121v215h150v-589h-134l-200 261q-17 22 -30 41.5t-17 28.5l-5 9h-4q6 -44 6 -131v-209h-150v589h139zM146 726q0 39 22.5 60t56.5 21q37 0 59.5 -20.5t22.5 -60.5q0 -38 -22.5 -59t-59.5 -21q-34 0 -56.5 21
t-22.5 59zM371 726q0 39 22.5 60t56.5 21q37 0 59.5 -20.5t22.5 -60.5q0 -38 -22.5 -59t-59.5 -21q-34 0 -56.5 21t-22.5 59z" />
    <glyph glyph-name="ndieresis" unicode="&#xe116;" horiz-adv-x="543" 
d="M188 462l18 -89q36 100 148 100q57 0 95.5 -36.5t38.5 -110.5v-326h-148v268q0 40 -12 60.5t-44 20.5q-33 0 -54.5 -23t-21.5 -76v-250h-148v462h128zM78 596q0 39 22.5 60t56.5 21q37 0 59.5 -20.5t22.5 -60.5q0 -38 -22.5 -59t-59.5 -21q-34 0 -56.5 21t-22.5 59z
M303 596q0 39 22.5 60t56.5 21q37 0 59.5 -20.5t22.5 -60.5q0 -38 -22.5 -59t-59.5 -21q-34 0 -56.5 21t-22.5 59z" />
    <glyph glyph-name="Nmacron" unicode="&#xe117;" horiz-adv-x="684" 
d="M214 589l200 -267q14 -19 25 -36.5t15 -25.5l4 -7h4q-3 46 -3 121v215h150v-589h-134l-200 261q-17 22 -30 41.5t-17 28.5l-5 9h-4q6 -44 6 -131v-209h-150v589h139zM499 661h-314v120h314v-120z" />
    <glyph glyph-name="nmacron" unicode="&#xe118;" horiz-adv-x="543" 
d="M188 462l18 -89q36 100 148 100q57 0 95.5 -36.5t38.5 -110.5v-326h-148v268q0 40 -12 60.5t-44 20.5q-33 0 -54.5 -23t-21.5 -76v-250h-148v462h128zM427 533h-305v120h305v-120z" />
    <glyph glyph-name="Ncedilla" unicode="&#xe119;" horiz-adv-x="684" 
d="M214 589l200 -267q14 -19 25 -36.5t15 -25.5l4 -7h4q-3 46 -3 121v215h150v-589h-134l-200 261q-17 22 -30 41.5t-17 28.5l-5 9h-4q6 -44 6 -131v-209h-150v589h139zM452 -116q0 -46 -33.5 -70.5t-85.5 -24.5q-77 0 -110 36l26 67q31 -34 66 -34q28 0 28 24q0 31 -47 38
l12 101h61l-5 -56q88 -5 88 -81z" />
    <glyph glyph-name="ncedilla" unicode="&#xe11a;" horiz-adv-x="543" 
d="M188 462l18 -89q36 100 148 100q57 0 95.5 -36.5t38.5 -110.5v-326h-148v268q0 40 -12 60.5t-44 20.5q-33 0 -54.5 -23t-21.5 -76v-250h-148v462h128zM384 -116q0 -46 -33.5 -70.5t-85.5 -24.5q-77 0 -110 36l26 67q31 -34 66 -34q28 0 28 24q0 31 -47 38l12 101h61
l-5 -56q88 -5 88 -81z" />
    <glyph glyph-name="Ocommaturnedabove" unicode="&#xe11b;" horiz-adv-x="648" 
d="M324 -12q-134 0 -209 79.5t-75 226.5t75 227t209 80t209 -80t75 -227t-75 -226.5t-209 -79.5zM324 467q-63 0 -95.5 -46t-32.5 -129t32 -128.5t96 -45.5t96 45.5t32 128.5t-32.5 129t-95.5 46zM236 737q0 118 151 118v-48q-69 -2 -69 -37q31 5 53.5 -10t22.5 -48
q0 -34 -21 -51.5t-53 -17.5q-38 0 -61 26t-23 68z" />
    <glyph glyph-name="ocommaturnedabove" unicode="&#xe11c;" horiz-adv-x="516" 
d="M258 -12q-104 0 -166 64.5t-62 179.5q0 116 61.5 178.5t166.5 62.5t166.5 -62.5t61.5 -178.5q0 -115 -62 -179.5t-166 -64.5zM258 355q-82 0 -82 -124q0 -66 20 -97t62 -31t62 31t20 97q0 124 -82 124zM170 616q0 118 151 118v-48q-69 -2 -69 -37q31 5 53.5 -10t22.5 -48
q0 -34 -21 -51.5t-53 -17.5q-38 0 -61 26t-23 68z" />
    <glyph glyph-name="uni004F02D900AF" unicode="&#xe11d;" horiz-adv-x="648" 
d="M324 -12q-134 0 -209 79.5t-75 226.5t75 227t209 80t209 -80t75 -227t-75 -226.5t-209 -79.5zM324 467q-63 0 -95.5 -46t-32.5 -129t32 -128.5t96 -45.5t96 45.5t32 128.5t-32.5 129t-95.5 46zM481 845h-314v120h314v-120zM235 721q0 40 24.5 61.5t63.5 21.5q41 0 66 -21
t25 -62q0 -39 -25.5 -60.5t-65.5 -21.5q-38 0 -63 21.5t-25 60.5z" />
    <glyph glyph-name="Ocedilla" unicode="&#xe11f;" horiz-adv-x="648" 
d="M434 -116q0 -46 -33.5 -70.5t-85.5 -24.5q-77 0 -110 36l26 67q31 -34 66 -34q28 0 28 24q0 31 -47 38l8 70q-117 11 -181.5 89.5t-64.5 214.5q0 147 75 227t209 80t209 -80t75 -227q0 -140 -68.5 -218.5t-191.5 -86.5l-2 -24q88 -5 88 -81zM324 467q-63 0 -95.5 -46
t-32.5 -129t32 -128.5t96 -45.5t96 45.5t32 128.5t-32.5 129t-95.5 46z" />
    <glyph glyph-name="Ounderlineaccent" unicode="&#xe121;" horiz-adv-x="648" 
d="M324 -12q-134 0 -209 79.5t-75 226.5t75 227t209 80t209 -80t75 -227t-75 -226.5t-209 -79.5zM324 467q-63 0 -95.5 -46t-32.5 -129t32 -128.5t96 -45.5t96 45.5t32 128.5t-32.5 129t-95.5 46zM379 -203h-110v150h110v-150z" />
    <glyph glyph-name="ounderlineaccent" unicode="&#xe122;" horiz-adv-x="516" 
d="M258 -12q-104 0 -166 64.5t-62 179.5q0 116 61.5 178.5t166.5 62.5t166.5 -62.5t61.5 -178.5q0 -115 -62 -179.5t-166 -64.5zM258 355q-82 0 -82 -124q0 -66 20 -97t62 -31t62 31t20 97q0 124 -82 124zM313 -203h-110v150h110v-150z" />
    <glyph glyph-name="Pmacron" unicode="&#xe123;" horiz-adv-x="542" 
d="M225 463v-159h65q74 0 74 75q0 44 -17.5 64t-55.5 20h-66zM225 0h-150v589h221q113 0 164.5 -51t51.5 -154q0 -96 -53.5 -149.5t-148.5 -53.5h-85v-181zM426 661h-314v120h314v-120z" />
    <glyph glyph-name="pmacron" unicode="&#xe124;" 
d="M207 249v-56q0 -52 24.5 -75.5t56.5 -23.5q42 0 70 35t28 100q0 126 -90 126q-35 0 -62 -28.5t-27 -77.5zM208 61v-264h-148v665h128l19 -89q36 100 151 100q85 0 131 -60.5t46 -170.5q0 -117 -52.5 -185.5t-145.5 -68.5q-50 0 -84.5 21t-44.5 52zM450 533h-305v120h305
v-120z" />
    <glyph glyph-name="Rdoublegrave" unicode="&#xe125;" horiz-adv-x="593" 
d="M568 0h-167q-22 16 -33 63l-21 83q-8 32 -22.5 41.5t-47.5 9.5h-52v-197h-150v589h241q105 0 162 -42.5t57 -141.5q0 -66 -33.5 -103.5t-93.5 -44.5v-3q41 -7 63.5 -25.5t32.5 -56.5l30 -108q12 -41 34 -64zM225 462v-140h80q77 0 77 69q0 71 -76 71h-81zM427 645h-104
l-97 150h152zM255 645h-115l-117 150h163z" />
    <glyph glyph-name="rdoublegrave" unicode="&#xe126;" horiz-adv-x="407" 
d="M397 472l-18 -163q-29 9 -56 9q-47 0 -81 -25t-34 -89v-204h-148v462h129l18 -128q17 69 59.5 106.5t130.5 31.5zM376 525h-104l-97 156h152zM204 525h-115l-117 156h163z" />
    <glyph glyph-name="Rcedilla" unicode="&#xe127;" horiz-adv-x="593" 
d="M568 0h-167q-22 16 -33 63l-21 83q-8 32 -22.5 41.5t-47.5 9.5h-52v-197h-150v589h241q105 0 162 -42.5t57 -141.5q0 -66 -33.5 -103.5t-93.5 -44.5v-3q41 -7 63.5 -25.5t32.5 -56.5l30 -108q12 -41 34 -64zM225 462v-140h80q77 0 77 69q0 71 -76 71h-81zM393 -116
q0 -46 -33.5 -70.5t-85.5 -24.5q-77 0 -110 36l26 67q31 -34 66 -34q28 0 28 24q0 31 -47 38l12 101h61l-5 -56q88 -5 88 -81z" />
    <glyph glyph-name="rcedilla" unicode="&#xe128;" horiz-adv-x="407" 
d="M252 -116q0 -46 -33.5 -70.5t-85.5 -24.5q-77 0 -110 36l26 67q31 -34 66 -34q28 0 28 24q0 31 -47 38l9 80h-45v462h129l18 -128q17 69 59.5 106.5t130.5 31.5l-18 -163q-29 9 -56 9q-47 0 -81 -25t-34 -89v-204h-41l-3 -35q88 -5 88 -81z" />
    <glyph glyph-name="Tcedilla" unicode="&#xe129;" horiz-adv-x="486" 
d="M353 -116q0 -46 -33.5 -70.5t-85.5 -24.5q-77 0 -110 36l26 67q31 -34 66 -34q28 0 28 24q0 31 -47 38l9 80h-39v459h-157v130h466v-130h-160v-459h-48l-3 -35q88 -5 88 -81z" />
    <glyph glyph-name="tcedilla" unicode="&#xe12a;" horiz-adv-x="402" 
d="M318 -116q0 -46 -33.5 -70.5t-85.5 -24.5q-77 0 -110 36l26 67q31 -34 66 -34q28 0 28 24q0 31 -47 38l9 77q-94 26 -94 146v205h-67v114h68v98l148 17v-115h137v-114h-138v-171q0 -35 13.5 -49t41.5 -14q39 0 82 30l25 -125q-62 -31 -152 -31h-3l-2 -23q88 -5 88 -81z
" />
    <glyph glyph-name="Umacronbelow" unicode="&#xe12b;" horiz-adv-x="617" 
d="M407 589h150v-391q0 -210 -248 -210q-249 0 -249 210v391h150v-348q0 -65 19.5 -96.5t79.5 -31.5q59 0 78.5 32t19.5 98v346zM461 -196h-305v120h305v-120z" />
    <glyph glyph-name="umacronbelow" unicode="&#xe12c;" horiz-adv-x="538" 
d="M350 0l-18 87q-22 -99 -143 -99q-65 0 -102 36t-37 112v326h148v-281q0 -81 57 -81q75 0 75 122v240h148v-462h-128zM417 -196h-305v120h305v-120z" />
    <glyph glyph-name="R.alt" unicode="&#xe141;" horiz-adv-x="566" 
d="M407 213l149 -213h-175l-132 199h-24v-199h-150v589h223q105 0 160.5 -49t55.5 -147q0 -143 -107 -180zM225 463v-151h55q79 0 79 76q0 75 -78 75h-56z" />
    <glyph glyph-name="Racute.alt" unicode="&#xe142;" horiz-adv-x="566" 
d="M407 213l149 -213h-175l-132 199h-24v-199h-150v589h223q105 0 160.5 -49t55.5 -147q0 -143 -107 -180zM225 463v-151h55q79 0 79 76q0 75 -78 75h-56zM304 645h-136l65 150h184z" />
    <glyph glyph-name="Rcaron.alt" unicode="&#xe143;" horiz-adv-x="566" 
d="M407 213l149 -213h-175l-132 199h-24v-199h-150v589h223q105 0 160.5 -49t55.5 -147q0 -143 -107 -180zM225 463v-151h55q79 0 79 76q0 75 -78 75h-56zM313 645h-95l-138 150h134l30 -30q8 -8 12.5 -15t5.5 -10l1 -4h5q2 12 19 29l30 30h134z" />
    <glyph glyph-name="Rinvertedbreve.alt" unicode="&#xe144;" horiz-adv-x="566" 
d="M407 213l149 -213h-175l-132 199h-24v-199h-150v589h223q105 0 160.5 -49t55.5 -147q0 -143 -107 -180zM225 463v-151h55q79 0 79 76q0 75 -78 75h-56zM266 802q155 0 155 -154h-109q0 27 -10 39t-36 12t-36 -12t-10 -39h-109q0 154 155 154z" />
    <glyph glyph-name="Rdoublegrave.alt" unicode="&#xe145;" horiz-adv-x="566" 
d="M407 213l149 -213h-175l-132 199h-24v-199h-150v589h223q105 0 160.5 -49t55.5 -147q0 -143 -107 -180zM225 463v-151h55q79 0 79 76q0 75 -78 75h-56zM413 645h-104l-97 150h152zM241 645h-115l-117 150h163z" />
    <glyph glyph-name="Rcommaaccent.alt" unicode="&#xe146;" horiz-adv-x="566" 
d="M407 213l149 -213h-175l-132 199h-24v-199h-150v589h223q105 0 160.5 -49t55.5 -147q0 -143 -107 -180zM225 463v-151h55q79 0 79 76q0 75 -78 75h-56zM387 -140q0 -118 -151 -118v48q69 2 69 37q-31 -5 -53.5 10t-22.5 48q0 34 21 51.5t53 17.5q38 0 61 -26t23 -68z" />
    <glyph glyph-name="Rcedilla.alt" unicode="&#xe147;" horiz-adv-x="566" 
d="M407 213l149 -213h-175l-132 199h-24v-199h-150v589h223q105 0 160.5 -49t55.5 -147q0 -143 -107 -180zM225 463v-151h55q79 0 79 76q0 75 -78 75h-56zM395 -116q0 -46 -33.5 -70.5t-85.5 -24.5q-77 0 -110 36l26 67q31 -34 66 -34q28 0 28 24q0 31 -47 38l12 101h61
l-5 -56q88 -5 88 -81z" />
    <glyph glyph-name="Rdotbelow.alt" unicode="&#xe148;" horiz-adv-x="566" 
d="M407 213l149 -213h-175l-132 199h-24v-199h-150v589h223q105 0 160.5 -49t55.5 -147q0 -143 -107 -180zM225 463v-151h55q79 0 79 76q0 75 -78 75h-56zM200 -129q0 40 24.5 61.5t63.5 21.5q41 0 66 -21t25 -62q0 -39 -25.5 -60.5t-65.5 -21.5q-38 0 -63 21.5t-25 60.5z
" />
    <glyph glyph-name="Rdotbelowmacron.alt" unicode="&#xe149;" horiz-adv-x="566" 
d="M407 213l149 -213h-175l-132 199h-24v-199h-150v589h223q105 0 160.5 -49t55.5 -147q0 -143 -107 -180zM225 463v-151h55q79 0 79 76q0 75 -78 75h-56zM200 -129q0 40 24.5 61.5t63.5 21.5q41 0 66 -21t25 -62q0 -39 -25.5 -60.5t-65.5 -21.5q-38 0 -63 21.5t-25 60.5z
M427 661h-314v120h314v-120z" />
    <glyph glyph-name="aogonek.school" unicode="&#xe150;" 
d="M369 402l33 60h103v-462q-87 -3 -87 -67q0 -23 13 -35.5t35 -12.5q35 0 64 25l29 -76q-45 -45 -127 -45q-55 0 -93.5 27.5t-38.5 87.5q0 74 72 111l-14 65q-20 -92 -143 -92q-81 0 -133 61.5t-52 170.5q0 119 54 186t152 67q100 0 133 -71zM358 196v82q0 45 -23.5 67
t-59.5 22q-40 0 -68 -33t-28 -103q0 -60 25 -93.5t69 -33.5q35 0 60 25t25 67z" />
    <glyph glyph-name="a.school" unicode="&#xe151;" 
d="M358 193v82q0 45 -23.5 67t-59.5 22q-40 0 -68 -33t-28 -103q0 -60 25 -93.5t69 -33.5q35 0 60 25t25 67zM369 402l33 60h103v-462h-129l-18 80q-20 -92 -143 -92q-81 0 -133 61.5t-52 170.5q0 119 54 186t152 67q100 0 133 -71z" />
    <glyph glyph-name="agrave.school" unicode="&#xe152;" 
d="M358 193v82q0 45 -23.5 67t-59.5 22q-40 0 -68 -33t-28 -103q0 -60 25 -93.5t69 -33.5q35 0 60 25t25 67zM369 402l33 60h103v-462h-129l-18 80q-20 -92 -143 -92q-81 0 -133 61.5t-52 170.5q0 119 54 186t152 67q100 0 133 -71zM350 525h-136l-117 156h184z" />
    <glyph glyph-name="aacute.school" unicode="&#xe153;" 
d="M358 193v82q0 45 -23.5 67t-59.5 22q-40 0 -68 -33t-28 -103q0 -60 25 -93.5t69 -33.5q35 0 60 25t25 67zM369 402l33 60h103v-462h-129l-18 80q-20 -92 -143 -92q-81 0 -133 61.5t-52 170.5q0 119 54 186t152 67q100 0 133 -71zM327 525h-136l69 156h184z" />
    <glyph glyph-name="acircumflex.school" unicode="&#xe154;" 
d="M358 193v82q0 45 -23.5 67t-59.5 22q-40 0 -68 -33t-28 -103q0 -60 25 -93.5t69 -33.5q35 0 60 25t25 67zM369 402l33 60h103v-462h-129l-18 80q-20 -92 -143 -92q-81 0 -133 61.5t-52 170.5q0 119 54 186t152 67q100 0 133 -71zM240 685h95l138 -163h-134l-30 32
q-8 9 -13 16.5t-6 11.5v3h-5q0 -11 -19 -31l-30 -32h-134z" />
    <glyph glyph-name="adieresis.school" unicode="&#xe155;" 
d="M358 193v82q0 45 -23.5 67t-59.5 22q-40 0 -68 -33t-28 -103q0 -60 25 -93.5t69 -33.5q35 0 60 25t25 67zM369 402l33 60h103v-462h-129l-18 80q-20 -92 -143 -92q-81 0 -133 61.5t-52 170.5q0 119 54 186t152 67q100 0 133 -71zM89 596q0 39 22.5 60t56.5 21
q37 0 59.5 -20.5t22.5 -60.5q0 -38 -22.5 -59t-59.5 -21q-34 0 -56.5 21t-22.5 59zM314 596q0 39 22.5 60t56.5 21q37 0 59.5 -20.5t22.5 -60.5q0 -38 -22.5 -59t-59.5 -21q-34 0 -56.5 21t-22.5 59z" />
    <glyph glyph-name="atilde.school" unicode="&#xe156;" 
d="M358 193v82q0 45 -23.5 67t-59.5 22q-40 0 -68 -33t-28 -103q0 -60 25 -93.5t69 -33.5q35 0 60 25t25 67zM369 402l33 60h103v-462h-129l-18 80q-20 -92 -143 -92q-81 0 -133 61.5t-52 170.5q0 119 54 186t152 67q100 0 133 -71zM364 519q-37 0 -75 22q-43 25 -57 25
q-16 0 -25.5 -12.5t-5.5 -36.5h-81q-30 60 -0.5 113.5t92.5 53.5q31 0 64 -19q50 -29 64 -29q34 0 26 45h84q30 -64 3.5 -113t-89.5 -49z" />
    <glyph glyph-name="aring.school" unicode="&#xe157;" 
d="M358 193v82q0 45 -23.5 67t-59.5 22q-40 0 -68 -33t-28 -103q0 -60 25 -93.5t69 -33.5q35 0 60 25t25 67zM369 402l33 60h103v-462h-129l-18 80q-20 -92 -143 -92q-81 0 -133 61.5t-52 170.5q0 119 54 186t152 67q100 0 133 -71zM278 502q-56 0 -87.5 33t-31.5 83
q0 46 33 79t86 33t86 -33t33 -79q0 -50 -31.5 -83t-87.5 -33zM278 664q-22 0 -34.5 -13t-12.5 -34q0 -19 12.5 -32.5t34.5 -13.5t34.5 13.5t12.5 32.5q0 21 -12.5 34t-34.5 13z" />
    <glyph glyph-name="acaron.school" unicode="&#xe158;" 
d="M358 193v82q0 45 -23.5 67t-59.5 22q-40 0 -68 -33t-28 -103q0 -60 25 -93.5t69 -33.5q35 0 60 25t25 67zM369 402l33 60h103v-462h-129l-18 80q-20 -92 -143 -92q-81 0 -133 61.5t-52 170.5q0 119 54 186t152 67q100 0 133 -71zM328 522h-95l-138 163h134l30 -32
q8 -9 13 -16.5t6 -10.5v-4h5q0 11 19 31l30 32h134z" />
    <glyph glyph-name="amacron.school" unicode="&#xe159;" 
d="M358 193v82q0 45 -23.5 67t-59.5 22q-40 0 -68 -33t-28 -103q0 -60 25 -93.5t69 -33.5q35 0 60 25t25 67zM369 402l33 60h103v-462h-129l-18 80q-20 -92 -143 -92q-81 0 -133 61.5t-52 170.5q0 119 54 186t152 67q100 0 133 -71zM441 533h-305v120h305v-120z" />
    <glyph glyph-name="abreve.school" unicode="&#xe15a;" 
d="M358 193v82q0 45 -23.5 67t-59.5 22q-40 0 -68 -33t-28 -103q0 -60 25 -93.5t69 -33.5q35 0 60 25t25 67zM369 402l33 60h103v-462h-129l-18 80q-20 -92 -143 -92q-81 0 -133 61.5t-52 170.5q0 119 54 186t152 67q100 0 133 -71zM277 518q-79 0 -117 45.5t-38 117.5h109
q0 -30 9 -44t37 -14t37 14t9 44h109q0 -72 -38 -117.5t-117 -45.5z" />
    <glyph glyph-name="ainvertedbreve.school" unicode="&#xe15b;" 
d="M358 193v82q0 45 -23.5 67t-59.5 22q-40 0 -68 -33t-28 -103q0 -60 25 -93.5t69 -33.5q35 0 60 25t25 67zM369 402l33 60h103v-462h-129l-18 80q-20 -92 -143 -92q-81 0 -133 61.5t-52 170.5q0 119 54 186t152 67q100 0 133 -71zM282 690q79 0 117 -45.5t38 -117.5h-109
q0 30 -9 44t-37 14t-37 -14t-9 -44h-109q0 72 38 117.5t117 45.5z" />
    <glyph glyph-name="adoublegrave.school" unicode="&#xe15c;" 
d="M358 193v82q0 45 -23.5 67t-59.5 22q-40 0 -68 -33t-28 -103q0 -60 25 -93.5t69 -33.5q35 0 60 25t25 67zM369 402l33 60h103v-462h-129l-18 80q-20 -92 -143 -92q-81 0 -133 61.5t-52 170.5q0 119 54 186t152 67q100 0 133 -71zM421 525h-104l-97 156h152zM249 525h-115
l-117 156h163z" />
    <glyph glyph-name="adotabove.school" unicode="&#xe15d;" 
d="M358 193v82q0 45 -23.5 67t-59.5 22q-40 0 -68 -33t-28 -103q0 -60 25 -93.5t69 -33.5q35 0 60 25t25 67zM369 402l33 60h103v-462h-129l-18 80q-20 -92 -143 -92q-81 0 -133 61.5t-52 170.5q0 119 54 186t152 67q100 0 133 -71zM190 595q0 40 25 61.5t63 21.5
q41 0 66 -21t25 -62q0 -39 -25 -60.5t-66 -21.5q-38 0 -63 21.5t-25 60.5z" />
    <glyph glyph-name="aringacute.school" unicode="&#xe15e;" 
d="M358 193v82q0 45 -23.5 67t-59.5 22q-40 0 -68 -33t-28 -103q0 -60 25 -93.5t69 -33.5q35 0 60 25t25 67zM369 402l33 60h103v-462h-129l-18 80q-20 -92 -143 -92q-81 0 -133 61.5t-52 170.5q0 119 54 186t152 67q100 0 133 -71zM285 500q-56 0 -87.5 33t-31.5 83
q0 46 33 79t86 33t86 -33t33 -79q0 -50 -31.5 -83t-87.5 -33zM285 662q-22 0 -34.5 -13t-12.5 -34q0 -19 12.5 -32.5t34.5 -13.5t34.5 13.5t12.5 32.5q0 21 -12.5 34t-34.5 13zM352 761h-136l65 150h184z" />
    <glyph glyph-name="adieresismacron.school" unicode="&#xe15f;" 
d="M358 193v82q0 45 -23.5 67t-59.5 22q-40 0 -68 -33t-28 -103q0 -60 25 -93.5t69 -33.5q35 0 60 25t25 67zM369 402l33 60h103v-462h-129l-18 80q-20 -92 -143 -92q-81 0 -133 61.5t-52 170.5q0 119 54 186t152 67q100 0 133 -71zM84 583q0 39 22.5 60t56.5 21
q37 0 59.5 -20.5t22.5 -60.5q0 -38 -22.5 -59t-59.5 -21q-34 0 -56.5 21t-22.5 59zM309 583q0 39 22.5 60t56.5 21q37 0 59.5 -20.5t22.5 -60.5q0 -38 -22.5 -59t-59.5 -21q-34 0 -56.5 21t-22.5 59zM434 701h-305v120h305v-120z" />
    <glyph glyph-name="ytilde.school" unicode="&#xe160;" horiz-adv-x="538" 
d="M50 462h148v-266q0 -81 57 -81q75 0 75 122v225h148v-443q0 -109 -59.5 -169.5t-180.5 -60.5q-175 0 -221 115l115 74q27 -81 107 -81q47 0 69.5 25t22.5 83v97q-21 -99 -137 -99q-66 0 -105 36t-39 112v311zM345 519q-37 0 -75 22q-43 25 -57 25q-16 0 -25.5 -12.5
t-5.5 -36.5h-81q-30 60 -0.5 113.5t92.5 53.5q31 0 64 -19q50 -29 64 -29q34 0 26 45h84q30 -64 3.5 -113t-89.5 -49z" />
    <glyph glyph-name="g.school" unicode="&#xe161;" 
d="M402 462h103v-435q0 -118 -69.5 -178t-187.5 -60q-179 0 -227 120l117 74q27 -84 112 -84q49 0 78.5 26.5t29.5 85.5v82q-25 -92 -145 -92q-79 0 -131 55.5t-52 167.5q0 116 54 182.5t152 66.5q100 0 133 -72zM358 212v64q0 41 -24 63t-60 22q-39 0 -67 -31.5t-28 -97.5
q0 -59 24.5 -90t66.5 -31q35 0 61.5 24.5t26.5 76.5z" />
    <glyph glyph-name="gacute.school" unicode="&#xe162;" 
d="M402 462h103v-435q0 -118 -69.5 -178t-187.5 -60q-179 0 -227 120l117 74q27 -84 112 -84q49 0 78.5 26.5t29.5 85.5v82q-25 -92 -145 -92q-79 0 -131 55.5t-52 167.5q0 116 54 182.5t152 66.5q100 0 133 -72zM358 212v64q0 41 -24 63t-60 22q-39 0 -67 -31.5t-28 -97.5
q0 -59 24.5 -90t66.5 -31q35 0 61.5 24.5t26.5 76.5zM324 525h-136l69 156h184z" />
    <glyph glyph-name="gcircumflex.school" unicode="&#xe163;" 
d="M402 462h103v-435q0 -118 -69.5 -178t-187.5 -60q-179 0 -227 120l117 74q27 -84 112 -84q49 0 78.5 26.5t29.5 85.5v82q-25 -92 -145 -92q-79 0 -131 55.5t-52 167.5q0 116 54 182.5t152 66.5q100 0 133 -72zM358 212v64q0 41 -24 63t-60 22q-39 0 -67 -31.5t-28 -97.5
q0 -59 24.5 -90t66.5 -31q35 0 61.5 24.5t26.5 76.5zM237 685h95l138 -163h-134l-30 32q-8 9 -13 16.5t-5 11.5l-1 3h-5q0 -11 -19 -31l-30 -32h-134z" />
    <glyph glyph-name="gtilde.school" unicode="&#xe164;" 
d="M402 462h103v-435q0 -118 -69.5 -178t-187.5 -60q-179 0 -227 120l117 74q27 -84 112 -84q49 0 78.5 26.5t29.5 85.5v82q-25 -92 -145 -92q-79 0 -131 55.5t-52 167.5q0 116 54 182.5t152 66.5q100 0 133 -72zM358 212v64q0 41 -24 63t-60 22q-39 0 -67 -31.5t-28 -97.5
q0 -59 24.5 -90t66.5 -31q35 0 61.5 24.5t26.5 76.5zM372 519q-37 0 -75 22q-43 25 -57 25q-16 0 -25.5 -12.5t-5.5 -36.5h-81q-30 60 -0.5 113.5t92.5 53.5q31 0 64 -19q50 -29 64 -29q34 0 26 45h84q30 -64 3.5 -113t-89.5 -49z" />
    <glyph glyph-name="gcaron.school" unicode="&#xe165;" 
d="M402 462h103v-435q0 -118 -69.5 -178t-187.5 -60q-179 0 -227 120l117 74q27 -84 112 -84q49 0 78.5 26.5t29.5 85.5v82q-25 -92 -145 -92q-79 0 -131 55.5t-52 167.5q0 116 54 182.5t152 66.5q100 0 133 -72zM358 212v64q0 41 -24 63t-60 22q-39 0 -67 -31.5t-28 -97.5
q0 -59 24.5 -90t66.5 -31q35 0 61.5 24.5t26.5 76.5zM332 522h-95l-138 163h134l30 -32q8 -9 13 -16.5t6 -10.5v-4h5q0 11 19 31l30 32h134z" />
    <glyph glyph-name="gbreve.school" unicode="&#xe166;" 
d="M402 462h103v-435q0 -118 -69.5 -178t-187.5 -60q-179 0 -227 120l117 74q27 -84 112 -84q49 0 78.5 26.5t29.5 85.5v82q-25 -92 -145 -92q-79 0 -131 55.5t-52 167.5q0 116 54 182.5t152 66.5q100 0 133 -72zM358 212v64q0 41 -24 63t-60 22q-39 0 -67 -31.5t-28 -97.5
q0 -59 24.5 -90t66.5 -31q35 0 61.5 24.5t26.5 76.5zM283 518q-79 0 -117 45.5t-38 117.5h109q0 -30 9 -44t37 -14t37 14t9 44h109q0 -72 -38 -117.5t-117 -45.5z" />
    <glyph glyph-name="gdotaccent.school" unicode="&#xe167;" 
d="M402 462h103v-435q0 -118 -69.5 -178t-187.5 -60q-179 0 -227 120l117 74q27 -84 112 -84q49 0 78.5 26.5t29.5 85.5v82q-25 -92 -145 -92q-79 0 -131 55.5t-52 167.5q0 116 54 182.5t152 66.5q100 0 133 -72zM358 212v64q0 41 -24 63t-60 22q-39 0 -67 -31.5t-28 -97.5
q0 -59 24.5 -90t66.5 -31q35 0 61.5 24.5t26.5 76.5zM197 595q0 40 25 61.5t63 21.5q41 0 66 -21t25 -62q0 -39 -25 -60.5t-66 -21.5q-38 0 -63 21.5t-25 60.5z" />
    <glyph glyph-name="gcommaaccent.school" unicode="&#xe168;" 
d="M402 462h103v-435q0 -118 -69.5 -178t-187.5 -60q-179 0 -227 120l117 74q27 -84 112 -84q49 0 78.5 26.5t29.5 85.5v82q-25 -92 -145 -92q-79 0 -131 55.5t-52 167.5q0 116 54 182.5t152 66.5q100 0 133 -72zM358 212v64q0 41 -24 63t-60 22q-39 0 -67 -31.5t-28 -97.5
q0 -59 24.5 -90t66.5 -31q35 0 61.5 24.5t26.5 76.5zM222 611q0 118 151 118v-48q-69 -2 -69 -37q31 5 53.5 -10t22.5 -48q0 -34 -21 -51.5t-53 -17.5q-38 0 -61 26t-23 68z" />
    <glyph glyph-name="gcommaturnedabove.school" unicode="&#xe169;" 
d="M402 462h103v-435q0 -118 -69.5 -178t-187.5 -60q-179 0 -227 120l117 74q27 -84 112 -84q49 0 78.5 26.5t29.5 85.5v82q-25 -92 -145 -92q-79 0 -131 55.5t-52 167.5q0 116 54 182.5t152 66.5q100 0 133 -72zM358 212v64q0 41 -24 63t-60 22q-39 0 -67 -31.5t-28 -97.5
q0 -59 24.5 -90t66.5 -31q35 0 61.5 24.5t26.5 76.5zM222 611q0 118 151 118v-48q-69 -2 -69 -37q31 5 53.5 -10t22.5 -48q0 -34 -21 -51.5t-53 -17.5q-38 0 -61 26t-23 68z" />
    <glyph glyph-name="gstroke.school" unicode="&#xe16a;" 
d="M238 -62v35h117q3 15 3 31v89q-38 -92 -147 -92q-78 0 -129.5 55.5t-51.5 167.5q0 116 54 182.5t152 66.5q100 0 133 -72l33 61h103v-435q0 -26 -5 -54h73v-35h-82q-25 -72 -89 -110.5t-154 -38.5q-179 0 -227 120l117 66q26 -83 112 -83q65 0 92 46h-104zM358 210v68
q0 44 -27 66.5t-61 22.5q-37 0 -64 -32t-27 -98q0 -120 91 -120q34 0 61 23.5t27 69.5z" />
    <glyph glyph-name="y.school" unicode="&#xe16b;" horiz-adv-x="538" 
d="M50 462h148v-266q0 -81 57 -81q75 0 75 122v225h148v-443q0 -109 -59.5 -169.5t-180.5 -60.5q-175 0 -221 115l115 74q27 -81 107 -81q47 0 69.5 25t22.5 83v97q-21 -99 -137 -99q-66 0 -105 36t-39 112v311z" />
    <glyph glyph-name="ygrave.school" unicode="&#xe16c;" horiz-adv-x="538" 
d="M50 462h148v-266q0 -81 57 -81q75 0 75 122v225h148v-443q0 -109 -59.5 -169.5t-180.5 -60.5q-175 0 -221 115l115 74q27 -81 107 -81q47 0 69.5 25t22.5 83v97q-21 -99 -137 -99q-66 0 -105 36t-39 112v311zM336 525h-136l-117 156h184z" />
    <glyph glyph-name="yacute.school" unicode="&#xe16d;" horiz-adv-x="538" 
d="M50 462h148v-266q0 -81 57 -81q75 0 75 122v225h148v-443q0 -109 -59.5 -169.5t-180.5 -60.5q-175 0 -221 115l115 74q27 -81 107 -81q47 0 69.5 25t22.5 83v97q-21 -99 -137 -99q-66 0 -105 36t-39 112v311zM313 525h-136l69 156h184z" />
    <glyph glyph-name="ycircumflex.school" unicode="&#xe16e;" horiz-adv-x="538" 
d="M50 462h148v-266q0 -81 57 -81q75 0 75 122v225h148v-443q0 -109 -59.5 -169.5t-180.5 -60.5q-175 0 -221 115l115 74q27 -81 107 -81q47 0 69.5 25t22.5 83v97q-21 -99 -137 -99q-66 0 -105 36t-39 112v311zM216 685h95l138 -163h-134l-30 32q-8 9 -13 16.5t-6 11.5v3
h-5q0 -11 -19 -31l-30 -32h-134z" />
    <glyph glyph-name="ydieresis.school" unicode="&#xe16f;" horiz-adv-x="538" 
d="M50 462h148v-266q0 -81 57 -81q75 0 75 122v225h148v-443q0 -109 -59.5 -169.5t-180.5 -60.5q-175 0 -221 115l115 74q27 -81 107 -81q47 0 69.5 25t22.5 83v97q-21 -99 -137 -99q-66 0 -105 36t-39 112v311zM67 596q0 39 22.5 60t56.5 21q37 0 59.5 -20.5t22.5 -60.5
q0 -38 -22.5 -59t-59.5 -21q-34 0 -56.5 21t-22.5 59zM292 596q0 39 22.5 60t56.5 21q37 0 59.5 -20.5t22.5 -60.5q0 -38 -22.5 -59t-59.5 -21q-34 0 -56.5 21t-22.5 59z" />
    <glyph glyph-name="ymacron.school" unicode="&#xe171;" horiz-adv-x="538" 
d="M50 462h148v-266q0 -81 57 -81q75 0 75 122v225h148v-443q0 -109 -59.5 -169.5t-180.5 -60.5q-175 0 -221 115l115 74q27 -81 107 -81q47 0 69.5 25t22.5 83v97q-21 -99 -137 -99q-66 0 -105 36t-39 112v311zM417 533h-305v120h305v-120z" />
    <glyph glyph-name="cordinal" unicode="&#xe181;" horiz-adv-x="362" 
d="M240 407l97 -37q-9 -44 -47 -67.5t-92 -23.5q-73 0 -115.5 41.5t-42.5 116.5q0 77 42.5 120.5t115.5 43.5q57 0 93.5 -28.5t40.5 -74.5l-90 -30q-8 40 -39 40q-46 0 -46 -67q0 -70 46 -70q31 0 37 36z" />
    <glyph glyph-name="ordfeminine.school" unicode="&#xe182;" horiz-adv-x="417" 
d="M257 417v52q0 27 -16.5 41t-36.5 14q-24 0 -40.5 -20.5t-16.5 -66.5q0 -37 15 -58.5t42 -21.5q20 0 36.5 15.5t16.5 44.5zM257 553l20 40h95v-306h-95l-13 52q-25 -60 -106 -60q-55 0 -91.5 40t-36.5 113q0 79 37.5 124t106.5 45q30 0 53.5 -14t29.5 -34z" />
    <glyph glyph-name="gsuperior.school" unicode="&#xe183;" horiz-adv-x="437" 
d="M267 431v45q0 24 -16.5 37.5t-36.5 13.5q-23 0 -40 -19t-17 -60q0 -32 15 -51t42 -19q20 0 36.5 13.5t16.5 39.5zM382 593v-263q0 -160 -194 -160q-114 0 -153 59l65 67q30 -45 90 -45q37 0 57 13t20 48v40q-23 -50 -99 -50q-55 0 -91.5 36t-36.5 101q0 73 38 117.5
t106 44.5q30 0 53.5 -14t29.5 -34l16 40h99z" />
    <glyph glyph-name="ysuperior.school" unicode="&#xe184;" horiz-adv-x="418" 
d="M363 593v-263q0 -160 -194 -160q-105 0 -144 59l65 67q30 -45 81 -45q37 0 57 13t20 48v57q-23 -67 -97 -67q-44 0 -72.5 25.5t-28.5 78.5v187h115v-152q0 -54 33 -54q50 0 50 65v141h115z" />
    <glyph glyph-name="p.smcp" unicode="&#xe200;" horiz-adv-x="529" 
d="M229 363v-133h52q36 0 53.5 15t17.5 50q0 37 -17 52.5t-53 15.5h-53zM229 0h-149v481h207q109 0 160.5 -45t51.5 -142q0 -88 -51.5 -135t-146.5 -47h-72v-112z" />
    <glyph glyph-name="p.smcp" unicode="&#xf770;" horiz-adv-x="529" 
d="M229 363v-133h52q36 0 53.5 15t17.5 50q0 37 -17 52.5t-53 15.5h-53zM229 0h-149v481h207q109 0 160.5 -45t51.5 -142q0 -88 -51.5 -135t-146.5 -47h-72v-112z" />
    <glyph glyph-name="a.smcp" unicode="&#xe201;" horiz-adv-x="584" 
d="M385 481l189 -481h-162l-26 71h-192l-27 -71h-157l199 481h176zM257 235l-23 -59h113l-22 59q-12 32 -19.5 61t-9.5 42l-2 13h-5q-5 -45 -32 -116z" />
    </font>
</defs>
</svg>
