<?xml version="1.0" standalone="no"?>
<!DOCTYPE svg PUBLIC "-//W3C//DTD SVG 1.1//EN" "http://www.w3.org/Graphics/SVG/1.1/DTD/svg11.dtd" >
<svg xmlns="http://www.w3.org/2000/svg" xmlns:xlink="http://www.w3.org/1999/xlink" version="1.1">
<metadata>
Created by FontForge 20170731 at Sun Oct 28 19:11:09 2007
 By Aleksey,,,
Copyright (c) 2004-7 by Kris Sowersby. All rights reserved.
</metadata>
<defs>
<font id="National-MediumItalic" horiz-adv-x="570" >
  <font-face 
    font-family="National Medium Italic"
    font-weight="650"
    font-style="italic"
    font-stretch="normal"
    units-per-em="1000"
    panose-1="2 0 5 3 0 0 0 2 0 4"
    ascent="800"
    descent="-200"
    x-height="462"
    cap-height="589"
    bbox="-166 -257 1193 961"
    underline-thickness="57"
    underline-position="-140"
    unicode-range="U+0020-F778"
  />
<missing-glyph horiz-adv-x="608" 
 />
    <glyph glyph-name="f_b" unicode="fb" horiz-adv-x="831" 
d="M475 258l-14 -77q-8 -46 14.5 -82.5t69.5 -36.5q64 0 101 61.5t37 150.5q0 55 -23 85.5t-64 30.5q-44 0 -77.5 -35.5t-43.5 -96.5zM324 0l100 573q-39 24 -82 24q-83 0 -99 -89l-9 -46h91l-14 -82h-91l-83 -470q-12 -69 -43 -95t-91 -26q-56 0 -89 24l22 78
q27 -21 51 -21q20 0 30.5 9.5t15.5 34.5l82 466h-70l15 82h69l9 49q16 86 68.5 125t125.5 39q66 0 110 -23l105 16l-52 -295q44 100 147 100q72 0 112.5 -49t40.5 -143q0 -126 -63 -209.5t-169 -83.5q-49 0 -83.5 23t-41.5 62l-35 -73h-79z" />
    <glyph glyph-name="f_f_b" unicode="ffb" horiz-adv-x="1107" 
d="M750 258l-13 -77q-8 -46 14.5 -82.5t69.5 -36.5q63 0 100 61.5t37 150.5q0 55 -23 85.5t-64 30.5q-43 0 -76.5 -35.5t-44.5 -96.5zM599 0l100 573q-38 24 -82 24q-81 0 -99 -89l-8 -46h90l-15 -82h-90l-81 -457q-12 -69 -43 -95t-91 -26q-54 0 -89 24l22 78
q27 -21 51 -21q20 0 31 9.5t15 34.5l81 453h-171l-83 -470q-12 -69 -43 -95t-91 -26q-56 0 -89 24l22 78q27 -21 51 -21q20 0 30.5 9.5t15.5 34.5l82 466h-70l15 82h69l9 54q28 152 157 152q56 0 99 -28l-36 -86q-28 26 -55 26q-25 0 -38.5 -15t-19.5 -48l-11 -55h171l8 49
q16 86 68.5 125t125.5 39q67 0 111 -23l105 16l-53 -295q44 100 148 100q72 0 112.5 -49t40.5 -143q0 -126 -63 -209.5t-169 -83.5q-49 0 -84 23t-42 62l-34 -73h-80z" />
    <glyph glyph-name="f_f_h" unicode="ffh" horiz-adv-x="1096" 
d="M599 0l100 573q-38 24 -82 24q-81 0 -99 -89l-8 -46h90l-15 -82h-90l-81 -457q-12 -69 -43 -95t-91 -26q-54 0 -89 24l22 78q27 -21 51 -21q20 0 31 9.5t15 34.5l81 453h-171l-83 -470q-12 -69 -43 -95t-91 -26q-56 0 -89 24l22 78q27 -21 51 -21q20 0 30.5 9.5
t15.5 34.5l82 466h-70l15 82h69l9 54q28 152 157 152q56 0 99 -28l-36 -86q-28 26 -55 26q-25 0 -38.5 -15t-19.5 -48l-11 -55h171l8 49q16 86 68.5 125t125.5 39q67 0 111 -23l105 16l-54 -300q48 105 148 105q55 0 86.5 -30t31.5 -83q0 -24 -3 -43l-34 -195q-8 -43 27 -43
q14 0 30 4l-16 -78q-30 -10 -60 -10q-110 0 -89 114l34 192q15 84 -57 84q-39 0 -73 -32.5t-46 -102.5l-43 -250h-106z" />
    <glyph glyph-name="f_f_j" unicode="ffj" horiz-adv-x="805" 
d="M666 380h-171l-81 -457q-12 -69 -43 -95t-91 -26q-54 0 -89 24l22 78q27 -21 51 -21q20 0 31 9.5t15 34.5l81 453h-171l-83 -470q-12 -69 -43 -95t-91 -26q-56 0 -89 24l22 78q27 -21 51 -21q20 0 30.5 9.5t15.5 34.5l82 466h-70l15 82h69l9 54q28 152 157 152
q56 0 99 -28l-36 -86q-28 26 -55 26q-25 0 -38.5 -15t-19.5 -48l-11 -55h171l9 48q33 165 188 165q71 0 124 -31l-36 -89q-44 33 -84 33q-37 0 -58 -19.5t-30 -66.5l-8 -40h276l-95 -539q-12 -68 -44 -94.5t-91 -26.5q-56 0 -89 24l21 78q27 -21 52 -21q20 0 30.5 9.5
t14.5 34.5z" />
    <glyph glyph-name="f_f_k" unicode="ffk" horiz-adv-x="1044" 
d="M599 0l100 573q-38 24 -82 24q-81 0 -99 -89l-8 -46h90l-15 -82h-90l-81 -457q-12 -69 -43 -95t-91 -26q-54 0 -89 24l22 78q27 -21 51 -21q20 0 31 9.5t15 34.5l81 453h-171l-83 -470q-12 -69 -43 -95t-91 -26q-56 0 -89 24l22 78q27 -21 51 -21q20 0 30.5 9.5
t15.5 34.5l82 466h-70l15 82h69l9 54q28 152 157 152q56 0 99 -28l-36 -86q-28 26 -55 26q-25 0 -38.5 -15t-19.5 -48l-11 -55h171l8 49q16 86 68.5 125t125.5 39q67 0 111 -23l105 16l-67 -376h23l157 170h129l-202 -208l70 -142q13 -26 31.5 -31.5t50.5 4.5l-16 -81
q-29 -9 -62 -9q-62 0 -90 59l-76 160h-29l-37 -214h-106z" />
    <glyph glyph-name="f_h" unicode="fh" horiz-adv-x="820" 
d="M323 0l101 573q-39 24 -82 24q-83 0 -99 -89l-9 -46h91l-14 -82h-91l-83 -470q-12 -69 -43 -95t-91 -26q-56 0 -89 24l22 78q27 -21 51 -21q20 0 30.5 9.5t15.5 34.5l82 466h-70l15 82h69l9 49q16 86 68.5 125t125.5 39q66 0 110 -23l105 16l-54 -300q49 105 148 105
q55 0 87 -30t32 -83q0 -18 -4 -43l-33 -195q-8 -43 27 -43q13 0 29 4l-16 -78q-30 -10 -60 -10q-108 0 -89 114l34 192q15 84 -56 84q-39 0 -73 -32.5t-46 -102.5l-44 -250h-106z" />
    <glyph glyph-name="f_j" unicode="fj" horiz-adv-x="530" 
d="M511 462l-95 -539q-12 -69 -44 -95t-92 -26q-54 0 -89 24l22 78q27 -21 51 -21q20 0 31 9.5t15 34.5l81 453h-171l-83 -470q-12 -69 -43 -95t-91 -26q-56 0 -89 24l22 78q27 -21 51 -21q20 0 30.5 9.5t15.5 34.5l82 466h-70l15 82h69l9 48q33 165 188 165q71 0 124 -31
l-36 -89q-44 33 -84 33q-71 0 -88 -86l-8 -40h277z" />
    <glyph glyph-name="f_k" unicode="fk" horiz-adv-x="768" 
d="M323 0l101 573q-39 24 -82 24q-83 0 -99 -89l-9 -46h90l-15 -82h-89l-83 -470q-12 -69 -43 -95t-91 -26q-56 0 -89 24l22 78q27 -21 51 -21q20 0 30.5 9.5t15.5 34.5l82 466h-70l15 82h69l9 49q16 86 68.5 125t125.5 39q66 0 110 -23l105 16l-66 -376h22l157 170h129
l-202 -208l70 -142q14 -26 32.5 -31.5t50.5 4.5l-17 -81q-27 -9 -61 -9q-62 0 -90 59l-76 160h-29l-38 -214h-106z" />
    <glyph glyph-name="ff" unicode="ff" horiz-adv-x="591" 
d="M495 380l-81 -457q-12 -69 -43 -95t-91 -26q-54 0 -89 24l22 78q27 -21 51 -21q20 0 31 9.5t15 34.5l81 453h-171l-83 -470q-12 -69 -43 -95t-91 -26q-56 0 -89 24l22 78q27 -21 51 -21q20 0 30.5 9.5t15.5 34.5l82 466h-70l15 82h69l9 54q28 152 157 152q56 0 99 -28
l-36 -86q-28 26 -55 26q-25 0 -38.5 -15t-19.5 -48l-11 -55h171l9 53q29 160 179 160q63 0 114 -27l-36 -87q-37 26 -75 26q-33 0 -51 -17t-25 -55l-10 -53h117l-15 -82h-117z" />
    <glyph glyph-name="ffi" unicode="ffi" horiz-adv-x="834" 
d="M786 462l-59 -340q-8 -43 26 -43q14 0 30 4l-16 -78q-30 -10 -60 -10q-108 0 -89 114l47 271h-170l-81 -457q-12 -69 -43 -95t-91 -26q-54 0 -89 24l22 78q27 -21 51 -21q20 0 31 9.5t15 34.5l81 453h-171l-83 -470q-12 -69 -43 -95t-91 -26q-56 0 -89 24l22 78
q27 -21 51 -21q20 0 30.5 9.5t15.5 34.5l82 466h-70l15 82h69l9 54q28 152 157 152q56 0 99 -28l-36 -86q-28 26 -55 26q-25 0 -38.5 -15t-19.5 -48l-11 -55h171l9 48q33 165 188 165q71 0 124 -31l-36 -89q-44 33 -84 33q-37 0 -58 -19.5t-30 -66.5l-8 -40h276z" />
    <glyph glyph-name="ffl" unicode="ffl" horiz-adv-x="833" 
d="M495 380l-81 -457q-12 -69 -43 -95t-91 -26q-54 0 -89 24l22 78q27 -21 51 -21q20 0 31 9.5t15 34.5l81 453h-171l-83 -470q-12 -69 -43 -95t-91 -26q-56 0 -89 24l22 78q27 -21 51 -21q20 0 30.5 9.5t15.5 34.5l82 466h-70l15 82h69l9 54q28 152 157 152q56 0 99 -28
l-36 -86q-28 26 -55 26q-25 0 -38.5 -15t-19.5 -48l-11 -55h171l8 49q16 86 68.5 125t125.5 39q67 0 111 -23l105 16l-96 -546q-8 -43 26 -43q14 0 30 4l-16 -78q-30 -10 -60 -10q-108 0 -89 114l81 464q-38 24 -82 24q-81 0 -99 -89l-8 -46h91l-15 -82h-91z" />
    <glyph glyph-name="fi" unicode="fi" horiz-adv-x="558" 
d="M511 462l-60 -340q-8 -43 27 -43q13 0 29 4l-15 -78q-32 -10 -61 -10q-109 0 -88 114l47 271h-170l-83 -470q-12 -69 -43 -95t-91 -26q-56 0 -89 24l22 78q27 -21 51 -21q20 0 30.5 9.5t15.5 34.5l82 466h-70l15 82h69l9 48q33 165 188 165q71 0 124 -31l-36 -89
q-44 33 -84 33q-71 0 -88 -86l-8 -40h277z" />
    <glyph glyph-name="fl" unicode="fl" horiz-adv-x="557" 
d="M220 380l-83 -470q-12 -69 -43 -95t-91 -26q-56 0 -89 24l22 78q27 -21 51 -21q20 0 30.5 9.5t15.5 34.5l82 466h-70l15 82h69l9 49q16 86 68.5 125t125.5 39q66 0 110 -23l105 16l-96 -546q-8 -43 27 -43q13 0 29 4l-15 -78q-32 -10 -61 -10q-109 0 -88 114l81 464
q-39 24 -82 24q-83 0 -99 -89l-9 -46h91l-14 -82h-91z" />
    <glyph glyph-name=".notdef" horiz-adv-x="608" 
 />
    <glyph glyph-name=".null" horiz-adv-x="0" 
 />
    <glyph glyph-name="nonmarkingreturn" horiz-adv-x="333" 
 />
    <glyph glyph-name="space" unicode=" " horiz-adv-x="223" 
 />
    <glyph glyph-name="exclam" unicode="!" horiz-adv-x="239" 
d="M119 589h133l-107 -407h-70zM21 61q0 30 20 49t50 19t50 -19t20 -49q0 -29 -20 -48t-50 -19t-50 19t-20 48z" />
    <glyph glyph-name="quotedbl" unicode="&#x22;" horiz-adv-x="329" 
d="M77 412l45 256h109l-90 -256h-64zM234 412l45 256h109l-90 -256h-64z" />
    <glyph glyph-name="numbersign" unicode="#" horiz-adv-x="653" 
d="M566 136h-159l-65 -136h-88l64 136h-94l-64 -136h-89l65 136h-100l13 76h123l39 82h-127l13 76h151l53 111h90l-54 -111h93l53 111h90l-54 -111h108l-13 -76h-132l-39 -82h137zM300 294l-39 -82h93l40 82h-94z" />
    <glyph glyph-name="dollar" unicode="$" horiz-adv-x="462" 
d="M13 122l87 25q1 -35 22.5 -58t54.5 -30l26 145q-15 5 -27 11q-54 20 -78 50t-24 77q0 74 51.5 111t128.5 40l14 81h50l-15 -83q68 -8 104.5 -41.5t36.5 -88.5l-92 -20q0 62 -62 77l-24 -138l6 -1q70 -23 98.5 -56t28.5 -85q0 -71 -51 -108.5t-134 -40.5l-16 -95h-50
l17 96q-69 7 -110 41.5t-42 90.5zM301 124q0 22 -11 36t-41 27l-22 -130q74 7 74 67zM169 358q0 -21 11 -34t39 -25l22 121q-72 -6 -72 -62z" />
    <glyph glyph-name="percent" unicode="%" horiz-adv-x="874" 
d="M168 229q-62 0 -93.5 39.5t-31.5 107.5q0 87 45 154t124 67q60 0 93 -41t33 -110q0 -88 -45 -152.5t-125 -64.5zM205 527q-42 0 -62 -49.5t-20 -100.5q2 -82 54 -82q29 0 48.5 29t26.5 61t7 61q0 81 -54 81zM197 0l409 590h72l-409 -590h-72zM660 -7q-62 0 -93.5 39.5
t-31.5 107.5q0 87 45 154t124 67q60 0 93 -41t33 -110q0 -88 -45 -152.5t-125 -64.5zM697 291q-42 0 -62 -49.5t-20 -100.5q2 -82 54 -82q29 0 48.5 29t26.5 61t7 61q0 81 -54 81z" />
    <glyph glyph-name="ampersand" unicode="&#x26;" horiz-adv-x="567" 
d="M528 55l-80 -65l-58 69q-87 -71 -204 -71q-81 0 -126.5 36.5t-45.5 107.5q0 120 169 178l-24 30q-45 53 -45 113q0 70 54 109t131 39q74 0 115 -34.5t41 -94.5q0 -107 -146 -159l99 -119q27 36 41 105l90 -30q-24 -78 -79 -138zM117 142q0 -34 23 -55t62 -21q78 0 140 52
l-122 147q-37 -22 -54.5 -34.5t-33 -36t-15.5 -52.5zM290 529q-33 0 -54 -19t-22 -49q0 -29 26 -61l32 -42q85 42 85 107q0 64 -67 64z" />
    <glyph glyph-name="quotesingle" unicode="'" horiz-adv-x="172" 
d="M77 412l45 256h109l-90 -256h-64z" />
    <glyph glyph-name="parenleft" unicode="(" horiz-adv-x="349" 
d="M168 143q0 -94 24 -175t80 -170h-107q-99 154 -99 340q0 160 67 299.5t177 230.5h119q-58 -53 -100.5 -103.5t-81.5 -115.5t-59 -142t-20 -164z" />
    <glyph glyph-name="parenright" unicode=")" horiz-adv-x="349" 
d="M187 323q0 94 -24.5 175t-80.5 170h108q99 -154 99 -340q0 -160 -67 -299.5t-177 -230.5h-119q58 53 100.5 103.5t81.5 115.5t59 142t20 164z" />
    <glyph glyph-name="asterisk" unicode="*" horiz-adv-x="378" 
d="M295 580l-40 -96l101 21l5 -80l-104 9l52 -93l-77 -30l-23 102l-70 -78l-51 64l88 55l-95 43l44 67l78 -67l12 103z" />
    <glyph glyph-name="plus" unicode="+" horiz-adv-x="498" 
d="M50 278h170l30 167h65l-30 -167h173l-10 -60h-173l-32 -181h-65l32 181h-170z" />
    <glyph glyph-name="comma" unicode="," horiz-adv-x="288" 
d="M197 39q0 -75 -52 -114t-132 -41v47q45 4 78 24t33 52q-33 -6 -55.5 11t-22.5 49t20 49.5t53 17.5q35 0 56.5 -26t21.5 -69z" />
    <glyph glyph-name="hyphen" unicode="-" horiz-adv-x="383" 
d="M66 213l15 89h236l-15 -89h-236z" />
    <glyph glyph-name="period" unicode="." horiz-adv-x="288" 
d="M42 68q0 31 21 52.5t52 21.5q32 0 53.5 -21t21.5 -53q0 -31 -21.5 -52.5t-53.5 -21.5q-31 0 -52 21.5t-21 52.5z" />
    <glyph glyph-name="slash" unicode="/" horiz-adv-x="382" 
d="M-85 -203l424 872h95l-426 -872h-93z" />
    <glyph glyph-name="zero" unicode="0" horiz-adv-x="581" 
d="M266 -12q-109 0 -164.5 64.5t-55.5 158.5q0 129 77 205.5t191 76.5q111 0 166 -64.5t55 -162.5q0 -126 -77 -202t-192 -76zM148 217q0 -63 32.5 -102t91.5 -39q68 0 113.5 52.5t45.5 132.5q0 63 -33 102t-91 39q-69 0 -114 -52.5t-45 -132.5z" />
    <glyph glyph-name="one" unicode="1" horiz-adv-x="362" 
d="M218 0h-107l67 383l-137 -22l16 87l247 41z" />
    <glyph glyph-name="two" unicode="2" horiz-adv-x="463" 
d="M393 88l-16 -88h-371l13 80q148 69 218 127.5t70 125.5q0 33 -18 51t-51 18q-35 0 -58 -22t-25 -69l-96 28q5 42 24 73t47 48t58 25t63 8q81 0 123.5 -39t42.5 -109q0 -65 -45 -120.5t-106.5 -86.5t-130.5 -46v-4h258z" />
    <glyph glyph-name="three" unicode="3" horiz-adv-x="461" 
d="M227 187v-3q79 -6 116.5 -44t37.5 -99q0 -85 -62.5 -132t-158.5 -47q-89 0 -136.5 37.5t-50.5 102.5l100 31q0 -45 26 -68t71 -23q46 0 74.5 25t28.5 71t-32 74.5t-115 34.5l13 76q98 11 137.5 39t39.5 79q0 33 -20.5 50t-54.5 17q-76 0 -89 -86l-99 26q16 69 66.5 107
t134.5 38q78 0 124.5 -35.5t46.5 -102.5q0 -79 -52.5 -122.5t-145.5 -45.5z" />
    <glyph glyph-name="four" unicode="4" horiz-adv-x="551" 
d="M261 -131l30 171h-285l12 70l354 371h103l-63 -361h97l-14 -80h-97l-31 -171h-106zM200 120h105l23 133q4 28 10 55t10 40l4 13h-4q-24 -34 -68 -83l-87 -97q-17 -19 -33.5 -34t-24.5 -21l-8 -6v-4q20 4 73 4z" />
    <glyph glyph-name="five" unicode="5" horiz-adv-x="468" 
d="M68 146l71 335h307l-16 -92h-218l-38 -173q29 24 80 24q69 0 107.5 -45t38.5 -114q-1 -105 -69 -162t-170 -57q-84 0 -131.5 37.5t-47.5 102.5l96 30q1 -88 97 -88q50 0 84.5 32t34.5 93q0 46 -23.5 72.5t-64.5 26.5q-37 0 -62 -22h-76z" />
    <glyph glyph-name="six" unicode="6" horiz-adv-x="520" 
d="M516 493l-80 -53q-20 77 -96 77q-77 0 -130 -68.5t-66 -182.5h4q17 54 59.5 81t98.5 27q76 0 121 -45t45 -120q0 -99 -60 -160t-162 -61q-100 0 -152 60t-52 175q0 96 33.5 180.5t103 141t162.5 56.5q136 0 171 -108zM274 292q-51 0 -85.5 -33.5t-34.5 -91.5
q0 -46 25.5 -71.5t69.5 -25.5q52 0 86.5 34.5t34.5 94.5q0 44 -25 68.5t-71 24.5z" />
    <glyph glyph-name="seven" unicode="7" horiz-adv-x="498" 
d="M295 389h-150l-13 -74h-92l30 166h419l-13 -73l-330 -539h-113l278 452q15 24 28 41.5t19 22.5l6 5v4q-19 -5 -69 -5z" />
    <glyph glyph-name="eight" unicode="8" horiz-adv-x="506" 
d="M224 -12q-91 0 -142.5 41t-51.5 107q0 65 39 108.5t103 55.5v5q-41 10 -64 41.5t-23 72.5q0 88 64 135t157 47q81 0 130.5 -40.5t49.5 -106.5q0 -60 -36.5 -101.5t-93.5 -53.5l-1 -4q45 -14 72 -48.5t27 -81.5q0 -90 -67 -133.5t-163 -43.5zM296 523q-48 0 -76.5 -29.5
t-28.5 -74.5q0 -38 22 -58t58 -20q49 0 78.5 30t29.5 76q0 34 -21.5 55t-61.5 21zM258 258q-51 0 -85.5 -29.5t-34.5 -78.5q0 -37 25.5 -60t66.5 -23q54 0 87 28.5t33 78.5q0 39 -26 61.5t-66 22.5z" />
    <glyph glyph-name="nine" unicode="9" horiz-adv-x="519" 
d="M1 -30l73 55q30 -80 111 -80q78 0 127 67t64 201h-4q-18 -54 -58.5 -81t-93.5 -27q-79 0 -125.5 46t-46.5 122q0 98 60.5 159t163.5 61q98 0 149.5 -61.5t51.5 -176.5q0 -111 -33 -198.5t-100.5 -141t-161.5 -53.5q-135 0 -177 108zM244 187q51 0 85.5 34t34.5 92
q0 46 -26 72t-73 26q-48 0 -82 -35t-34 -94q0 -44 25 -69.5t70 -25.5z" />
    <glyph glyph-name="colon" unicode=":" horiz-adv-x="288" 
d="M42 68q0 31 21 52.5t52 21.5q32 0 53.5 -21t21.5 -53q0 -31 -21.5 -52.5t-53.5 -21.5q-31 0 -52 21.5t-21 52.5zM103 409q0 32 21 53.5t52 21.5q32 0 53.5 -21.5t21.5 -53.5q0 -31 -21.5 -52t-53.5 -21q-31 0 -52 21t-21 52z" />
    <glyph glyph-name="semicolon" unicode=";" horiz-adv-x="288" 
d="M197 39q0 -75 -52 -114t-132 -41v47q45 4 78 24t33 52q-33 -6 -55.5 11t-22.5 49t20 49.5t53 17.5q35 0 56.5 -26t21.5 -69zM105 409q0 32 21 53.5t52 21.5q32 0 53.5 -21.5t21.5 -53.5q0 -31 -21.5 -52t-53.5 -21q-31 0 -52 21t-21 52z" />
    <glyph glyph-name="less" unicode="&#x3c;" horiz-adv-x="416" 
d="M386 404l-227 -164l161 -158l-51 -50l-213 215l290 212z" />
    <glyph glyph-name="equal" unicode="=" horiz-adv-x="523" 
d="M448 147h-408l11 61h408zM472 284h-408l11 61h408z" />
    <glyph glyph-name="greater" unicode="&#x3e;" horiz-adv-x="416" 
d="M34 87l227 164l-162 158l52 50l213 -215l-291 -212z" />
    <glyph glyph-name="question" unicode="?" horiz-adv-x="434" 
d="M147 418l-91 34q42 149 202 149q89 0 136.5 -43.5t47.5 -121.5q0 -91 -62.5 -139.5t-142.5 -48.5l-14 -75h-93l24 134h33q66 0 106 28t40 89q0 87 -86 87q-80 0 -100 -93zM91 61q0 30 20 49t50 19t50.5 -19t20.5 -49q0 -29 -20.5 -48t-50.5 -19t-50 19t-20 48z" />
    <glyph glyph-name="at" unicode="@" horiz-adv-x="883" 
d="M509 179l8 43q9 47 -12 76.5t-58 29.5q-48 0 -79 -44.5t-31 -117.5q0 -96 68 -96q37 0 66 27.5t38 81.5zM614 -12q-108 0 -111 92q-29 -92 -131 -92q-65 0 -102 45t-37 128q0 110 56 178t136 68q44 0 75 -21.5t37 -63.5l37 79h77l-55 -286q-12 -64 46 -64q53 0 88 57
t35 148q0 137 -88 209t-222 72q-89 0 -164 -36.5t-123.5 -115.5t-48.5 -188q0 -165 99.5 -251t260.5 -86q99 0 188 31l16 -61q-93 -31 -205 -31q-195 0 -314 101t-119 297q0 177 114 288t299 111q181 0 280.5 -94.5t99.5 -234.5q0 -123 -56.5 -201t-167.5 -78z" />
    <glyph glyph-name="A" unicode="A" horiz-adv-x="605" 
d="M432 0l-27 148h-235l-77 -148h-115l317 589h137l111 -589h-111zM274 348l-58 -111h173q-13 65 -22.5 132.5t-13 104.5t-2.5 37h-4q-24 -70 -73 -163z" />
    <glyph glyph-name="B" unicode="B" horiz-adv-x="530" 
d="M370 302l-1 -4q56 -6 85 -36.5t29 -79.5q0 -92 -62 -137t-168 -45h-217l103 589h201q164 0 164 -132q0 -67 -38.5 -108t-95.5 -47zM203 335h83q107 0 107 96q0 36 -20 52t-62 16h-79zM189 253l-29 -163h103q114 0 114 94q0 69 -86 69h-102z" />
    <glyph glyph-name="C" unicode="C" horiz-adv-x="569" 
d="M436 168l88 -47q-69 -133 -237 -133q-111 0 -172.5 65t-61.5 177q0 170 88 270.5t217 100.5q176 0 208 -155l-110 -40q-15 103 -107 103q-85 0 -135 -79.5t-50 -194.5q0 -73 34.5 -114.5t97.5 -41.5q47 0 79 19t61 70z" />
    <glyph glyph-name="D" unicode="D" horiz-adv-x="603" 
d="M160 90h78q96 0 156.5 66t60.5 196q0 147 -157 147h-66zM234 0h-198l103 589h178q125 0 188 -58t63 -169q0 -77 -18.5 -138.5t-50 -102.5t-74.5 -69t-90.5 -40t-100.5 -12z" />
    <glyph glyph-name="E" unicode="E" horiz-adv-x="500" 
d="M425 93l-15 -93h-374l103 589h374l-17 -93h-265l-27 -155h234l-16 -91h-234l-28 -157h265z" />
    <glyph glyph-name="F" unicode="F" horiz-adv-x="469" 
d="M145 0h-109l103 589h359l-16 -93h-251l-29 -167h220l-16 -91h-220z" />
    <glyph glyph-name="G" unicode="G" horiz-adv-x="614" 
d="M327 307h240l-53 -307h-73l-6 73q-42 -85 -154 -85q-107 0 -167.5 65.5t-60.5 176.5q0 170 88 270.5t217 100.5q177 0 209 -155l-110 -40q-15 102 -107 102q-86 0 -136 -78.5t-50 -192.5q0 -75 35 -118t103 -43q120 0 140 114l5 28h-136z" />
    <glyph glyph-name="H" unicode="H" horiz-adv-x="630" 
d="M145 0h-109l103 589h109l-43 -244h261l42 244h109l-103 -589h-109l44 253h-260z" />
    <glyph glyph-name="I" unicode="I" horiz-adv-x="261" 
d="M139 589h109l-103 -589h-109z" />
    <glyph glyph-name="J" unicode="J" horiz-adv-x="442" 
d="M325 589h109l-76 -428q-16 -94 -65 -133.5t-138 -39.5q-139 0 -174 122l88 57q20 -91 92 -91q44 0 62.5 22.5t28.5 78.5z" />
    <glyph glyph-name="K" unicode="K" horiz-adv-x="541" 
d="M493 0h-123l-133 253h-48l-44 -253h-109l103 589h109l-43 -245h41l203 245h128l-247 -289z" />
    <glyph glyph-name="L" unicode="L" horiz-adv-x="464" 
d="M139 589h109l-88 -496h251l-16 -93h-359z" />
    <glyph glyph-name="M" unicode="M" horiz-adv-x="710" 
d="M373 141h-62l-66 177q-10 26 -17 52t-9 40l-2 13h-4q-1 -38 -13 -107l-55 -316h-109l103 589h116l82 -239q8 -25 14 -47t7 -32l2 -10h4q10 32 49 87l168 241h116l-103 -589h-109l55 316q5 31 11 57.5t9 38.5l4 11h-4q-19 -43 -61 -102z" />
    <glyph glyph-name="N" unicode="N" horiz-adv-x="631" 
d="M244 589l148 -314q13 -26 23.5 -54.5t14.5 -44.5l5 -15h4q7 64 20 138l51 290h108l-103 -589h-102l-151 310q-13 27 -24.5 56.5t-16.5 45.5l-5 16h-4q-3 -62 -17 -141l-50 -287h-109l103 589h105z" />
    <glyph glyph-name="O" unicode="O" horiz-adv-x="627" 
d="M287 -12q-111 0 -172.5 65.5t-61.5 176.5q0 170 88 270.5t217 100.5q111 0 172.5 -66t61.5 -177q0 -170 -88 -270t-217 -100zM349 508q-85 0 -135 -78.5t-50 -192.5q0 -74 34.5 -116t97.5 -42q83 0 133.5 79t50.5 193q0 71 -33 114t-98 43z" />
    <glyph glyph-name="P" unicode="P" horiz-adv-x="506" 
d="M232 500l-36 -205h71q128 0 128 127q0 40 -22.5 59t-70.5 19h-70zM145 0h-109l103 589h181q98 0 141.5 -39.5t43.5 -118.5q0 -107 -66 -165.5t-168 -58.5h-90z" />
    <glyph glyph-name="Q" unicode="Q" horiz-adv-x="632" 
d="M597 358q0 -161 -79.5 -259.5t-199.5 -108.5q42 -60 164 -50l-32 -94q-102 -2 -164 37t-76 117q-74 21 -113 81t-39 149q0 170 88 270.5t217 100.5q112 0 173 -65.5t61 -177.5zM354 508q-85 0 -135 -78.5t-50 -192.5q0 -74 34.5 -116t97.5 -42q83 0 133.5 79t50.5 193
q0 71 -33 114t-98 43z" />
    <glyph glyph-name="R" unicode="R" horiz-adv-x="559" 
d="M500 0h-117q-16 15 -23 57l-16 97q-7 45 -26 60t-63 15h-70l-40 -229h-109l103 589h209q95 0 137 -36t42 -110q0 -81 -47.5 -124.5t-111.5 -48.5v-4q41 -6 60 -25.5t27 -64.5l20 -114q7 -37 25 -62zM232 499l-32 -182h99q54 0 85.5 26t31.5 82q0 74 -86 74h-98z" />
    <glyph glyph-name="S" unicode="S" horiz-adv-x="499" 
d="M16 141l98 30q0 -50 28 -76.5t78 -26.5q105 0 105 87q0 37 -20.5 58t-74.5 41q-73 25 -108 62.5t-35 104.5q0 92 63.5 136t145.5 44q92 0 140 -37.5t50 -121.5l-105 -18q2 44 -22.5 68t-70.5 24q-44 0 -70.5 -22t-26.5 -60q0 -35 20.5 -51.5t78.5 -38.5q76 -29 110 -67
t34 -107q0 -93 -63.5 -137.5t-161.5 -44.5q-186 0 -193 153z" />
    <glyph glyph-name="T" unicode="T" horiz-adv-x="488" 
d="M256 0h-109l87 496h-168l16 93h446l-16 -93h-170z" />
    <glyph glyph-name="U" unicode="U" horiz-adv-x="596" 
d="M485 589h108l-69 -394q-20 -113 -86.5 -160t-173.5 -47q-50 0 -90 13t-70 39.5t-41 74t0 110.5l64 364h109l-65 -366q-25 -146 107 -146q63 0 96 33.5t45 107.5z" />
    <glyph glyph-name="V" unicode="V" horiz-adv-x="554" 
d="M185 589l50 -354q5 -39 8 -77t3 -56l1 -19h4q18 64 59 151l173 355h116l-297 -589h-136l-90 589h109z" />
    <glyph glyph-name="W" unicode="W" horiz-adv-x="844" 
d="M543 589l26 -354q3 -40 3.5 -80.5t-0.5 -60.5l-1 -21h4q18 73 53 161l139 355h113l-241 -589h-152l-27 328q-3 45 -3 80t2 56l2 21h-4q-14 -68 -52 -157l-138 -328h-149l-26 589h109l12 -353v-163h4q16 74 53 162l148 354h125z" />
    <glyph glyph-name="X" unicode="X" horiz-adv-x="556" 
d="M385 0l-78 149q-13 25 -20.5 44t-8.5 25v7h-4q-2 -18 -51 -77l-124 -148h-127l257 301l-145 288h119l64 -133q13 -28 21 -48.5t9 -27.5l1 -7h4q3 18 54 83l107 133h124l-239 -288l152 -301h-115z" />
    <glyph glyph-name="Y" unicode="Y" horiz-adv-x="518" 
d="M190 589l56 -171q10 -32 16 -62.5t7 -45.5l1 -15h4q16 52 61 122l111 172h115l-246 -375l-37 -214h-109l37 214l-129 375h113z" />
    <glyph glyph-name="Z" unicode="Z" horiz-adv-x="526" 
d="M15 69l307 360q20 23 39 40.5t28 23.5l9 6v4q-34 -7 -91 -7h-207l16 93h425l-14 -73l-308 -356q-20 -23 -39.5 -40.5t-28.5 -23.5l-9 -6v-4q35 7 92 7h224l-16 -93h-440z" />
    <glyph glyph-name="bracketleft" unicode="[" horiz-adv-x="346" 
d="M257 590l-126 -715h143l-13 -78h-247l153 872h247l-14 -79h-143z" />
    <glyph glyph-name="backslash" unicode="\" horiz-adv-x="353" 
d="M179 669l120 -872h-85l-122 872h87z" />
    <glyph glyph-name="bracketright" unicode="]" horiz-adv-x="346" 
d="M87 -124l125 714h-143l14 79h247l-153 -872h-247l14 79h143z" />
    <glyph glyph-name="asciicircum" unicode="^" horiz-adv-x="515" 
d="M435 321l-47 146q-12 40 -18 71.5t-6 43.5v12h-4q-10 -39 -70 -126l-102 -147h-102l245 347h88l122 -347h-106z" />
    <glyph glyph-name="underscore" unicode="_" horiz-adv-x="481" 
d="M-6 -103l14 81h381l-14 -81h-381z" />
    <glyph glyph-name="grave" unicode="`" horiz-adv-x="369" 
d="M289 528h-93l-116 148h137z" />
    <glyph glyph-name="a" unicode="a" horiz-adv-x="543" 
d="M341 193l14 77q8 50 -10.5 86t-62.5 36q-62 0 -100 -59.5t-38 -146.5q0 -52 21.5 -84t62.5 -32q45 0 74 33t39 90zM495 462l-60 -340q-8 -43 27 -43q13 0 29 4l-15 -78q-32 -10 -61 -10q-88 0 -89 82q-35 -89 -136 -89q-71 0 -112.5 50t-41.5 139q0 123 62 209.5
t161 86.5q104 0 117 -89l26 78h93z" />
    <glyph glyph-name="b" unicode="b" horiz-adv-x="544" 
d="M187 260l-13 -75q-8 -46 14 -82t70 -36q63 0 100.5 60.5t37.5 147.5q0 55 -23 85t-64 30q-44 0 -78 -35t-44 -95zM150 73l-34 -73h-80l117 668h106l-52 -295q44 100 148 100q71 0 112 -49t41 -143q0 -126 -63 -209.5t-169 -83.5q-49 0 -84 23t-42 62z" />
    <glyph glyph-name="c" unicode="c" horiz-adv-x="460" 
d="M328 153l101 -19q-49 -146 -204 -146q-86 0 -137.5 51.5t-51.5 143.5q0 120 65 205t182 85q81 0 121 -42.5t40 -114.5l-101 -18q0 90 -71 90q-58 0 -92.5 -59t-34.5 -137q0 -123 90 -123q69 0 93 84z" />
    <glyph glyph-name="d" unicode="d" horiz-adv-x="543" 
d="M343 192l15 78q8 49 -11 85.5t-65 36.5q-62 0 -100.5 -59.5t-38.5 -147.5q0 -51 21.5 -83t62.5 -32q46 0 76 32t40 90zM533 668l-95 -546q-8 -43 27 -43q13 0 29 4l-16 -78q-30 -10 -60 -10q-88 0 -89 82q-32 -89 -139 -89q-71 0 -112.5 50t-41.5 139q0 123 62.5 209.5
t162.5 86.5q104 0 117 -89l50 284h105z" />
    <glyph glyph-name="e" unicode="e" horiz-adv-x="476" 
d="M234 69q40 0 62 17t33 54l99 -24q-23 -69 -72 -98.5t-131 -29.5q-89 0 -139 53.5t-50 144.5q0 133 70.5 210t166.5 77q88 0 132.5 -47.5t44.5 -118.5q0 -56 -20 -96h-288q-7 -59 17 -100.5t75 -41.5zM154 279h188q4 12 4 29q0 37 -19.5 61t-57.5 24q-44 0 -73.5 -32
t-41.5 -82z" />
    <glyph glyph-name="f" unicode="f" horiz-adv-x="315" 
d="M33 -86l82 466h-70l15 82h69l10 53q27 160 178 160q63 0 114 -27l-36 -87q-37 26 -75 26q-33 0 -50.5 -17t-25.5 -55l-10 -53h117l-14 -82h-117l-83 -470q-12 -69 -43 -95t-91 -26q-56 0 -89 24l22 78q27 -21 51 -21q20 0 30.5 9.5t15.5 34.5z" />
    <glyph glyph-name="g" unicode="g" horiz-adv-x="518" 
d="M344 195l14 75q8 50 -10.5 86t-64.5 36q-63 0 -101 -58t-38 -145q0 -52 21.5 -83.5t62.5 -31.5q47 0 76.5 31.5t39.5 89.5zM497 462l-83 -471q-18 -103 -77 -152.5t-167 -49.5q-164 0 -194 120l85 47q5 -39 36 -63t77 -24q60 0 91.5 33t44.5 96l15 81q-34 -86 -133 -86
q-72 0 -113.5 50t-41.5 139q0 122 62 206.5t164 84.5t115 -89l27 78h92z" />
    <glyph glyph-name="h" unicode="h" horiz-adv-x="533" 
d="M469 317l-33 -195q-8 -43 27 -43q13 0 29 4l-16 -78q-30 -10 -60 -10q-108 0 -89 114l34 192q15 84 -56 84q-39 0 -73 -32.5t-46 -102.5l-44 -250h-106l116 668h108l-54 -300q49 105 148 105q55 0 87 -30t32 -83q0 -18 -4 -43z" />
    <glyph glyph-name="i" unicode="i" horiz-adv-x="263" 
d="M215 462l-59 -340q-8 -43 27 -43q13 0 29 4l-16 -78q-30 -10 -60 -10q-108 0 -89 114l62 353h106zM117 608q0 30 19 48t48 18t49 -18t20 -48q0 -29 -20 -47.5t-49 -18.5q-28 0 -47.5 18.5t-19.5 47.5z" />
    <glyph glyph-name="j" unicode="j" horiz-adv-x="234" 
d="M215 462l-92 -528q-14 -80 -55.5 -112.5t-112.5 -32.5q-61 0 -101 27l32 79q32 -25 67 -25q26 0 41.5 16.5t23.5 59.5l91 516h106zM117 608q0 30 19 48t48 18t49 -18t20 -48q0 -29 -20 -47.5t-49 -18.5q-28 0 -47.5 18.5t-19.5 47.5z" />
    <glyph glyph-name="k" unicode="k" horiz-adv-x="481" 
d="M284 54l-76 160h-28l-38 -214h-106l117 668h107l-66 -376h22l157 170h129l-202 -208l70 -142q14 -26 32.5 -31.5t50.5 4.5l-17 -81q-27 -9 -61 -9q-63 0 -91 59z" />
    <glyph glyph-name="l" unicode="l" horiz-adv-x="262" 
d="M252 668l-96 -546q-8 -43 27 -43q13 0 29 4l-16 -78q-30 -10 -60 -10q-108 0 -89 114l99 559h106z" />
    <glyph glyph-name="m" unicode="m" horiz-adv-x="782" 
d="M403 0h-106l53 301q15 84 -54 84q-37 0 -67.5 -32.5t-42.5 -102.5l-44 -250h-106l81 462h92l-3 -94q24 54 56 79.5t85 25.5q52 0 83 -29t31 -82q22 56 57 83.5t90 27.5q52 0 83 -30t31 -83q0 -18 -4 -43l-33 -195q-8 -43 27 -43q13 0 29 4l-15 -78q-32 -10 -61 -10
q-109 0 -88 114l34 192q13 84 -55 84q-37 0 -67 -32.5t-43 -102.5z" />
    <glyph glyph-name="n" unicode="n" horiz-adv-x="533" 
d="M469 317l-33 -195q-8 -43 27 -43q13 0 29 4l-16 -78q-30 -10 -60 -10q-108 0 -89 114l34 192q15 84 -56 84q-39 0 -73 -32.5t-46 -102.5l-44 -250h-106l81 462h92l-3 -94q48 105 148 105q55 0 87 -30t32 -83q0 -18 -4 -43z" />
    <glyph glyph-name="o" unicode="o" horiz-adv-x="509" 
d="M283 473q89 0 139.5 -53.5t50.5 -147.5q0 -120 -65 -202t-181 -82q-86 0 -138.5 51t-52.5 145q0 122 65 205.5t182 83.5zM273 388q-58 0 -93 -57.5t-35 -140.5q0 -59 24 -90t67 -31q59 0 93.5 58t34.5 143q0 57 -23.5 87.5t-67.5 30.5z" />
    <glyph glyph-name="p" unicode="p" horiz-adv-x="544" 
d="M187 260l-13 -76q-10 -45 13.5 -81t70.5 -36q63 0 100.5 60.5t37.5 147.5q0 54 -23 84.5t-64 30.5q-44 0 -78 -35t-44 -95zM155 73l-49 -276h-105l117 665h92l-4 -89q45 100 149 100q72 0 112.5 -49t40.5 -143q0 -126 -63 -209.5t-169 -83.5q-49 0 -81.5 23t-39.5 62z
" />
    <glyph glyph-name="q" unicode="q" horiz-adv-x="515" 
d="M343 191l15 79q8 49 -11 85.5t-65 36.5q-62 0 -100 -60t-38 -148q0 -51 21.5 -82.5t62.5 -31.5q46 0 75.5 31.5t39.5 89.5zM381 -203h-107l49 277q-34 -86 -133 -86q-71 0 -112.5 50t-41.5 139q0 123 62.5 209.5t162.5 86.5q105 0 118 -89l26 78h92z" />
    <glyph glyph-name="r" unicode="r" horiz-adv-x="360" 
d="M382 470l-26 -123q-55 18 -107 -7.5t-63 -90.5l-44 -249h-106l81 462h92l-6 -114q24 63 74 98.5t105 23.5z" />
    <glyph glyph-name="s" unicode="s" horiz-adv-x="419" 
d="M12 121l90 26q1 -42 24 -64t61 -22q73 0 73 58q0 27 -16.5 44t-60.5 31q-58 19 -86 51t-28 84q0 70 48.5 107t125.5 37q156 0 156 -125l-93 -17q0 68 -71 68q-31 0 -49.5 -15t-18.5 -41q0 -22 16.5 -36.5t66.5 -33.5q63 -24 88 -56.5t25 -87.5q0 -71 -48.5 -106
t-132.5 -35q-78 0 -122.5 34t-47.5 99z" />
    <glyph glyph-name="t" unicode="t" horiz-adv-x="330" 
d="M278 102v-89q-45 -25 -107 -25q-143 0 -116 155l42 237h-65l15 82h65l17 97l108 14l-19 -111h120l-14 -82h-120l-43 -240q-11 -61 39 -61q38 0 78 23z" />
    <glyph glyph-name="u" unicode="u" horiz-adv-x="530" 
d="M321 88q-21 -53 -57.5 -76.5t-91.5 -23.5q-73 0 -104 46t-17 129l52 299h106l-54 -309q-14 -87 57 -87q41 0 73.5 31.5t42.5 90.5l48 274h106l-59 -340q-8 -43 26 -43q14 0 30 4l-16 -78q-30 -10 -60 -10q-48 0 -67.5 23t-14.5 70z" />
    <glyph glyph-name="v" unicode="v" horiz-adv-x="437" 
d="M106 0l-70 462h108l27 -239q5 -40 6.5 -77t0.5 -54v-17h4q14 64 58 147l123 240h112l-252 -462h-117z" />
    <glyph glyph-name="w" unicode="w" horiz-adv-x="686" 
d="M429 462l20 -225q4 -41 4.5 -81.5t-1.5 -60.5l-2 -20h4q14 68 53 161l96 226h111l-205 -462h-125l-23 201q-3 37 -3.5 73.5t0.5 55.5l2 18h-4q-16 -63 -53 -147l-85 -201h-125l-47 462h108l18 -225q4 -41 4.5 -81.5t-0.5 -60.5l-1 -20h4q14 70 54 163l98 224h98z" />
    <glyph glyph-name="x" unicode="x" horiz-adv-x="457" 
d="M300 0l-49 100q-12 26 -18 45.5t-6 26.5v6h-4q-3 -19 -51 -79l-81 -99h-118l192 232l-103 230h113l38 -90q11 -26 17.5 -46t7.5 -27l1 -7h4q8 25 50 79l70 91h120l-185 -227l111 -235h-109z" />
    <glyph glyph-name="y" unicode="y" horiz-adv-x="444" 
d="M152 462l26 -250q4 -39 5.5 -74.5t0.5 -51.5l-1 -16h4q15 64 56 143l128 249h111l-277 -512q-51 -96 -98 -128.5t-110 -32.5q-48 0 -80 18l27 84q29 -18 58 -18q34 0 60.5 23t54.5 77l-75 489h110z" />
    <glyph glyph-name="z" unicode="z" horiz-adv-x="436" 
d="M9 57l218 252q20 23 39 40.5t28 23.5l8 6v4q-33 -7 -90 -7h-133l17 86h344l-10 -66l-220 -245q-20 -23 -39 -40.5t-28 -23.5l-9 -6v-4q34 7 92 7h146l-15 -84h-359z" />
    <glyph glyph-name="braceleft" unicode="{" horiz-adv-x="399" 
d="M158 232l-1 -4q41 -4 60.5 -27t10.5 -77l-31 -180q-7 -38 1.5 -56t39.5 -18q29 0 64 16l5 -74q-48 -22 -110 -22q-129 0 -103 140l32 184q8 45 -7.5 61t-47.5 16h-41l14 79h41q70 0 84 77l30 183q26 141 155 141q57 0 100 -22l-31 -74q-29 16 -59 16t-45.5 -18.5
t-21.5 -56.5l-31 -180q-10 -56 -37 -77.5t-71 -26.5z" />
    <glyph glyph-name="bar" unicode="|" horiz-adv-x="239" 
d="M88 -203h-87l153 872h87z" />
    <glyph glyph-name="braceright" unicode="}" horiz-adv-x="399" 
d="M238 228l1 4q-42 5 -61 27.5t-10 76.5l31 180q7 39 -1.5 57t-39.5 18q-29 0 -64 -16l-5 74q51 22 110 22q129 0 103 -141l-32 -183q-8 -45 7.5 -61t47.5 -16h41l-14 -79h-41q-70 0 -84 -77l-30 -184q-26 -140 -155 -140q-60 0 -100 22l31 74q29 -16 59 -16t45.5 18
t21.5 56l31 180q10 56 37.5 78t70.5 26z" />
    <glyph glyph-name="asciitilde" unicode="~" horiz-adv-x="376" 
d="M203 211l-50 26q-18 9 -32 9q-34 0 -40 -40l-41 19q-5 17 -5 29q0 35 24 59t61 24q27 0 55 -15l44 -23q13 -9 34 -9q32 0 39 42l46 -20q2 -16 2 -24q-1 -38 -24.5 -64t-60.5 -26q-24 0 -52 13z" />
    <glyph glyph-name="nbspace" unicode="&#xa0;" horiz-adv-x="153" 
 />
    <glyph glyph-name="exclamdown" unicode="&#xa1;" horiz-adv-x="239" 
d="M118 -127h-133l107 407h71zM217 401q0 -30 -20 -49t-50 -19t-50.5 19t-20.5 49q0 29 20.5 48t50.5 19t50 -19t20 -48z" />
    <glyph glyph-name="cent" unicode="&#xa2;" horiz-adv-x="498" 
d="M378 156l82 -53q-35 -58 -84 -86t-121 -29l-16 -94h-50l17 97q-74 12 -117 64.5t-43 137.5q0 124 65.5 208t182.5 91l15 82h50l-15 -83q121 -12 148 -126l-101 -41q-9 64 -62 79l-58 -330q65 6 107 83zM153 201q0 -97 69 -122l57 327q-57 -9 -91.5 -66t-34.5 -139z" />
    <glyph glyph-name="sterling" unicode="&#xa3;" horiz-adv-x="494" 
d="M357 203h-125q0 -10 -4 -26q-3 -33 -20.5 -57.5t-42.5 -32.5h157q59 0 82 48l68 -42q-17 -45 -56.5 -69t-92.5 -24h-313l15 89h46q28 0 49 24t21 56q0 19 -3 34h-93l10 59h70q-7 30 -7 71q0 80 55 120t131 40q75 0 118 -33t43 -102l-98 -22q0 75 -74 75q-37 0 -58 -20.5
t-21 -61.5q0 -25 10 -67h143z" />
    <glyph glyph-name="currency" unicode="&#xa4;" horiz-adv-x="467" 
d="M16 133l82 70q-13 25 -13 62q0 77 42 130l-51 63l38 32l50 -62q40 28 99 28q60 0 95 -32l80 68l29 -35l-81 -69q14 -30 14 -66q0 -76 -43 -128l53 -63l-38 -32l-51 62q-39 -27 -97 -27q-62 0 -99 32l-80 -68zM256 394q-40 0 -64 -36t-24 -89q0 -37 16.5 -56.5t44.5 -19.5
q40 0 63.5 37t23.5 91q0 73 -60 73z" />
    <glyph glyph-name="yen" unicode="&#xa5;" horiz-adv-x="516" 
d="M457 241h-109l-35 -49h139l-4 -51h-160l-24 -141h-107l24 141h-147l4 51h134l-19 49h-110l4 51h87l-72 189h112l50 -144q10 -28 15.5 -53t6.5 -36l1 -10h4q10 36 54 98l98 145h117l-135 -189h76z" />
    <glyph glyph-name="brokenbar" unicode="&#xa6;" horiz-adv-x="239" 
d="M173 278h-87l68 391h87zM88 -203h-87l69 391h87z" />
    <glyph glyph-name="section" unicode="&#xa7;" horiz-adv-x="420" 
d="M24 236q0 52 29 84.5t76 44.5q-36 35 -36 90q0 74 52 109t124 35q156 0 156 -125l-93 -18q1 33 -19 50.5t-53 17.5q-29 0 -48 -15t-19 -40q0 -22 17 -37.5t70 -38.5q62 -26 88.5 -58t26.5 -80q0 -100 -106 -126q36 -37 36 -91q0 -71 -51 -105.5t-134 -34.5
q-162 0 -165 123l88 21q4 -75 83 -75q34 0 55 14t21 41q0 26 -16 41t-65 37q-62 24 -89.5 55t-27.5 81zM211 177l18 -8q27 5 45.5 24.5t18.5 43.5q0 25 -16.5 40.5t-66.5 38.5q-3 1 -11 3.5t-12 4.5q-31 -7 -48 -26t-17 -44q0 -23 17 -38t72 -39z" />
    <glyph glyph-name="dieresis" unicode="&#xa8;" horiz-adv-x="493" 
d="M80 595q0 29 18.5 47t45.5 18q28 0 46.5 -18t18.5 -47q0 -28 -18.5 -46t-46.5 -18q-27 0 -45.5 18t-18.5 46zM283 595q0 29 19 47t45 18q28 0 47 -18t19 -47t-19 -47t-47 -18q-26 0 -45 18.5t-19 46.5z" />
    <glyph glyph-name="copyright" unicode="&#xa9;" horiz-adv-x="698" 
d="M439 233l68 -44q-53 -90 -166 -90q-71 0 -114 42t-43 117q0 99 54.5 165.5t152.5 66.5q117 0 141 -101l-83 -32q-3 28 -20 44t-47 16q-49 0 -79.5 -44t-30.5 -108q0 -44 21 -70.5t59 -26.5q54 0 87 65zM55 294q0 132 89 219.5t217 87.5t217.5 -87.5t89.5 -219.5
t-89.5 -219t-217.5 -87t-217 87t-89 219zM86 294q0 -120 80 -198.5t196 -78.5t196 78.5t80 198.5t-80 199t-196 79t-196 -79t-80 -199z" />
    <glyph glyph-name="ordfeminine" unicode="&#xaa;" horiz-adv-x="411" 
d="M258 415l11 50q7 32 -7 55t-47 23q-44 0 -71.5 -38.5t-27.5 -95.5q0 -33 15.5 -53t44.5 -20q67 0 82 79zM378 593l-44 -223q-6 -25 17 -25q11 0 25 3l-12 -57q-22 -7 -47 -7q-64 0 -70 48q-30 -53 -100 -53q-54 0 -85.5 33.5t-31.5 92.5q0 82 46.5 139t123.5 57
q70 0 86 -56l19 48h73z" />
    <glyph glyph-name="guillemotleft" unicode="&#xab;" horiz-adv-x="535" 
d="M325 235v-4q13 -6 42 -46l82 -112l-65 -51l-152 213l227 212l48 -53l-117 -113q-16 -16 -32.5 -27.5t-24.5 -15.5zM122 235v-4q13 -6 42 -46l81 -112l-65 -51l-152 213l227 212l49 -53l-118 -113q-16 -16 -32 -27.5t-24 -15.5z" />
    <glyph glyph-name="logicalnot" unicode="&#xac;" horiz-adv-x="498" 
d="M377 255h-337l10 60h408l-33 -190h-71z" />
    <glyph glyph-name="uni00AD" unicode="&#xad;" horiz-adv-x="371" 
d="M66 213l15 89h224l-15 -89h-224z" />
    <glyph glyph-name="registered" unicode="&#xae;" horiz-adv-x="698" 
d="M507 119h-89q-10 14 -13 40l-4 42q-2 24 -12.5 34.5t-37.5 10.5h-52l-22 -127h-83l64 362h150q119 0 119 -97q0 -52 -30 -78.5t-78 -29.5v-2q58 -4 64 -54l8 -56q3 -30 16 -45zM329 415l-19 -106h62q73 0 73 64q0 42 -50 42h-66zM55 294q0 132 89 219.5t217 87.5
t217.5 -87.5t89.5 -219.5t-89.5 -219t-217.5 -87t-217 87t-89 219zM86 294q0 -120 80 -198.5t196 -78.5t196 78.5t80 198.5t-80 199t-196 79t-196 -79t-80 -199z" />
    <glyph glyph-name="macron" unicode="&#xaf;" horiz-adv-x="448" 
d="M353 552h-273l15 84h273z" />
    <glyph glyph-name="degree" unicode="&#xb0;" horiz-adv-x="289" 
d="M51 473q0 54 36 91t94 37q49 0 79 -31t30 -76q0 -54 -36.5 -91t-92.5 -37q-53 0 -81.5 30t-28.5 77zM177 551q-30 0 -49 -21.5t-19 -52.5q0 -27 15.5 -43.5t42.5 -16.5q29 0 47.5 21.5t18.5 51.5q0 27 -15.5 44t-40.5 17z" />
    <glyph glyph-name="plusminus" unicode="&#xb1;" horiz-adv-x="542" 
d="M87 346h170l23 131h65l-23 -131h173l-10 -60h-173l-26 -145h-65l25 145h-169zM441 37h-408l10 60h408z" />
    <glyph glyph-name="twosuperior" unicode="&#xb2;" horiz-adv-x="324" 
d="M279 300l-11 -64h-270l10 56q106 60 157 103t51 84q0 51 -51 51q-54 0 -67 -68l-64 27q9 48 45.5 78t95.5 30q57 0 90 -27.5t33 -78.5q0 -112 -195 -187v-4h176z" />
    <glyph glyph-name="threesuperior" unicode="&#xb3;" horiz-adv-x="313" 
d="M190 419v-3q82 -10 82 -82q0 -51 -41 -78t-104 -27q-58 0 -89.5 25.5t-34.5 67.5l70 21q5 -56 54 -56q27 0 44.5 12.5t17.5 35.5q0 25 -19 39t-71 15l9 50q99 4 99 56q0 18 -11.5 28t-31.5 10q-44 0 -56 -47l-63 25q29 86 129 86q52 0 84 -22.5t32 -66.5q0 -37 -26 -60.5
t-74 -28.5z" />
    <glyph glyph-name="acute" unicode="&#xb4;" horiz-adv-x="369" 
d="M173 528h-93l73 148h136z" />
    <glyph glyph-name="mu" unicode="&#xb5;" horiz-adv-x="530" 
d="M320 81q-20 -51 -51 -72t-79 -21q-23 0 -40 8t-20 20l-39 -219h-104l116 665h106l-54 -309q-14 -87 57 -87q41 0 73.5 31.5t42.5 90.5l48 274h106l-59 -340q-8 -43 26 -43q14 0 30 4l-16 -78q-30 -10 -60 -10q-47 0 -66 21t-17 65z" />
    <glyph glyph-name="paragraph" unicode="&#xb6;" horiz-adv-x="535" 
d="M504 505l-93 -522q-25 -146 -174 -146q-59 0 -103 27l40 93q29 -29 72 -29q52 0 62 59l33 187h-48q-109 0 -160 50.5t-33 150.5q37 214 300 214h197l-14 -84h-79z" />
    <glyph glyph-name="periodcentered" unicode="&#xb7;" horiz-adv-x="288" 
d="M68 265q0 32 21 53.5t52 21.5q32 0 53.5 -21.5t21.5 -53.5q0 -31 -21.5 -52t-53.5 -21q-31 0 -52 21t-21 52z" />
    <glyph glyph-name="periodcentered" unicode="&#x22c5;" horiz-adv-x="288" 
d="M68 265q0 32 21 53.5t52 21.5q32 0 53.5 -21.5t21.5 -53.5q0 -31 -21.5 -52t-53.5 -21q-31 0 -52 21t-21 52z" />
    <glyph glyph-name="cedilla" unicode="&#xb8;" horiz-adv-x="365" 
d="M285 -122q0 -43 -31 -66t-79 -23q-66 0 -95 37l24 56q28 -36 63 -36q37 0 37 31q0 38 -59 42l37 92h46l-21 -50q41 -8 59.5 -27.5t18.5 -55.5z" />
    <glyph glyph-name="onesuperior" unicode="&#xb9;" horiz-adv-x="300" 
d="M266 236h-258l11 62h90l38 215l-106 -9l12 64l189 22l-52 -292h87z" />
    <glyph glyph-name="ordmasculine" unicode="&#xba;" horiz-adv-x="375" 
d="M208 601q64 0 100.5 -36t36.5 -98q0 -80 -46.5 -134t-129.5 -54q-62 0 -100.5 34t-38.5 97q0 80 47 135.5t131 55.5zM201 539q-40 0 -64 -36.5t-24 -88.5q0 -76 62 -76q40 0 63.5 37t23.5 91q0 35 -16 54t-45 19z" />
    <glyph glyph-name="guillemotright" unicode="&#xbb;" horiz-adv-x="535" 
d="M210 235v4q-13 5 -42 45l-82 112l65 51l153 -212l-228 -213l-48 53l118 113q16 16 32 27.5t24 15.5zM413 235v4q-13 5 -42 45l-81 112l65 51l152 -212l-227 -213l-48 53l117 113q16 16 32 27.5t24 15.5z" />
    <glyph glyph-name="onequarter" unicode="&#xbc;" horiz-adv-x="869" 
d="M286 236h-258l11 62h90l38 215l-106 -9l12 64l189 22l-52 -292h87zM194 0l409 590h72l-409 -590h-72zM680 0l14 81h-177l11 58l213 214h82l-37 -213h55l-11 -59h-55l-14 -81h-81zM707 139l14 78l17 71h-4q-15 -26 -44 -57l-46 -46q-13 -13 -27 -24.5t-21 -16.5l-8 -6
l-1 -4q18 5 57 5h63z" />
    <glyph glyph-name="onehalf" unicode="&#xbd;" horiz-adv-x="869" 
d="M286 236h-258l11 62h90l38 215l-106 -9l12 64l189 22l-52 -292h87zM194 0l409 590h72l-409 -590h-72zM788 64l-11 -64h-270l10 56q106 60 157 103t51 84q0 51 -51 51q-54 0 -67 -68l-64 27q9 48 45.5 78t95.5 30q57 0 90 -27.5t33 -78.5q0 -112 -195 -187v-4h176z" />
    <glyph glyph-name="threequarters" unicode="&#xbe;" horiz-adv-x="869" 
d="M214 419v-3q82 -10 82 -82q0 -51 -41 -78t-104 -27q-58 0 -89.5 25.5t-34.5 67.5l70 21q5 -56 54 -56q27 0 44.5 12.5t17.5 35.5q0 25 -19 39t-71 15l9 50q99 4 99 56q0 18 -11.5 28t-31.5 10q-44 0 -56 -47l-63 25q29 86 129 86q52 0 84 -22.5t32 -66.5q0 -37 -26 -60.5
t-74 -28.5zM194 0l409 590h72l-409 -590h-72zM680 0l14 81h-177l11 58l213 214h82l-37 -213h55l-11 -59h-55l-14 -81h-81zM707 139l14 78l17 71h-4q-15 -26 -44 -57l-46 -46q-13 -13 -27 -24.5t-21 -16.5l-8 -6l-1 -4q18 5 57 5h63z" />
    <glyph glyph-name="questiondown" unicode="&#xbf;" horiz-adv-x="434" 
d="M305 44l91 -34q-43 -149 -203 -149q-88 0 -135.5 43.5t-47.5 121.5q0 91 62 139.5t143 48.5l14 75h93l-25 -134h-32q-66 0 -106.5 -28t-40.5 -89q0 -42 22.5 -64.5t64.5 -22.5q80 0 100 93zM360 401q0 -30 -19.5 -49t-49.5 -19t-50.5 19t-20.5 49q0 29 20.5 48t50.5 19
q29 0 49 -19t20 -48z" />
    <glyph glyph-name="Agrave" unicode="&#xc0;" horiz-adv-x="605" 
d="M432 0l-27 148h-235l-77 -148h-115l317 589h137l111 -589h-111zM421 651h-96l-104 130h136zM274 348l-58 -111h173q-13 65 -22.5 132.5t-13 104.5t-2.5 37h-4q-24 -70 -73 -163z" />
    <glyph glyph-name="Aacute" unicode="&#xc1;" horiz-adv-x="605" 
d="M432 0l-27 148h-235l-77 -148h-115l317 589h137l111 -589h-111zM410 651h-96l64 130h136zM274 348l-58 -111h173q-13 65 -22.5 132.5t-13 104.5t-2.5 37h-4q-24 -70 -73 -163z" />
    <glyph glyph-name="Acircumflex" unicode="&#xc2;" horiz-adv-x="605" 
d="M432 0l-27 148h-235l-77 -148h-115l317 589h137l111 -589h-111zM350 785h66l103 -134h-103l-25 32q-7 9 -11 17t-5 12l-1 4h-3q1 -2 -8 -12t-25 -25.5t-32 -27.5h-108zM274 348l-58 -111h173q-13 65 -22.5 132.5t-13 104.5t-2.5 37h-4q-24 -70 -73 -163z" />
    <glyph glyph-name="Atilde" unicode="&#xc3;" horiz-adv-x="605" 
d="M432 0l-27 148h-235l-77 -148h-115l317 589h137l111 -589h-111zM432 652q-36 0 -76 25t-53 25q-17 0 -27.5 -13t-11.5 -37h-62q-12 57 18 96t81 39q33 0 64 -20q46 -31 64 -31q32 0 36 50h64q12 -59 -15.5 -96.5t-81.5 -37.5zM274 348l-58 -111h173q-13 65 -22.5 132.5
t-13 104.5t-2.5 37h-4q-24 -70 -73 -163z" />
    <glyph glyph-name="Adieresis" unicode="&#xc4;" horiz-adv-x="605" 
d="M432 0l-27 148h-235l-77 -148h-115l317 589h137l111 -589h-111zM411 716q0 29 19 47t45 18q28 0 47 -18t19 -47t-19 -47t-47 -18q-26 0 -45 18.5t-19 46.5zM208 716q0 29 18.5 47t45.5 18q28 0 46.5 -18t18.5 -47q0 -28 -18.5 -46t-46.5 -18q-27 0 -45.5 18t-18.5 46z
M274 348l-58 -111h173q-13 65 -22.5 132.5t-13 104.5t-2.5 37h-4q-24 -70 -73 -163z" />
    <glyph glyph-name="Aring" unicode="&#xc5;" horiz-adv-x="605" 
d="M432 0l-27 148h-235l-77 -148h-115l317 589h137l111 -589h-111zM281 727q0 46 31 78t81 32q43 0 69 -26.5t26 -65.5q0 -47 -31 -79t-80 -32q-46 0 -71 26t-25 67zM274 348l-58 -111h173q-13 65 -22.5 132.5t-13 104.5t-2.5 37h-4q-24 -70 -73 -163zM389 789
q-23 0 -38 -17t-15 -40t12 -35.5t34 -12.5q23 0 37.5 17t14.5 40q0 22 -12 35t-33 13z" />
    <glyph glyph-name="AE" unicode="&#xc6;" horiz-adv-x="864" 
d="M401 0l25 148h-219l-115 -148h-122l460 589h447l-16 -93h-265l-27 -155h234l-16 -91h-234l-28 -157h265l-16 -93h-373zM491 513l-215 -276h166l28 159q7 42 13.5 71t8.5 37l3 9h-4z" />
    <glyph glyph-name="Ccedilla" unicode="&#xc7;" horiz-adv-x="569" 
d="M335 -122q0 -43 -31 -66t-79 -23q-66 0 -95 37l24 56q27 -36 62 -36q37 0 37 31q0 38 -58 42l29 75q-82 17 -126.5 79t-44.5 157q0 170 88 270.5t217 100.5q176 0 208 -155l-110 -40q-15 103 -107 103q-85 0 -135 -79.5t-50 -194.5q0 -73 34.5 -114.5t97.5 -41.5
q47 0 79 19t61 70l88 -47q-69 -133 -237 -133q-12 0 -19 1l-12 -28q41 -8 60 -27.5t19 -55.5z" />
    <glyph glyph-name="Egrave" unicode="&#xc8;" horiz-adv-x="500" 
d="M425 93l-15 -93h-374l103 589h374l-17 -93h-265l-27 -155h234l-16 -91h-234l-28 -157h265zM377 651h-96l-103 130h136z" />
    <glyph glyph-name="Eacute" unicode="&#xc9;" horiz-adv-x="500" 
d="M425 93l-15 -93h-374l103 589h374l-17 -93h-265l-27 -155h234l-16 -91h-234l-28 -157h265zM367 651h-96l63 130h136z" />
    <glyph glyph-name="Ecircumflex" unicode="&#xca;" horiz-adv-x="500" 
d="M425 93l-15 -93h-374l103 589h374l-17 -93h-265l-27 -155h234l-16 -91h-234l-28 -157h265zM306 785h66l104 -134h-104l-25 32q-7 9 -11 17t-4 12l-1 4h-4q-5 -13 -27 -33l-37 -32h-109z" />
    <glyph glyph-name="Edieresis" unicode="&#xcb;" horiz-adv-x="500" 
d="M425 93l-15 -93h-374l103 589h374l-17 -93h-265l-27 -155h234l-16 -91h-234l-28 -157h265zM165 716q0 29 18.5 47t45.5 18q28 0 46.5 -18t18.5 -47q0 -28 -19 -46t-46 -18t-45.5 18t-18.5 46zM368 716q0 29 18.5 47t45.5 18q28 0 46.5 -18t18.5 -47t-18.5 -47t-46.5 -18
q-27 0 -45.5 18t-18.5 47z" />
    <glyph glyph-name="Igrave" unicode="&#xcc;" horiz-adv-x="261" 
d="M139 589h109l-103 -589h-109zM256 651h-96l-103 130h136z" />
    <glyph glyph-name="Iacute" unicode="&#xcd;" horiz-adv-x="261" 
d="M139 589h109l-103 -589h-109zM246 651h-96l63 130h136z" />
    <glyph glyph-name="Icircumflex" unicode="&#xce;" horiz-adv-x="261" 
d="M139 589h109l-103 -589h-109zM186 785h66l104 -134h-104l-25 32q-7 9 -11 17t-4 12l-1 4h-4q-5 -13 -27 -33l-37 -32h-109z" />
    <glyph glyph-name="Idieresis" unicode="&#xcf;" horiz-adv-x="261" 
d="M139 589h109l-103 -589h-109zM44 716q0 29 18.5 47t45.5 18q28 0 46.5 -18t18.5 -47q0 -28 -19 -46t-46 -18t-45.5 18t-18.5 46zM247 716q0 29 18.5 47t45.5 18q28 0 46.5 -18t18.5 -47t-18.5 -47t-46.5 -18q-27 0 -45.5 18t-18.5 47z" />
    <glyph glyph-name="Eth" unicode="&#xd0;" horiz-adv-x="606" 
d="M234 0h-198l43 251h-65l16 89h65l44 249h178q125 0 188 -58t63 -169q0 -77 -18.5 -138.5t-50 -102.5t-74.5 -69t-90.5 -40t-100.5 -12zM160 90h78q96 0 156.5 66t60.5 196q0 147 -157 147h-66l-28 -159h119l-16 -89h-119z" />
    <glyph glyph-name="Ntilde" unicode="&#xd1;" horiz-adv-x="631" 
d="M244 589l148 -314q13 -26 23.5 -54.5t14.5 -44.5l5 -15h4q7 64 20 138l51 290h108l-103 -589h-102l-151 310q-13 27 -24.5 56.5t-16.5 45.5l-5 16h-4q-3 -62 -17 -141l-50 -287h-109l103 589h105zM443 652q-8 0 -14.5 0.5t-13 2.5t-10.5 3t-10.5 4t-8.5 4t-9 5.5t-9 5.5
q-39 25 -55 25t-27 -13t-12 -37h-61q-12 57 18 96t81 39q34 0 74 -27q39 -24 54 -24q32 0 35 50h65q11 -59 -16.5 -96.5t-80.5 -37.5z" />
    <glyph glyph-name="Ograve" unicode="&#xd2;" horiz-adv-x="627" 
d="M287 -12q-111 0 -172.5 65.5t-61.5 176.5q0 170 88 270.5t217 100.5q111 0 172.5 -66t61.5 -177q0 -170 -88 -270t-217 -100zM349 508q-85 0 -135 -78.5t-50 -192.5q0 -74 34.5 -116t97.5 -42q83 0 133.5 79t50.5 193q0 71 -33 114t-98 43zM427 651h-96l-103 130h136z
" />
    <glyph glyph-name="Oacute" unicode="&#xd3;" horiz-adv-x="627" 
d="M287 -12q-111 0 -172.5 65.5t-61.5 176.5q0 170 88 270.5t217 100.5q111 0 172.5 -66t61.5 -177q0 -170 -88 -270t-217 -100zM349 508q-85 0 -135 -78.5t-50 -192.5q0 -74 34.5 -116t97.5 -42q83 0 133.5 79t50.5 193q0 71 -33 114t-98 43zM417 651h-96l63 130h136z" />
    <glyph glyph-name="Ocircumflex" unicode="&#xd4;" horiz-adv-x="627" 
d="M287 -12q-111 0 -172.5 65.5t-61.5 176.5q0 170 88 270.5t217 100.5q111 0 172.5 -66t61.5 -177q0 -170 -88 -270t-217 -100zM349 508q-85 0 -135 -78.5t-50 -192.5q0 -74 34.5 -116t97.5 -42q83 0 133.5 79t50.5 193q0 71 -33 114t-98 43zM357 785h66l104 -134h-104
l-25 32q-7 9 -11 17t-5 12v4h-4q-5 -13 -27 -33l-37 -32h-109z" />
    <glyph glyph-name="Otilde" unicode="&#xd5;" horiz-adv-x="627" 
d="M287 -12q-111 0 -172.5 65.5t-61.5 176.5q0 170 88 270.5t217 100.5q111 0 172.5 -66t61.5 -177q0 -170 -88 -270t-217 -100zM349 508q-85 0 -135 -78.5t-50 -192.5q0 -74 34.5 -116t97.5 -42q83 0 133.5 79t50.5 193q0 71 -33 114t-98 43zM439 652q-8 0 -14.5 0.5
t-12.5 2t-10.5 3t-10.5 4.5t-8 4.5t-9 5.5t-9 5q-39 25 -55 25q-17 0 -27.5 -13t-11.5 -37h-61q-12 57 18 96t81 39q32 0 74 -27q37 -24 53 -24q32 0 36 50h64q12 -59 -15.5 -96.5t-81.5 -37.5z" />
    <glyph glyph-name="Odieresis" unicode="&#xd6;" horiz-adv-x="627" 
d="M287 -12q-111 0 -172.5 65.5t-61.5 176.5q0 170 88 270.5t217 100.5q111 0 172.5 -66t61.5 -177q0 -170 -88 -270t-217 -100zM349 508q-85 0 -135 -78.5t-50 -192.5q0 -74 34.5 -116t97.5 -42q83 0 133.5 79t50.5 193q0 71 -33 114t-98 43zM215 716q0 29 18.5 47t45.5 18
q28 0 46.5 -18t18.5 -47q0 -28 -19 -46t-46 -18t-45.5 18t-18.5 46zM418 716q0 29 18.5 47t45.5 18q28 0 46.5 -18t18.5 -47t-18.5 -47t-46.5 -18q-27 0 -45.5 18t-18.5 47z" />
    <glyph glyph-name="multiply" unicode="&#xd7;" horiz-adv-x="484" 
d="M37 117l157 133l-104 130l50 42l105 -128l161 136l41 -48l-162 -137l114 -136l-50 -43l-113 136l-158 -134z" />
    <glyph glyph-name="Oslash" unicode="&#xd8;" horiz-adv-x="627" 
d="M66 -13l-44 40l63 66q-32 56 -32 137q0 170 88 270.5t217 100.5q100 0 162 -57l55 57l47 -41l-63 -64q33 -58 33 -138q0 -170 -88 -270t-217 -100q-101 0 -164 57zM480 351q0 31 -7 56l-276 -285q34 -43 99 -43q83 0 133.5 79t50.5 193zM349 508q-85 0 -135 -78.5
t-50 -192.5q0 -36 6 -56l275 285q-36 42 -96 42z" />
    <glyph glyph-name="Ugrave" unicode="&#xd9;" horiz-adv-x="596" 
d="M485 589h108l-69 -394q-20 -113 -86.5 -160t-173.5 -47q-50 0 -90 13t-70 39.5t-41 74t0 110.5l64 364h109l-65 -366q-25 -146 107 -146q63 0 96 33.5t45 107.5zM418 651h-95l-104 130h136z" />
    <glyph glyph-name="Uacute" unicode="&#xda;" horiz-adv-x="596" 
d="M485 589h108l-69 -394q-20 -113 -86.5 -160t-173.5 -47q-50 0 -90 13t-70 39.5t-41 74t0 110.5l64 364h109l-65 -366q-25 -146 107 -146q63 0 96 33.5t45 107.5zM409 651h-96l63 130h136z" />
    <glyph glyph-name="Ucircumflex" unicode="&#xdb;" horiz-adv-x="596" 
d="M485 589h108l-69 -394q-20 -113 -86.5 -160t-173.5 -47q-50 0 -90 13t-70 39.5t-41 74t0 110.5l64 364h109l-65 -366q-25 -146 107 -146q63 0 96 33.5t45 107.5zM348 785h66l104 -134h-104l-25 32q-6 9 -10 17t-5 12l-1 4h-3q-6 -13 -28 -33l-37 -32h-108z" />
    <glyph glyph-name="Udieresis" unicode="&#xdc;" horiz-adv-x="596" 
d="M485 589h108l-69 -394q-20 -113 -86.5 -160t-173.5 -47q-50 0 -90 13t-70 39.5t-41 74t0 110.5l64 364h109l-65 -366q-25 -146 107 -146q63 0 96 33.5t45 107.5zM206 716q0 29 18.5 47t45.5 18q28 0 46.5 -18t18.5 -47q0 -28 -18.5 -46t-46.5 -18q-27 0 -45.5 18
t-18.5 46zM409 716q0 29 19 47t45 18q28 0 46.5 -18t18.5 -47t-18.5 -47t-46.5 -18q-26 0 -45 18.5t-19 46.5z" />
    <glyph glyph-name="Yacute" unicode="&#xdd;" horiz-adv-x="518" 
d="M190 589l56 -171q10 -32 16 -62.5t7 -45.5l1 -15h4q16 52 61 122l111 172h115l-246 -375l-37 -214h-109l37 214l-129 375h113zM375 651h-96l63 130h136z" />
    <glyph glyph-name="Thorn" unicode="&#xde;" horiz-adv-x="507" 
d="M215 400l-34 -195h70q64 0 96 28t32 90q0 77 -94 77h-70zM145 0h-109l103 589h109l-18 -100h73q96 0 141 -39.5t45 -118.5q0 -107 -64.5 -160t-169.5 -53h-90z" />
    <glyph glyph-name="germandbls" unicode="&#xdf;" horiz-adv-x="551" 
d="M17 -86l92 528q42 233 253 233q84 0 126.5 -40t42.5 -101q0 -71 -39.5 -110t-101.5 -47v-4q62 -8 93.5 -49.5t31.5 -106.5q0 -111 -59 -170t-152 -59q-97 0 -125 64l50 72q21 -54 78 -54q43 0 72.5 35t29.5 108q0 117 -114 117h-47l15 84h47q55 0 86.5 25.5t31.5 75.5
q0 77 -79 77q-52 0 -86 -34.5t-48 -115.5l-93 -532q-12 -68 -43.5 -94.5t-91.5 -26.5q-56 0 -89 24l22 78q27 -21 51 -21q20 0 30.5 9.5t15.5 34.5z" />
    <glyph glyph-name="agrave" unicode="&#xe0;" horiz-adv-x="543" 
d="M341 193l14 77q8 50 -10.5 86t-62.5 36q-62 0 -100 -59.5t-38 -146.5q0 -52 21.5 -84t62.5 -32q45 0 74 33t39 90zM495 462l-60 -340q-8 -43 27 -43q13 0 29 4l-15 -78q-32 -10 -61 -10q-88 0 -89 82q-35 -89 -136 -89q-71 0 -112.5 50t-41.5 139q0 123 62 209.5
t161 86.5q104 0 117 -89l26 78h93zM358 528h-93l-116 148h136z" />
    <glyph glyph-name="aacute" unicode="&#xe1;" horiz-adv-x="543" 
d="M341 193l14 77q8 50 -10.5 86t-62.5 36q-62 0 -100 -59.5t-38 -146.5q0 -52 21.5 -84t62.5 -32q45 0 74 33t39 90zM495 462l-60 -340q-8 -43 27 -43q13 0 29 4l-15 -78q-32 -10 -61 -10q-88 0 -89 82q-35 -89 -136 -89q-71 0 -112.5 50t-41.5 139q0 123 62 209.5
t161 86.5q104 0 117 -89l26 78h93zM344 528h-93l72 148h137z" />
    <glyph glyph-name="acircumflex" unicode="&#xe2;" horiz-adv-x="543" 
d="M341 193l14 77q8 50 -10.5 86t-62.5 36q-62 0 -100 -59.5t-38 -146.5q0 -52 21.5 -84t62.5 -32q45 0 74 33t39 90zM495 462l-60 -340q-8 -43 27 -43q13 0 29 4l-15 -78q-32 -10 -61 -10q-88 0 -89 82q-35 -89 -136 -89q-71 0 -112.5 50t-41.5 139q0 123 62 209.5
t161 86.5q104 0 117 -89l26 78h93zM292 678h63l102 -151h-99l-27 39q-7 10 -11 19t-4 13l-1 4h-4q-6 -14 -29 -36l-40 -39h-105z" />
    <glyph glyph-name="atilde" unicode="&#xe3;" horiz-adv-x="543" 
d="M341 193l14 77q8 50 -10.5 86t-62.5 36q-62 0 -100 -59.5t-38 -146.5q0 -52 21.5 -84t62.5 -32q45 0 74 33t39 90zM495 462l-60 -340q-8 -43 27 -43q13 0 29 4l-15 -78q-32 -10 -61 -10q-88 0 -89 82q-35 -89 -136 -89q-71 0 -112.5 50t-41.5 139q0 123 62 209.5
t161 86.5q104 0 117 -89l26 78h93zM377 526q-7 0 -13 0.5t-11 1.5t-10.5 3t-8.5 3t-8 4t-7.5 4t-8.5 5t-8 5q-39 25 -55 25t-27 -13t-12 -37h-61q-12 56 18 95t81 39q35 0 74 -26q38 -25 54 -25q32 0 36 50h64q11 -59 -16.5 -96.5t-80.5 -37.5z" />
    <glyph glyph-name="adieresis" unicode="&#xe4;" horiz-adv-x="543" 
d="M341 193l14 77q8 50 -10.5 86t-62.5 36q-62 0 -100 -59.5t-38 -146.5q0 -52 21.5 -84t62.5 -32q45 0 74 33t39 90zM495 462l-60 -340q-8 -43 27 -43q13 0 29 4l-15 -78q-32 -10 -61 -10q-88 0 -89 82q-35 -89 -136 -89q-71 0 -112.5 50t-41.5 139q0 123 62 209.5
t161 86.5q104 0 117 -89l26 78h93zM147 595q0 29 18.5 47t45.5 18q28 0 46.5 -18t18.5 -47q0 -28 -19 -46t-46 -18t-45.5 18t-18.5 46zM350 595q0 29 18.5 47t45.5 18q28 0 46.5 -18t18.5 -47t-18.5 -47t-46.5 -18q-27 0 -45.5 18t-18.5 47z" />
    <glyph glyph-name="aring" unicode="&#xe5;" horiz-adv-x="543" 
d="M341 193l14 77q8 50 -10.5 86t-62.5 36q-62 0 -100 -59.5t-38 -146.5q0 -52 21.5 -84t62.5 -32q45 0 74 33t39 90zM495 462l-60 -340q-8 -43 27 -43q13 0 29 4l-15 -78q-32 -10 -61 -10q-88 0 -89 82q-35 -89 -136 -89q-71 0 -112.5 50t-41.5 139q0 123 62 209.5
t161 86.5q104 0 117 -89l26 78h93zM215 609q0 46 31.5 78.5t81.5 32.5q42 0 68 -26.5t26 -65.5q0 -48 -31 -80t-80 -32q-46 0 -71 26t-25 67zM324 671q-23 0 -38.5 -16.5t-15.5 -40.5q0 -22 12.5 -35t34.5 -13q23 0 37.5 17t14.5 41q0 21 -12 34t-33 13z" />
    <glyph glyph-name="ae" unicode="&#xe6;" horiz-adv-x="744" 
d="M502 69q40 0 62 17t33 54l98 -24q-23 -69 -71.5 -98.5t-130.5 -29.5q-105 0 -156 73q-51 -73 -163 -73q-70 0 -107.5 31.5t-37.5 90.5q0 161 284 164q5 22 16 49q7 69 -64 69q-73 0 -87 -73l-99 17q16 71 70 104t129 33q96 0 129 -48q59 48 134 48q88 0 132.5 -48
t44.5 -118q0 -56 -20 -101h-288q-7 -57 16.5 -97t75.5 -40zM310 123q-7 27 -7 63q0 13 1 20q-168 -3 -168 -88q0 -53 60 -53q74 0 114 58zM421 274h188q4 12 4 34q0 37 -19 61t-58 24q-43 0 -72.5 -34t-42.5 -85z" />
    <glyph glyph-name="ccedilla" unicode="&#xe7;" horiz-adv-x="460" 
d="M278 -122q0 -43 -31 -66t-79 -23q-66 0 -95 37l24 56q27 -36 62 -36q37 0 37 31q0 38 -58 42l29 76q-61 15 -96 63.5t-35 124.5q0 120 65 205t182 85q81 0 121 -42.5t40 -114.5l-101 -18q0 90 -71 90q-58 0 -92.5 -59t-34.5 -137q0 -123 90 -123q69 0 93 84l101 -19
q-49 -146 -204 -146q-3 0 -7.5 0.5t-6.5 0.5l-12 -28q41 -8 60 -27.5t19 -55.5z" />
    <glyph glyph-name="egrave" unicode="&#xe8;" horiz-adv-x="476" 
d="M234 69q40 0 62 17t33 54l99 -24q-23 -69 -72 -98.5t-131 -29.5q-89 0 -139 53.5t-50 144.5q0 133 70.5 210t166.5 77q88 0 132.5 -47.5t44.5 -118.5q0 -56 -20 -96h-288q-7 -59 17 -100.5t75 -41.5zM154 279h188q4 12 4 29q0 37 -19.5 61t-57.5 24q-44 0 -73.5 -32
t-41.5 -82zM332 528h-94l-115 148h136z" />
    <glyph glyph-name="eacute" unicode="&#xe9;" horiz-adv-x="476" 
d="M234 69q40 0 62 17t33 54l99 -24q-23 -69 -72 -98.5t-131 -29.5q-89 0 -139 53.5t-50 144.5q0 133 70.5 210t166.5 77q88 0 132.5 -47.5t44.5 -118.5q0 -56 -20 -96h-288q-7 -59 17 -100.5t75 -41.5zM154 279h188q4 12 4 29q0 37 -19.5 61t-57.5 24q-44 0 -73.5 -32
t-41.5 -82zM318 528h-94l73 148h137z" />
    <glyph glyph-name="ecircumflex" unicode="&#xea;" horiz-adv-x="476" 
d="M234 69q40 0 62 17t33 54l99 -24q-23 -69 -72 -98.5t-131 -29.5q-89 0 -139 53.5t-50 144.5q0 133 70.5 210t166.5 77q88 0 132.5 -47.5t44.5 -118.5q0 -56 -20 -96h-288q-7 -59 17 -100.5t75 -41.5zM154 279h188q4 12 4 29q0 37 -19.5 61t-57.5 24q-44 0 -73.5 -32
t-41.5 -82zM266 678h63l102 -151h-100l-26 39q-7 10 -11 19t-4 13l-1 4h-4q-6 -14 -29 -36l-40 -39h-105z" />
    <glyph glyph-name="edieresis" unicode="&#xeb;" horiz-adv-x="476" 
d="M234 69q40 0 62 17t33 54l99 -24q-23 -69 -72 -98.5t-131 -29.5q-89 0 -139 53.5t-50 144.5q0 133 70.5 210t166.5 77q88 0 132.5 -47.5t44.5 -118.5q0 -56 -20 -96h-288q-7 -59 17 -100.5t75 -41.5zM154 279h188q4 12 4 29q0 37 -19.5 61t-57.5 24q-44 0 -73.5 -32
t-41.5 -82zM120 595q0 29 19 47t45 18q28 0 47 -18t19 -47q0 -28 -19 -46t-47 -18q-26 0 -45 18t-19 46zM324 595q0 29 18.5 47t45.5 18q28 0 46.5 -18t18.5 -47t-18.5 -47t-46.5 -18q-27 0 -45.5 18t-18.5 47z" />
    <glyph glyph-name="igrave" unicode="&#xec;" horiz-adv-x="263" 
d="M229 528h-94l-115 148h136zM215 462l-59 -340q-8 -43 27 -43q13 0 29 4l-16 -78q-30 -10 -60 -10q-108 0 -89 114l62 353h106z" />
    <glyph glyph-name="iacute" unicode="&#xed;" horiz-adv-x="263" 
d="M214 528h-93l72 148h137zM215 462l-59 -340q-8 -43 27 -43q13 0 29 4l-16 -78q-30 -10 -60 -10q-108 0 -89 114l62 353h106z" />
    <glyph glyph-name="icircumflex" unicode="&#xee;" horiz-adv-x="263" 
d="M215 462l-59 -340q-8 -43 27 -43q13 0 29 4l-16 -78q-30 -10 -60 -10q-108 0 -89 114l62 353h106zM163 678h63l102 -151h-100l-26 39q-7 10 -11 19t-5 13v4h-4q-6 -14 -29 -36l-40 -39h-105z" />
    <glyph glyph-name="idieresis" unicode="&#xef;" horiz-adv-x="263" 
d="M17 595q0 29 19 47t45 18q28 0 47 -18t19 -47q0 -28 -19 -46t-47 -18q-26 0 -45 18t-19 46zM221 595q0 29 18.5 47t45.5 18q28 0 46.5 -18t18.5 -47t-18.5 -47t-46.5 -18q-27 0 -45.5 18t-18.5 47zM215 462l-59 -340q-8 -43 27 -43q13 0 29 4l-16 -78q-30 -10 -60 -10
q-108 0 -89 114l62 353h106z" />
    <glyph glyph-name="eth" unicode="&#xf0;" horiz-adv-x="507" 
d="M130 483l-12 45l127 36q-59 37 -143 58l90 52q97 -25 159 -79l95 28l13 -45l-70 -21q82 -99 82 -266q0 -135 -64 -219t-180 -84q-86 0 -138.5 51t-52.5 146q0 116 62 196.5t163 80.5q79 0 103 -61h4q-20 75 -76 127zM272 380q-57 0 -92.5 -56.5t-35.5 -137.5
q0 -57 24.5 -87.5t67.5 -30.5q58 0 92.5 57t34.5 140q0 115 -91 115z" />
    <glyph glyph-name="ntilde" unicode="&#xf1;" horiz-adv-x="533" 
d="M469 317l-33 -195q-8 -43 27 -43q13 0 29 4l-16 -78q-30 -10 -60 -10q-108 0 -89 114l34 192q15 84 -56 84q-39 0 -73 -32.5t-46 -102.5l-44 -250h-106l81 462h92l-3 -94q48 105 148 105q55 0 87 -30t32 -83q0 -18 -4 -43zM383 526q-18 0 -33 4.5t-20 7.5t-22 14
q-39 25 -55 25q-36 0 -39 -50h-61q-12 56 18 95t81 39q35 0 74 -26q37 -25 53 -25q32 0 36 50h64q12 -59 -15 -96.5t-81 -37.5z" />
    <glyph glyph-name="ograve" unicode="&#xf2;" horiz-adv-x="509" 
d="M283 473q89 0 139.5 -53.5t50.5 -147.5q0 -120 -65 -202t-181 -82q-86 0 -138.5 51t-52.5 145q0 122 65 205.5t182 83.5zM273 388q-58 0 -93 -57.5t-35 -140.5q0 -59 24 -90t67 -31q59 0 93.5 58t34.5 143q0 57 -23.5 87.5t-67.5 30.5zM345 528h-93l-116 148h137z" />
    <glyph glyph-name="oacute" unicode="&#xf3;" horiz-adv-x="509" 
d="M283 473q89 0 139.5 -53.5t50.5 -147.5q0 -120 -65 -202t-181 -82q-86 0 -138.5 51t-52.5 145q0 122 65 205.5t182 83.5zM273 388q-58 0 -93 -57.5t-35 -140.5q0 -59 24 -90t67 -31q59 0 93.5 58t34.5 143q0 57 -23.5 87.5t-67.5 30.5zM331 528h-93l72 148h137z" />
    <glyph glyph-name="ocircumflex" unicode="&#xf4;" horiz-adv-x="509" 
d="M283 473q89 0 139.5 -53.5t50.5 -147.5q0 -120 -65 -202t-181 -82q-86 0 -138.5 51t-52.5 145q0 122 65 205.5t182 83.5zM273 388q-58 0 -93 -57.5t-35 -140.5q0 -59 24 -90t67 -31q59 0 93.5 58t34.5 143q0 57 -23.5 87.5t-67.5 30.5zM279 678h63l103 -151h-100l-27 39
q-7 10 -10.5 19t-3.5 13l-1 4h-5q-5 -14 -28 -36l-41 -39h-104z" />
    <glyph glyph-name="otilde" unicode="&#xf5;" horiz-adv-x="509" 
d="M283 473q89 0 139.5 -53.5t50.5 -147.5q0 -120 -65 -202t-181 -82q-86 0 -138.5 51t-52.5 145q0 122 65 205.5t182 83.5zM273 388q-58 0 -93 -57.5t-35 -140.5q0 -59 24 -90t67 -31q59 0 93.5 58t34.5 143q0 57 -23.5 87.5t-67.5 30.5zM365 526q-18 0 -33 4.5t-20 7.5
t-22 14q-39 25 -55 25q-36 0 -39 -50h-61q-12 56 18 95t81 39q35 0 74 -26q37 -25 53 -25q32 0 36 50h64q12 -59 -15 -96.5t-81 -37.5z" />
    <glyph glyph-name="odieresis" unicode="&#xf6;" horiz-adv-x="509" 
d="M283 473q89 0 139.5 -53.5t50.5 -147.5q0 -120 -65 -202t-181 -82q-86 0 -138.5 51t-52.5 145q0 122 65 205.5t182 83.5zM273 388q-58 0 -93 -57.5t-35 -140.5q0 -59 24 -90t67 -31q59 0 93.5 58t34.5 143q0 57 -23.5 87.5t-67.5 30.5zM134 595q0 29 18.5 47t45.5 18
q28 0 46.5 -18t18.5 -47q0 -28 -18.5 -46t-46.5 -18q-27 0 -45.5 18t-18.5 46zM337 595q0 29 19 47t45 18q28 0 46.5 -18t18.5 -47t-18.5 -47t-46.5 -18q-26 0 -45 18.5t-19 46.5z" />
    <glyph glyph-name="divide" unicode="&#xf7;" horiz-adv-x="498" 
d="M448 218h-408l10 60h408zM157 78q0 20 14.5 34.5t35.5 14.5q20 0 35 -14.5t15 -34.5t-15 -34.5t-35 -14.5q-21 0 -35.5 14.5t-14.5 34.5zM233 412q0 21 14.5 36t35.5 15q20 0 35 -15t15 -36q0 -20 -15 -34.5t-35 -14.5q-21 0 -35.5 14.5t-14.5 34.5z" />
    <glyph glyph-name="oslash" unicode="&#xf8;" horiz-adv-x="509" 
d="M283 473q88 0 137 -52l54 52l42 -44l-62 -59q19 -39 19 -98q0 -120 -65 -202t-181 -82q-79 0 -130 43l-48 -45l-42 41l53 51q-24 44 -24 106q0 122 65 205.5t182 83.5zM273 388q-55 0 -89 -50.5t-38 -125.5q0 -35 2 -51l197 189q-24 38 -72 38zM236 69q55 0 88.5 51.5
t37.5 126.5q2 18 0 37l-193 -185q24 -30 67 -30z" />
    <glyph glyph-name="ugrave" unicode="&#xf9;" horiz-adv-x="530" 
d="M321 88q-21 -53 -57.5 -76.5t-91.5 -23.5q-73 0 -104 46t-17 129l52 299h106l-54 -309q-14 -87 57 -87q41 0 73.5 31.5t42.5 90.5l48 274h106l-59 -340q-8 -43 26 -43q14 0 30 4l-16 -78q-30 -10 -60 -10q-48 0 -67.5 23t-14.5 70zM354 528h-93l-116 148h137z" />
    <glyph glyph-name="uacute" unicode="&#xfa;" horiz-adv-x="530" 
d="M321 88q-21 -53 -57.5 -76.5t-91.5 -23.5q-73 0 -104 46t-17 129l52 299h106l-54 -309q-14 -87 57 -87q41 0 73.5 31.5t42.5 90.5l48 274h106l-59 -340q-8 -43 26 -43q14 0 30 4l-16 -78q-30 -10 -60 -10q-48 0 -67.5 23t-14.5 70zM340 528h-93l73 148h136z" />
    <glyph glyph-name="ucircumflex" unicode="&#xfb;" horiz-adv-x="530" 
d="M321 88q-21 -53 -57.5 -76.5t-91.5 -23.5q-73 0 -104 46t-17 129l52 299h106l-54 -309q-14 -87 57 -87q41 0 73.5 31.5t42.5 90.5l48 274h106l-59 -340q-8 -43 26 -43q14 0 30 4l-16 -78q-30 -10 -60 -10q-48 0 -67.5 23t-14.5 70zM288 678h64l102 -151h-100l-27 39
q-7 10 -10.5 19t-4.5 13v4h-5q-5 -14 -28 -36l-41 -39h-104z" />
    <glyph glyph-name="udieresis" unicode="&#xfc;" horiz-adv-x="530" 
d="M321 88q-21 -53 -57.5 -76.5t-91.5 -23.5q-73 0 -104 46t-17 129l52 299h106l-54 -309q-14 -87 57 -87q41 0 73.5 31.5t42.5 90.5l48 274h106l-59 -340q-8 -43 26 -43q14 0 30 4l-16 -78q-30 -10 -60 -10q-48 0 -67.5 23t-14.5 70zM143 595q0 29 18.5 47t45.5 18
q28 0 46.5 -18t18.5 -47q0 -28 -19 -46t-46 -18t-45.5 18t-18.5 46zM346 595q0 29 18.5 47t45.5 18q28 0 46.5 -18t18.5 -47t-18.5 -47t-46.5 -18q-27 0 -45.5 18t-18.5 47z" />
    <glyph glyph-name="yacute" unicode="&#xfd;" horiz-adv-x="444" 
d="M152 462l26 -250q4 -39 5.5 -74.5t0.5 -51.5l-1 -16h4q15 64 56 143l128 249h111l-277 -512q-51 -96 -98 -128.5t-110 -32.5q-48 0 -80 18l27 84q29 -18 58 -18q34 0 60.5 23t54.5 77l-75 489h110zM299 528h-93l73 148h136z" />
    <glyph glyph-name="thorn" unicode="&#xfe;" horiz-adv-x="544" 
d="M187 258l-13 -77q-10 -45 13.5 -82t70.5 -37q64 0 101 61.5t37 150.5q0 55 -23 85.5t-64 30.5q-44 0 -78 -35.5t-44 -96.5zM155 73l-49 -276h-105l152 871h105l-52 -295q45 100 149 100q72 0 112.5 -49t40.5 -143q0 -126 -63 -209.5t-169 -83.5q-49 0 -81.5 23t-39.5 62z
" />
    <glyph glyph-name="ydieresis" unicode="&#xff;" horiz-adv-x="444" 
d="M152 462l26 -250q4 -39 5.5 -74.5t0.5 -51.5l-1 -16h4q15 64 56 143l128 249h111l-277 -512q-51 -96 -98 -128.5t-110 -32.5q-48 0 -80 18l27 84q29 -18 58 -18q34 0 60.5 23t54.5 77l-75 489h110zM102 595q0 29 18.5 47t45.5 18q28 0 46.5 -18t18.5 -47q0 -28 -18.5 -46
t-46.5 -18q-27 0 -45.5 18t-18.5 46zM305 595q0 29 19 47t45 18q28 0 47 -18t19 -47t-19 -47t-47 -18q-26 0 -45 18.5t-19 46.5z" />
    <glyph glyph-name="Amacron" unicode="&#x100;" horiz-adv-x="605" 
d="M432 0l-27 148h-235l-77 -148h-115l317 589h137l111 -589h-111zM510 671h-276l15 83h276zM274 348l-58 -111h173q-13 65 -22.5 132.5t-13 104.5t-2.5 37h-4q-24 -70 -73 -163z" />
    <glyph glyph-name="amacron" unicode="&#x101;" horiz-adv-x="543" 
d="M341 193l14 77q8 50 -10.5 86t-62.5 36q-62 0 -100 -59.5t-38 -146.5q0 -52 21.5 -84t62.5 -32q45 0 74 33t39 90zM495 462l-60 -340q-8 -43 27 -43q13 0 29 4l-15 -78q-32 -10 -61 -10q-88 0 -89 82q-35 -89 -136 -89q-71 0 -112.5 50t-41.5 139q0 123 62 209.5
t161 86.5q104 0 117 -89l26 78h93zM443 552h-273l15 84h273z" />
    <glyph glyph-name="Abreve" unicode="&#x102;" horiz-adv-x="605" 
d="M432 0l-27 148h-235l-77 -148h-115l317 589h137l111 -589h-111zM365 647q-68 0 -97.5 36.5t-17.5 100.5h81q-4 -31 6.5 -46t42.5 -15q31 0 47 15t24 46h80q-12 -64 -54.5 -100.5t-111.5 -36.5zM274 348l-58 -111h173q-13 65 -22.5 132.5t-13 104.5t-2.5 37h-4
q-24 -70 -73 -163z" />
    <glyph glyph-name="abreve" unicode="&#x103;" horiz-adv-x="543" 
d="M341 193l14 77q8 50 -10.5 86t-62.5 36q-62 0 -100 -59.5t-38 -146.5q0 -52 21.5 -84t62.5 -32q45 0 74 33t39 90zM495 462l-60 -340q-8 -43 27 -43q13 0 29 4l-15 -78q-32 -10 -61 -10q-88 0 -89 82q-35 -89 -136 -89q-71 0 -112.5 50t-41.5 139q0 123 62 209.5
t161 86.5q104 0 117 -89l26 78h93zM297 525q-68 0 -97.5 40t-17.5 106h81q-5 -35 4 -52.5t43 -17.5q33 0 49 17.5t24 52.5h81q-12 -66 -55.5 -106t-111.5 -40z" />
    <glyph glyph-name="Aogonek" unicode="&#x104;" horiz-adv-x="605" 
d="M253 -113q0 67 53 110.5t117 51.5l-18 99h-235l-77 -148h-115l317 589h137l111 -589h-50q-68 0 -110.5 -24.5t-42.5 -72.5q0 -44 42 -44q38 0 62 35l29 -51q-37 -54 -111 -54q-50 0 -79.5 25.5t-29.5 72.5zM274 348l-58 -111h173q-13 65 -22.5 132.5t-13 104.5t-2.5 37
h-4q-24 -70 -73 -163z" />
    <glyph glyph-name="aogonek" unicode="&#x105;" horiz-adv-x="543" 
d="M246 -113q0 45 29 79.5t70 52.5q-19 27 -19 58q-18 -43 -54.5 -66t-81.5 -23q-71 0 -112.5 50t-41.5 139q0 123 62 209.5t161 86.5q104 0 117 -89l26 78h93l-60 -340q-8 -43 27 -43q13 0 29 4l-15 -78q-30 -5 -51 -11t-44 -17t-35.5 -30t-12.5 -44q0 -21 11.5 -32.5
t30.5 -11.5q38 0 62 35l29 -51q-37 -54 -111 -54q-50 0 -79.5 25.5t-29.5 72.5zM341 193l14 77q8 50 -10.5 86t-62.5 36q-62 0 -100 -59.5t-38 -146.5q0 -52 21.5 -84t62.5 -32q45 0 74 33t39 90z" />
    <glyph glyph-name="Cacute" unicode="&#x106;" horiz-adv-x="569" 
d="M436 168l88 -47q-69 -133 -237 -133q-111 0 -172.5 65t-61.5 177q0 170 88 270.5t217 100.5q176 0 208 -155l-110 -40q-15 103 -107 103q-85 0 -135 -79.5t-50 -194.5q0 -73 34.5 -114.5t97.5 -41.5q47 0 79 19t61 70zM410 651h-95l63 130h136z" />
    <glyph glyph-name="cacute" unicode="&#x107;" horiz-adv-x="460" 
d="M328 153l101 -19q-49 -146 -204 -146q-86 0 -137.5 51.5t-51.5 143.5q0 120 65 205t182 85q81 0 121 -42.5t40 -114.5l-101 -18q0 90 -71 90q-58 0 -92.5 -59t-34.5 -137q0 -123 90 -123q69 0 93 84zM332 528h-94l73 148h137z" />
    <glyph glyph-name="Ccircumflex" unicode="&#x108;" horiz-adv-x="569" 
d="M436 168l88 -47q-69 -133 -237 -133q-111 0 -172.5 65t-61.5 177q0 170 88 270.5t217 100.5q176 0 208 -155l-110 -40q-15 103 -107 103q-85 0 -135 -79.5t-50 -194.5q0 -73 34.5 -114.5t97.5 -41.5q47 0 79 19t61 70zM351 785h65l104 -134h-103l-25 32q-7 9 -11 17
t-5 12l-1 4h-3q-6 -13 -28 -33l-37 -32h-108z" />
    <glyph glyph-name="ccircumflex" unicode="&#x109;" horiz-adv-x="460" 
d="M328 153l101 -19q-49 -146 -204 -146q-86 0 -137.5 51.5t-51.5 143.5q0 120 65 205t182 85q81 0 121 -42.5t40 -114.5l-101 -18q0 90 -71 90q-58 0 -92.5 -59t-34.5 -137q0 -123 90 -123q69 0 93 84zM280 678h63l102 -151h-100l-26 39q-7 10 -11 19t-4 13l-1 4h-4
q-6 -14 -29 -36l-40 -39h-105z" />
    <glyph glyph-name="Cdotaccent" unicode="&#x10a;" horiz-adv-x="569" 
d="M436 168l88 -47q-69 -133 -237 -133q-111 0 -172.5 65t-61.5 177q0 170 88 270.5t217 100.5q176 0 208 -155l-110 -40q-15 103 -107 103q-85 0 -135 -79.5t-50 -194.5q0 -73 34.5 -114.5t97.5 -41.5q47 0 79 19t61 70zM311 728q0 30 19 48t48 18q30 0 49.5 -18t19.5 -48
q0 -29 -19.5 -47t-49.5 -18q-28 0 -47.5 18t-19.5 47z" />
    <glyph glyph-name="cdotaccent" unicode="&#x10b;" horiz-adv-x="460" 
d="M328 153l101 -19q-49 -146 -204 -146q-86 0 -137.5 51.5t-51.5 143.5q0 120 65 205t182 85q81 0 121 -42.5t40 -114.5l-101 -18q0 90 -71 90q-58 0 -92.5 -59t-34.5 -137q0 -123 90 -123q69 0 93 84zM232 605q0 30 19 48t48 18q31 0 50 -18t19 -48q0 -29 -19.5 -47
t-49.5 -18q-28 0 -47.5 18t-19.5 47z" />
    <glyph glyph-name="Ccaron" unicode="&#x10c;" horiz-adv-x="569" 
d="M436 168l88 -47q-69 -133 -237 -133q-111 0 -172.5 65t-61.5 177q0 170 88 270.5t217 100.5q176 0 208 -155l-110 -40q-15 103 -107 103q-85 0 -135 -79.5t-50 -194.5q0 -73 34.5 -114.5t97.5 -41.5q47 0 79 19t61 70zM397 651h-66l-104 134h104l25 -32q7 -8 11 -16.5
t5 -12.5v-4h4q5 14 27 33l37 32h109z" />
    <glyph glyph-name="ccaron" unicode="&#x10d;" horiz-adv-x="460" 
d="M328 153l101 -19q-49 -146 -204 -146q-86 0 -137.5 51.5t-51.5 143.5q0 120 65 205t182 85q81 0 121 -42.5t40 -114.5l-101 -18q0 90 -71 90q-58 0 -92.5 -59t-34.5 -137q0 -123 90 -123q69 0 93 84zM319 527h-63l-102 151h99l27 -39q7 -10 11 -19.5t5 -13.5v-4h4
q6 14 29 37l40 39h105z" />
    <glyph glyph-name="Dcaron" unicode="&#x10e;" horiz-adv-x="606" 
d="M160 90h78q96 0 156.5 66t60.5 196q0 147 -157 147h-66zM234 0h-198l103 589h178q125 0 188 -58t63 -169q0 -77 -18.5 -138.5t-50 -102.5t-74.5 -69t-90.5 -40t-100.5 -12zM361 651h-65l-104 134h103l25 -32q7 -8 11 -16.5t5 -12.5l1 -4h3q6 14 28 33l37 32h108z" />
    <glyph glyph-name="dcaron" unicode="&#x10f;" horiz-adv-x="543" 
d="M705 680l-55 -177h-75l16 177h114zM343 192l15 78q8 49 -11 85.5t-65 36.5q-62 0 -100.5 -59.5t-38.5 -147.5q0 -51 21.5 -83t62.5 -32q46 0 76 32t40 90zM533 668l-95 -546q-8 -43 27 -43q13 0 29 4l-16 -78q-30 -10 -60 -10q-88 0 -89 82q-32 -89 -139 -89
q-71 0 -112.5 50t-41.5 139q0 123 62.5 209.5t162.5 86.5q104 0 117 -89l50 284h105z" />
    <glyph glyph-name="Dcroat" unicode="&#x110;" horiz-adv-x="606" 
d="M234 0h-198l43 251h-65l16 89h65l44 249h178q125 0 188 -58t63 -169q0 -77 -18.5 -138.5t-50 -102.5t-74.5 -69t-90.5 -40t-100.5 -12zM160 90h78q96 0 156.5 66t60.5 196q0 147 -157 147h-66l-28 -159h119l-16 -89h-119z" />
    <glyph glyph-name="dcroat" unicode="&#x111;" horiz-adv-x="543" 
d="M533 668l-13 -72h74l-13 -70h-73l-70 -404q-8 -43 27 -43q13 0 29 4l-16 -78q-30 -10 -60 -10q-88 0 -89 82q-32 -89 -139 -89q-71 0 -112.5 50t-41.5 139q0 123 62.5 209.5t162.5 86.5q104 0 117 -89l24 142h-138l13 70h137l14 72h105zM343 192l15 78q8 49 -11 85.5
t-65 36.5q-62 0 -100.5 -59.5t-38.5 -147.5q0 -51 21.5 -83t62.5 -32q46 0 76 32t40 90z" />
    <glyph glyph-name="Emacron" unicode="&#x112;" horiz-adv-x="500" 
d="M425 93l-15 -93h-374l103 589h374l-17 -93h-265l-27 -155h234l-16 -91h-234l-28 -157h265zM467 671h-276l14 83h276z" />
    <glyph glyph-name="emacron" unicode="&#x113;" horiz-adv-x="476" 
d="M234 69q40 0 62 17t33 54l99 -24q-23 -69 -72 -98.5t-131 -29.5q-89 0 -139 53.5t-50 144.5q0 133 70.5 210t166.5 77q88 0 132.5 -47.5t44.5 -118.5q0 -56 -20 -96h-288q-7 -59 17 -100.5t75 -41.5zM154 279h188q4 12 4 29q0 37 -19.5 61t-57.5 24q-44 0 -73.5 -32
t-41.5 -82zM416 552h-272l15 84h273z" />
    <glyph glyph-name="Ebreve" unicode="&#x114;" horiz-adv-x="500" 
d="M425 93l-15 -93h-374l103 589h374l-17 -93h-265l-27 -155h234l-16 -91h-234l-28 -157h265zM322 647q-68 0 -97.5 36.5t-17.5 100.5h80q-4 -31 7 -46t42 -15t47 15t24 46h80q-12 -64 -54.5 -100.5t-110.5 -36.5z" />
    <glyph glyph-name="ebreve" unicode="&#x115;" horiz-adv-x="476" 
d="M234 69q40 0 62 17t33 54l99 -24q-23 -69 -72 -98.5t-131 -29.5q-89 0 -139 53.5t-50 144.5q0 133 70.5 210t166.5 77q88 0 132.5 -47.5t44.5 -118.5q0 -56 -20 -96h-288q-7 -59 17 -100.5t75 -41.5zM154 279h188q4 12 4 29q0 37 -19.5 61t-57.5 24q-44 0 -73.5 -32
t-41.5 -82zM271 525q-68 0 -97.5 40t-17.5 106h80q-4 -35 5.5 -52.5t42.5 -17.5t49 17.5t24 52.5h80q-12 -66 -55 -106t-111 -40z" />
    <glyph glyph-name="Edotaccent" unicode="&#x116;" horiz-adv-x="500" 
d="M425 93l-15 -93h-374l103 589h374l-17 -93h-265l-27 -155h234l-16 -91h-234l-28 -157h265zM267 728q0 30 19 48t48 18q30 0 49.5 -18t19.5 -48q0 -29 -19.5 -47t-49.5 -18q-28 0 -47.5 18t-19.5 47z" />
    <glyph glyph-name="edotaccent" unicode="&#x117;" horiz-adv-x="476" 
d="M234 69q40 0 62 17t33 54l99 -24q-23 -69 -72 -98.5t-131 -29.5q-89 0 -139 53.5t-50 144.5q0 133 70.5 210t166.5 77q88 0 132.5 -47.5t44.5 -118.5q0 -56 -20 -96h-288q-7 -59 17 -100.5t75 -41.5zM154 279h188q4 12 4 29q0 37 -19.5 61t-57.5 24q-44 0 -73.5 -32
t-41.5 -82zM218 605q0 30 19 48t48 18q31 0 50 -18t19 -48q0 -29 -19.5 -47t-49.5 -18q-28 0 -47.5 18t-19.5 47z" />
    <glyph glyph-name="Eogonek" unicode="&#x118;" horiz-adv-x="500" 
d="M174 -113q0 35 20 66t51 47h-209l103 589h374l-17 -93h-265l-27 -155h234l-16 -91h-234l-28 -157h265l-15 -93h-28q-52 0 -87 -27.5t-35 -69.5q0 -21 11.5 -32.5t31.5 -11.5q36 0 62 35l29 -51q-38 -54 -112 -54q-50 0 -79 25.5t-29 72.5z" />
    <glyph glyph-name="eogonek" unicode="&#x119;" horiz-adv-x="476" 
d="M147 -113q0 59 47 103q-75 9 -116.5 61t-41.5 135q0 133 70.5 210t166.5 77q88 0 132.5 -47.5t44.5 -118.5q0 -56 -20 -96h-288q-7 -59 17 -100.5t75 -41.5q40 0 62 17t33 54l99 -24q-17 -49 -48 -75t-83 -46q-64 -24 -64 -91q0 -20 12 -32.5t31 -12.5q36 0 62 35l29 -51
q-38 -54 -112 -54q-50 0 -79 25.5t-29 72.5zM154 279h188q4 12 4 29q0 37 -19.5 61t-57.5 24q-44 0 -73.5 -32t-41.5 -82z" />
    <glyph glyph-name="Ecaron" unicode="&#x11a;" horiz-adv-x="500" 
d="M425 93l-15 -93h-374l103 589h374l-17 -93h-265l-27 -155h234l-16 -91h-234l-28 -157h265zM352 651h-65l-104 134h103l25 -32q7 -8 11 -16.5t5 -12.5l1 -4h3q6 14 28 33l37 32h108z" />
    <glyph glyph-name="ecaron" unicode="&#x11b;" horiz-adv-x="476" 
d="M234 69q40 0 62 17t33 54l99 -24q-23 -69 -72 -98.5t-131 -29.5q-89 0 -139 53.5t-50 144.5q0 133 70.5 210t166.5 77q88 0 132.5 -47.5t44.5 -118.5q0 -56 -20 -96h-288q-7 -59 17 -100.5t75 -41.5zM154 279h188q4 12 4 29q0 37 -19.5 61t-57.5 24q-44 0 -73.5 -32
t-41.5 -82zM305 527h-63l-102 151h99l27 -39q7 -10 11 -19.5t5 -13.5v-4h4q6 14 29 37l40 39h105z" />
    <glyph glyph-name="Gcircumflex" unicode="&#x11c;" horiz-adv-x="614" 
d="M327 307h240l-53 -307h-73l-6 73q-42 -85 -154 -85q-107 0 -167.5 65.5t-60.5 176.5q0 170 88 270.5t217 100.5q177 0 209 -155l-110 -40q-15 102 -107 102q-86 0 -136 -78.5t-50 -192.5q0 -75 35 -118t103 -43q120 0 140 114l5 28h-136zM355 785h66l104 -134h-104
l-25 32q-6 9 -10 17t-5 12l-1 4h-3q-6 -13 -28 -33l-37 -32h-108z" />
    <glyph glyph-name="gcircumflex" unicode="&#x11d;" horiz-adv-x="518" 
d="M344 195l14 75q8 50 -10.5 86t-64.5 36q-63 0 -101 -58t-38 -145q0 -52 21.5 -83.5t62.5 -31.5q47 0 76.5 31.5t39.5 89.5zM497 462l-83 -471q-18 -103 -77 -152.5t-167 -49.5q-164 0 -194 120l85 47q5 -39 36 -63t77 -24q60 0 91.5 33t44.5 96l15 81q-34 -86 -133 -86
q-72 0 -113.5 50t-41.5 139q0 122 62 206.5t164 84.5t115 -89l27 78h92zM287 678h63l102 -151h-100l-27 39q-7 10 -10.5 19t-4.5 13v4h-4q-6 -14 -29 -36l-40 -39h-105z" />
    <glyph glyph-name="Gbreve" unicode="&#x11e;" horiz-adv-x="614" 
d="M327 307h240l-53 -307h-73l-6 73q-42 -85 -154 -85q-107 0 -167.5 65.5t-60.5 176.5q0 170 88 270.5t217 100.5q177 0 209 -155l-110 -40q-15 102 -107 102q-86 0 -136 -78.5t-50 -192.5q0 -75 35 -118t103 -43q120 0 140 114l5 28h-136zM370 647q-68 0 -97.5 36.5
t-17.5 100.5h80q-3 -31 7.5 -46t41.5 -15q32 0 48 15t24 46h80q-12 -64 -54.5 -100.5t-111.5 -36.5z" />
    <glyph glyph-name="gbreve" unicode="&#x11f;" horiz-adv-x="518" 
d="M344 195l14 75q8 50 -10.5 86t-64.5 36q-63 0 -101 -58t-38 -145q0 -52 21.5 -83.5t62.5 -31.5q47 0 76.5 31.5t39.5 89.5zM497 462l-83 -471q-18 -103 -77 -152.5t-167 -49.5q-164 0 -194 120l85 47q5 -39 36 -63t77 -24q60 0 91.5 33t44.5 96l15 81q-34 -86 -133 -86
q-72 0 -113.5 50t-41.5 139q0 122 62 206.5t164 84.5t115 -89l27 78h92zM292 525q-68 0 -97.5 40t-17.5 106h81q-5 -35 4 -52.5t43 -17.5q33 0 49 17.5t24 52.5h81q-12 -66 -55.5 -106t-111.5 -40z" />
    <glyph glyph-name="Gdotaccent" unicode="&#x120;" horiz-adv-x="614" 
d="M327 307h240l-53 -307h-73l-6 73q-42 -85 -154 -85q-107 0 -167.5 65.5t-60.5 176.5q0 170 88 270.5t217 100.5q177 0 209 -155l-110 -40q-15 102 -107 102q-86 0 -136 -78.5t-50 -192.5q0 -75 35 -118t103 -43q120 0 140 114l5 28h-136zM315 728q0 30 19 48t48 18
q31 0 50.5 -18t19.5 -48q0 -29 -20 -47t-50 -18q-28 0 -47.5 18t-19.5 47z" />
    <glyph glyph-name="gdotaccent" unicode="&#x121;" horiz-adv-x="518" 
d="M344 195l14 75q8 50 -10.5 86t-64.5 36q-63 0 -101 -58t-38 -145q0 -52 21.5 -83.5t62.5 -31.5q47 0 76.5 31.5t39.5 89.5zM497 462l-83 -471q-18 -103 -77 -152.5t-167 -49.5q-164 0 -194 120l85 47q5 -39 36 -63t77 -24q60 0 91.5 33t44.5 96l15 81q-34 -86 -133 -86
q-72 0 -113.5 50t-41.5 139q0 122 62 206.5t164 84.5t115 -89l27 78h92zM239 605q0 30 19 48t48 18q31 0 50 -18t19 -48q0 -29 -19.5 -47t-49.5 -18q-28 0 -47.5 18t-19.5 47z" />
    <glyph glyph-name="Gcommaaccent" unicode="&#x122;" horiz-adv-x="614" 
d="M327 307h240l-53 -307h-73l-6 73q-42 -85 -154 -85q-107 0 -167.5 65.5t-60.5 176.5q0 170 88 270.5t217 100.5q177 0 209 -155l-110 -40q-15 102 -107 102q-86 0 -136 -78.5t-50 -192.5q0 -75 35 -118t103 -43q120 0 140 114l5 28h-136zM308 -138q0 -56 -39 -84
t-103 -28v39q76 4 76 42q-27 -5 -45 8.5t-18 40.5q0 28 17 42.5t44 14.5q30 0 49 -19.5t19 -55.5z" />
    <glyph glyph-name="gcommaaccent" unicode="&#x123;" horiz-adv-x="518" 
d="M344 195l14 75q8 50 -10.5 86t-64.5 36q-63 0 -101 -58t-38 -145q0 -52 21.5 -83.5t62.5 -31.5q47 0 76.5 31.5t39.5 89.5zM497 462l-83 -471q-18 -103 -77 -152.5t-167 -49.5q-164 0 -194 120l85 47q5 -39 36 -63t77 -24q60 0 91.5 33t44.5 96l15 81q-34 -86 -133 -86
q-72 0 -113.5 50t-41.5 139q0 122 62 206.5t164 84.5t115 -89l27 78h92zM250 604q0 56 39 84t103 28v-39q-76 -4 -76 -41q27 5 45 -9t18 -41t-17 -42t-44 -15q-30 0 -49 19.5t-19 55.5z" />
    <glyph glyph-name="Hcircumflex" unicode="&#x124;" horiz-adv-x="630" 
d="M145 0h-109l103 589h109l-43 -244h261l42 244h109l-103 -589h-109l44 253h-260zM371 785h66l103 -134h-103l-25 32q-7 9 -11 17t-5 12l-1 4h-3q-6 -13 -27 -33l-38 -32h-108z" />
    <glyph glyph-name="hcircumflex" unicode="&#x125;" horiz-adv-x="533" 
d="M469 317l-33 -195q-8 -43 27 -43q13 0 29 4l-16 -78q-30 -10 -60 -10q-108 0 -89 114l34 192q15 84 -56 84q-39 0 -73 -32.5t-46 -102.5l-44 -250h-106l116 668h108l-54 -300q49 105 148 105q55 0 87 -30t32 -83q0 -18 -4 -43zM204 831h65l104 -134h-103l-25 32
q-7 9 -11 17t-5 12l-1 4h-3q-6 -13 -28 -33l-37 -32h-108z" />
    <glyph glyph-name="Hbar" unicode="&#x126;" horiz-adv-x="653" 
d="M153 0h-109l72 417h-83l16 84h83l15 88h109l-15 -88h260l15 88h109l-15 -88h90l-15 -84h-91l-72 -417h-109l44 249h-260zM212 337h261l13 80h-260z" />
    <glyph glyph-name="hbar" unicode="&#x127;" horiz-adv-x="533" 
d="M52 526l13 70h75l12 72h108l-13 -72h135l-13 -70h-135l-28 -158q49 105 148 105q55 0 87 -30t32 -83q0 -18 -4 -43l-33 -195q-8 -43 27 -43q13 0 29 4l-16 -78q-30 -10 -60 -10q-108 0 -89 114l34 192q15 84 -56 84q-39 0 -73 -32.5t-46 -102.5l-44 -250h-106l91 526h-75
z" />
    <glyph glyph-name="Itilde" unicode="&#x128;" horiz-adv-x="261" 
d="M139 589h109l-103 -589h-109zM268 652q-8 0 -14.5 0.5t-12.5 2t-10.5 3t-10.5 4.5t-8 4.5t-9 5.5t-9 5q-39 25 -55 25q-17 0 -27.5 -13t-11.5 -37h-61q-12 57 18 96t81 39q32 0 74 -27q38 -24 53 -24q32 0 36 50h64q12 -59 -15.5 -96.5t-81.5 -37.5z" />
    <glyph glyph-name="itilde" unicode="&#x129;" horiz-adv-x="263" 
d="M248 526q-18 0 -33 4.5t-20 7.5t-22 14q-39 25 -55 25q-36 0 -39 -50h-61q-12 56 18 95t81 39q35 0 74 -26q37 -25 53 -25q32 0 36 50h64q12 -59 -15 -96.5t-81 -37.5zM215 462l-59 -340q-8 -43 27 -43q13 0 29 4l-16 -78q-30 -10 -60 -10q-108 0 -89 114l62 353h106z
" />
    <glyph glyph-name="Imacron" unicode="&#x12a;" horiz-adv-x="261" 
d="M139 589h109l-103 -589h-109zM347 671h-277l15 83h276z" />
    <glyph glyph-name="imacron" unicode="&#x12b;" horiz-adv-x="263" 
d="M313 552h-272l15 84h273zM215 462l-59 -340q-8 -43 27 -43q13 0 29 4l-16 -78q-30 -10 -60 -10q-108 0 -89 114l62 353h106z" />
    <glyph glyph-name="Ibreve" unicode="&#x12c;" horiz-adv-x="261" 
d="M139 589h109l-103 -589h-109zM201 647q-68 0 -97.5 36.5t-17.5 100.5h80q-4 -31 7 -46t42 -15q32 0 48 15t23 46h81q-12 -64 -54.5 -100.5t-111.5 -36.5z" />
    <glyph glyph-name="Iogonek" unicode="&#x12e;" horiz-adv-x="261" 
d="M-71 -113q0 50 32.5 88t79.5 57l98 557h109l-103 -589q-55 0 -92.5 -27t-37.5 -70q0 -21 11.5 -32.5t31.5 -11.5q36 0 62 35l29 -51q-38 -54 -112 -54q-50 0 -79 25.5t-29 72.5z" />
    <glyph glyph-name="iogonek" unicode="&#x12f;" horiz-adv-x="263" 
d="M-17 -111q0 42 22.5 76.5t59.5 52.5q-29 27 -18 91l62 353h106l-59 -340q-8 -43 27 -43q13 0 29 4l-16 -78q-126 -14 -126 -102q0 -44 42 -44q36 0 62 35l29 -51q-37 -54 -112 -54q-50 0 -79 26t-29 74zM117 608q0 30 19 48t48 18t49 -18t20 -48q0 -29 -20 -47.5
t-49 -18.5q-28 0 -47.5 18.5t-19.5 47.5z" />
    <glyph glyph-name="Idotaccent" unicode="&#x130;" horiz-adv-x="261" 
d="M139 589h109l-103 -589h-109zM146 728q0 30 19 48t48 18q31 0 50.5 -18t19.5 -48q0 -29 -20 -47t-50 -18q-28 0 -47.5 18t-19.5 47z" />
    <glyph glyph-name="dotlessi" unicode="&#x131;" horiz-adv-x="263" 
d="M215 462l-59 -340q-8 -43 27 -43q13 0 29 4l-16 -78q-30 -10 -60 -10q-108 0 -89 114l62 353h106z" />
    <glyph glyph-name="IJ" unicode="&#x132;" horiz-adv-x="710" 
d="M139 589h109l-103 -589h-109zM593 589h109l-75 -428q-16 -94 -65 -133.5t-139 -39.5q-139 0 -174 122l88 57q21 -91 92 -91q44 0 63 22.5t28 78.5z" />
    <glyph glyph-name="ij" unicode="&#x133;" horiz-adv-x="497" 
d="M215 462l-59 -340q-8 -43 27 -43q13 0 29 4l-16 -78q-30 -10 -60 -10q-108 0 -89 114l62 353h106zM117 608q0 30 19 48t48 18t49 -18t20 -48q0 -29 -20 -47.5t-49 -18.5q-28 0 -47.5 18.5t-19.5 47.5zM478 462l-92 -528q-14 -80 -55.5 -112.5t-112.5 -32.5q-61 0 -101 27
l32 79q32 -25 67 -25q26 0 41.5 16.5t23.5 59.5l91 516h106zM380 608q0 30 19 48t48 18t49 -18t20 -48q0 -29 -20 -47.5t-49 -18.5q-28 0 -47.5 18.5t-19.5 47.5z" />
    <glyph glyph-name="Jcircumflex" unicode="&#x134;" horiz-adv-x="442" 
d="M325 589h109l-76 -428q-16 -94 -65 -133.5t-138 -39.5q-139 0 -174 122l88 57q20 -91 92 -91q44 0 62.5 22.5t28.5 78.5zM372 785h65l104 -134h-103l-25 32q-7 9 -11 17t-5 12l-1 4h-3q-6 -13 -28 -33l-37 -32h-108z" />
    <glyph glyph-name="jcircumflex" unicode="&#x135;" horiz-adv-x="234" 
d="M215 462l-92 -528q-14 -80 -55.5 -112.5t-112.5 -32.5q-61 0 -101 27l32 79q32 -25 67 -25q26 0 41.5 16.5t23.5 59.5l91 516h106zM163 678h63l102 -151h-100l-27 39q-7 10 -10.5 19t-4.5 13v4h-4q-6 -14 -29 -36l-40 -39h-105z" />
    <glyph glyph-name="Kcommaaccent" unicode="&#x136;" horiz-adv-x="541" 
d="M493 0h-123l-133 253h-48l-44 -253h-109l103 589h109l-43 -245h41l203 245h128l-247 -289zM270 -138q0 -56 -39 -84t-103 -28v39q76 4 76 42q-28 -5 -45.5 8.5t-17.5 40.5q0 28 16.5 42.5t44.5 14.5q30 0 49 -19.5t19 -55.5z" />
    <glyph glyph-name="kcommaaccent" unicode="&#x137;" horiz-adv-x="481" 
d="M284 54l-76 160h-28l-38 -214h-106l117 668h107l-66 -376h22l157 170h129l-202 -208l70 -142q14 -26 32.5 -31.5t50.5 4.5l-17 -81q-27 -9 -61 -9q-63 0 -91 59zM260 -138q0 -56 -39 -84t-103 -28v39q76 4 76 42q-27 -5 -45 8.5t-18 40.5q0 28 17 42.5t44 14.5
q30 0 49 -19.5t19 -55.5z" />
    <glyph glyph-name="kgreenlandic" unicode="&#x138;" horiz-adv-x="481" 
d="M285 54l-76 160h-29l-38 -214h-106l81 462h107l-30 -170h22l157 170h129l-202 -208l70 -142q14 -26 32.5 -31.5t50.5 4.5l-17 -81q-27 -9 -61 -9q-62 0 -90 59z" />
    <glyph glyph-name="Lacute" unicode="&#x139;" horiz-adv-x="464" 
d="M139 589h109l-88 -496h251l-16 -93h-359zM249 651h-96l63 130h136z" />
    <glyph glyph-name="lacute" unicode="&#x13a;" horiz-adv-x="262" 
d="M252 668l-96 -546q-8 -43 27 -43q13 0 29 4l-16 -78q-30 -10 -60 -10q-108 0 -89 114l99 559h106zM250 696h-96l63 130h136z" />
    <glyph glyph-name="Lcommaaccent" unicode="&#x13b;" horiz-adv-x="464" 
d="M139 589h109l-88 -496h251l-16 -93h-359zM268 -138q0 -56 -39 -84t-103 -28v39q76 4 76 42q-27 -5 -45 8.5t-18 40.5q0 28 17 42.5t44 14.5q30 0 49 -19.5t19 -55.5z" />
    <glyph glyph-name="lcommaaccent" unicode="&#x13c;" horiz-adv-x="262" 
d="M252 668l-96 -546q-8 -43 27 -43q13 0 29 4l-16 -78q-30 -10 -60 -10q-108 0 -89 114l99 559h106zM157 -138q0 -55 -39 -83.5t-103 -28.5v39q75 4 75 42q-27 -5 -45 8.5t-18 40.5q0 28 17 42.5t44 14.5q30 0 49.5 -19.5t19.5 -55.5z" />
    <glyph glyph-name="Lcaron" unicode="&#x13d;" horiz-adv-x="464" 
d="M139 589h109l-88 -496h251l-16 -93h-359zM434 668l-54 -185h-75l15 185h114z" />
    <glyph glyph-name="lcaron" unicode="&#x13e;" horiz-adv-x="262" 
d="M423 680l-54 -177h-76l16 177h114zM252 668l-96 -546q-8 -43 27 -43q13 0 29 4l-16 -78q-30 -10 -60 -10q-108 0 -89 114l99 559h106z" />
    <glyph glyph-name="Ldot" unicode="&#x13f;" horiz-adv-x="464" 
d="M139 589h109l-88 -496h251l-16 -93h-359zM315 308q0 32 21 53.5t52 21.5q32 0 53.5 -21.5t21.5 -53.5q0 -31 -21.5 -52t-53.5 -21q-31 0 -52 21t-21 52z" />
    <glyph glyph-name="ldot" unicode="&#x140;" horiz-adv-x="364" 
d="M252 668l-96 -546q-8 -43 27 -43q13 0 29 4l-16 -78q-30 -10 -60 -10q-108 0 -89 114l99 559h106zM245 320q0 32 21 53.5t52 21.5q32 0 53.5 -21.5t21.5 -53.5q0 -31 -21.5 -52t-53.5 -21q-31 0 -52 21t-21 52z" />
    <glyph glyph-name="Lslash" unicode="&#x141;" horiz-adv-x="470" 
d="M146 589h108l-40 -233l142 50l-14 -81l-143 -49l-32 -183h250l-15 -93h-359l41 239l-68 -23l14 78l68 23z" />
    <glyph glyph-name="lslash" unicode="&#x142;" horiz-adv-x="270" 
d="M255 668l-43 -242l82 39l-15 -84l-82 -38l-38 -221q-8 -43 27 -43q13 0 29 4l-15 -78q-32 -10 -61 -10q-109 0 -88 114l31 181l-66 -31l14 82l67 31l52 296h106z" />
    <glyph glyph-name="Nacute" unicode="&#x143;" horiz-adv-x="631" 
d="M244 589l148 -314q13 -26 23.5 -54.5t14.5 -44.5l5 -15h4q7 64 20 138l51 290h108l-103 -589h-102l-151 310q-13 27 -24.5 56.5t-16.5 45.5l-5 16h-4q-3 -62 -17 -141l-50 -287h-109l103 589h105zM420 651h-96l64 130h136z" />
    <glyph glyph-name="nacute" unicode="&#x144;" horiz-adv-x="533" 
d="M469 317l-33 -195q-8 -43 27 -43q13 0 29 4l-16 -78q-30 -10 -60 -10q-108 0 -89 114l34 192q15 84 -56 84q-39 0 -73 -32.5t-46 -102.5l-44 -250h-106l81 462h92l-3 -94q48 105 148 105q55 0 87 -30t32 -83q0 -18 -4 -43zM349 528h-93l72 148h137z" />
    <glyph glyph-name="Ncommaaccent" unicode="&#x145;" horiz-adv-x="631" 
d="M244 589l148 -314q13 -26 23.5 -54.5t14.5 -44.5l5 -15h4q7 64 20 138l51 290h108l-103 -589h-102l-151 310q-13 27 -24.5 56.5t-16.5 45.5l-5 16h-4q-3 -62 -17 -141l-50 -287h-109l103 589h105zM313 -138q0 -56 -39 -84t-103 -28v39q76 4 76 42q-27 -5 -45 8.5
t-18 40.5q0 28 17 42.5t44 14.5q30 0 49 -19.5t19 -55.5z" />
    <glyph glyph-name="ncommaaccent" unicode="&#x146;" horiz-adv-x="533" 
d="M469 317l-33 -195q-8 -43 27 -43q13 0 29 4l-16 -78q-30 -10 -60 -10q-108 0 -89 114l34 192q15 84 -56 84q-39 0 -73 -32.5t-46 -102.5l-44 -250h-106l81 462h92l-3 -94q48 105 148 105q55 0 87 -30t32 -83q0 -18 -4 -43zM265 -138q0 -55 -39 -83.5t-103 -28.5v39
q75 4 75 42q-27 -5 -45 8.5t-18 40.5q0 28 17 42.5t44 14.5q30 0 49.5 -19.5t19.5 -55.5z" />
    <glyph glyph-name="Ncaron" unicode="&#x147;" horiz-adv-x="631" 
d="M244 589l148 -314q13 -26 23.5 -54.5t14.5 -44.5l5 -15h4q7 64 20 138l51 290h108l-103 -589h-102l-151 310q-13 27 -24.5 56.5t-16.5 45.5l-5 16h-4q-3 -62 -17 -141l-50 -287h-109l103 589h105zM407 651h-66l-104 134h104l25 -32q6 -8 10 -16.5t5 -12.5l1 -4h3
q6 14 28 33l37 32h108z" />
    <glyph glyph-name="ncaron" unicode="&#x148;" horiz-adv-x="533" 
d="M469 317l-33 -195q-8 -43 27 -43q13 0 29 4l-16 -78q-30 -10 -60 -10q-108 0 -89 114l34 192q15 84 -56 84q-39 0 -73 -32.5t-46 -102.5l-44 -250h-106l81 462h92l-3 -94q48 105 148 105q55 0 87 -30t32 -83q0 -18 -4 -43zM337 527h-63l-102 151h99l27 -39
q7 -10 11 -19.5t5 -13.5v-4h4q6 14 29 37l40 39h105z" />
    <glyph glyph-name="Eng" unicode="&#x14a;" horiz-adv-x="631" 
d="M618 589l-109 -627q-17 -94 -67 -133.5t-140 -39.5q-114 0 -164 79l74 79q13 -31 38.5 -50t56.5 -19q47 0 66.5 24.5t29.5 81.5l5 26l-146 300q-13 27 -24.5 56.5t-16.5 45.5l-5 16h-4q-3 -62 -17 -141l-50 -287h-109l103 589h105l148 -314q13 -26 23.5 -54.5t14.5 -44.5
l5 -15h4q7 64 20 138l51 290h108z" />
    <glyph glyph-name="eng" unicode="&#x14b;" horiz-adv-x="514" 
d="M469 317l-66 -383q-14 -80 -55.5 -112.5t-111.5 -32.5q-61 0 -102 27l32 79q33 -25 67 -25q26 0 42 16.5t23 59.5l63 355q15 84 -56 84q-39 0 -73 -32.5t-46 -102.5l-44 -250h-106l81 462h92l-3 -94q48 105 148 105q55 0 87 -30t32 -83q0 -18 -4 -43z" />
    <glyph glyph-name="Omacron" unicode="&#x14c;" horiz-adv-x="627" 
d="M287 -12q-111 0 -172.5 65.5t-61.5 176.5q0 170 88 270.5t217 100.5q111 0 172.5 -66t61.5 -177q0 -170 -88 -270t-217 -100zM349 508q-85 0 -135 -78.5t-50 -192.5q0 -74 34.5 -116t97.5 -42q83 0 133.5 79t50.5 193q0 71 -33 114t-98 43zM518 671h-277l15 83h276z" />
    <glyph glyph-name="omacron" unicode="&#x14d;" horiz-adv-x="509" 
d="M283 473q89 0 139.5 -53.5t50.5 -147.5q0 -120 -65 -202t-181 -82q-86 0 -138.5 51t-52.5 145q0 122 65 205.5t182 83.5zM273 388q-58 0 -93 -57.5t-35 -140.5q0 -59 24 -90t67 -31q59 0 93.5 58t34.5 143q0 57 -23.5 87.5t-67.5 30.5zM430 552h-273l16 84h272z" />
    <glyph glyph-name="Obreve" unicode="&#x14e;" horiz-adv-x="627" 
d="M287 -12q-111 0 -172.5 65.5t-61.5 176.5q0 170 88 270.5t217 100.5q111 0 172.5 -66t61.5 -177q0 -170 -88 -270t-217 -100zM349 508q-85 0 -135 -78.5t-50 -192.5q0 -74 34.5 -116t97.5 -42q83 0 133.5 79t50.5 193q0 71 -33 114t-98 43zM372 647q-68 0 -97.5 36.5
t-17.5 100.5h80q-4 -31 7 -46t42 -15q32 0 48 15t23 46h81q-12 -64 -54.5 -100.5t-111.5 -36.5z" />
    <glyph glyph-name="obreve" unicode="&#x14f;" horiz-adv-x="509" 
d="M283 473q89 0 139.5 -53.5t50.5 -147.5q0 -120 -65 -202t-181 -82q-86 0 -138.5 51t-52.5 145q0 122 65 205.5t182 83.5zM273 388q-58 0 -93 -57.5t-35 -140.5q0 -59 24 -90t67 -31q59 0 93.5 58t34.5 143q0 57 -23.5 87.5t-67.5 30.5zM284 525q-68 0 -97 40t-17 106h80
q-4 -35 5 -52.5t42 -17.5q34 0 50 17.5t24 52.5h80q-12 -66 -55.5 -106t-111.5 -40z" />
    <glyph glyph-name="Ohungarumlaut" unicode="&#x150;" horiz-adv-x="627" 
d="M287 -12q-111 0 -172.5 65.5t-61.5 176.5q0 170 88 270.5t217 100.5q111 0 172.5 -66t61.5 -177q0 -170 -88 -270t-217 -100zM349 508q-85 0 -135 -78.5t-50 -192.5q0 -74 34.5 -116t97.5 -42q83 0 133.5 79t50.5 193q0 71 -33 114t-98 43zM329 651h-76l59 130h119z
M488 651h-82l72 130h126z" />
    <glyph glyph-name="ohungarumlaut" unicode="&#x151;" horiz-adv-x="509" 
d="M283 473q89 0 139.5 -53.5t50.5 -147.5q0 -120 -65 -202t-181 -82q-86 0 -138.5 51t-52.5 145q0 122 65 205.5t182 83.5zM273 388q-58 0 -93 -57.5t-35 -140.5q0 -59 24 -90t67 -31q59 0 93.5 58t34.5 143q0 57 -23.5 87.5t-67.5 30.5zM251 528h-76l59 148h119zM410 528
h-82l72 148h126z" />
    <glyph glyph-name="OE" unicode="&#x152;" horiz-adv-x="849" 
d="M287 -12q-111 0 -172.5 65.5t-61.5 176.5q0 170 88 270.5t217 100.5q46 0 84 -12h420l-16 -93h-290q32 -48 34 -114l2 -41h196l-16 -91h-191q-19 -93 -76 -157h270l-16 -93h-389q-40 -12 -83 -12zM349 508q-85 0 -135 -78.5t-50 -192.5q0 -74 34.5 -116t97.5 -42
q83 0 133.5 79t50.5 193q0 71 -33 114t-98 43z" />
    <glyph glyph-name="oe" unicode="&#x153;" horiz-adv-x="804" 
d="M558 69q73 0 95 71l98 -24q-23 -68 -72 -98t-128 -30q-52 0 -94 23t-59 60q-62 -83 -171 -83q-86 0 -138.5 51t-52.5 145q0 122 65 205.5t182 83.5q106 0 151 -83q28 39 71.5 61t91.5 22q88 0 132.5 -47.5t44.5 -118.5q0 -56 -20 -96h-285q-6 -59 16 -100.5t73 -41.5z
M273 388q-58 0 -93 -57.5t-35 -140.5q0 -59 24 -90t67 -31q59 0 93.5 58t34.5 143q0 57 -23.5 87.5t-67.5 30.5zM480 279h186q3 13 3 29q0 37 -19 61t-58 24q-41 0 -69.5 -31.5t-42.5 -82.5z" />
    <glyph glyph-name="Racute" unicode="&#x154;" horiz-adv-x="559" 
d="M500 0h-117q-16 15 -23 57l-16 97q-7 45 -26 60t-63 15h-70l-40 -229h-109l103 589h209q95 0 137 -36t42 -110q0 -81 -47.5 -124.5t-111.5 -48.5v-4q41 -6 60 -25.5t27 -64.5l20 -114q7 -37 25 -62zM232 499l-32 -182h99q54 0 85.5 26t31.5 82q0 74 -86 74h-98zM375 651
h-96l64 130h136z" />
    <glyph glyph-name="racute" unicode="&#x155;" horiz-adv-x="360" 
d="M382 470l-26 -123q-55 18 -107 -7.5t-63 -90.5l-44 -249h-106l81 462h92l-6 -114q24 63 74 98.5t105 23.5zM294 528h-93l73 148h136z" />
    <glyph glyph-name="Rcommaaccent" unicode="&#x156;" horiz-adv-x="559" 
d="M500 0h-117q-16 15 -23 57l-16 97q-7 45 -26 60t-63 15h-70l-40 -229h-109l103 589h209q95 0 137 -36t42 -110q0 -81 -47.5 -124.5t-111.5 -48.5v-4q41 -6 60 -25.5t27 -64.5l20 -114q7 -37 25 -62zM232 499l-32 -182h99q54 0 85.5 26t31.5 82q0 74 -86 74h-98zM296 -138
q0 -56 -39 -84t-103 -28v39q76 4 76 42q-27 -5 -45 8.5t-18 40.5q0 28 17 42.5t44 14.5q30 0 49 -19.5t19 -55.5z" />
    <glyph glyph-name="rcommaaccent" unicode="&#x157;" horiz-adv-x="360" 
d="M382 470l-26 -123q-55 18 -107 -7.5t-63 -90.5l-44 -249h-106l81 462h92l-6 -114q24 63 74 98.5t105 23.5zM141 -138q0 -55 -39 -83.5t-103 -28.5v39q75 4 75 42q-27 -5 -45 8.5t-18 40.5q0 28 17 42.5t44 14.5q30 0 49.5 -19.5t19.5 -55.5z" />
    <glyph glyph-name="Rcaron" unicode="&#x158;" horiz-adv-x="559" 
d="M500 0h-117q-16 15 -23 57l-16 97q-7 45 -26 60t-63 15h-70l-40 -229h-109l103 589h209q95 0 137 -36t42 -110q0 -81 -47.5 -124.5t-111.5 -48.5v-4q41 -6 60 -25.5t27 -64.5l20 -114q7 -37 25 -62zM232 499l-32 -182h99q54 0 85.5 26t31.5 82q0 74 -86 74h-98zM362 651
h-66l-104 134h104l25 -32q6 -8 10 -16.5t5 -12.5l1 -4h3q6 14 28 33l37 32h108z" />
    <glyph glyph-name="rcaron" unicode="&#x159;" horiz-adv-x="360" 
d="M382 470l-26 -123q-55 18 -107 -7.5t-63 -90.5l-44 -249h-106l81 462h92l-6 -114q24 63 74 98.5t105 23.5zM282 527h-64l-102 151h100l27 -39q7 -10 10.5 -19.5t4.5 -13.5v-4h5q5 14 28 37l41 39h104z" />
    <glyph glyph-name="Sacute" unicode="&#x15a;" horiz-adv-x="499" 
d="M16 141l98 30q0 -50 28 -76.5t78 -26.5q105 0 105 87q0 37 -20.5 58t-74.5 41q-73 25 -108 62.5t-35 104.5q0 92 63.5 136t145.5 44q92 0 140 -37.5t50 -121.5l-105 -18q2 44 -22.5 68t-70.5 24q-44 0 -70.5 -22t-26.5 -60q0 -35 20.5 -51.5t78.5 -38.5q76 -29 110 -67
t34 -107q0 -93 -63.5 -137.5t-161.5 -44.5q-186 0 -193 153zM355 651h-96l64 130h136z" />
    <glyph glyph-name="sacute" unicode="&#x15b;" horiz-adv-x="419" 
d="M12 121l90 26q1 -42 24 -64t61 -22q73 0 73 58q0 27 -16.5 44t-60.5 31q-58 19 -86 51t-28 84q0 70 48.5 107t125.5 37q156 0 156 -125l-93 -17q0 68 -71 68q-31 0 -49.5 -15t-18.5 -41q0 -22 16.5 -36.5t66.5 -33.5q63 -24 88 -56.5t25 -87.5q0 -71 -48.5 -106
t-132.5 -35q-78 0 -122.5 34t-47.5 99zM301 528h-94l73 148h136z" />
    <glyph glyph-name="Scircumflex" unicode="&#x15c;" horiz-adv-x="499" 
d="M16 141l98 30q0 -50 28 -76.5t78 -26.5q105 0 105 87q0 37 -20.5 58t-74.5 41q-73 25 -108 62.5t-35 104.5q0 92 63.5 136t145.5 44q92 0 140 -37.5t50 -121.5l-105 -18q2 44 -22.5 68t-70.5 24q-44 0 -70.5 -22t-26.5 -60q0 -35 20.5 -51.5t78.5 -38.5q76 -29 110 -67
t34 -107q0 -93 -63.5 -137.5t-161.5 -44.5q-186 0 -193 153zM296 785h65l104 -134h-103l-26 32q-6 9 -10 17t-5 12l-1 4h-3q-6 -13 -28 -33l-37 -32h-108z" />
    <glyph glyph-name="scircumflex" unicode="&#x15d;" horiz-adv-x="419" 
d="M12 121l90 26q1 -42 24 -64t61 -22q73 0 73 58q0 27 -16.5 44t-60.5 31q-58 19 -86 51t-28 84q0 70 48.5 107t125.5 37q156 0 156 -125l-93 -17q0 68 -71 68q-31 0 -49.5 -15t-18.5 -41q0 -22 16.5 -36.5t66.5 -33.5q63 -24 88 -56.5t25 -87.5q0 -71 -48.5 -106
t-132.5 -35q-78 0 -122.5 34t-47.5 99zM249 678h63l102 -151h-100l-27 39q-7 10 -10.5 19t-4.5 13v4h-4q-6 -14 -29 -36l-40 -39h-105z" />
    <glyph glyph-name="Scedilla" unicode="&#x15e;" horiz-adv-x="499" 
d="M279 -122q0 -43 -31 -66t-79 -23q-64 0 -95 37l25 56q27 -36 62 -36q37 0 37 31q0 38 -58 42l27 71q-145 16 -151 151l98 30q0 -50 28 -76.5t78 -26.5q105 0 105 87q0 37 -20.5 58t-74.5 41q-73 25 -108 62.5t-35 104.5q0 92 63.5 136t145.5 44q92 0 140 -37.5t50 -121.5
l-105 -18q2 44 -22.5 68t-70.5 24q-44 0 -70.5 -22t-26.5 -60q0 -35 20.5 -51.5t78.5 -38.5q76 -29 110 -67t34 -107q0 -92 -62 -136.5t-159 -45.5l-12 -27q41 -8 59.5 -27.5t18.5 -55.5z" />
    <glyph glyph-name="scedilla" unicode="&#x15f;" horiz-adv-x="419" 
d="M246 -122q0 -43 -31 -66t-79 -23q-64 0 -95 37l25 56q27 -36 62 -36q37 0 37 31q0 38 -58 42l28 73q-117 19 -123 129l90 26q1 -42 24 -64t61 -22q73 0 73 58q0 27 -16.5 44t-60.5 31q-58 19 -86 51t-28 84q0 70 48.5 107t125.5 37q156 0 156 -125l-93 -17q0 68 -71 68
q-30 0 -49 -15t-19 -41q0 -22 16.5 -36.5t66.5 -33.5q63 -24 88 -56.5t25 -87.5q0 -66 -42 -100.5t-115 -38.5q-9 -1 -26 -1l-12 -28q41 -8 59.5 -27.5t18.5 -55.5z" />
    <glyph glyph-name="Scaron" unicode="&#x160;" horiz-adv-x="499" 
d="M16 141l98 30q0 -50 28 -76.5t78 -26.5q105 0 105 87q0 37 -20.5 58t-74.5 41q-73 25 -108 62.5t-35 104.5q0 92 63.5 136t145.5 44q92 0 140 -37.5t50 -121.5l-105 -18q2 44 -22.5 68t-70.5 24q-44 0 -70.5 -22t-26.5 -60q0 -35 20.5 -51.5t78.5 -38.5q76 -29 110 -67
t34 -107q0 -93 -63.5 -137.5t-161.5 -44.5q-186 0 -193 153zM342 651h-66l-104 134h104l25 -32q6 -8 10 -16.5t5 -12.5l1 -4h3q6 14 28 33l37 32h108z" />
    <glyph glyph-name="scaron" unicode="&#x161;" horiz-adv-x="419" 
d="M12 121l90 26q1 -42 24 -64t61 -22q73 0 73 58q0 27 -16.5 44t-60.5 31q-58 19 -86 51t-28 84q0 70 48.5 107t125.5 37q156 0 156 -125l-93 -17q0 68 -71 68q-31 0 -49.5 -15t-18.5 -41q0 -22 16.5 -36.5t66.5 -33.5q63 -24 88 -56.5t25 -87.5q0 -71 -48.5 -106
t-132.5 -35q-78 0 -122.5 34t-47.5 99zM288 527h-63l-103 151h100l27 -39q7 -10 10.5 -19.5t4.5 -13.5v-4h5q5 14 28 37l41 39h104z" />
    <glyph glyph-name="Tcommaaccent" unicode="&#x162;" horiz-adv-x="488" 
d="M256 0h-109l87 496h-168l16 93h446l-16 -93h-170zM252 -138q0 -56 -39 -84t-103 -28v39q76 4 76 42q-28 -5 -45.5 8.5t-17.5 40.5q0 28 16.5 42.5t44.5 14.5q30 0 49 -19.5t19 -55.5z" />
    <glyph glyph-name="tcommaaccent" unicode="&#x163;" horiz-adv-x="330" 
d="M278 102v-89q-45 -25 -107 -25q-143 0 -116 155l42 237h-65l15 82h65l17 97l108 14l-19 -111h120l-14 -82h-120l-43 -240q-11 -61 39 -61q38 0 78 23zM197 -138q0 -55 -39 -83.5t-103 -28.5v39q75 4 75 42q-27 -5 -45 8.5t-18 40.5q0 28 17 42.5t44 14.5q30 0 49.5 -19.5
t19.5 -55.5z" />
    <glyph glyph-name="Tcaron" unicode="&#x164;" horiz-adv-x="488" 
d="M256 0h-109l87 496h-168l16 93h446l-16 -93h-170zM345 651h-66l-104 134h104l25 -32q6 -8 10 -16.5t5 -12.5l1 -4h3q6 14 28 33l37 32h108z" />
    <glyph glyph-name="tcaron" unicode="&#x165;" horiz-adv-x="330" 
d="M278 102v-89q-45 -25 -107 -25q-143 0 -116 155l42 237h-65l15 82h65l17 97l108 14l-19 -111h120l-14 -82h-120l-43 -240q-11 -61 39 -61q38 0 78 23zM399 685l-54 -185h-76l16 185h114z" />
    <glyph glyph-name="Tbar" unicode="&#x166;" horiz-adv-x="488" 
d="M256 0h-109l43 242h-105l15 87h105l29 167h-168l16 93h446l-16 -93h-170l-29 -167h113l-15 -87h-113z" />
    <glyph glyph-name="tbar" unicode="&#x167;" horiz-adv-x="356" 
d="M24 225l14 79h63l14 76h-65l14 82h66l17 97l108 14l-19 -111h120l-14 -82h-120l-14 -76h122l-14 -79h-122l-15 -85q-11 -61 38 -61q39 0 79 23v-89q-45 -25 -107 -25q-144 0 -116 155l14 82h-63z" />
    <glyph glyph-name="Utilde" unicode="&#x168;" horiz-adv-x="596" 
d="M485 589h108l-69 -394q-20 -113 -86.5 -160t-173.5 -47q-50 0 -90 13t-70 39.5t-41 74t0 110.5l64 364h109l-65 -366q-25 -146 107 -146q63 0 96 33.5t45 107.5zM430 652q-9 0 -17 1t-13.5 2t-13 4.5t-10 5t-11 6.5t-10.5 6q-38 25 -54 25q-17 0 -27.5 -13t-11.5 -37h-62
q-12 57 18 96t81 39q17 0 31.5 -4.5t20.5 -8.5t22 -14q39 -24 54 -24q32 0 36 50h64q12 -59 -15.5 -96.5t-81.5 -37.5z" />
    <glyph glyph-name="utilde" unicode="&#x169;" horiz-adv-x="530" 
d="M321 88q-21 -53 -57.5 -76.5t-91.5 -23.5q-73 0 -104 46t-17 129l52 299h106l-54 -309q-14 -87 57 -87q41 0 73.5 31.5t42.5 90.5l48 274h106l-59 -340q-8 -43 26 -43q14 0 30 4l-16 -78q-30 -10 -60 -10q-48 0 -67.5 23t-14.5 70zM373 526q-7 0 -13 0.5t-10.5 1t-10.5 3
t-8.5 3t-8.5 4t-7 4t-8 5.5t-8 5q-39 25 -55 25q-17 0 -27.5 -13t-11.5 -37h-61q-13 56 17.5 95t81.5 39q33 0 74 -26q37 -25 53 -25q32 0 36 50h64q12 -59 -15.5 -96.5t-81.5 -37.5z" />
    <glyph glyph-name="Umacron" unicode="&#x16a;" horiz-adv-x="596" 
d="M485 589h108l-69 -394q-20 -113 -86.5 -160t-173.5 -47q-50 0 -90 13t-70 39.5t-41 74t0 110.5l64 364h109l-65 -366q-25 -146 107 -146q63 0 96 33.5t45 107.5zM509 671h-276l14 83h276z" />
    <glyph glyph-name="umacron" unicode="&#x16b;" horiz-adv-x="530" 
d="M321 88q-21 -53 -57.5 -76.5t-91.5 -23.5q-73 0 -104 46t-17 129l52 299h106l-54 -309q-14 -87 57 -87q41 0 73.5 31.5t42.5 90.5l48 274h106l-59 -340q-8 -43 26 -43q14 0 30 4l-16 -78q-30 -10 -60 -10q-48 0 -67.5 23t-14.5 70zM439 552h-273l16 84h272z" />
    <glyph glyph-name="Ubreve" unicode="&#x16c;" horiz-adv-x="596" 
d="M485 589h108l-69 -394q-20 -113 -86.5 -160t-173.5 -47q-50 0 -90 13t-70 39.5t-41 74t0 110.5l64 364h109l-65 -366q-25 -146 107 -146q63 0 96 33.5t45 107.5zM363 647q-68 0 -97.5 36.5t-17.5 100.5h80q-4 -31 7 -46t42 -15q32 0 48 15t23 46h80q-12 -64 -54.5 -100.5
t-110.5 -36.5z" />
    <glyph glyph-name="ubreve" unicode="&#x16d;" horiz-adv-x="530" 
d="M321 88q-21 -53 -57.5 -76.5t-91.5 -23.5q-73 0 -104 46t-17 129l52 299h106l-54 -309q-14 -87 57 -87q41 0 73.5 31.5t42.5 90.5l48 274h106l-59 -340q-8 -43 26 -43q14 0 30 4l-16 -78q-30 -10 -60 -10q-48 0 -67.5 23t-14.5 70zM293 525q-68 0 -97 40t-17 106h80
q-4 -35 5.5 -52.5t42.5 -17.5t49 17.5t24 52.5h80q-12 -66 -55.5 -106t-111.5 -40z" />
    <glyph glyph-name="Uring" unicode="&#x16e;" horiz-adv-x="596" 
d="M485 589h108l-69 -394q-20 -113 -86.5 -160t-173.5 -47q-50 0 -90 13t-70 39.5t-41 74t0 110.5l64 364h109l-65 -366q-25 -146 107 -146q63 0 96 33.5t45 107.5zM278 727q0 46 31.5 78t81.5 32q42 0 68 -26.5t26 -65.5q0 -47 -31 -79t-80 -32q-46 0 -71 26t-25 67z
M387 789q-23 0 -38.5 -17t-15.5 -40q0 -48 47 -48q23 0 37.5 17t14.5 40q0 22 -12 35t-33 13z" />
    <glyph glyph-name="uring" unicode="&#x16f;" horiz-adv-x="530" 
d="M321 88q-21 -53 -57.5 -76.5t-91.5 -23.5q-73 0 -104 46t-17 129l52 299h106l-54 -309q-14 -87 57 -87q41 0 73.5 31.5t42.5 90.5l48 274h106l-59 -340q-8 -43 26 -43q14 0 30 4l-16 -78q-30 -10 -60 -10q-48 0 -67.5 23t-14.5 70zM211 609q0 46 31.5 78.5t81.5 32.5
q42 0 68 -26.5t26 -65.5q0 -48 -31 -80t-80 -32q-46 0 -71 26t-25 67zM320 671q-24 0 -39 -16.5t-15 -40.5q0 -22 12 -35t34 -13q23 0 38 17t15 41q0 21 -12 34t-33 13z" />
    <glyph glyph-name="Uhungarumlaut" unicode="&#x170;" horiz-adv-x="596" 
d="M485 589h108l-69 -394q-20 -113 -86.5 -160t-173.5 -47q-50 0 -90 13t-70 39.5t-41 74t0 110.5l64 364h109l-65 -366q-25 -146 107 -146q63 0 96 33.5t45 107.5zM321 651h-77l59 130h119zM479 651h-82l73 130h125z" />
    <glyph glyph-name="uhungarumlaut" unicode="&#x171;" horiz-adv-x="530" 
d="M321 88q-21 -53 -57.5 -76.5t-91.5 -23.5q-73 0 -104 46t-17 129l52 299h106l-54 -309q-14 -87 57 -87q41 0 73.5 31.5t42.5 90.5l48 274h106l-59 -340q-8 -43 26 -43q14 0 30 4l-16 -78q-30 -10 -60 -10q-48 0 -67.5 23t-14.5 70zM261 528h-77l59 148h119zM419 528h-82
l73 148h125z" />
    <glyph glyph-name="Uogonek" unicode="&#x172;" horiz-adv-x="597" 
d="M154 -113q0 62 49 106q-79 15 -118 71.5t-21 160.5l64 364h108l-64 -366q-27 -146 107 -146q63 0 96 33.5t45 107.5l65 371h109l-69 -394q-18 -103 -75 -151t-148 -55q-61 -28 -61 -86q0 -21 11.5 -32.5t30.5 -11.5q38 0 62 35l29 -51q-37 -54 -111 -54q-50 0 -79.5 25.5
t-29.5 72.5z" />
    <glyph glyph-name="uogonek" unicode="&#x173;" horiz-adv-x="530" 
d="M482 462l-59 -340q-8 -43 27 -43q13 0 29 4l-16 -78q-29 -5 -50.5 -11t-44.5 -17t-35 -30t-12 -44q0 -44 42 -44q38 0 62 35l29 -51q-37 -54 -111 -54q-50 0 -79.5 25.5t-29.5 72.5q0 45 30.5 79.5t72.5 52.5q-24 20 -16 69q-21 -53 -57.5 -76.5t-91.5 -23.5
q-73 0 -104 46t-17 129l52 299h106l-54 -309q-14 -87 57 -87q41 0 73.5 31.5t42.5 90.5l48 274h106z" />
    <glyph glyph-name="Wcircumflex" unicode="&#x174;" horiz-adv-x="844" 
d="M543 589l26 -354q3 -40 3.5 -80.5t-0.5 -60.5l-1 -21h4q18 73 53 161l139 355h113l-241 -589h-152l-27 328q-3 45 -3 80t2 56l2 21h-4q-14 -68 -52 -157l-138 -328h-149l-26 589h109l12 -353v-163h4q16 74 53 162l148 354h125zM467 785h65l104 -134h-103l-25 32
q-7 9 -11 17t-5 12l-1 4h-3q-6 -13 -28 -33l-37 -32h-108z" />
    <glyph glyph-name="wcircumflex" unicode="&#x175;" horiz-adv-x="686" 
d="M429 462l20 -225q4 -41 4.5 -81.5t-1.5 -60.5l-2 -20h4q14 68 53 161l96 226h111l-205 -462h-125l-23 201q-3 37 -3.5 73.5t0.5 55.5l2 18h-4q-16 -63 -53 -147l-85 -201h-125l-47 462h108l18 -225q4 -41 4.5 -81.5t-0.5 -60.5l-1 -20h4q14 70 54 163l98 224h98zM374 678
h64l102 -151h-100l-27 39q-7 10 -10.5 19t-4.5 13v4h-5q-5 -14 -28 -36l-41 -39h-104z" />
    <glyph glyph-name="Ycircumflex" unicode="&#x176;" horiz-adv-x="518" 
d="M190 589l56 -171q10 -32 16 -62.5t7 -45.5l1 -15h4q16 52 61 122l111 172h115l-246 -375l-37 -214h-109l37 214l-129 375h113zM315 785h65l104 -134h-103l-26 32q-6 9 -10 17t-5 12l-1 4h-3q-6 -13 -28 -33l-37 -32h-108z" />
    <glyph glyph-name="ycircumflex" unicode="&#x177;" horiz-adv-x="444" 
d="M152 462l26 -250q4 -39 5.5 -74.5t0.5 -51.5l-1 -16h4q15 64 56 143l128 249h111l-277 -512q-51 -96 -98 -128.5t-110 -32.5q-48 0 -80 18l27 84q29 -18 58 -18q34 0 60.5 23t54.5 77l-75 489h110zM247 678h64l102 -151h-100l-27 39q-7 10 -10.5 19t-3.5 13l-1 4h-5
q-5 -14 -28 -36l-41 -39h-104z" />
    <glyph glyph-name="Ydieresis" unicode="&#x178;" horiz-adv-x="518" 
d="M190 589l56 -171q10 -32 16 -62.5t7 -45.5l1 -15h4q16 52 61 122l111 172h115l-246 -375l-37 -214h-109l37 214l-129 375h113zM173 716q0 29 18.5 47t45.5 18q28 0 46.5 -18t18.5 -47q0 -28 -19 -46t-46 -18t-45.5 18t-18.5 46zM376 716q0 29 18.5 47t45.5 18
q28 0 46.5 -18t18.5 -47t-18.5 -47t-46.5 -18q-27 0 -45.5 18t-18.5 47z" />
    <glyph glyph-name="Zacute" unicode="&#x179;" horiz-adv-x="526" 
d="M15 69l307 360q20 23 39 40.5t28 23.5l9 6v4q-34 -7 -91 -7h-207l16 93h425l-14 -73l-308 -356q-20 -23 -39.5 -40.5t-28.5 -23.5l-9 -6v-4q35 7 92 7h224l-16 -93h-440zM376 651h-96l63 130h136z" />
    <glyph glyph-name="zacute" unicode="&#x17a;" horiz-adv-x="436" 
d="M9 57l218 252q20 23 39 40.5t28 23.5l8 6v4q-33 -7 -90 -7h-133l17 86h344l-10 -66l-220 -245q-20 -23 -39 -40.5t-28 -23.5l-9 -6v-4q34 7 92 7h146l-15 -84h-359zM303 528h-93l72 148h137z" />
    <glyph glyph-name="Zdotaccent" unicode="&#x17b;" horiz-adv-x="526" 
d="M15 69l307 360q20 23 39 40.5t28 23.5l9 6v4q-34 -7 -91 -7h-207l16 93h425l-14 -73l-308 -356q-20 -23 -39.5 -40.5t-28.5 -23.5l-9 -6v-4q35 7 92 7h224l-16 -93h-440zM276 728q0 30 19 48t48 18q30 0 49.5 -18t19.5 -48q0 -29 -19.5 -47t-49.5 -18q-28 0 -47.5 18
t-19.5 47z" />
    <glyph glyph-name="zdotaccent" unicode="&#x17c;" horiz-adv-x="436" 
d="M9 57l218 252q20 23 39 40.5t28 23.5l8 6v4q-33 -7 -90 -7h-133l17 86h344l-10 -66l-220 -245q-20 -23 -39 -40.5t-28 -23.5l-9 -6v-4q34 7 92 7h146l-15 -84h-359zM203 605q0 30 19.5 48t47.5 18q31 0 50.5 -18t19.5 -48q0 -29 -20 -47t-50 -18q-28 0 -47.5 18t-19.5 47
z" />
    <glyph glyph-name="Zcaron" unicode="&#x17d;" horiz-adv-x="526" 
d="M15 69l307 360q20 23 39 40.5t28 23.5l9 6v4q-34 -7 -91 -7h-207l16 93h425l-14 -73l-308 -356q-20 -23 -39.5 -40.5t-28.5 -23.5l-9 -6v-4q35 7 92 7h224l-16 -93h-440zM361 651h-65l-104 134h103l26 -32q6 -8 10 -16.5t5 -12.5l1 -4h3q6 14 28 33l37 32h108z" />
    <glyph glyph-name="zcaron" unicode="&#x17e;" horiz-adv-x="436" 
d="M9 57l218 252q20 23 39 40.5t28 23.5l8 6v4q-33 -7 -90 -7h-133l17 86h344l-10 -66l-220 -245q-20 -23 -39 -40.5t-28 -23.5l-9 -6v-4q34 7 92 7h146l-15 -84h-359zM290 527h-63l-102 151h100l27 -39q7 -10 10.5 -19.5t3.5 -13.5l1 -4h4q6 14 29 37l40 39h105z" />
    <glyph glyph-name="Schwa" unicode="&#x18f;" horiz-adv-x="595" 
d="M314 507q-100 0 -134 -95l-97 28q55 161 243 161q110 0 172 -67.5t62 -182.5q0 -168 -85 -265.5t-205 -97.5q-110 0 -163.5 60.5t-53.5 150.5q0 67 25 120h370q7 80 -27.5 134t-106.5 54zM435 241h-270q-6 -24 -6 -48q0 -52 27.5 -85t81.5 -33q62 0 105.5 45t61.5 121z
" />
    <glyph glyph-name="florin" unicode="&#x192;" horiz-adv-x="431" 
d="M16 -121l79 275h-68l22 85h68l28 96q44 158 192 158q89 0 127 -57l-69 -78q-24 45 -68 45q-56 0 -77 -75l-27 -89h117l-21 -85h-119l-79 -275h-105z" />
    <glyph glyph-name="Khook" unicode="&#x198;" horiz-adv-x="541" 
d="M330 300l163 -300h-123l-133 253h-48l-44 -253h-109l103 589h109l-43 -245h41l84 142q36 60 69.5 87.5t84.5 27.5q72 0 100 -67l-63 -69q-15 31 -40 31q-16 0 -29 -12.5t-32 -43.5z" />
    <glyph glyph-name="khook" unicode="&#x199;" horiz-adv-x="481" 
d="M233 515l-39 -223h22l157 170h129l-202 -208l70 -142q14 -26 32.5 -31.5t50.5 4.5l-17 -81q-27 -9 -61 -9q-62 0 -90 59l-76 160h-29l-38 -214h-106l90 515q27 160 179 160q61 0 114 -27l-37 -87q-35 26 -74 26q-34 0 -51 -17t-24 -55z" />
    <glyph glyph-name="Ezh" unicode="&#x1b7;" horiz-adv-x="501" 
d="M273 496h-191l16 93h407l-12 -73l-236 -255l-1 -4q86 -5 128.5 -57t42.5 -126q0 -119 -75 -186.5t-182 -67.5q-100 0 -154.5 47t-54.5 135l89 36q0 -68 32.5 -102t89.5 -34q66 0 107.5 42t41.5 122q0 58 -43.5 94t-139.5 36l13 75l137 158q20 23 39 40.5t28 23.5l9 6v4
q-34 -7 -91 -7z" />
    <glyph glyph-name="Acaron" unicode="&#x1cd;" horiz-adv-x="605" 
d="M432 0l-27 148h-235l-77 -148h-115l317 589h137l111 -589h-111zM396 651h-66l-103 134h103l25 -32q7 -8 11 -16.5t5 -12.5l1 -4h3q-3 0 5.5 10t25.5 26t34 29h108zM274 348l-58 -111h173q-13 65 -22.5 132.5t-13 104.5t-2.5 37h-4q-24 -70 -73 -163z" />
    <glyph glyph-name="acaron" unicode="&#x1ce;" horiz-adv-x="543" 
d="M341 193l14 77q8 50 -10.5 86t-62.5 36q-62 0 -100 -59.5t-38 -146.5q0 -52 21.5 -84t62.5 -32q45 0 74 33t39 90zM495 462l-60 -340q-8 -43 27 -43q13 0 29 4l-15 -78q-32 -10 -61 -10q-88 0 -89 82q-35 -89 -136 -89q-71 0 -112.5 50t-41.5 139q0 123 62 209.5
t161 86.5q104 0 117 -89l26 78h93zM331 527h-63l-102 151h100l26 -39q7 -10 11 -19.5t5 -13.5v-4h4q6 14 29 37l40 39h105z" />
    <glyph glyph-name="Icaron" unicode="&#x1cf;" horiz-adv-x="261" 
d="M139 589h109l-103 -589h-109zM232 651h-65l-104 134h103l25 -32q7 -8 11 -16.5t5 -12.5l1 -4h3q6 14 28 33l37 32h108z" />
    <glyph glyph-name="icaron" unicode="&#x1d0;" horiz-adv-x="263" 
d="M202 527h-63l-102 151h99l27 -39q7 -10 11 -19.5t4 -13.5l1 -4h4q6 14 29 37l40 39h105zM215 462l-59 -340q-8 -43 27 -43q13 0 29 4l-16 -78q-30 -10 -60 -10q-108 0 -89 114l62 353h106z" />
    <glyph glyph-name="Ocaron" unicode="&#x1d1;" horiz-adv-x="627" 
d="M287 -12q-111 0 -172.5 65.5t-61.5 176.5q0 170 88 270.5t217 100.5q111 0 172.5 -66t61.5 -177q0 -170 -88 -270t-217 -100zM349 508q-85 0 -135 -78.5t-50 -192.5q0 -74 34.5 -116t97.5 -42q83 0 133.5 79t50.5 193q0 71 -33 114t-98 43zM403 651h-65l-104 134h103
l25 -32q7 -8 11 -16.5t5 -12.5l1 -4h3q6 14 28 33l37 32h108z" />
    <glyph glyph-name="ocaron" unicode="&#x1d2;" horiz-adv-x="509" 
d="M283 473q89 0 139.5 -53.5t50.5 -147.5q0 -120 -65 -202t-181 -82q-86 0 -138.5 51t-52.5 145q0 122 65 205.5t182 83.5zM273 388q-58 0 -93 -57.5t-35 -140.5q0 -59 24 -90t67 -31q59 0 93.5 58t34.5 143q0 57 -23.5 87.5t-67.5 30.5zM318 527h-63l-102 151h100l27 -39
q7 -10 10.5 -19.5t3.5 -13.5l1 -4h4q6 14 29 37l40 39h105z" />
    <glyph glyph-name="Ucaron" unicode="&#x1d3;" horiz-adv-x="596" 
d="M485 589h108l-69 -394q-20 -113 -86.5 -160t-173.5 -47q-50 0 -90 13t-70 39.5t-41 74t0 110.5l64 364h109l-65 -366q-25 -146 107 -146q63 0 96 33.5t45 107.5zM394 651h-65l-104 134h103l26 -32q6 -8 10 -16.5t5 -12.5l1 -4h3q6 14 28 33l37 32h108z" />
    <glyph glyph-name="ucaron" unicode="&#x1d4;" horiz-adv-x="530" 
d="M321 88q-21 -53 -57.5 -76.5t-91.5 -23.5q-73 0 -104 46t-17 129l52 299h106l-54 -309q-14 -87 57 -87q41 0 73.5 31.5t42.5 90.5l48 274h106l-59 -340q-8 -43 26 -43q14 0 30 4l-16 -78q-30 -10 -60 -10q-48 0 -67.5 23t-14.5 70zM328 527h-64l-102 151h100l27 -39
q7 -10 10.5 -19.5t4.5 -13.5v-4h5q5 14 28 37l41 39h104z" />
    <glyph glyph-name="uni004100A800AF" unicode="&#x1de;" horiz-adv-x="605" 
d="M432 0l-27 148h-235l-77 -148h-115l317 589h137l111 -589h-111zM530 783h-277l15 84h276zM206 686q0 29 18.5 46.5t45.5 17.5q29 0 47.5 -17.5t18.5 -46.5t-19 -47t-47 -18q-26 0 -45 18.5t-19 46.5zM410 685q0 29 18.5 47t45.5 18q28 0 46.5 -18t18.5 -47t-18.5 -46.5
t-46.5 -17.5q-27 0 -45.5 17.5t-18.5 46.5zM274 348l-58 -111h173q-13 65 -22.5 132.5t-13 104.5t-2.5 37h-4q-24 -70 -73 -163z" />
    <glyph glyph-name="adieresismacron" unicode="&#x1df;" horiz-adv-x="543" 
d="M341 193l14 77q8 50 -10.5 86t-62.5 36q-62 0 -100 -59.5t-38 -146.5q0 -52 21.5 -84t62.5 -32q45 0 74 33t39 90zM495 462l-60 -340q-8 -43 27 -43q13 0 29 4l-15 -78q-32 -10 -61 -10q-88 0 -89 82q-35 -89 -136 -89q-71 0 -112.5 50t-41.5 139q0 123 62 209.5
t161 86.5q104 0 117 -89l26 78h93zM469 682h-273l16 84h272zM146 573q0 29 18.5 46.5t45.5 17.5q28 0 46.5 -17.5t18.5 -46.5t-18.5 -47t-46.5 -18q-27 0 -45.5 18t-18.5 47zM349 572q0 29 19 47t45 18q28 0 46.5 -18t18.5 -47t-18.5 -46.5t-46.5 -17.5q-26 0 -45 18t-19 46
z" />
    <glyph glyph-name="AEmacron" unicode="&#x1e2;" horiz-adv-x="872" 
d="M409 0l25 148h-219l-115 -148h-122l460 589h447l-16 -93h-265l-27 -155h234l-16 -91h-234l-28 -157h265l-16 -93h-373zM779 671h-276l14 83h276zM499 513l-215 -276h166l28 159q7 42 13.5 71t8.5 37l3 9h-4z" />
    <glyph glyph-name="aemacron" unicode="&#x1e3;" horiz-adv-x="735" 
d="M493 69q73 0 95 71l98 -24q-23 -69 -71.5 -98.5t-128.5 -29.5q-108 0 -159 75q-42 -75 -160 -75q-65 0 -101.5 32t-36.5 88q0 80 71 121.5t204 41.5q5 26 17 54q3 67 -65 67q-72 0 -86 -73l-99 17q17 70 71 103.5t127 33.5q92 0 125 -52q61 52 138 52q88 0 132.5 -48
t44.5 -118q0 -55 -21 -98h-284q-7 -57 15.5 -98.5t73.5 -41.5zM562 552h-273l15 84h273zM413 271h186q5 14 5 37q0 37 -19 61t-58 24q-43 0 -73 -32.5t-41 -89.5zM294 184q0 16 1 25q-160 -5 -160 -89q0 -55 58 -55q34 0 64.5 16.5t43.5 42.5q-7 31 -7 60z" />
    <glyph glyph-name="Gstroke" unicode="&#x1e4;" horiz-adv-x="627" 
d="M329 322h241l-20 -115h57l-11 -66h-57l-25 -141h-73l-6 73q-42 -85 -154 -85q-107 0 -167.5 65.5t-60.5 176.5q0 170 88 270.5t217 100.5q177 0 209 -155l-110 -40q-15 102 -107 102q-86 0 -136 -78.5t-50 -192.5q0 -76 35.5 -119.5t104.5 -43.5q92 0 127 67h-134l11 66
h137l8 45h-135z" />
    <glyph glyph-name="gstroke" unicode="&#x1e5;" horiz-adv-x="518" 
d="M497 462l-83 -471l-8 -34h67l-6 -35h-72q-52 -133 -225 -133q-164 0 -194 120l85 47q5 -39 36 -63t77 -24q73 0 107 53h-136l6 35h147q1 3 12 41l15 81q-34 -86 -133 -86q-72 0 -113.5 50t-41.5 139q0 122 62 206.5t164 84.5t115 -89l27 78h92zM344 195l14 75
q8 50 -10.5 86t-64.5 36q-63 0 -101 -58t-38 -145q0 -52 21.5 -83.5t62.5 -31.5q47 0 76.5 31.5t39.5 89.5z" />
    <glyph glyph-name="Gcaron" unicode="&#x1e6;" horiz-adv-x="614" 
d="M327 307h240l-53 -307h-73l-6 73q-42 -85 -154 -85q-107 0 -167.5 65.5t-60.5 176.5q0 170 88 270.5t217 100.5q177 0 209 -155l-110 -40q-15 102 -107 102q-86 0 -136 -78.5t-50 -192.5q0 -75 35 -118t103 -43q120 0 140 114l5 28h-136zM401 651h-65l-104 134h103
l26 -32q6 -8 10 -16.5t5 -12.5l1 -4h3q6 14 28 33l37 32h108z" />
    <glyph glyph-name="gcaron" unicode="&#x1e7;" horiz-adv-x="518" 
d="M344 195l14 75q8 50 -10.5 86t-64.5 36q-63 0 -101 -58t-38 -145q0 -52 21.5 -83.5t62.5 -31.5q47 0 76.5 31.5t39.5 89.5zM497 462l-83 -471q-18 -103 -77 -152.5t-167 -49.5q-164 0 -194 120l85 47q5 -39 36 -63t77 -24q60 0 91.5 33t44.5 96l15 81q-34 -86 -133 -86
q-72 0 -113.5 50t-41.5 139q0 122 62 206.5t164 84.5t115 -89l27 78h92zM326 527h-63l-103 151h100l27 -39q7 -10 10.5 -19.5t4.5 -13.5v-4h5q5 14 28 37l41 39h104z" />
    <glyph glyph-name="Kcaron" unicode="&#x1e8;" horiz-adv-x="541" 
d="M493 0h-123l-133 253h-48l-44 -253h-109l103 589h109l-43 -245h41l203 245h128l-247 -289zM363 651h-66l-104 134h104l25 -32q7 -8 11 -16.5t5 -12.5v-4h4q5 14 27 33l37 32h109z" />
    <glyph glyph-name="kcaron" unicode="&#x1e9;" horiz-adv-x="481" 
d="M284 54l-76 160h-28l-38 -214h-106l117 668h107l-66 -376h22l157 170h129l-202 -208l70 -142q14 -26 32.5 -31.5t50.5 4.5l-17 -81q-27 -9 -61 -9q-63 0 -91 59zM242 699h-66l-104 134h104l25 -32q7 -9 11 -17t4 -12l1 -4h4q5 13 27 33l37 32h109z" />
    <glyph glyph-name="Oogonek" unicode="&#x1ea;" horiz-adv-x="627" 
d="M155 -113q0 65 54 111q-75 21 -115.5 82t-40.5 150q0 170 88 270.5t217 100.5q111 0 172.5 -66t61.5 -177q0 -165 -83 -264t-206 -105q-61 -28 -61 -86q0 -44 42 -44q38 0 62 35l29 -51q-37 -54 -111 -54q-50 0 -79.5 25.5t-29.5 72.5zM349 508q-85 0 -135 -78.5
t-50 -192.5q0 -74 34.5 -116t97.5 -42q83 0 133.5 79t50.5 193q0 71 -33 114t-98 43z" />
    <glyph glyph-name="oogonek" unicode="&#x1eb;" horiz-adv-x="508" 
d="M104 -113q0 64 54 111q-57 17 -89.5 65t-32.5 121q0 122 65 205.5t182 83.5q89 0 139.5 -53.5t50.5 -147.5q0 -113 -58 -193t-162 -89q-62 -30 -62 -87q0 -44 42 -44q38 0 62 35l29 -51q-37 -54 -111 -54q-50 0 -79.5 25.5t-29.5 72.5zM273 388q-58 0 -93 -57.5
t-35 -140.5q0 -59 24 -90t67 -31q59 0 93.5 58t34.5 143q0 57 -23.5 87.5t-67.5 30.5z" />
    <glyph glyph-name="uni004F02DB00AF" unicode="&#x1ec;" horiz-adv-x="627" 
d="M518 671h-277l15 83h276zM155 -113q0 65 54 111q-75 21 -115.5 82t-40.5 150q0 170 88 270.5t217 100.5q111 0 172.5 -66t61.5 -177q0 -165 -83 -264t-206 -105q-61 -28 -61 -86q0 -44 42 -44q38 0 62 35l29 -51q-37 -54 -111 -54q-50 0 -79.5 25.5t-29.5 72.5zM349 508
q-85 0 -135 -78.5t-50 -192.5q0 -74 34.5 -116t97.5 -42q83 0 133.5 79t50.5 193q0 71 -33 114t-98 43z" />
    <glyph glyph-name="oogonekmacron" unicode="&#x1ed;" horiz-adv-x="508" 
d="M430 552h-273l16 84h272zM104 -113q0 64 54 111q-57 17 -89.5 65t-32.5 121q0 122 65 205.5t182 83.5q89 0 139.5 -53.5t50.5 -147.5q0 -113 -58 -193t-162 -89q-62 -30 -62 -87q0 -44 42 -44q38 0 62 35l29 -51q-37 -54 -111 -54q-50 0 -79.5 25.5t-29.5 72.5zM273 388
q-58 0 -93 -57.5t-35 -140.5q0 -59 24 -90t67 -31q59 0 93.5 58t34.5 143q0 57 -23.5 87.5t-67.5 30.5z" />
    <glyph glyph-name="Ezhcaron" unicode="&#x1ee;" horiz-adv-x="501" 
d="M273 496h-191l16 93h407l-12 -73l-236 -255l-1 -4q86 -5 128.5 -57t42.5 -126q0 -119 -75 -186.5t-182 -67.5q-100 0 -154.5 47t-54.5 135l89 36q0 -68 32.5 -102t89.5 -34q66 0 107.5 42t41.5 122q0 58 -43.5 94t-139.5 36l13 75l137 158q20 23 39 40.5t28 23.5l9 6v4
q-34 -7 -91 -7zM339 651h-66l-104 134h104l25 -32q7 -8 11 -16.5t5 -12.5v-4h4q5 14 27 33l37 32h109z" />
    <glyph glyph-name="ezhcaron" unicode="&#x1ef;" horiz-adv-x="421" 
d="M116 217l79 86q20 21 39.5 39t29.5 26l9 8v4q-32 -4 -90 -4h-122l15 86h339l-12 -68l-194 -192v-3q71 -6 106 -50t35 -110q0 -91 -65.5 -142t-153.5 -51q-162 0 -169 140l91 31q-2 -44 22 -68.5t63 -24.5q49 0 79.5 29.5t30.5 80.5q0 49 -31.5 79t-112.5 38zM283 527h-63
l-103 151h100l27 -39q7 -10 10.5 -19.5t3.5 -13.5l1 -4h5q5 14 28 37l41 39h104z" />
    <glyph glyph-name="jcaron" unicode="&#x1f0;" horiz-adv-x="234" 
d="M202 527h-63l-103 151h100l27 -39q7 -10 10.5 -19.5t4.5 -13.5v-4h5q5 14 28 37l41 39h104zM215 462l-92 -528q-14 -80 -55.5 -112.5t-112.5 -32.5q-61 0 -101 27l32 79q32 -25 67 -25q26 0 41.5 16.5t23.5 59.5l91 516h106z" />
    <glyph glyph-name="jcaron" unicode="&#xe10c;" horiz-adv-x="234" 
d="M202 527h-63l-103 151h100l27 -39q7 -10 10.5 -19.5t4.5 -13.5v-4h5q5 14 28 37l41 39h104zM215 462l-92 -528q-14 -80 -55.5 -112.5t-112.5 -32.5q-61 0 -101 27l32 79q32 -25 67 -25q26 0 41.5 16.5t23.5 59.5l91 516h106z" />
    <glyph glyph-name="Gacute" unicode="&#x1f4;" horiz-adv-x="614" 
d="M327 307h240l-53 -307h-73l-6 73q-42 -85 -154 -85q-107 0 -167.5 65.5t-60.5 176.5q0 170 88 270.5t217 100.5q177 0 209 -155l-110 -40q-15 102 -107 102q-86 0 -136 -78.5t-50 -192.5q0 -75 35 -118t103 -43q120 0 140 114l5 28h-136zM415 651h-96l63 130h136z" />
    <glyph glyph-name="gacute" unicode="&#x1f5;" horiz-adv-x="518" 
d="M344 195l14 75q8 50 -10.5 86t-64.5 36q-63 0 -101 -58t-38 -145q0 -52 21.5 -83.5t62.5 -31.5q47 0 76.5 31.5t39.5 89.5zM497 462l-83 -471q-18 -103 -77 -152.5t-167 -49.5q-164 0 -194 120l85 47q5 -39 36 -63t77 -24q60 0 91.5 33t44.5 96l15 81q-34 -86 -133 -86
q-72 0 -113.5 50t-41.5 139q0 122 62 206.5t164 84.5t115 -89l27 78h92zM339 528h-94l73 148h136z" />
    <glyph glyph-name="Ngrave" unicode="&#x1f8;" horiz-adv-x="631" 
d="M244 589l148 -314q13 -26 23.5 -54.5t14.5 -44.5l5 -15h4q7 64 20 138l51 290h108l-103 -589h-102l-151 310q-13 27 -24.5 56.5t-16.5 45.5l-5 16h-4q-3 -62 -17 -141l-50 -287h-109l103 589h105zM431 651h-96l-104 130h136z" />
    <glyph glyph-name="ngrave" unicode="&#x1f9;" horiz-adv-x="533" 
d="M469 317l-33 -195q-8 -43 27 -43q13 0 29 4l-16 -78q-30 -10 -60 -10q-108 0 -89 114l34 192q15 84 -56 84q-39 0 -73 -32.5t-46 -102.5l-44 -250h-106l81 462h92l-3 -94q48 105 148 105q55 0 87 -30t32 -83q0 -18 -4 -43zM364 528h-94l-115 148h136z" />
    <glyph glyph-name="uni004102DA00B4" unicode="&#x1fa;" horiz-adv-x="605" 
d="M432 0l-27 148h-235l-77 -148h-115l317 589h137l111 -589h-111zM277 699q0 46 31.5 78.5t81.5 32.5q42 0 68 -26.5t26 -65.5q0 -47 -31 -79.5t-80 -32.5q-46 0 -71 26t-25 67zM450 831h-96l63 130h136zM274 348l-58 -111h173q-13 65 -22.5 132.5t-13 104.5t-2.5 37h-4
q-24 -70 -73 -163zM385 761q-23 0 -38 -16.5t-15 -40.5q0 -22 12 -35t34 -13q23 0 38 17t15 41q0 21 -12.5 34t-33.5 13z" />
    <glyph glyph-name="aringacute" unicode="&#x1fb;" horiz-adv-x="543" 
d="M341 193l14 77q8 50 -10.5 86t-62.5 36q-62 0 -100 -59.5t-38 -146.5q0 -52 21.5 -84t62.5 -32q45 0 74 33t39 90zM495 462l-60 -340q-8 -43 27 -43q13 0 29 4l-15 -78q-32 -10 -61 -10q-88 0 -89 82q-35 -89 -136 -89q-71 0 -112.5 50t-41.5 139q0 123 62 209.5
t161 86.5q104 0 117 -89l26 78h93zM210 591q0 46 31.5 78t81.5 32q42 0 68 -26.5t26 -65.5q0 -47 -31 -79t-80 -32q-46 0 -71 26t-25 67zM319 653q-23 0 -38.5 -17t-15.5 -40t12 -35.5t34 -12.5q23 0 38 17t15 40q0 22 -12 35t-33 13zM380 731h-96l64 129h136z" />
    <glyph glyph-name="AEacute" unicode="&#x1fc;" horiz-adv-x="872" 
d="M409 0l25 148h-219l-115 -148h-122l460 589h447l-16 -93h-265l-27 -155h234l-16 -91h-234l-28 -157h265l-16 -93h-373zM679 651h-96l63 130h136zM499 513l-215 -276h166l28 159q7 42 13.5 71t8.5 37l3 9h-4z" />
    <glyph glyph-name="aeacute" unicode="&#x1fd;" horiz-adv-x="735" 
d="M493 69q73 0 95 71l98 -24q-23 -69 -71.5 -98.5t-128.5 -29.5q-108 0 -159 75q-42 -75 -160 -75q-65 0 -101.5 32t-36.5 88q0 80 71 121.5t204 41.5q5 26 17 54q3 67 -65 67q-72 0 -86 -73l-99 17q17 70 71 103.5t127 33.5q92 0 125 -52q61 52 138 52q88 0 132.5 -48
t44.5 -118q0 -55 -21 -98h-284q-7 -57 15.5 -98.5t73.5 -41.5zM463 528h-93l72 148h137zM413 271h186q5 14 5 37q0 37 -19 61t-58 24q-43 0 -73 -32.5t-41 -89.5zM294 184q0 16 1 25q-160 -5 -160 -89q0 -55 58 -55q34 0 64.5 16.5t43.5 42.5q-7 31 -7 60z" />
    <glyph glyph-name="Oslashacute" unicode="&#x1fe;" horiz-adv-x="627" 
d="M66 -13l-44 40l63 66q-32 56 -32 137q0 170 88 270.5t217 100.5q100 0 162 -57l55 57l47 -41l-63 -64q33 -58 33 -138q0 -170 -88 -270t-217 -100q-101 0 -164 57zM480 351q0 31 -7 56l-276 -285q34 -43 99 -43q83 0 133.5 79t50.5 193zM426 651h-96l64 130h136zM349 508
q-85 0 -135 -78.5t-50 -192.5q0 -36 6 -56l275 285q-36 42 -96 42z" />
    <glyph glyph-name="oslashacute" unicode="&#x1ff;" horiz-adv-x="509" 
d="M283 473q88 0 137 -52l54 52l42 -44l-62 -59q19 -39 19 -98q0 -120 -65 -202t-181 -82q-79 0 -130 43l-48 -45l-42 41l53 51q-24 44 -24 106q0 122 65 205.5t182 83.5zM341 528h-94l73 148h136zM273 388q-55 0 -89 -50.5t-38 -125.5q0 -35 2 -51l197 189q-24 38 -72 38z
M236 69q55 0 88.5 51.5t37.5 126.5q2 18 0 37l-193 -185q24 -30 67 -30z" />
    <glyph glyph-name="Adoublegrave" unicode="&#x200;" horiz-adv-x="605" 
d="M432 0l-27 148h-235l-77 -148h-115l317 589h137l111 -589h-111zM331 651h-82l-115 130h125zM484 651h-76l-102 130h120zM274 348l-58 -111h173q-13 65 -22.5 132.5t-13 104.5t-2.5 37h-4q-24 -70 -73 -163z" />
    <glyph glyph-name="edoublegrave" unicode="&#x201;" horiz-adv-x="476" 
d="M234 69q40 0 62 17t33 54l99 -24q-23 -69 -72 -98.5t-131 -29.5q-89 0 -139 53.5t-50 144.5q0 133 70.5 210t166.5 77q88 0 132.5 -47.5t44.5 -118.5q0 -56 -20 -96h-288q-7 -59 17 -100.5t75 -41.5zM154 279h188q4 12 4 29q0 37 -19.5 61t-57.5 24q-44 0 -73.5 -32
t-41.5 -82zM396 528h-76l-102 148h120zM243 528h-82l-115 148h125z" />
    <glyph glyph-name="edoublegrave" unicode="&#x205;" horiz-adv-x="476" 
d="M234 69q40 0 62 17t33 54l99 -24q-23 -69 -72 -98.5t-131 -29.5q-89 0 -139 53.5t-50 144.5q0 133 70.5 210t166.5 77q88 0 132.5 -47.5t44.5 -118.5q0 -56 -20 -96h-288q-7 -59 17 -100.5t75 -41.5zM154 279h188q4 12 4 29q0 37 -19.5 61t-57.5 24q-44 0 -73.5 -32
t-41.5 -82zM396 528h-76l-102 148h120zM243 528h-82l-115 148h125z" />
    <glyph glyph-name="Ainvertedbreve" unicode="&#x202;" horiz-adv-x="605" 
d="M432 0l-27 148h-235l-77 -148h-115l317 589h137l111 -589h-111zM394 791q68 0 97.5 -37t17.5 -101h-80q4 31 -7 46.5t-42 15.5t-47 -15t-24 -47h-80q11 64 54 101t111 37zM274 348l-58 -111h173q-13 65 -22.5 132.5t-13 104.5t-2.5 37h-4q-24 -70 -73 -163z" />
    <glyph glyph-name="ainvertedbreve" unicode="&#x203;" horiz-adv-x="543" 
d="M341 193l14 77q8 50 -10.5 86t-62.5 36q-62 0 -100 -59.5t-38 -146.5q0 -52 21.5 -84t62.5 -32q45 0 74 33t39 90zM495 462l-60 -340q-8 -43 27 -43q13 0 29 4l-15 -78q-32 -10 -61 -10q-88 0 -89 82q-35 -89 -136 -89q-71 0 -112.5 50t-41.5 139q0 123 62 209.5
t161 86.5q104 0 117 -89l26 78h93zM325 677q68 0 97.5 -40.5t17.5 -106.5h-81q5 35 -4 52.5t-43 17.5q-33 0 -49 -17.5t-24 -52.5h-81q13 66 56 106.5t111 40.5z" />
    <glyph glyph-name="Edoublegrave" unicode="&#x204;" horiz-adv-x="500" 
d="M425 93l-15 -93h-374l103 589h374l-17 -93h-265l-27 -155h234l-16 -91h-234l-28 -157h265zM441 651h-76l-102 130h119zM288 651h-82l-116 130h126z" />
    <glyph glyph-name="Einvertedbreve" unicode="&#x206;" horiz-adv-x="500" 
d="M425 93l-15 -93h-374l103 589h374l-17 -93h-265l-27 -155h234l-16 -91h-234l-28 -157h265zM351 791q68 0 97.5 -37t17.5 -101h-81q4 32 -6.5 47t-42.5 15q-56 0 -71 -62h-80q12 64 54.5 101t111.5 37z" />
    <glyph glyph-name="einvertedbreve" unicode="&#x207;" horiz-adv-x="476" 
d="M234 69q40 0 62 17t33 54l99 -24q-23 -69 -72 -98.5t-131 -29.5q-89 0 -139 53.5t-50 144.5q0 133 70.5 210t166.5 77q88 0 132.5 -47.5t44.5 -118.5q0 -56 -20 -96h-288q-7 -59 17 -100.5t75 -41.5zM154 279h188q4 12 4 29q0 37 -19.5 61t-57.5 24q-44 0 -73.5 -32
t-41.5 -82zM299 677q68 0 97 -40.5t17 -106.5h-80q4 35 -5 52.5t-42 17.5q-34 0 -50 -17.5t-24 -52.5h-80q13 66 56 106.5t111 40.5z" />
    <glyph glyph-name="Idoublegrave" unicode="&#x208;" horiz-adv-x="261" 
d="M139 589h109l-103 -589h-109zM320 651h-76l-102 130h120zM168 651h-82l-116 130h125z" />
    <glyph glyph-name="idoublegrave" unicode="&#x209;" horiz-adv-x="263" 
d="M215 462l-59 -340q-8 -43 27 -43q13 0 29 4l-16 -78q-30 -10 -60 -10q-108 0 -89 114l62 353h106zM293 528h-77l-102 148h120zM140 528h-82l-116 148h125z" />
    <glyph glyph-name="Iinvertedbreve" unicode="&#x20a;" horiz-adv-x="261" 
d="M139 589h109l-103 -589h-109zM230 791q68 0 97.5 -37t17.5 -101h-80q4 31 -7 46.5t-42 15.5q-32 0 -48 -15t-23 -47h-81q12 65 54.5 101.5t111.5 36.5z" />
    <glyph glyph-name="iinvertedbreve" unicode="&#x20b;" horiz-adv-x="263" 
d="M215 462l-59 -340q-8 -43 27 -43q13 0 29 4l-16 -78q-30 -10 -60 -10q-108 0 -89 114l62 353h106zM196 677q68 0 97 -40.5t17 -106.5h-80q4 35 -5 52.5t-42 17.5q-34 0 -50 -17.5t-24 -52.5h-80q13 66 56 106.5t111 40.5z" />
    <glyph glyph-name="Odoublegrave" unicode="&#x20c;" horiz-adv-x="627" 
d="M287 -12q-111 0 -172.5 65.5t-61.5 176.5q0 170 88 270.5t217 100.5q111 0 172.5 -66t61.5 -177q0 -170 -88 -270t-217 -100zM349 508q-85 0 -135 -78.5t-50 -192.5q0 -74 34.5 -116t97.5 -42q83 0 133.5 79t50.5 193q0 71 -33 114t-98 43zM491 651h-76l-102 130h120z
M339 651h-82l-116 130h125z" />
    <glyph glyph-name="odoublegrave" unicode="&#x20d;" horiz-adv-x="509" 
d="M283 473q89 0 139.5 -53.5t50.5 -147.5q0 -120 -65 -202t-181 -82q-86 0 -138.5 51t-52.5 145q0 122 65 205.5t182 83.5zM273 388q-58 0 -93 -57.5t-35 -140.5q0 -59 24 -90t67 -31q59 0 93.5 58t34.5 143q0 57 -23.5 87.5t-67.5 30.5zM410 528h-77l-102 148h120z
M257 528h-82l-116 148h125z" />
    <glyph glyph-name="Oinvertedbreve" unicode="&#x20e;" horiz-adv-x="627" 
d="M287 -12q-111 0 -172.5 65.5t-61.5 176.5q0 170 88 270.5t217 100.5q111 0 172.5 -66t61.5 -177q0 -170 -88 -270t-217 -100zM349 508q-85 0 -135 -78.5t-50 -192.5q0 -74 34.5 -116t97.5 -42q83 0 133.5 79t50.5 193q0 71 -33 114t-98 43zM401 791q68 0 97.5 -37
t17.5 -101h-80q4 31 -7 46.5t-42 15.5q-32 0 -48 -15t-23 -47h-81q12 65 54.5 101.5t111.5 36.5z" />
    <glyph glyph-name="oinvertedbreve" unicode="&#x20f;" horiz-adv-x="509" 
d="M283 473q89 0 139.5 -53.5t50.5 -147.5q0 -120 -65 -202t-181 -82q-86 0 -138.5 51t-52.5 145q0 122 65 205.5t182 83.5zM273 388q-58 0 -93 -57.5t-35 -140.5q0 -59 24 -90t67 -31q59 0 93.5 58t34.5 143q0 57 -23.5 87.5t-67.5 30.5zM312 677q68 0 97.5 -40.5
t17.5 -106.5h-80q4 35 -5.5 52.5t-42.5 17.5t-49 -17.5t-24 -52.5h-80q12 66 55 106.5t111 40.5z" />
    <glyph glyph-name="Rinvertedbreve" unicode="&#x212;" horiz-adv-x="559" 
d="M500 0h-117q-16 15 -23 57l-16 97q-7 45 -26 60t-63 15h-70l-40 -229h-109l103 589h209q95 0 137 -36t42 -110q0 -81 -47.5 -124.5t-111.5 -48.5v-4q41 -6 60 -25.5t27 -64.5l20 -114q7 -37 25 -62zM232 499l-32 -182h99q54 0 85.5 26t31.5 82q0 74 -86 74h-98zM359 791
q68 0 97.5 -37t17.5 -101h-80q4 31 -7 46.5t-42 15.5t-47 -15t-24 -47h-80q11 64 54 101t111 37z" />
    <glyph glyph-name="rinvertedbreve" unicode="&#x213;" horiz-adv-x="360" 
d="M382 470l-26 -123q-55 18 -107 -7.5t-63 -90.5l-44 -249h-106l81 462h92l-6 -114q24 63 74 98.5t105 23.5zM275 677q68 0 97.5 -40.5t17.5 -106.5h-81q5 35 -4 52.5t-43 17.5q-33 0 -49 -17.5t-24 -52.5h-81q13 66 56 106.5t111 40.5z" />
    <glyph glyph-name="Udoublegrave" unicode="&#x214;" horiz-adv-x="596" 
d="M485 589h108l-69 -394q-20 -113 -86.5 -160t-173.5 -47q-50 0 -90 13t-70 39.5t-41 74t0 110.5l64 364h109l-65 -366q-25 -146 107 -146q63 0 96 33.5t45 107.5zM482 651h-76l-102 130h120zM329 651h-82l-115 130h125z" />
    <glyph glyph-name="udoublegrave" unicode="&#x215;" horiz-adv-x="530" 
d="M321 88q-21 -53 -57.5 -76.5t-91.5 -23.5q-73 0 -104 46t-17 129l52 299h106l-54 -309q-14 -87 57 -87q41 0 73.5 31.5t42.5 90.5l48 274h106l-59 -340q-8 -43 26 -43q14 0 30 4l-16 -78q-30 -10 -60 -10q-48 0 -67.5 23t-14.5 70zM419 528h-77l-101 148h119zM266 528
h-82l-116 148h125z" />
    <glyph glyph-name="Uinvertedbreve" unicode="&#x216;" horiz-adv-x="596" 
d="M485 589h108l-69 -394q-20 -113 -86.5 -160t-173.5 -47q-50 0 -90 13t-70 39.5t-41 74t0 110.5l64 364h109l-65 -366q-25 -146 107 -146q63 0 96 33.5t45 107.5zM392 791q68 0 97.5 -37t17.5 -101h-80q4 31 -7 46.5t-42 15.5q-32 0 -48 -15t-23 -47h-80q11 64 54 101
t111 37z" />
    <glyph glyph-name="uinvertedbreve" unicode="&#x217;" horiz-adv-x="530" 
d="M321 88q-21 -53 -57.5 -76.5t-91.5 -23.5q-73 0 -104 46t-17 129l52 299h106l-54 -309q-14 -87 57 -87q41 0 73.5 31.5t42.5 90.5l48 274h106l-59 -340q-8 -43 26 -43q14 0 30 4l-16 -78q-30 -10 -60 -10q-48 0 -67.5 23t-14.5 70zM321 677q68 0 97.5 -40.5t17.5 -106.5
h-80q4 35 -5.5 52.5t-42.5 17.5t-49 -17.5t-24 -52.5h-80q12 66 55 106.5t111 40.5z" />
    <glyph glyph-name="Scommaaccent" unicode="&#x218;" horiz-adv-x="499" 
d="M16 141l98 30q0 -50 28 -76.5t78 -26.5q105 0 105 87q0 37 -20.5 58t-74.5 41q-73 25 -108 62.5t-35 104.5q0 92 63.5 136t145.5 44q92 0 140 -37.5t50 -121.5l-105 -18q2 44 -22.5 68t-70.5 24q-44 0 -70.5 -22t-26.5 -60q0 -35 20.5 -51.5t78.5 -38.5q76 -29 110 -67
t34 -107q0 -93 -63.5 -137.5t-161.5 -44.5q-186 0 -193 153zM248 -138q0 -56 -39 -84t-103 -28v39q76 4 76 42q-27 -5 -45 8.5t-18 40.5q0 28 17 42.5t44 14.5q30 0 49 -19.5t19 -55.5z" />
    <glyph glyph-name="scommaaccent" unicode="&#x219;" horiz-adv-x="419" 
d="M12 121l90 26q1 -42 24 -64t61 -22q73 0 73 58q0 27 -16.5 44t-60.5 31q-58 19 -86 51t-28 84q0 70 48.5 107t125.5 37q156 0 156 -125l-93 -17q0 68 -71 68q-31 0 -49.5 -15t-18.5 -41q0 -22 16.5 -36.5t66.5 -33.5q63 -24 88 -56.5t25 -87.5q0 -71 -48.5 -106
t-132.5 -35q-78 0 -122.5 34t-47.5 99zM216 -138q0 -56 -39 -84t-103 -28v39q76 4 76 42q-28 -5 -45.5 8.5t-17.5 40.5q0 28 16.5 42.5t44.5 14.5q30 0 49 -19.5t19 -55.5z" />
    <glyph glyph-name="Hcaron" unicode="&#x21e;" horiz-adv-x="630" 
d="M145 0h-109l103 589h109l-43 -244h261l42 244h109l-103 -589h-109l44 253h-260zM417 651h-66l-103 134h103l25 -32q7 -8 11 -16.5t5 -12.5l1 -4h3q6 14 27 33l38 32h108z" />
    <glyph glyph-name="hcaron" unicode="&#x21f;" horiz-adv-x="533" 
d="M469 317l-33 -195q-8 -43 27 -43q13 0 29 4l-16 -78q-30 -10 -60 -10q-108 0 -89 114l34 192q15 84 -56 84q-39 0 -73 -32.5t-46 -102.5l-44 -250h-106l116 668h108l-54 -300q49 105 148 105q55 0 87 -30t32 -83q0 -18 -4 -43zM242 704h-66l-104 134h104l25 -32
q7 -9 11 -17t4 -12l1 -4h4q5 13 27 33l37 32h109z" />
    <glyph glyph-name="Adotabove" unicode="&#x226;" horiz-adv-x="605" 
d="M432 0l-27 148h-235l-77 -148h-115l317 589h137l111 -589h-111zM310 728q0 30 19 48t48 18q30 0 49.5 -18t19.5 -48q0 -29 -19.5 -47t-49.5 -18q-28 0 -47.5 18t-19.5 47zM274 348l-58 -111h173q-13 65 -22.5 132.5t-13 104.5t-2.5 37h-4q-24 -70 -73 -163z" />
    <glyph glyph-name="adotabove" unicode="&#x227;" horiz-adv-x="543" 
d="M341 193l14 77q8 50 -10.5 86t-62.5 36q-62 0 -100 -59.5t-38 -146.5q0 -52 21.5 -84t62.5 -32q45 0 74 33t39 90zM495 462l-60 -340q-8 -43 27 -43q13 0 29 4l-15 -78q-32 -10 -61 -10q-88 0 -89 82q-35 -89 -136 -89q-71 0 -112.5 50t-41.5 139q0 123 62 209.5
t161 86.5q104 0 117 -89l26 78h93zM244 605q0 30 19 48t48 18q31 0 50 -18t19 -48q0 -29 -19.5 -47t-49.5 -18q-28 0 -47.5 18t-19.5 47z" />
    <glyph glyph-name="Otildemacron" unicode="&#x22c;" horiz-adv-x="627" 
d="M287 -12q-111 0 -172.5 65.5t-61.5 176.5q0 170 88 270.5t217 100.5q111 0 172.5 -66t61.5 -177q0 -170 -88 -270t-217 -100zM349 508q-85 0 -135 -78.5t-50 -192.5q0 -74 34.5 -116t97.5 -42q83 0 133.5 79t50.5 193q0 71 -33 114t-98 43zM436 619q-36 0 -75 25t-55 25
t-27 -13t-12 -37h-61q-12 57 18 96t81 39q17 0 31.5 -4.5t20.5 -8.5t22 -14q38 -25 54 -25q32 0 35 50h65q11 -58 -16.5 -95.5t-80.5 -37.5zM534 781h-277l15 83h276z" />
    <glyph glyph-name="otildemacron" unicode="&#x22d;" horiz-adv-x="509" 
d="M283 473q89 0 139.5 -53.5t50.5 -147.5q0 -120 -65 -202t-181 -82q-86 0 -138.5 51t-52.5 145q0 122 65 205.5t182 83.5zM273 388q-58 0 -93 -57.5t-35 -140.5q0 -59 24 -90t67 -31q59 0 93.5 58t34.5 143q0 57 -23.5 87.5t-67.5 30.5zM363 496q-7 0 -13 0.5t-10.5 1
t-10.5 3t-8.5 3t-8.5 4t-7 4t-8 5.5t-8 5q-39 25 -55 25q-17 0 -27.5 -13t-11.5 -37h-61q-13 56 17.5 95t81.5 39q33 0 74 -26q37 -25 53 -25q32 0 36 50h64q12 -59 -15.5 -96.5t-81.5 -37.5zM455 664h-273l15 84h273z" />
    <glyph glyph-name="Odotabove" unicode="&#x22e;" horiz-adv-x="627" 
d="M287 -12q-111 0 -172.5 65.5t-61.5 176.5q0 170 88 270.5t217 100.5q111 0 172.5 -66t61.5 -177q0 -170 -88 -270t-217 -100zM349 508q-85 0 -135 -78.5t-50 -192.5q0 -74 34.5 -116t97.5 -42q83 0 133.5 79t50.5 193q0 71 -33 114t-98 43zM317 728q0 30 19 48t48 18
q31 0 50.5 -18t19.5 -48q0 -29 -20 -47t-50 -18q-28 0 -47.5 18t-19.5 47z" />
    <glyph glyph-name="odotabove" unicode="&#x22f;" horiz-adv-x="509" 
d="M283 473q89 0 139.5 -53.5t50.5 -147.5q0 -120 -65 -202t-181 -82q-86 0 -138.5 51t-52.5 145q0 122 65 205.5t182 83.5zM273 388q-58 0 -93 -57.5t-35 -140.5q0 -59 24 -90t67 -31q59 0 93.5 58t34.5 143q0 57 -23.5 87.5t-67.5 30.5zM266 605q0 30 19.5 48t47.5 18
q31 0 50.5 -18t19.5 -48q0 -29 -20 -47t-50 -18q-28 0 -47.5 18t-19.5 47z" />
    <glyph glyph-name="odotabovemacron" unicode="&#x231;" horiz-adv-x="509" 
d="M283 473q89 0 139.5 -53.5t50.5 -147.5q0 -120 -65 -202t-181 -82q-86 0 -138.5 51t-52.5 145q0 122 65 205.5t182 83.5zM273 388q-58 0 -93 -57.5t-35 -140.5q0 -59 24 -90t67 -31q59 0 93.5 58t34.5 143q0 57 -23.5 87.5t-67.5 30.5zM458 657h-273l15 84h273zM237 560
q0 30 19 48t48 18q31 0 50 -18t19 -48q0 -29 -19.5 -47t-49.5 -18q-28 0 -47.5 18t-19.5 47z" />
    <glyph glyph-name="odotabovemacron" unicode="&#xe11e;" horiz-adv-x="509" 
d="M283 473q89 0 139.5 -53.5t50.5 -147.5q0 -120 -65 -202t-181 -82q-86 0 -138.5 51t-52.5 145q0 122 65 205.5t182 83.5zM273 388q-58 0 -93 -57.5t-35 -140.5q0 -59 24 -90t67 -31q59 0 93.5 58t34.5 143q0 57 -23.5 87.5t-67.5 30.5zM458 657h-273l15 84h273zM237 560
q0 30 19 48t48 18q31 0 50 -18t19 -48q0 -29 -19.5 -47t-49.5 -18q-28 0 -47.5 18t-19.5 47z" />
    <glyph glyph-name="Ymacron" unicode="&#x232;" horiz-adv-x="518" 
d="M190 589l56 -171q10 -32 16 -62.5t7 -45.5l1 -15h4q16 52 61 122l111 172h115l-246 -375l-37 -214h-109l37 214l-129 375h113zM475 671h-276l14 83h276z" />
    <glyph glyph-name="ymacron" unicode="&#x233;" horiz-adv-x="444" 
d="M152 462l26 -250q4 -39 5.5 -74.5t0.5 -51.5l-1 -16h4q15 64 56 143l128 249h111l-277 -512q-51 -96 -98 -128.5t-110 -32.5q-48 0 -80 18l27 84q29 -18 58 -18q34 0 60.5 23t54.5 77l-75 489h110zM398 552h-272l15 84h273z" />
    <glyph glyph-name="dotlessj" unicode="&#x237;" horiz-adv-x="234" 
d="M215 462l-92 -528q-14 -80 -55.5 -112.5t-112.5 -32.5q-61 0 -101 27l32 79q32 -25 67 -25q26 0 41.5 16.5t23.5 59.5l91 516h106z" />
    <glyph glyph-name="schwa" unicode="&#x259;" horiz-adv-x="486" 
d="M252 392q-68 0 -98 -72l-95 25q51 128 202 128q89 0 139 -53t50 -143q0 -137 -70 -213t-167 -76q-88 0 -132.5 47.5t-44.5 118.5q0 56 20 96h285q6 59 -16 100.5t-73 41.5zM330 182h-186q-3 -14 -3 -29q0 -37 19 -61t58 -24q83 0 112 114z" />
    <glyph glyph-name="ezh" unicode="&#x292;" horiz-adv-x="421" 
d="M116 217l79 86q20 21 39.5 39t29.5 26l9 8v4q-32 -4 -90 -4h-122l15 86h339l-12 -68l-194 -192v-3q71 -6 106 -50t35 -110q0 -91 -65.5 -142t-153.5 -51q-162 0 -169 140l91 31q-2 -44 22 -68.5t63 -24.5q49 0 79.5 29.5t30.5 80.5q0 49 -31.5 79t-112.5 38z" />
    <glyph glyph-name="circumflex" unicode="&#x2c6;" horiz-adv-x="480" 
d="M235 678h63l102 -151h-100l-27 39q-7 10 -10.5 19t-4.5 13v4h-4q-6 -14 -29 -36l-40 -39h-105z" />
    <glyph glyph-name="caron" unicode="&#x2c7;" horiz-adv-x="480" 
d="M245 527h-63l-102 151h100l27 -39q7 -10 10.5 -19.5t4.5 -13.5v-4h4q6 14 29 37l40 39h105z" />
    <glyph glyph-name="breve" unicode="&#x2d8;" horiz-adv-x="445" 
d="M199 525q-68 0 -97.5 40t-17.5 106h80q-4 -35 5.5 -52.5t42.5 -17.5t49 17.5t24 52.5h80q-12 -66 -55 -106t-111 -40z" />
    <glyph glyph-name="dotaccent" unicode="&#x2d9;" horiz-adv-x="296" 
d="M80 605q0 30 19 48t48 18q31 0 50 -18t19 -48q0 -29 -19.5 -47t-49.5 -18q-28 0 -47.5 18t-19.5 47z" />
    <glyph glyph-name="ring" unicode="&#x2da;" horiz-adv-x="367" 
d="M80 609q0 46 31.5 78.5t81.5 32.5q42 0 68 -26.5t26 -65.5q0 -47 -31 -79.5t-80 -32.5q-46 0 -71 26t-25 67zM188 671q-23 0 -38 -16.5t-15 -40.5q0 -22 12 -35t34 -13q23 0 38 17t15 41q0 21 -12.5 34t-33.5 13z" />
    <glyph glyph-name="ogonek" unicode="&#x2db;" horiz-adv-x="380" 
d="M80 -113q0 71 60 116.5t125 46.5l31 -50q-55 0 -92 -27t-37 -70q0 -44 42 -44q38 0 62 35l29 -51q-37 -54 -111 -54q-50 0 -79.5 25.5t-29.5 72.5z" />
    <glyph glyph-name="tilde" unicode="&#x2dc;" horiz-adv-x="495" 
d="M313 526q-7 0 -13 0.5t-10.5 1t-10.5 3t-8.5 3t-8.5 4t-7 4t-8 5.5t-8 5q-39 25 -55 25q-17 0 -27.5 -13t-11.5 -37h-61q-13 56 17.5 95t81.5 39q33 0 74 -26q37 -25 53 -25q32 0 36 50h64q12 -59 -15.5 -96.5t-81.5 -37.5z" />
    <glyph glyph-name="hungarumlaut" unicode="&#x2dd;" horiz-adv-x="511" 
d="M156 528h-76l59 148h119zM315 528h-82l72 148h126z" />
    <glyph glyph-name="uni0312" unicode="&#x312;" horiz-adv-x="329" 
d="M80 725q0 56 39 84t103 28v-40q-76 -2 -76 -41q28 5 45.5 -8.5t17.5 -40.5q0 -28 -16.5 -42.5t-44.5 -14.5q-30 0 -49 19.5t-19 55.5z" />
    <glyph glyph-name="uni0320" unicode="&#x320;" horiz-adv-x="448" 
d="M353 -186h-273l15 84h273z" />
    <glyph glyph-name="uni0323" unicode="&#x323;" horiz-adv-x="296" 
d="M80 -122q0 30 19 48t48 18q30 0 49.5 -18t19.5 -48q0 -29 -19.5 -47t-49.5 -18q-28 0 -47.5 18t-19.5 47z" />
    <glyph glyph-name="uni0329" unicode="&#x329;" horiz-adv-x="258" 
d="M80 -203v153h98v-146z" />
    <glyph glyph-name="pi" unicode="&#x3c0;" horiz-adv-x="643" 
d="M204 481h431l-14 -81h-104l-53 -283q-10 -53 26 -53q17 0 28.5 11t26.5 37l50 -50q-41 -74 -132 -74q-61 0 -86 34.5t-14 98.5l54 279h-113l-118 -400h-105l121 400h-13q-79 0 -85 -83h-83q8 164 183 164z" />
    <glyph glyph-name="uni0E3F" unicode="&#xe3f;" horiz-adv-x="517" 
d="M369 248v-4q48 -3 74 -29.5t26 -68.5q0 -146 -202 -146h-22l-18 -106h-50l18 106h-165l84 481h166l17 93h50l-17 -93q153 0 153 -110q0 -109 -114 -123zM298 208h-16l-23 -129h10q99 0 99 72q0 57 -70 57zM185 277h59l22 126h-59zM173 208l-22 -129h58l23 129h-59z
M379 352q0 49 -63 51l-22 -126q39 0 62 19t23 56z" />
    <glyph glyph-name="Ddotbelow" unicode="&#x1e0c;" horiz-adv-x="606" 
d="M160 90h78q96 0 156.5 66t60.5 196q0 147 -157 147h-66zM234 0h-198l103 589h178q125 0 188 -58t63 -169q0 -77 -18.5 -138.5t-50 -102.5t-74.5 -69t-90.5 -40t-100.5 -12zM127 -137q0 30 19 48t48 18q30 0 49.5 -18t19.5 -48q0 -29 -19.5 -47t-49.5 -18q-28 0 -47.5 18
t-19.5 47z" />
    <glyph glyph-name="ddotbelow" unicode="&#x1e0d;" horiz-adv-x="543" 
d="M343 192l15 78q8 49 -11 85.5t-65 36.5q-62 0 -100.5 -59.5t-38.5 -147.5q0 -51 21.5 -83t62.5 -32q46 0 76 32t40 90zM533 668l-95 -546q-8 -43 27 -43q13 0 29 4l-16 -78q-30 -10 -60 -10q-88 0 -89 82q-32 -89 -139 -89q-71 0 -112.5 50t-41.5 139q0 123 62.5 209.5
t162.5 86.5q104 0 117 -89l50 284h105zM134 -137q0 30 19 48t48 18q30 0 49.5 -18t19.5 -48q0 -29 -19.5 -47t-49.5 -18q-28 0 -47.5 18t-19.5 47z" />
    <glyph glyph-name="Dcedilla" unicode="&#x1e10;" horiz-adv-x="606" 
d="M299 -122q0 -43 -31 -66t-79 -23q-64 0 -95 37l25 56q27 -36 62 -36q37 0 37 31q0 38 -58 42l31 81h-155l103 589h178q125 0 188 -58t63 -169q0 -96 -27.5 -167.5t-75 -112t-104.5 -60.5t-123 -22l-17 -39q41 -8 59.5 -27.5t18.5 -55.5zM160 90h78q96 0 156.5 66
t60.5 196q0 147 -157 147h-66z" />
    <glyph glyph-name="dcedilla" unicode="&#x1e11;" horiz-adv-x="543" 
d="M307 -122q0 -43 -31 -66t-79 -23q-66 0 -95 37l24 56q27 -36 62 -36q37 0 37 31q0 38 -58 42l27 69q-28 3 -29 3q-61 8 -95 57t-34 129q0 115 55 199t147 95q21 1 41 0q87 -6 99 -87l50 284h105l-95 -546q-8 -43 27 -43q13 0 29 4l-16 -78q-30 -10 -60 -10q-88 0 -89 82
q-23 -61 -85 -79l-16 -37q41 -8 60 -27.5t19 -55.5zM343 192l15 78q8 49 -11 85.5t-65 36.5q-62 0 -100.5 -59.5t-38.5 -147.5q0 -51 21.5 -83t62.5 -32q46 0 76 32t40 90z" />
    <glyph glyph-name="Hdotbelow" unicode="&#x1e24;" horiz-adv-x="630" 
d="M145 0h-109l103 589h109l-43 -244h261l42 244h109l-103 -589h-109l44 253h-260zM182 -137q0 30 19 48t48 18q30 0 49.5 -18t19.5 -48q0 -29 -19.5 -47t-49.5 -18q-28 0 -47.5 18t-19.5 47z" />
    <glyph glyph-name="hdotbelow" unicode="&#x1e25;" horiz-adv-x="533" 
d="M469 317l-33 -195q-8 -43 27 -43q13 0 29 4l-16 -78q-30 -10 -60 -10q-108 0 -89 114l34 192q15 84 -56 84q-39 0 -73 -32.5t-46 -102.5l-44 -250h-106l116 668h108l-54 -300q49 105 148 105q55 0 87 -30t32 -83q0 -18 -4 -43zM147 -137q0 30 19 48t48 18q30 0 49.5 -18
t19.5 -48q0 -29 -19.5 -47t-49.5 -18q-28 0 -47.5 18t-19.5 47z" />
    <glyph glyph-name="Ldotbelow" unicode="&#x1e36;" horiz-adv-x="464" 
d="M139 589h109l-88 -496h251l-16 -93h-359zM126 -137q0 30 19 48t48 18q31 0 50.5 -18t19.5 -48q0 -29 -20 -47t-50 -18q-28 0 -47.5 18t-19.5 47z" />
    <glyph glyph-name="ldotbelow" unicode="&#x1e37;" horiz-adv-x="262" 
d="M252 668l-96 -546q-8 -43 27 -43q13 0 29 4l-16 -78q-30 -10 -60 -10q-108 0 -89 114l99 559h106zM14 -137q0 30 19 48t48 18q31 0 50.5 -18t19.5 -48q0 -29 -20 -47t-50 -18q-28 0 -47.5 18t-19.5 47z" />
    <glyph glyph-name="uni004C032300AF" unicode="&#x1e38;" horiz-adv-x="464" 
d="M139 589h109l-88 -496h251l-16 -93h-359zM126 -137q0 30 19 48t48 18q31 0 50.5 -18t19.5 -48q0 -29 -20 -47t-50 -18q-28 0 -47.5 18t-19.5 47zM351 671h-276l14 83h277z" />
    <glyph glyph-name="ldotbelowmacron" unicode="&#x1e39;" horiz-adv-x="262" 
d="M252 668l-96 -546q-8 -43 27 -43q13 0 29 4l-16 -78q-30 -10 -60 -10q-108 0 -89 114l99 559h106zM14 -137q0 30 19 48t48 18q30 0 49.5 -18t19.5 -48q0 -29 -19.5 -47t-49.5 -18q-28 0 -47.5 18t-19.5 47zM348 713h-276l14 83h277z" />
    <glyph glyph-name="Mdotbelow" unicode="&#x1e42;" horiz-adv-x="710" 
d="M373 141h-62l-66 177q-10 26 -17 52t-9 40l-2 13h-4q-1 -38 -13 -107l-55 -316h-109l103 589h116l82 -239q8 -25 14 -47t7 -32l2 -10h4q10 32 49 87l168 241h116l-103 -589h-109l55 316q5 31 11 57.5t9 38.5l4 11h-4q-19 -43 -61 -102zM220 -137q0 30 19 48t48 18
q30 0 49.5 -18t19.5 -48q0 -29 -19.5 -47t-49.5 -18q-28 0 -47.5 18t-19.5 47z" />
    <glyph glyph-name="mdotbelow" unicode="&#x1e43;" horiz-adv-x="782" 
d="M403 0h-106l53 301q15 84 -54 84q-37 0 -67.5 -32.5t-42.5 -102.5l-44 -250h-106l81 462h92l-3 -94q24 54 56 79.5t85 25.5q52 0 83 -29t31 -82q22 56 57 83.5t90 27.5q52 0 83 -30t31 -83q0 -18 -4 -43l-33 -195q-8 -43 27 -43q13 0 29 4l-15 -78q-32 -10 -61 -10
q-109 0 -88 114l34 192q13 84 -55 84q-37 0 -67 -32.5t-43 -102.5zM255 -137q0 30 19 48t48 18q31 0 50.5 -18t19.5 -48q0 -29 -20 -47t-50 -18q-28 0 -47.5 18t-19.5 47z" />
    <glyph glyph-name="Ndotaccent" unicode="&#x1e44;" horiz-adv-x="631" 
d="M244 589l148 -314q13 -26 23.5 -54.5t14.5 -44.5l5 -15h4q7 64 20 138l51 290h108l-103 -589h-102l-151 310q-13 27 -24.5 56.5t-16.5 45.5l-5 16h-4q-3 -62 -17 -141l-50 -287h-109l103 589h105zM321 728q0 30 19 48t48 18q30 0 49.5 -18t19.5 -48q0 -29 -19.5 -47
t-49.5 -18q-28 0 -47.5 18t-19.5 47z" />
    <glyph glyph-name="ndotaccent" unicode="&#x1e45;" horiz-adv-x="533" 
d="M469 317l-33 -195q-8 -43 27 -43q13 0 29 4l-16 -78q-30 -10 -60 -10q-108 0 -89 114l34 192q15 84 -56 84q-39 0 -73 -32.5t-46 -102.5l-44 -250h-106l81 462h92l-3 -94q48 105 148 105q55 0 87 -30t32 -83q0 -18 -4 -43zM250 605q0 30 19.5 48t47.5 18q31 0 50.5 -18
t19.5 -48q0 -29 -20 -47t-50 -18q-28 0 -47.5 18t-19.5 47z" />
    <glyph glyph-name="Ndotbelow" unicode="&#x1e46;" horiz-adv-x="631" 
d="M244 589l148 -314q13 -26 23.5 -54.5t14.5 -44.5l5 -15h4q7 64 20 138l51 290h108l-103 -589h-102l-151 310q-13 27 -24.5 56.5t-16.5 45.5l-5 16h-4q-3 -62 -17 -141l-50 -287h-109l103 589h105zM172 -137q0 30 19 48t48 18q30 0 49.5 -18t19.5 -48q0 -29 -19.5 -47
t-49.5 -18q-28 0 -47.5 18t-19.5 47z" />
    <glyph glyph-name="ndotbelow" unicode="&#x1e47;" horiz-adv-x="533" 
d="M469 317l-33 -195q-8 -43 27 -43q13 0 29 4l-16 -78q-30 -10 -60 -10q-108 0 -89 114l34 192q15 84 -56 84q-39 0 -73 -32.5t-46 -102.5l-44 -250h-106l81 462h92l-3 -94q48 105 148 105q55 0 87 -30t32 -83q0 -18 -4 -43zM123 -137q0 30 19 48t48 18q30 0 49.5 -18
t19.5 -48q0 -29 -19.5 -47t-49.5 -18q-28 0 -47.5 18t-19.5 47z" />
    <glyph glyph-name="Rdotbelow" unicode="&#x1e5a;" horiz-adv-x="559" 
d="M500 0h-117q-16 15 -23 57l-16 97q-7 45 -26 60t-63 15h-70l-40 -229h-109l103 589h209q95 0 137 -36t42 -110q0 -81 -47.5 -124.5t-111.5 -48.5v-4q41 -6 60 -25.5t27 -64.5l20 -114q7 -37 25 -62zM232 499l-32 -182h99q54 0 85.5 26t31.5 82q0 74 -86 74h-98zM157 -137
q0 30 19 48t48 18q30 0 49.5 -18t19.5 -48q0 -29 -19.5 -47t-49.5 -18q-28 0 -47.5 18t-19.5 47z" />
    <glyph glyph-name="rdotbelow" unicode="&#x1e5b;" horiz-adv-x="360" 
d="M382 470l-26 -123q-55 18 -107 -7.5t-63 -90.5l-44 -249h-106l81 462h92l-6 -114q24 63 74 98.5t105 23.5zM3 -137q0 30 19 48t48 18q30 0 49.5 -18t19.5 -48q0 -29 -19.5 -47t-49.5 -18q-28 0 -47.5 18t-19.5 47z" />
    <glyph glyph-name="Rdotbelowmacron" unicode="&#x1e5c;" horiz-adv-x="559" 
d="M500 0h-117q-16 15 -23 57l-16 97q-7 45 -26 60t-63 15h-70l-40 -229h-109l103 589h209q95 0 137 -36t42 -110q0 -81 -47.5 -124.5t-111.5 -48.5v-4q41 -6 60 -25.5t27 -64.5l20 -114q7 -37 25 -62zM232 499l-32 -182h99q54 0 85.5 26t31.5 82q0 74 -86 74h-98zM157 -137
q0 30 19 48t48 18q30 0 49.5 -18t19.5 -48q0 -29 -19.5 -47t-49.5 -18q-28 0 -47.5 18t-19.5 47zM476 671h-276l14 83h276z" />
    <glyph glyph-name="rdotbelowmacron" unicode="&#x1e5d;" horiz-adv-x="360" 
d="M382 470l-26 -123q-55 18 -107 -7.5t-63 -90.5l-44 -249h-106l81 462h92l-6 -114q24 63 74 98.5t105 23.5zM393 552h-273l16 84h272zM3 -137q0 30 19 48t48 18q30 0 49.5 -18t19.5 -48q0 -29 -19.5 -47t-49.5 -18q-28 0 -47.5 18t-19.5 47z" />
    <glyph glyph-name="Sdotbelow" unicode="&#x1e62;" horiz-adv-x="499" 
d="M16 141l98 30q0 -50 28 -76.5t78 -26.5q105 0 105 87q0 37 -20.5 58t-74.5 41q-73 25 -108 62.5t-35 104.5q0 92 63.5 136t145.5 44q92 0 140 -37.5t50 -121.5l-105 -18q2 44 -22.5 68t-70.5 24q-44 0 -70.5 -22t-26.5 -60q0 -35 20.5 -51.5t78.5 -38.5q76 -29 110 -67
t34 -107q0 -93 -63.5 -137.5t-161.5 -44.5q-186 0 -193 153zM107 -137q0 30 19 48t48 18q30 0 49.5 -18t19.5 -48q0 -29 -19.5 -47t-49.5 -18q-28 0 -47.5 18t-19.5 47z" />
    <glyph glyph-name="sdotbelow" unicode="&#x1e63;" horiz-adv-x="419" 
d="M12 121l90 26q1 -42 24 -64t61 -22q73 0 73 58q0 27 -16.5 44t-60.5 31q-58 19 -86 51t-28 84q0 70 48.5 107t125.5 37q156 0 156 -125l-93 -17q0 68 -71 68q-31 0 -49.5 -15t-18.5 -41q0 -22 16.5 -36.5t66.5 -33.5q63 -24 88 -56.5t25 -87.5q0 -71 -48.5 -106
t-132.5 -35q-78 0 -122.5 34t-47.5 99zM74 -137q0 30 19 48t48 18q30 0 49.5 -18t19.5 -48q0 -29 -19.5 -47t-49.5 -18q-28 0 -47.5 18t-19.5 47z" />
    <glyph glyph-name="Tdotbelow" unicode="&#x1e6c;" horiz-adv-x="488" 
d="M256 0h-109l87 496h-168l16 93h446l-16 -93h-170zM110 -137q0 30 19 48t48 18q31 0 50.5 -18t19.5 -48q0 -29 -20 -47t-50 -18q-28 0 -47.5 18t-19.5 47z" />
    <glyph glyph-name="tdotbelow" unicode="&#x1e6d;" horiz-adv-x="330" 
d="M278 102v-89q-45 -25 -107 -25q-143 0 -116 155l42 237h-65l15 82h65l17 97l108 14l-19 -111h120l-14 -82h-120l-43 -240q-11 -61 39 -61q38 0 78 23zM55 -137q0 30 19 48t48 18q31 0 50.5 -18t19.5 -48q0 -29 -20 -47t-50 -18q-28 0 -47.5 18t-19.5 47z" />
    <glyph glyph-name="Wgrave" unicode="&#x1e80;" horiz-adv-x="844" 
d="M543 589l26 -354q3 -40 3.5 -80.5t-0.5 -60.5l-1 -21h4q18 73 53 161l139 355h113l-241 -589h-152l-27 328q-3 45 -3 80t2 56l2 21h-4q-14 -68 -52 -157l-138 -328h-149l-26 589h109l12 -353v-163h4q16 74 53 162l148 354h125zM537 651h-96l-103 130h136z" />
    <glyph glyph-name="wgrave" unicode="&#x1e81;" horiz-adv-x="686" 
d="M429 462l20 -225q4 -41 4.5 -81.5t-1.5 -60.5l-2 -20h4q14 68 53 161l96 226h111l-205 -462h-125l-23 201q-3 37 -3.5 73.5t0.5 55.5l2 18h-4q-16 -63 -53 -147l-85 -201h-125l-47 462h108l18 -225q4 -41 4.5 -81.5t-0.5 -60.5l-1 -20h4q14 70 54 163l98 224h98zM440 528
h-93l-116 148h137z" />
    <glyph glyph-name="Wacute" unicode="&#x1e82;" horiz-adv-x="844" 
d="M543 589l26 -354q3 -40 3.5 -80.5t-0.5 -60.5l-1 -21h4q18 73 53 161l139 355h113l-241 -589h-152l-27 328q-3 45 -3 80t2 56l2 21h-4q-14 -68 -52 -157l-138 -328h-149l-26 589h109l12 -353v-163h4q16 74 53 162l148 354h125zM526 651h-95l63 130h136z" />
    <glyph glyph-name="wacute" unicode="&#x1e83;" horiz-adv-x="686" 
d="M429 462l20 -225q4 -41 4.5 -81.5t-1.5 -60.5l-2 -20h4q14 68 53 161l96 226h111l-205 -462h-125l-23 201q-3 37 -3.5 73.5t0.5 55.5l2 18h-4q-16 -63 -53 -147l-85 -201h-125l-47 462h108l18 -225q4 -41 4.5 -81.5t-0.5 -60.5l-1 -20h4q14 70 54 163l98 224h98zM426 528
h-93l73 148h136z" />
    <glyph glyph-name="Wdieresis" unicode="&#x1e84;" horiz-adv-x="844" 
d="M543 589l26 -354q3 -40 3.5 -80.5t-0.5 -60.5l-1 -21h4q18 73 53 161l139 355h113l-241 -589h-152l-27 328q-3 45 -3 80t2 56l2 21h-4q-14 -68 -52 -157l-138 -328h-149l-26 589h109l12 -353v-163h4q16 74 53 162l148 354h125zM324 716q0 29 19 47t45 18q28 0 46.5 -18
t18.5 -47q0 -28 -18.5 -46t-46.5 -18q-26 0 -45 18t-19 46zM528 716q0 29 18.5 47t45.5 18q28 0 46.5 -18t18.5 -47t-18.5 -47t-46.5 -18q-27 0 -45.5 18t-18.5 47z" />
    <glyph glyph-name="wdieresis" unicode="&#x1e85;" horiz-adv-x="686" 
d="M429 462l20 -225q4 -41 4.5 -81.5t-1.5 -60.5l-2 -20h4q14 68 53 161l96 226h111l-205 -462h-125l-23 201q-3 37 -3.5 73.5t0.5 55.5l2 18h-4q-16 -63 -53 -147l-85 -201h-125l-47 462h108l18 -225q4 -41 4.5 -81.5t-0.5 -60.5l-1 -20h4q14 70 54 163l98 224h98zM229 595
q0 29 18.5 47t45.5 18q28 0 46.5 -18t18.5 -47q0 -28 -19 -46t-46 -18t-45.5 18t-18.5 46zM432 595q0 29 18.5 47t45.5 18q28 0 46.5 -18t18.5 -47t-18.5 -47t-46.5 -18q-27 0 -45.5 18t-18.5 47z" />
    <glyph glyph-name="Idotbelow" unicode="&#x1eca;" horiz-adv-x="261" 
d="M139 589h109l-103 -589h-109zM-3 -137q0 30 19 48t48 18q31 0 50.5 -18t19.5 -48q0 -29 -20 -47t-50 -18q-28 0 -47.5 18t-19.5 47z" />
    <glyph glyph-name="idotbelow" unicode="&#x1ecb;" horiz-adv-x="263" 
d="M215 462l-59 -340q-8 -43 27 -43q13 0 29 4l-16 -78q-30 -10 -60 -10q-108 0 -89 114l62 353h106zM117 608q0 30 19 48t48 18t49 -18t20 -48q0 -29 -20 -47.5t-49 -18.5q-28 0 -47.5 18.5t-19.5 47.5zM2 -137q0 30 19 48t48 18q30 0 49.5 -18t19.5 -48q0 -29 -19.5 -47
t-49.5 -18q-28 0 -47.5 18t-19.5 47z" />
    <glyph glyph-name="Odotbelow" unicode="&#x1ecc;" horiz-adv-x="627" 
d="M287 -12q-111 0 -172.5 65.5t-61.5 176.5q0 170 88 270.5t217 100.5q111 0 172.5 -66t61.5 -177q0 -170 -88 -270t-217 -100zM349 508q-85 0 -135 -78.5t-50 -192.5q0 -74 34.5 -116t97.5 -42q83 0 133.5 79t50.5 193q0 71 -33 114t-98 43zM168 -137q0 30 19 48t48 18
q31 0 50.5 -18t19.5 -48q0 -29 -20 -47t-50 -18q-28 0 -47.5 18t-19.5 47z" />
    <glyph glyph-name="odotbelow" unicode="&#x1ecd;" horiz-adv-x="509" 
d="M283 473q89 0 139.5 -53.5t50.5 -147.5q0 -120 -65 -202t-181 -82q-86 0 -138.5 51t-52.5 145q0 122 65 205.5t182 83.5zM273 388q-58 0 -93 -57.5t-35 -140.5q0 -59 24 -90t67 -31q59 0 93.5 58t34.5 143q0 57 -23.5 87.5t-67.5 30.5zM104 -137q0 30 19 48t48 18
q31 0 50.5 -18t19.5 -48q0 -29 -20 -47t-50 -18q-28 0 -47.5 18t-19.5 47z" />
    <glyph glyph-name="Udotbelow" unicode="&#x1ee4;" horiz-adv-x="596" 
d="M485 589h108l-69 -394q-20 -113 -86.5 -160t-173.5 -47q-50 0 -90 13t-70 39.5t-41 74t0 110.5l64 364h109l-65 -366q-25 -146 107 -146q63 0 96 33.5t45 107.5zM159 -137q0 30 19 48t48 18q31 0 50.5 -18t19.5 -48q0 -29 -20 -47t-50 -18q-28 0 -47.5 18t-19.5 47z" />
    <glyph glyph-name="udotbelow" unicode="&#x1ee5;" horiz-adv-x="530" 
d="M321 88q-21 -53 -57.5 -76.5t-91.5 -23.5q-73 0 -104 46t-17 129l52 299h106l-54 -309q-14 -87 57 -87q41 0 73.5 31.5t42.5 90.5l48 274h106l-59 -340q-8 -43 26 -43q14 0 30 4l-16 -78q-30 -10 -60 -10q-48 0 -67.5 23t-14.5 70zM113 -137q0 30 19 48t48 18
q31 0 50.5 -18t19.5 -48q0 -29 -20 -47t-50 -18q-28 0 -47.5 18t-19.5 47z" />
    <glyph glyph-name="Ygrave" unicode="&#x1ef2;" horiz-adv-x="518" 
d="M190 589l56 -171q10 -32 16 -62.5t7 -45.5l1 -15h4q16 52 61 122l111 172h115l-246 -375l-37 -214h-109l37 214l-129 375h113zM385 651h-96l-103 130h136z" />
    <glyph glyph-name="ygrave" unicode="&#x1ef3;" horiz-adv-x="444" 
d="M152 462l26 -250q4 -39 5.5 -74.5t0.5 -51.5l-1 -16h4q15 64 56 143l128 249h111l-277 -512q-51 -96 -98 -128.5t-110 -32.5q-48 0 -80 18l27 84q29 -18 58 -18q34 0 60.5 23t54.5 77l-75 489h110zM313 528h-93l-116 148h137z" />
    <glyph glyph-name="Ytilde" unicode="&#x1ef8;" horiz-adv-x="518" 
d="M190 589l56 -171q10 -32 16 -62.5t7 -45.5l1 -15h4q16 52 61 122l111 172h115l-246 -375l-37 -214h-109l37 214l-129 375h113zM397 652q-8 0 -14.5 0.5t-13 2.5t-10.5 3t-10.5 4t-8.5 4t-9 5.5t-9 5.5q-39 25 -55 25t-27 -13t-12 -37h-61q-12 57 18 96t81 39q34 0 74 -27
q39 -24 54 -24q32 0 35 50h65q11 -59 -16.5 -96.5t-80.5 -37.5z" />
    <glyph glyph-name="ytilde" unicode="&#x1ef9;" horiz-adv-x="444" 
d="M152 462l26 -250q4 -39 5.5 -74.5t0.5 -51.5l-1 -16h4q15 64 56 143l128 249h111l-277 -512q-51 -96 -98 -128.5t-110 -32.5q-48 0 -80 18l27 84q29 -18 58 -18q34 0 60.5 23t54.5 77l-75 489h110zM333 526q-18 0 -33 4.5t-20 7.5t-22 14q-39 25 -55 25t-27 -13t-12 -37
h-61q-12 56 18 95t81 39q35 0 74 -26q38 -25 54 -25q32 0 35 50h65q11 -59 -16.5 -96.5t-80.5 -37.5z" />
    <glyph glyph-name="enspace" unicode="&#x2002;" horiz-adv-x="450" 
 />
    <glyph glyph-name="emspace" unicode="&#x2003;" horiz-adv-x="900" 
 />
    <glyph glyph-name="threeperemspace" unicode="&#x2004;" horiz-adv-x="300" 
 />
    <glyph glyph-name="fourperemspace" unicode="&#x2005;" horiz-adv-x="225" 
 />
    <glyph glyph-name="sixperemspace" unicode="&#x2006;" horiz-adv-x="150" 
 />
    <glyph glyph-name="figurespace" unicode="&#x2007;" horiz-adv-x="513" 
 />
    <glyph glyph-name="punctuationspace" unicode="&#x2008;" horiz-adv-x="171" 
 />
    <glyph glyph-name="thinspace" unicode="&#x2009;" horiz-adv-x="90" 
 />
    <glyph glyph-name="hairspace" unicode="&#x200a;" horiz-adv-x="45" 
 />
    <glyph glyph-name="zerowidthspace" unicode="&#x200b;" horiz-adv-x="0" 
 />
    <glyph glyph-name="figuredash" unicode="&#x2012;" 
d="M66 217l13 72h425l-13 -72h-425z" />
    <glyph glyph-name="endash" unicode="&#x2013;" horiz-adv-x="513" 
d="M66 217l13 72h368l-13 -72h-368z" />
    <glyph glyph-name="emdash" unicode="&#x2014;" horiz-adv-x="1013" 
d="M66 217l13 72h868l-13 -72h-868z" />
    <glyph glyph-name="uni2015" unicode="&#x2015;" horiz-adv-x="1250" 
d="M70 217l13 72h1097l-13 -72h-1097z" />
    <glyph glyph-name="doublebar" unicode="&#x2016;" horiz-adv-x="413" 
d="M88 -203h-87l153 872h87zM262 -203h-87l153 872h87z" />
    <glyph glyph-name="quoteleft" unicode="&#x2018;" horiz-adv-x="234" 
d="M93 524q0 75 52 113.5t132 41.5v-47q-45 -4 -78 -24t-33 -52q33 5 55.5 -11.5t22.5 -48.5t-20 -49.5t-52 -17.5q-35 0 -57 26t-22 69z" />
    <glyph glyph-name="quoteright" unicode="&#x2019;" horiz-adv-x="234" 
d="M254 584q0 -75 -52 -114t-132 -41v47q45 4 78 24t33 52q-33 -6 -55.5 11t-22.5 49t20 49.5t53 17.5q35 0 56.5 -26t21.5 -69z" />
    <glyph glyph-name="quotesinglbase" unicode="&#x201a;" horiz-adv-x="234" 
d="M164 33q0 -76 -52 -114.5t-132 -40.5v47q45 4 78 24t33 52q-33 -6 -55.5 10.5t-22.5 49.5q0 31 20.5 49t52.5 18q35 0 56.5 -26t21.5 -69z" />
    <glyph glyph-name="reversequoteleft" unicode="&#x201b;" horiz-adv-x="201" 
d="M77 587q0 43 22 69t57 26q32 0 52 -18t20 -50t-22.5 -48.5t-55.5 -10.5q0 -32 33 -52.5t78 -24.5v-47q-80 3 -132 41.5t-52 114.5z" />
    <glyph glyph-name="quotedblleft" unicode="&#x201c;" horiz-adv-x="435" 
d="M93 524q0 75 52 113.5t132 41.5v-47q-45 -4 -78 -24t-33 -52q33 5 55.5 -11.5t22.5 -48.5t-20 -49.5t-52 -17.5q-35 0 -57 26t-22 69zM294 524q0 75 52 113.5t132 41.5v-47q-45 -4 -78 -24t-33 -52q33 5 55.5 -11.5t22.5 -48.5t-20 -49.5t-52 -17.5q-35 0 -57 26t-22 69z
" />
    <glyph glyph-name="quotedblright" unicode="&#x201d;" horiz-adv-x="435" 
d="M254 584q0 -75 -52 -114t-132 -41v47q45 4 78 24t33 52q-33 -6 -55.5 11t-22.5 49t20 49.5t53 17.5q35 0 56.5 -26t21.5 -69zM455 584q0 -75 -52 -114t-132 -41v47q45 4 78 24t33 52q-33 -6 -55.5 11t-22.5 49t20 49.5t53 17.5q35 0 56.5 -26t21.5 -69z" />
    <glyph glyph-name="quotedblbase" unicode="&#x201e;" horiz-adv-x="435" 
d="M164 35q0 -75 -52 -114t-132 -41v47q45 4 78 24t33 52q-33 -6 -55.5 11t-22.5 49t20 49.5t53 17.5q35 0 56.5 -26t21.5 -69zM365 35q0 -75 -52 -114t-132 -41v47q45 4 78 24t33 52q-33 -6 -55.5 11t-22.5 49t20 49.5t53 17.5q35 0 56.5 -26t21.5 -69z" />
    <glyph glyph-name="reversequotedblleft" unicode="&#x201f;" horiz-adv-x="377" 
d="M77 587q0 43 22 69t57 26q32 0 52 -17.5t20 -49.5t-22.5 -48.5t-55.5 -11.5q0 -32 33 -52t78 -24v-47q-80 3 -132 41.5t-52 113.5zM253 587q0 43 22 69t57 26q32 0 52 -17.5t20 -49.5t-22.5 -48.5t-55.5 -11.5q0 -32 33 -52t79 -24v-47q-81 3 -133 41.5t-52 113.5z" />
    <glyph glyph-name="dagger" unicode="&#x2020;" horiz-adv-x="549" 
d="M279 277l-187 -11l18 100l183 -10l31 233h107l-51 -233l187 10l-18 -100l-182 11l-65 -426h-108z" />
    <glyph glyph-name="daggerdbl" unicode="&#x2021;" horiz-adv-x="549" 
d="M371 303l-29 -159l187 11l-17 -99l-182 11l-28 -217h-108l49 217l-188 -11l17 99l184 -11l28 159l-187 -11l17 99l184 -11l26 209h108l-48 -209l187 11l-18 -99z" />
    <glyph glyph-name="bullet" unicode="&#x2022;" horiz-adv-x="336" 
d="M67 248q0 40 28.5 68.5t67.5 28.5q40 0 69 -28.5t29 -68.5t-29 -68.5t-69 -28.5q-39 0 -67.5 28.5t-28.5 68.5z" />
    <glyph glyph-name="ellipsis" unicode="&#x2026;" horiz-adv-x="864" 
d="M42 68q0 31 21 52.5t52 21.5q32 0 53.5 -21t21.5 -53q0 -31 -21.5 -52.5t-53.5 -21.5q-31 0 -52 21.5t-21 52.5zM330 68q0 31 21 52.5t52 21.5q32 0 53.5 -21t21.5 -53q0 -31 -21.5 -52.5t-53.5 -21.5q-31 0 -52 21.5t-21 52.5zM618 68q0 31 21 52.5t52 21.5
q32 0 53.5 -21t21.5 -53q0 -31 -21.5 -52.5t-53.5 -21.5q-31 0 -52 21.5t-21 52.5z" />
    <glyph glyph-name="perthousand" unicode="&#x2030;" horiz-adv-x="1234" 
d="M168 229q-62 0 -93.5 39.5t-31.5 107.5q0 87 45 154t124 67q60 0 93 -41t33 -110q0 -88 -45 -152.5t-125 -64.5zM205 527q-42 0 -62 -49.5t-20 -100.5q2 -82 54 -82q29 0 48.5 29t26.5 61t7 61q0 81 -54 81zM197 0l409 590h72l-409 -590h-72zM660 -7q-62 0 -93.5 39.5
t-31.5 107.5q0 87 45 154t124 67q60 0 93 -41t33 -110q0 -88 -45 -152.5t-125 -64.5zM697 291q-42 0 -62 -49.5t-20 -100.5q2 -82 54 -82q29 0 48.5 29t26.5 61t7 61q0 81 -54 81zM1020 -7q-62 0 -93.5 39.5t-31.5 107.5q0 87 45 154t124 67q60 0 93 -41t33 -110
q0 -88 -45 -152.5t-125 -64.5zM1057 291q-42 0 -62 -49.5t-20 -100.5q2 -82 54 -82q29 0 48.5 29t26.5 61t7 61q0 81 -54 81z" />
    <glyph glyph-name="tripleprime" unicode="&#x2034;" horiz-adv-x="505" 
d="M77 412l45 256h109l-90 -256h-64zM234 412l45 256h109l-90 -256h-64zM392 412l45 256h109l-90 -256h-64z" />
    <glyph glyph-name="guilsinglleft" unicode="&#x2039;" horiz-adv-x="332" 
d="M122 235v-4q13 -6 42 -46l81 -112l-65 -51l-152 213l227 212l49 -53l-118 -113q-16 -16 -32 -27.5t-24 -15.5z" />
    <glyph glyph-name="guilsinglright" unicode="&#x203a;" horiz-adv-x="332" 
d="M210 235v4q-13 5 -42 45l-82 112l65 51l153 -212l-228 -213l-48 53l118 113q16 16 32 27.5t24 15.5z" />
    <glyph glyph-name="fraction" unicode="&#x2044;" horiz-adv-x="149" 
d="M-166 0l409 590h72l-409 -590h-72z" />
    <glyph glyph-name="uni2070" unicode="&#x2070;" horiz-adv-x="363" 
d="M159 229q-62 0 -93.5 39.5t-31.5 107.5q0 87 45 154t124 67q60 0 93 -41t33 -110q0 -88 -45 -152.5t-125 -64.5zM196 527q-42 0 -62 -49.5t-20 -100.5q2 -82 54 -82q29 0 48.5 29t26.5 61t7 61q0 81 -54 81z" />
    <glyph glyph-name="uni2074" unicode="&#x2074;" horiz-adv-x="360" 
d="M171 236l14 81h-177l11 58l213 214h82l-37 -213h55l-11 -59h-55l-14 -81h-81zM198 375l14 78l17 71h-4q-15 -26 -44 -57l-46 -46q-13 -13 -27 -24.5t-22 -16.5l-7 -6l-1 -4q18 5 57 5h63z" />
    <glyph glyph-name="uni2075" unicode="&#x2075;" horiz-adv-x="332" 
d="M53 389l44 200h217l-12 -66h-154l-20 -87q22 27 66 27q45 0 71 -27.5t26 -74.5q0 -65 -41 -98.5t-107 -33.5q-118 0 -129 88l75 25q3 -54 58 -54q65 0 65 69q0 25 -12.5 39t-32.5 14q-28 0 -47 -21h-67z" />
    <glyph glyph-name="uni2076" unicode="&#x2076;" horiz-adv-x="349" 
d="M333 532l-65 -38q-9 38 -52 38q-38 0 -68 -36.5t-38 -98.5h4q26 64 97 64q46 0 71.5 -28t25.5 -68q0 -62 -41 -99t-108 -37q-60 0 -92.5 35t-32.5 100q0 106 57 169.5t134 63.5q86 0 108 -65zM119 335q0 -20 12.5 -33.5t34.5 -13.5q28 0 48 18.5t20 52.5q0 20 -12.5 33
t-35.5 13q-28 0 -47.5 -19t-19.5 -51z" />
    <glyph glyph-name="uni2077" unicode="&#x2077;" horiz-adv-x="310" 
d="M217 521h-118l-10 -53h-69l21 121h282l-8 -50l-192 -303h-91z" />
    <glyph glyph-name="uni2078" unicode="&#x2078;" horiz-adv-x="347" 
d="M152 229q-64 0 -96.5 24.5t-32.5 66.5q0 39 26.5 65.5t67.5 32.5v3q-57 20 -57 72q0 50 41 77t102 27q58 0 89.5 -24t31.5 -63q0 -75 -82 -92v-3q63 -19 63 -79q0 -49 -43.5 -78t-109.5 -29zM196 541q-26 0 -43 -14.5t-17 -39.5q0 -18 12.5 -29t33.5 -11q26 0 44.5 13.5
t18.5 40.5q0 17 -12.5 28.5t-36.5 11.5zM174 389q-29 0 -49 -15.5t-20 -42.5q0 -47 53 -47q29 0 48.5 15.5t19.5 44.5q0 21 -13.5 33t-38.5 12z" />
    <glyph glyph-name="uni2079" unicode="&#x2079;" horiz-adv-x="347" 
d="M5 294l65 36q9 -37 61 -37q41 0 69.5 34t34.5 103h-4q-22 -65 -91 -65q-49 0 -75.5 28t-26.5 70q0 61 40.5 97.5t106.5 36.5q60 0 94 -36.5t34 -101.5q0 -108 -51.5 -169t-135.5 -61q-99 0 -121 65zM226 491q0 20 -12.5 33t-35.5 13q-28 0 -47.5 -18t-19.5 -50
q0 -21 12 -34t35 -13q28 0 48 19t20 50z" />
    <glyph glyph-name="uni207A" unicode="&#x207a;" horiz-adv-x="444" 
d="M49 445h150l25 145h52l-25 -145h153l-10 -52h-153l-27 -157h-53l28 157h-149z" />
    <glyph glyph-name="uni207B" unicode="&#x207b;" horiz-adv-x="444" 
d="M395 392h-355l9 53h355z" />
    <glyph glyph-name="uni207C" unicode="&#x207c;" horiz-adv-x="466" 
d="M395 335h-355l9 52h355zM417 460h-355l9 52h355z" />
    <glyph glyph-name="uni207D" unicode="&#x207d;" horiz-adv-x="233" 
d="M169 636h64q-134 -136 -134 -286q0 -80 54 -168h-62q-51 82 -51 168q0 163 129 286z" />
    <glyph glyph-name="uni207E" unicode="&#x207e;" horiz-adv-x="233" 
d="M64 182h-64q134 136 134 286q0 79 -53 168h61q51 -79 51 -168q0 -163 -129 -286z" />
    <glyph glyph-name="n.superior" unicode="&#x207f;" horiz-adv-x="402" 
d="M357 495l-24 -125q-6 -25 17 -25q11 0 26 3l-13 -57q-21 -7 -47 -7q-85 0 -69 78l24 123q10 52 -39 52q-67 0 -85 -86l-32 -164h-85l61 306h74l-2 -58q32 66 107 66q42 0 66 -20.5t24 -56.5q0 -12 -3 -29z" />
    <glyph glyph-name="uni2080" unicode="&#x2080;" horiz-adv-x="363" 
d="M159 -7q-62 0 -93.5 39.5t-31.5 107.5q0 87 45 154t124 67q60 0 93 -41t33 -110q0 -88 -45 -152.5t-125 -64.5zM196 291q-42 0 -62 -49.5t-20 -100.5q2 -82 54 -82q29 0 48.5 29t26.5 61t7 61q0 81 -54 81z" />
    <glyph glyph-name="uni2081" unicode="&#x2081;" horiz-adv-x="300" 
d="M266 0h-264l11 62h96l38 215l-106 -9l12 64l189 22l-52 -292h87z" />
    <glyph glyph-name="uni2082" unicode="&#x2082;" horiz-adv-x="324" 
d="M279 64l-11 -64h-270l10 56q106 60 157 103t51 84q0 51 -51 51q-54 0 -67 -68l-64 27q9 48 45.5 78t95.5 30q57 0 90 -27.5t33 -78.5q0 -112 -195 -187v-4h176z" />
    <glyph glyph-name="uni2083" unicode="&#x2083;" horiz-adv-x="313" 
d="M190 183v-3q82 -10 82 -82q0 -51 -41 -78t-104 -27q-58 0 -89.5 25.5t-34.5 67.5l70 21q5 -56 54 -56q27 0 44.5 12.5t17.5 35.5q0 25 -19 39t-71 15l9 50q99 4 99 56q0 18 -11.5 28t-31.5 10q-44 0 -56 -47l-63 25q29 86 129 86q52 0 84 -22.5t32 -66.5q0 -37 -26 -60.5
t-74 -28.5z" />
    <glyph glyph-name="uni2084" unicode="&#x2084;" horiz-adv-x="360" 
d="M171 0l14 81h-177l11 58l213 214h82l-37 -213h55l-11 -59h-55l-14 -81h-81zM198 139l14 78l17 71h-4q-15 -26 -44 -57l-46 -46q-13 -13 -27 -24.5t-22 -16.5l-7 -6l-1 -4q18 5 57 5h63z" />
    <glyph glyph-name="uni2085" unicode="&#x2085;" horiz-adv-x="332" 
d="M53 153l44 200h217l-12 -66h-154l-20 -87q22 27 66 27q45 0 71 -27.5t26 -74.5q0 -65 -41 -98.5t-107 -33.5q-118 0 -129 88l75 25q3 -54 58 -54q65 0 65 69q0 25 -12.5 39t-32.5 14q-28 0 -47 -21h-67z" />
    <glyph glyph-name="uni2086" unicode="&#x2086;" horiz-adv-x="349" 
d="M333 296l-65 -38q-9 38 -52 38q-39 0 -68 -36t-40 -102h4q27 67 99 67q46 0 71.5 -28t25.5 -68q0 -62 -41 -99t-108 -37q-60 0 -92.5 35t-32.5 98q0 107 57 171t134 64q86 0 108 -65zM117 99q0 -21 12.5 -34t36.5 -13q29 0 49.5 18.5t20.5 52.5q0 20 -12.5 33t-36.5 13
q-28 0 -49 -19t-21 -51z" />
    <glyph glyph-name="uni2087" unicode="&#x2087;" horiz-adv-x="314" 
d="M219 285h-118l-10 -53h-69l21 121h282l-8 -50l-192 -303h-91z" />
    <glyph glyph-name="uni2088" unicode="&#x2088;" horiz-adv-x="347" 
d="M152 -7q-64 0 -96.5 24.5t-32.5 66.5q0 39 26.5 65.5t67.5 32.5v3q-57 20 -57 72q0 50 41 77t102 27q58 0 89.5 -24t31.5 -63q0 -75 -82 -92v-3q63 -20 63 -79q0 -49 -43.5 -78t-109.5 -29zM196 305q-26 0 -43 -14.5t-17 -39.5q0 -18 12.5 -29t33.5 -11q26 0 44.5 13.5
t18.5 40.5q0 17 -12.5 28.5t-36.5 11.5zM174 153q-29 0 -49 -15.5t-20 -42.5q0 -47 53 -47q29 0 48.5 15.5t19.5 44.5q0 21 -13.5 33t-38.5 12z" />
    <glyph glyph-name="uni2089" unicode="&#x2089;" horiz-adv-x="347" 
d="M5 58l65 36q9 -38 61 -38q41 0 69.5 34t36.5 105h-4q-23 -66 -93 -66q-49 0 -75.5 28t-26.5 70q0 61 40.5 97.5t106.5 36.5q60 0 94 -36.5t34 -101.5q0 -108 -51.5 -169t-135.5 -61q-99 0 -121 65zM228 256q0 20 -13 33.5t-37 13.5q-28 0 -48 -18.5t-20 -52.5
q0 -21 12.5 -34t36.5 -13q28 0 48.5 19.5t20.5 51.5z" />
    <glyph glyph-name="uni208A" unicode="&#x208a;" horiz-adv-x="444" 
d="M49 209h150l25 145h52l-25 -145h153l-10 -52h-153l-27 -157h-53l28 157h-149z" />
    <glyph glyph-name="uni208B" unicode="&#x208b;" horiz-adv-x="444" 
d="M395 156h-355l9 53h355z" />
    <glyph glyph-name="uni208C" unicode="&#x208c;" horiz-adv-x="466" 
d="M395 99h-355l9 52h355zM417 224h-355l9 52h355z" />
    <glyph glyph-name="uni208D" unicode="&#x208d;" horiz-adv-x="233" 
d="M169 400h64q-134 -136 -134 -286q0 -80 54 -168h-62q-51 82 -51 168q0 163 129 286z" />
    <glyph glyph-name="uni208E" unicode="&#x208e;" horiz-adv-x="233" 
d="M64 -54h-64q134 136 134 286q0 79 -53 168h61q51 -79 51 -168q0 -163 -129 -286z" />
    <glyph glyph-name="uni20A1" unicode="&#x20a1;" horiz-adv-x="502" 
d="M200 -93l28 82q-26 2 -43 7l-27 -79l-48 17l28 80q-92 52 -92 179t68 210.5t191 89.5l29 83l47 -17l-24 -70q23 -3 42 -11l25 71l47 -16l-29 -81q37 -30 50 -87l-93 -37l-85 -247q44 17 73 71l75 -52q-60 -100 -181 -110l-34 -99zM216 82q18 -9 42 -9l108 310
q-16 16 -39 22zM148 201q0 -53 26 -87l100 292q-56 -11 -91 -68.5t-35 -136.5z" />
    <glyph glyph-name="uni20A2" unicode="&#x20a2;" horiz-adv-x="500" 
d="M442 279l-19 -86q-39 12 -76 -6t-45 -65l-10 -54q60 10 98 80l72 -48q-36 -59 -87 -85.5t-128 -26.5q-91 0 -146 54t-55 151q0 129 70.5 214.5t196.5 85.5q147 0 177 -125l-90 -41q-11 84 -96 84q-68 0 -111 -60t-43 -150q0 -95 63 -124l35 196h71l-5 -80q17 44 52.5 69
t75.5 17z" />
    <glyph glyph-name="franc" unicode="&#x20a3;" horiz-adv-x="461" 
d="M347 147h-146l-25 -147h-107l25 147h-74l9 51h74l9 49h-74l9 51h73l33 183h334l-15 -87h-227l-17 -96h146l-9 -51h-146l-9 -49h146z" />
    <glyph glyph-name="lira" unicode="&#x20a4;" horiz-adv-x="496" 
d="M363 157h-135q-16 -55 -61 -70h157q59 0 82 48l68 -42q-17 -45 -56.5 -69t-92.5 -24h-313l15 89h46q24 0 44.5 20t24.5 48h-102l9 51h90q-1 3 -8 41h-73l9 51h54q-1 9 -1 33q0 80 55 120t131 40q75 0 118 -33t43 -102l-98 -17q0 70 -73 70q-37 0 -58.5 -20.5t-21.5 -61.5
q0 -11 2 -29h172l-9 -51h-152q0 -2 2.5 -17.5t3.5 -23.5h137z" />
    <glyph glyph-name="uni20A6" unicode="&#x20a6;" horiz-adv-x="689" 
d="M651 255h-90l-8 -47h90l-9 -51h-90l-27 -157h-103l-122 231q-14 26 -26 55.5t-17 45.5l-5 17h-4q-5 -73 -19 -153l-34 -196h-106l27 157h-85l9 51h85l8 47h-84l9 51h84l31 175h114l117 -231q12 -25 22 -50.5t14 -39.5l4 -13h4q9 70 22 144l33 190h106l-32 -175h92z" />
    <glyph glyph-name="peseta" unicode="&#x20a7;" horiz-adv-x="1112" 
d="M691 122l87 25q2 -42 29 -65t65 -23q84 0 84 65q0 29 -17 45.5t-66 32.5q-103 31 -117 102h-103l-53 -304h-108l53 304h-83q-19 -170 -225 -170h-77l-23 -134h-107l84 481h172q141 0 171 -90h303q16 51 64.5 76.5t110.5 25.5q169 0 169 -132l-92 -20q1 35 -20.5 55.5
t-61.5 20.5q-36 0 -57.5 -16.5t-21.5 -45.5q0 -26 17 -40t72 -34q69 -24 94 -57t25 -86q0 -76 -52 -113t-140 -37q-85 0 -129.5 34.5t-46.5 99.5zM206 396l-31 -177h68q116 0 116 108q0 69 -82 69h-71z" />
    <glyph glyph-name="uni20A8" unicode="&#x20a8;" horiz-adv-x="803" 
d="M206 396l-25 -144h84q98 0 98 87q0 57 -67 57h-90zM584 -12q-128 0 -208 80l-47 46q-3 3 -12 12.5t-12.5 12.5t-11.5 10t-14.5 9.5t-16 6t-20 5t-23.5 1.5h-52l-30 -171h-107l84 481h199q157 0 157 -128q0 -69 -40 -104t-103 -39v-3q24 -1 44 -10.5t29.5 -18t31.5 -30.5
l48 -45q57 -54 111 -54q62 0 62 41q0 21 -11.5 33t-43.5 25q-51 20 -72.5 46t-21.5 68q0 58 42.5 87.5t101.5 29.5q129 0 129 -97l-81 -18q0 50 -54 50q-24 0 -38.5 -12t-14.5 -31q0 -18 13 -29t55 -28q46 -18 66 -43t20 -66q0 -60 -43 -88.5t-116 -28.5z" />
    <glyph glyph-name="uni20A9" unicode="&#x20a9;" horiz-adv-x="848" 
d="M817 270h-106l-19 -46h117l-9 -52h-130l-72 -172h-130l-25 244q-3 34 -3.5 68.5t0.5 52.5l2 18h-3q-13 -66 -45 -139l-107 -244h-130l-10 172h-123l9 52h111l-3 46h-100l9 52h88l-9 159h105l11 -270q1 -36 0 -67t-3 -51l-1 -20h3q14 63 45 134l116 274h110l23 -273
q3 -32 3 -65.5t-1 -50.5l-1 -18h3q9 63 39 135l113 272h107l-68 -159h93z" />
    <glyph glyph-name="uni20AA" unicode="&#x20aa;" horiz-adv-x="728" 
d="M476 133h-96l35 201q11 66 -58 66h-151l-70 -400h-106l84 481h274q84 0 109 -39t13 -113zM600 481h107l-58 -329q-13 -75 -52 -113.5t-123 -38.5h-274l60 347h96l-47 -266h154q67 0 79 65z" />
    <glyph glyph-name="Euro" unicode="&#x20ac;" horiz-adv-x="548" 
d="M364 270h-157q-7 -32 -7 -56h148l-20 -51h-124q18 -91 107 -91q72 0 116 84l83 -53q-37 -59 -87.5 -87t-125.5 -28q-83 0 -136.5 46t-62.5 129h-78l9 51h68q1 18 7 56h-65l9 51h70q28 79 90.5 125.5t153.5 46.5q150 0 180 -128l-98 -40q-5 38 -29.5 59.5t-64.5 21.5
q-83 0 -124 -85h157z" />
    <glyph glyph-name="uni20AE" unicode="&#x20ae;" horiz-adv-x="470" 
d="M391 267l-109 -18l-8 -49l108 19l-9 -52l-108 -18l-26 -149h-107l23 131l-109 -18l10 52l107 17l9 49l-108 -18l9 52l108 17l20 112h-159l15 87h427l-15 -87h-161l-17 -94l109 19z" />
    <glyph glyph-name="uni20B1" unicode="&#x20b1;" horiz-adv-x="588" 
d="M168 0h-107l49 281h-74l9 51h74l26 149h172q179 0 179 -149h81l-9 -51h-79q-30 -147 -221 -147h-77zM274 215q88 0 109 66h-166l-11 -66h68zM238 399l-12 -67h163q-3 67 -80 67h-71z" />
    <glyph glyph-name="afii61289" unicode="&#x2113;" horiz-adv-x="355" 
d="M39 126l-30 51l71 49v237q0 108 36 157t107 49q114 0 114 -127q0 -108 -45.5 -193.5t-114.5 -145.5v-50q0 -44 15.5 -60.5t49.5 -16.5q30 0 60 13l-4 -88q-39 -13 -84 -13q-134 0 -134 127v40zM177 484v-204q99 99 99 265q0 61 -44 61q-55 0 -55 -122z" />
    <glyph glyph-name="afii61352" unicode="&#x2116;" horiz-adv-x="1084" 
d="M692 0l14 79h326l-15 -79h-325zM917 475q64 0 100.5 -35.5t36.5 -98.5q0 -79 -46.5 -133.5t-129.5 -54.5q-62 0 -100.5 34.5t-38.5 96.5q0 80 47 135.5t131 55.5zM909 406q-38 0 -60.5 -33.5t-22.5 -83.5q0 -70 58 -70q37 0 59 34.5t22 84.5q0 33 -15 50.5t-41 17.5z
M662 461l-80 -461h-102l-151 310q-13 27 -25 56.5t-17 45.5l-5 16h-4q-3 -62 -17 -141l-31 -178q-12 -68 -44.5 -94.5t-92.5 -26.5q-56 0 -89 24l23 87q26 -22 52 -22q20 0 30.5 9.5t14.5 34.5l82 468h105l148 -314q12 -26 23 -54.5t16 -44.5l4 -15h4q6 64 19 138l32 181
q12 68 46 94.5t91 26.5q56 0 89 -24l-24 -93q-27 21 -52 21q-20 0 -30.5 -9.5t-14.5 -34.5z" />
    <glyph glyph-name="published" unicode="&#x2117;" horiz-adv-x="698" 
d="M342 417l-24 -135h49q87 0 87 82q0 53 -62 53h-50zM289 112h-86l65 373h132q139 0 139 -113q0 -83 -49 -120.5t-129 -37.5h-54zM55 294q0 132 89 219.5t217 87.5t217.5 -87.5t89.5 -219.5t-89.5 -219t-217.5 -87t-217 87t-89 219zM86 294q0 -120 80 -198.5t196 -78.5
t196 78.5t80 198.5t-80 199t-196 79t-196 -79t-80 -199z" />
    <glyph glyph-name="servicemark" unicode="&#x2120;" horiz-adv-x="631" 
d="M48 407l58 13q1 -40 47 -40q43 0 43 28q0 13 -9.5 20.5t-36.5 15.5q-40 11 -56 28t-16 47q0 40 31.5 59t75.5 19q96 0 96 -71l-61 -9q0 36 -41 36q-37 0 -37 -27q0 -12 10 -19t41 -17q70 -20 70 -73q0 -40 -31 -59.5t-82 -19.5q-99 0 -102 69zM578 341h-62l30 155h-4
l-66 -102h-46l-27 102h-5l-30 -155h-63l48 248h73l37 -125h3l85 125h76z" />
    <glyph glyph-name="trademark" unicode="&#x2122;" horiz-adv-x="617" 
d="M165 341h-62l38 196h-71l10 52h205l-10 -52h-71zM565 341h-63l30 155h-4l-66 -102h-46l-27 102h-5l-30 -155h-63l49 248h72l38 -125h2l85 125h76z" />
    <glyph glyph-name="ohm" unicode="&#x2126;" horiz-adv-x="647" 
d="M369 508q-92 0 -145 -76.5t-53 -179.5q0 -56 20 -96.5t52 -58.5l-16 -97h-219l16 97h118q-33 18 -57 65t-24 107q0 134 92 233t232 99q100 0 163 -58.5t64 -156.5q0 -88 -40.5 -168t-115.5 -121h112l-16 -97h-219l16 97q69 33 108.5 109t39.5 162q-1 66 -33 103t-95 37z
" />
    <glyph glyph-name="estimated" unicode="&#x212e;" horiz-adv-x="647" 
d="M323 601q71 0 126 -25.5t87.5 -69.5t49 -98t16.5 -114v-26h-431v-169q60 -58 152 -58q130 0 184 104h66q-30 -73 -93 -115t-157 -42q-93 0 -157.5 45t-92.5 112.5t-28 148.5q0 82 28 149.5t92.5 112.5t157.5 45zM323 548q-94 0 -152 -58v-170h304v170q-58 58 -152 58z
" />
    <glyph glyph-name="uni2153" unicode="&#x2153;" horiz-adv-x="869" 
d="M286 236h-258l11 62h90l38 215l-106 -9l12 64l189 22l-52 -292h87zM194 0l409 590h72l-409 -590h-72zM699 183v-3q82 -10 82 -82q0 -51 -41 -78t-104 -27q-58 0 -89.5 25.5t-34.5 67.5l70 21q5 -56 54 -56q27 0 44.5 12.5t17.5 35.5q0 25 -19 39t-71 15l9 50q99 4 99 56
q0 18 -11.5 28t-31.5 10q-44 0 -56 -47l-63 25q29 86 129 86q52 0 84 -22.5t32 -66.5q0 -37 -26 -60.5t-74 -28.5z" />
    <glyph glyph-name="uni2154" unicode="&#x2154;" horiz-adv-x="869" 
d="M291 300l-11 -64h-270l10 56q106 60 157 103t51 84q0 51 -51 51q-54 0 -67 -68l-64 27q9 48 45.5 78t95.5 30q57 0 90 -27.5t33 -78.5q0 -112 -195 -187v-4h176zM194 0l409 590h72l-409 -590h-72zM699 183v-3q82 -10 82 -82q0 -51 -41 -78t-104 -27q-58 0 -89.5 25.5
t-34.5 67.5l70 21q5 -56 54 -56q27 0 44.5 12.5t17.5 35.5q0 25 -19 39t-71 15l9 50q99 4 99 56q0 18 -11.5 28t-31.5 10q-44 0 -56 -47l-63 25q29 86 129 86q52 0 84 -22.5t32 -66.5q0 -37 -26 -60.5t-74 -28.5z" />
    <glyph glyph-name="uni215B" unicode="&#x215b;" horiz-adv-x="869" 
d="M286 236h-258l11 62h90l38 215l-106 -9l12 64l189 22l-52 -292h87zM194 0l409 590h72l-409 -590h-72zM661 -7q-64 0 -96.5 24.5t-32.5 66.5q0 39 26.5 65.5t67.5 32.5v3q-57 20 -57 72q0 50 41 77t102 27q58 0 89.5 -24t31.5 -63q0 -75 -82 -92v-3q63 -19 63 -79
q0 -49 -43.5 -78t-109.5 -29zM705 305q-26 0 -43 -14.5t-17 -39.5q0 -18 12.5 -29t33.5 -11q26 0 44.5 13.5t18.5 40.5q0 17 -12.5 28.5t-36.5 11.5zM683 153q-29 0 -49 -15.5t-20 -42.5q0 -47 53 -47q29 0 48.5 15.5t19.5 44.5q0 21 -13.5 33t-38.5 12z" />
    <glyph glyph-name="uni215C" unicode="&#x215c;" horiz-adv-x="869" 
d="M214 419v-3q82 -10 82 -82q0 -51 -41 -78t-104 -27q-58 0 -89.5 25.5t-34.5 67.5l70 21q5 -56 54 -56q27 0 44.5 12.5t17.5 35.5q0 25 -19 39t-71 15l9 50q99 4 99 56q0 18 -11.5 28t-31.5 10q-44 0 -56 -47l-63 25q29 86 129 86q52 0 84 -22.5t32 -66.5q0 -37 -26 -60.5
t-74 -28.5zM194 0l409 590h72l-409 -590h-72zM661 -7q-64 0 -96.5 24.5t-32.5 66.5q0 39 26.5 65.5t67.5 32.5v3q-57 20 -57 72q0 50 41 77t102 27q58 0 89.5 -24t31.5 -63q0 -75 -82 -92v-3q63 -19 63 -79q0 -49 -43.5 -78t-109.5 -29zM705 305q-26 0 -43 -14.5t-17 -39.5
q0 -18 12.5 -29t33.5 -11q26 0 44.5 13.5t18.5 40.5q0 17 -12.5 28.5t-36.5 11.5zM683 153q-29 0 -49 -15.5t-20 -42.5q0 -47 53 -47q29 0 48.5 15.5t19.5 44.5q0 21 -13.5 33t-38.5 12z" />
    <glyph glyph-name="uni215D" unicode="&#x215d;" horiz-adv-x="869" 
d="M62 389l44 200h217l-12 -66h-154l-20 -87q22 27 66 27q45 0 71 -27.5t26 -74.5q0 -65 -41 -98.5t-107 -33.5q-118 0 -129 88l75 25q3 -54 58 -54q65 0 65 69q0 25 -12.5 39t-32.5 14q-28 0 -47 -21h-67zM194 0l409 590h72l-409 -590h-72zM661 -7q-64 0 -96.5 24.5
t-32.5 66.5q0 39 26.5 65.5t67.5 32.5v3q-57 20 -57 72q0 50 41 77t102 27q58 0 89.5 -24t31.5 -63q0 -75 -82 -92v-3q63 -19 63 -79q0 -49 -43.5 -78t-109.5 -29zM705 305q-26 0 -43 -14.5t-17 -39.5q0 -18 12.5 -29t33.5 -11q26 0 44.5 13.5t18.5 40.5q0 17 -12.5 28.5
t-36.5 11.5zM683 153q-29 0 -49 -15.5t-20 -42.5q0 -47 53 -47q29 0 48.5 15.5t19.5 44.5q0 21 -13.5 33t-38.5 12z" />
    <glyph glyph-name="uni215E" unicode="&#x215e;" horiz-adv-x="807" 
d="M237 521h-118l-10 -53h-69l21 121h282l-8 -50l-192 -303h-91zM132 0l409 590h72l-409 -590h-72zM599 -7q-64 0 -96.5 24.5t-32.5 66.5q0 39 26.5 65.5t67.5 32.5v3q-57 20 -57 72q0 50 41 77t102 27q58 0 89.5 -24t31.5 -63q0 -75 -82 -92v-3q63 -19 63 -79
q0 -49 -43.5 -78t-109.5 -29zM643 305q-26 0 -43 -14.5t-17 -39.5q0 -18 12.5 -29t33.5 -11q26 0 44.5 13.5t18.5 40.5q0 17 -12.5 28.5t-36.5 11.5zM621 153q-29 0 -49 -15.5t-20 -42.5q0 -47 53 -47q29 0 48.5 15.5t19.5 44.5q0 21 -13.5 33t-38.5 12z" />
    <glyph glyph-name="arrowleft" unicode="&#x2190;" horiz-adv-x="683" 
d="M190 342h448v-94h-449l193 -195l-68 -65l-292 306l291 307l69 -65z" />
    <glyph glyph-name="arrowup" unicode="&#x2191;" horiz-adv-x="685" 
d="M390 432v-432h-94v434l-195 -193l-65 68l306 292l307 -292l-65 -68z" />
    <glyph glyph-name="arrowright" unicode="&#x2192;" horiz-adv-x="683" 
d="M22 342h448l-190 194l69 65l289 -307l-289 -306l-68 65l191 195h-450v94z" />
    <glyph glyph-name="arrowdown" unicode="&#x2193;" horiz-adv-x="685" 
d="M295 157v432h94v-434l195 194l65 -68l-306 -293l-307 292l65 69z" />
    <glyph glyph-name="uni2196" unicode="&#x2196;" horiz-adv-x="683" 
d="M600 0l-433 434v-336h-90v491h472v-87h-317l433 -436z" />
    <glyph glyph-name="uni2197" unicode="&#x2197;" horiz-adv-x="683" 
d="M516 434l-432 -434l-66 66l433 436h-317v87h472v-491h-90v336z" />
    <glyph glyph-name="uni2198" unicode="&#x2198;" horiz-adv-x="683" 
d="M84 589l432 -433v335h90v-491h-472v88h317l-433 435z" />
    <glyph glyph-name="uni2199" unicode="&#x2199;" horiz-adv-x="683" 
d="M167 156l433 433l65 -66l-433 -435h317v-88h-472v491h90v-335z" />
    <glyph glyph-name="partialdiff" unicode="&#x2202;" horiz-adv-x="508" 
d="M192 674q280 -71 280 -391q0 -129 -64.5 -212t-180.5 -83q-86 0 -138.5 50t-52.5 142q0 117 62.5 199.5t168.5 82.5q54 0 84 -32h4q-59 148 -253 192zM272 379q-57 0 -92.5 -56.5t-35.5 -137.5q0 -57 24.5 -87.5t67.5 -30.5q58 0 92.5 57t34.5 140q0 115 -91 115z" />
    <glyph glyph-name="increment" unicode="&#x2206;" horiz-adv-x="583" 
d="M417 90l-45 257q-7 41 -12 82t-6 61l-1 21h-4q-24 -70 -73 -163l-135 -258h276zM545 0h-565l317 589h137z" />
    <glyph glyph-name="product" unicode="&#x220f;" horiz-adv-x="605" 
d="M94 -202h-106l139 791h476l-139 -791h-106l122 694h-264z" />
    <glyph glyph-name="summation" unicode="&#x2211;" horiz-adv-x="451" 
d="M458 496h-168l-67 3v-4q24 -23 47 -66l70 -134l-120 -135q-20 -23 -38.5 -40t-27.5 -22l-8 -5v-4q32 4 89 4h153l-16 -93h-408l258 300l-155 289h408z" />
    <glyph glyph-name="minus" unicode="&#x2212;" horiz-adv-x="498" 
d="M448 218h-408l10 60h408z" />
    <glyph glyph-name="radical" unicode="&#x221a;" horiz-adv-x="539" 
d="M327 214l206 467l92 -11l-306 -670h-103l-83 336l-101 -47l-24 78l201 98l50 -250q7 -34 11.5 -66.5t5.5 -47.5l1 -15h4q8 42 46 128z" />
    <glyph glyph-name="infinity" unicode="&#x221e;" horiz-adv-x="867" 
d="M245 352q-48 0 -78.5 -38t-30.5 -90q0 -41 22 -62.5t57 -21.5q60 0 111 48l61 57l-40 49q-43 58 -102 58zM428 191l-54 -51q-45 -40 -84 -59t-90 -19q-67 0 -109.5 40t-42.5 111q0 87 56.5 151.5t146.5 64.5q52 0 87 -20t71 -65l35 -43l55 51q44 40 83 58.5t90 18.5
q67 0 109.5 -40t42.5 -112q0 -86 -57 -150.5t-147 -64.5q-52 0 -86 19.5t-70 64.5zM627 140q47 0 78 37.5t31 88.5q0 42 -22 64t-57 22q-59 0 -110 -48l-62 -58l38 -48q45 -58 104 -58z" />
    <glyph glyph-name="integral" unicode="&#x222b;" horiz-adv-x="278" 
d="M246 546l-112 -636q-12 -68 -43.5 -94.5t-91.5 -26.5q-56 0 -89 24l22 78q27 -21 51 -21q20 0 30.5 9.5t15.5 34.5l111 637q12 68 44 94t92 26q55 0 88 -24l-21 -78q-27 21 -52 21q-20 0 -30.5 -9.5t-14.5 -34.5z" />
    <glyph glyph-name="approxequal" unicode="&#x2248;" horiz-adv-x="528" 
d="M377 250q-36 0 -107 23t-102 23q-55 0 -107 -46l11 62q47 44 108 44q34 0 104 -22.5t103 -22.5q51 0 101 43l-12 -68q-39 -36 -99 -36zM355 127q-36 0 -106.5 23.5t-101.5 23.5q-55 0 -107 -46l11 62q47 44 107 44q35 0 105 -22.5t103 -22.5q52 0 101 43l-12 -69
q-42 -36 -100 -36z" />
    <glyph glyph-name="notequal" unicode="&#x2260;" horiz-adv-x="523" 
d="M472 284h-126l-75 -76h188l-11 -61h-235l-120 -123l-40 38l84 85h-97l11 61h143l74 76h-204l11 61h251l109 112l42 -37l-74 -75h80z" />
    <glyph glyph-name="lessequal" unicode="&#x2264;" horiz-adv-x="455" 
d="M411 421l-212 -132l158 -132l-52 -53l-226 189l294 187zM350 20h-324l10 61h325z" />
    <glyph glyph-name="greaterequal" unicode="&#x2265;" horiz-adv-x="455" 
d="M350 20h-324l10 61h325zM79 163l212 132l-158 132l52 53l226 -189l-295 -187z" />
    <glyph glyph-name="blacksquare" unicode="&#x25a0;" horiz-adv-x="751" 
d="M81 0v589h589v-589h-589z" />
    <glyph glyph-name="whitesquare" unicode="&#x25a1;" horiz-adv-x="751" 
d="M81 0v589h589v-589h-589zM124 546v-503h503v503h-503z" />
    <glyph glyph-name="blacksmallsquare" unicode="&#x25aa;" horiz-adv-x="487" 
d="M81 139v325h325v-325h-325z" />
    <glyph glyph-name="whitesmallsquare" unicode="&#x25ab;" horiz-adv-x="488" 
d="M81 139v325h326v-325h-326zM124 421v-239h240v239h-240z" />
    <glyph glyph-name="triagup" unicode="&#x25b2;" horiz-adv-x="571" 
d="M16 0l245 601l246 -601h-491z" />
    <glyph glyph-name="triagrt" unicode="&#x25ba;" horiz-adv-x="682" 
d="M75 536l601 -245l-601 -246v491z" />
    <glyph glyph-name="triagdn" unicode="&#x25bc;" horiz-adv-x="571" 
d="M328 -12l-245 601h491z" />
    <glyph glyph-name="triaglf" unicode="&#x25c4;" horiz-adv-x="682" 
d="M0 291l601 245v-491z" />
    <glyph glyph-name="lozenge" unicode="&#x25ca;" horiz-adv-x="512" 
d="M474 303l-231 -336h-77l-112 336l229 328h77zM387 304l-78 238l-167 -243l77 -247z" />
    <glyph glyph-name="circle" unicode="&#x25cb;" horiz-adv-x="520" 
d="M43 295q0 90 63 153.5t154 63.5q89 0 153 -63.5t64 -153.5t-64 -153.5t-153 -63.5q-91 0 -154 63.5t-63 153.5zM89 294q0 -72 50 -123t121 -51t122 51t51 123q0 73 -51 124.5t-122 51.5t-121 -51.5t-50 -124.5z" />
    <glyph glyph-name="blackcircle" unicode="&#x25cf;" horiz-adv-x="699" 
d="M43 294q0 127 89.5 217t216.5 90t217 -90t90 -217t-90 -216.5t-217 -89.5t-216.5 89.5t-89.5 216.5z" />
    <glyph glyph-name="whitecircle" unicode="&#x25ef;" horiz-adv-x="699" 
d="M43 294q0 127 89.5 217t216.5 90t217 -90t90 -217t-90 -216.5t-217 -89.5t-216.5 89.5t-89.5 216.5zM87 293q0 -110 76.5 -187.5t185.5 -77.5q108 0 185 78t77 187q0 110 -77 188.5t-185 78.5q-109 0 -185.5 -78.5t-76.5 -188.5z" />
    <glyph glyph-name="anglebracketleft" unicode="&#x3008;" horiz-adv-x="358" 
d="M238 -203h-102l-76 440l228 431h108l-229 -434z" />
    <glyph glyph-name="anglebracketright" unicode="&#x3009;" horiz-adv-x="358" 
d="M122 668h101l76 -440l-227 -431h-109l229 434z" />
    <glyph glyph-name="lcedilla" unicode="&#xe100;" horiz-adv-x="262" 
d="M187 -122q0 -43 -31 -66t-79 -23q-64 0 -95 37l24 56q28 -36 63 -36q37 0 37 31q0 38 -58 42l28 74l10 11q-53 23 -39 105l99 559h106l-96 -546q-8 -43 27 -43q13 0 29 4l-16 -78q-30 -10 -60 -10q-9 0 -12 1l-15 -35q41 -8 59.5 -27.5t18.5 -55.5z" />
    <glyph glyph-name="uni004500600323" unicode="&#xe101;" horiz-adv-x="500" 
d="M425 93l-15 -93h-374l103 589h374l-17 -93h-265l-27 -155h234l-16 -91h-234l-28 -157h265zM118 -137q0 30 19 48t48 18q31 0 50.5 -18t19.5 -48q0 -29 -20 -47t-50 -18q-28 0 -47.5 18t-19.5 47zM367 651h-96l63 130h136z" />
    <glyph glyph-name="uni006500600323" unicode="&#xe102;" horiz-adv-x="476" 
d="M234 69q40 0 62 17t33 54l99 -24q-23 -69 -72 -98.5t-131 -29.5q-89 0 -139 53.5t-50 144.5q0 133 70.5 210t166.5 77q88 0 132.5 -47.5t44.5 -118.5q0 -56 -20 -96h-288q-7 -59 17 -100.5t75 -41.5zM154 279h188q4 12 4 29q0 37 -19.5 61t-57.5 24q-44 0 -73.5 -32
t-41.5 -82zM318 528h-94l73 148h137zM91 -137q0 30 19 48t48 18q30 0 49.5 -18t19.5 -48q0 -29 -19.5 -47t-49.5 -18q-28 0 -47.5 18t-19.5 47z" />
    <glyph glyph-name="uni004500B40323" unicode="&#xe103;" horiz-adv-x="500" 
d="M425 93l-15 -93h-374l103 589h374l-17 -93h-265l-27 -155h234l-16 -91h-234l-28 -157h265zM118 -137q0 30 19 48t48 18q31 0 50.5 -18t19.5 -48q0 -29 -20 -47t-50 -18q-28 0 -47.5 18t-19.5 47zM377 651h-96l-103 130h136z" />
    <glyph glyph-name="uni006500B40323" unicode="&#xe104;" horiz-adv-x="476" 
d="M234 69q40 0 62 17t33 54l99 -24q-23 -69 -72 -98.5t-131 -29.5q-89 0 -139 53.5t-50 144.5q0 133 70.5 210t166.5 77q88 0 132.5 -47.5t44.5 -118.5q0 -56 -20 -96h-288q-7 -59 17 -100.5t75 -41.5zM154 279h188q4 12 4 29q0 37 -19.5 61t-57.5 24q-44 0 -73.5 -32
t-41.5 -82zM332 528h-94l-115 148h136zM91 -137q0 30 19 48t48 18q30 0 49.5 -18t19.5 -48q0 -29 -19.5 -47t-49.5 -18q-28 0 -47.5 18t-19.5 47z" />
    <glyph glyph-name="Gtilde" unicode="&#xe105;" horiz-adv-x="614" 
d="M327 307h240l-53 -307h-73l-6 73q-42 -85 -154 -85q-107 0 -167.5 65.5t-60.5 176.5q0 170 88 270.5t217 100.5q177 0 209 -155l-110 -40q-15 102 -107 102q-86 0 -136 -78.5t-50 -192.5q0 -75 35 -118t103 -43q120 0 140 114l5 28h-136zM438 652q-8 0 -14.5 0.5t-13 2.5
t-10.5 3t-10.5 4t-8.5 4t-9 5.5t-9 5.5q-39 25 -55 25q-36 0 -39 -50h-61q-12 57 18 96t81 39q17 0 31.5 -4.5t20.5 -8.5t22 -14q38 -24 53 -24q32 0 36 50h64q12 -59 -15 -96.5t-81 -37.5z" />
    <glyph glyph-name="gtilde" unicode="&#xe106;" horiz-adv-x="518" 
d="M344 195l14 75q8 50 -10.5 86t-64.5 36q-63 0 -101 -58t-38 -145q0 -52 21.5 -83.5t62.5 -31.5q47 0 76.5 31.5t39.5 89.5zM497 462l-83 -471q-18 -103 -77 -152.5t-167 -49.5q-164 0 -194 120l85 47q5 -39 36 -63t77 -24q60 0 91.5 33t44.5 96l15 81q-34 -86 -133 -86
q-72 0 -113.5 50t-41.5 139q0 122 62 206.5t164 84.5t115 -89l27 78h92zM372 526q-7 0 -13 0.5t-11 1.5t-10.5 3t-8.5 3t-8 4t-7.5 4t-8.5 5t-8 5q-39 25 -55 25t-27 -13t-12 -37h-61q-12 56 18 95t81 39q35 0 74 -26q38 -25 54 -25q32 0 36 50h64q11 -59 -16.5 -96.5
t-80.5 -37.5z" />
    <glyph glyph-name="Gcommaturnedabove" unicode="&#xe107;" horiz-adv-x="614" 
d="M327 307h240l-53 -307h-73l-6 73q-42 -85 -154 -85q-107 0 -167.5 65.5t-60.5 176.5q0 170 88 270.5t217 100.5q177 0 209 -155l-110 -40q-15 102 -107 102q-86 0 -136 -78.5t-50 -192.5q0 -75 35 -118t103 -43q120 0 140 114l5 28h-136zM310 725q0 55 39 83.5t103 28.5
v-40q-75 -2 -75 -41q27 5 45 -8.5t18 -40.5q0 -28 -17 -42.5t-44 -14.5q-31 0 -50 19.5t-19 55.5z" />
    <glyph glyph-name="gcommaturnedabove" unicode="&#xe108;" horiz-adv-x="518" 
d="M344 195l14 75q8 50 -10.5 86t-64.5 36q-63 0 -101 -58t-38 -145q0 -52 21.5 -83.5t62.5 -31.5q47 0 76.5 31.5t39.5 89.5zM497 462l-83 -471q-18 -103 -77 -152.5t-167 -49.5q-164 0 -194 120l85 47q5 -39 36 -63t77 -24q60 0 91.5 33t44.5 96l15 81q-34 -86 -133 -86
q-72 0 -113.5 50t-41.5 139q0 122 62 206.5t164 84.5t115 -89l27 78h92zM250 604q0 56 39 84t103 28v-39q-76 -4 -76 -41q27 5 45 -9t18 -41t-17 -42t-44 -15q-30 0 -49 19.5t-19 55.5z" />
    <glyph glyph-name="Hmacronbelow" unicode="&#xe109;" horiz-adv-x="630" 
d="M145 0h-109l103 589h109l-43 -244h261l42 244h109l-103 -589h-109l44 253h-260zM386 -186h-273l16 84h272z" />
    <glyph glyph-name="hmacronbelow" unicode="&#xe10a;" horiz-adv-x="533" 
d="M469 317l-33 -195q-8 -43 27 -43q13 0 29 4l-16 -78q-30 -10 -60 -10q-108 0 -89 114l34 192q15 84 -56 84q-39 0 -73 -32.5t-46 -102.5l-44 -250h-106l116 668h108l-54 -300q49 105 148 105q55 0 87 -30t32 -83q0 -18 -4 -43zM351 -186h-273l16 84h272z" />
    <glyph glyph-name="Jcaron" unicode="&#xe10b;" horiz-adv-x="442" 
d="M325 589h109l-76 -428q-16 -94 -65 -133.5t-138 -39.5q-139 0 -174 122l88 57q20 -91 92 -91q44 0 62.5 22.5t28.5 78.5zM418 651h-66l-104 134h104l25 -32q7 -8 11 -16.5t4 -12.5l1 -4h4q5 14 27 33l37 32h109z" />
    <glyph glyph-name="Kcedilla" unicode="&#xe10d;" horiz-adv-x="541" 
d="M493 0h-123l-133 253h-48l-44 -253h-109l103 589h109l-43 -245h41l203 245h128l-247 -289zM301 -122q0 -43 -31 -66t-79 -23q-66 0 -95 37l24 56q28 -36 63 -36q37 0 37 31q0 38 -59 42l37 92h46l-21 -50q41 -8 59.5 -27.5t18.5 -55.5z" />
    <glyph glyph-name="kcedilla" unicode="&#xe10e;" horiz-adv-x="481" 
d="M284 54l-76 160h-28l-38 -214h-106l117 668h107l-66 -376h22l157 170h129l-202 -208l70 -142q14 -26 32.5 -31.5t50.5 4.5l-17 -81q-27 -9 -61 -9q-63 0 -91 59zM291 -122q0 -43 -31 -66t-79 -23q-66 0 -95 37l24 56q27 -36 62 -36q37 0 37 31q0 38 -58 42l36 92h47
l-22 -50q41 -8 60 -27.5t19 -55.5z" />
    <glyph glyph-name="Lcedilla" unicode="&#xe10f;" horiz-adv-x="464" 
d="M299 -122q0 -43 -31 -66t-79 -23q-64 0 -95 37l24 56q28 -36 63 -36q37 0 37 31q0 38 -58 42l31 81h-155l103 589h109l-88 -496h251l-16 -93h-157l-17 -39q41 -8 59.5 -27.5t18.5 -55.5z" />
    <glyph glyph-name="ocedilla" unicode="&#xe110;" horiz-adv-x="509" 
d="M277 -122q0 -43 -31 -66t-79 -23q-66 0 -95 37l24 56q28 -36 63 -36q37 0 37 31q0 38 -59 42l30 77q-61 15 -96 63.5t-35 124.5q0 122 65 205.5t182 83.5q89 0 139.5 -53.5t50.5 -147.5q0 -120 -65 -202t-181 -82q-12 0 -17 1l-11 -28q41 -8 59.5 -27.5t18.5 -55.5z
M273 388q-58 0 -93 -57.5t-35 -140.5q0 -59 24 -90t67 -31q59 0 93.5 58t34.5 143q0 57 -23.5 87.5t-67.5 30.5z" />
    <glyph glyph-name="Mmacron" unicode="&#xe111;" horiz-adv-x="710" 
d="M373 141h-62l-66 177q-10 26 -17 52t-9 40l-2 13h-4q-1 -38 -13 -107l-55 -316h-109l103 589h116l82 -239q8 -25 14 -47t7 -32l2 -10h4q10 32 49 87l168 241h116l-103 -589h-109l55 316q5 31 11 57.5t9 38.5l4 11h-4q-19 -43 -61 -102zM569 671h-276l15 83h276z" />
    <glyph glyph-name="mmacron" unicode="&#xe112;" horiz-adv-x="782" 
d="M403 0h-106l53 301q15 84 -54 84q-37 0 -67.5 -32.5t-42.5 -102.5l-44 -250h-106l81 462h92l-3 -94q24 54 56 79.5t85 25.5q52 0 83 -29t31 -82q22 56 57 83.5t90 27.5q52 0 83 -30t31 -83q0 -18 -4 -43l-33 -195q-8 -43 27 -43q13 0 29 4l-15 -78q-32 -10 -61 -10
q-109 0 -88 114l34 192q13 84 -55 84q-37 0 -67 -32.5t-43 -102.5zM580 552h-272l15 84h273z" />
    <glyph glyph-name="Mcedilla" unicode="&#xe113;" horiz-adv-x="710" 
d="M373 141h-62l-66 177q-10 26 -17 52t-9 40l-2 13h-4q-1 -38 -13 -107l-55 -316h-109l103 589h116l82 -239q8 -25 14 -47t7 -32l2 -10h4q10 32 49 87l168 241h116l-103 -589h-109l55 316q5 31 11 57.5t9 38.5l4 11h-4q-19 -43 -61 -102zM393 -122q0 -43 -31 -66t-79 -23
q-66 0 -95 37l24 56q27 -36 62 -36q37 0 37 31q0 38 -58 42l36 92h47l-22 -50q41 -8 60 -27.5t19 -55.5z" />
    <glyph glyph-name="mcedilla" unicode="&#xe114;" horiz-adv-x="782" 
d="M428 -122q0 -43 -31 -66t-79 -23q-64 0 -95 37l24 56q29 -36 63 -36q37 0 37 31q0 38 -58 42l31 81h-23l53 301q15 84 -54 84q-37 0 -67.5 -32.5t-42.5 -102.5l-44 -250h-106l81 462h92l-3 -94q24 54 56 79.5t85 25.5q52 0 83 -29t31 -82q22 56 57 83.5t90 27.5
q52 0 83 -30t31 -83q0 -18 -4 -43l-33 -195q-8 -43 27 -43q13 0 29 4l-15 -78q-32 -10 -61 -10q-109 0 -88 114l34 192q13 84 -55 84q-37 0 -67 -32.5t-43 -102.5l-43 -250h-36l-17 -39q41 -8 59.5 -27.5t18.5 -55.5z" />
    <glyph glyph-name="Ndieresis" unicode="&#xe115;" horiz-adv-x="631" 
d="M244 589l148 -314q13 -26 23.5 -54.5t14.5 -44.5l5 -15h4q7 64 20 138l51 290h108l-103 -589h-102l-151 310q-13 27 -24.5 56.5t-16.5 45.5l-5 16h-4q-3 -62 -17 -141l-50 -287h-109l103 589h105zM218 716q0 29 18.5 47t45.5 18q28 0 46.5 -18t18.5 -47q0 -28 -18.5 -46
t-46.5 -18q-27 0 -45.5 18t-18.5 46zM421 716q0 29 19 47t45 18q28 0 47 -18t19 -47t-19 -47t-47 -18q-26 0 -45 18.5t-19 46.5z" />
    <glyph glyph-name="ndieresis" unicode="&#xe116;" horiz-adv-x="533" 
d="M469 317l-33 -195q-8 -43 27 -43q13 0 29 4l-16 -78q-30 -10 -60 -10q-108 0 -89 114l34 192q15 84 -56 84q-39 0 -73 -32.5t-46 -102.5l-44 -250h-106l81 462h92l-3 -94q48 105 148 105q55 0 87 -30t32 -83q0 -18 -4 -43zM152 595q0 29 18.5 47t45.5 18q28 0 46.5 -18
t18.5 -47q0 -28 -18.5 -46t-46.5 -18q-27 0 -45.5 18t-18.5 46zM355 595q0 29 19 47t45 18q28 0 46.5 -18t18.5 -47t-18.5 -47t-46.5 -18q-26 0 -45 18.5t-19 46.5z" />
    <glyph glyph-name="Nmacron" unicode="&#xe117;" horiz-adv-x="631" 
d="M244 589l148 -314q13 -26 23.5 -54.5t14.5 -44.5l5 -15h4q7 64 20 138l51 290h108l-103 -589h-102l-151 310q-13 27 -24.5 56.5t-16.5 45.5l-5 16h-4q-3 -62 -17 -141l-50 -287h-109l103 589h105zM521 671h-276l14 83h276z" />
    <glyph glyph-name="nmacron" unicode="&#xe118;" horiz-adv-x="533" 
d="M469 317l-33 -195q-8 -43 27 -43q13 0 29 4l-16 -78q-30 -10 -60 -10q-108 0 -89 114l34 192q15 84 -56 84q-39 0 -73 -32.5t-46 -102.5l-44 -250h-106l81 462h92l-3 -94q48 105 148 105q55 0 87 -30t32 -83q0 -18 -4 -43zM448 552h-273l16 84h272z" />
    <glyph glyph-name="Ncedilla" unicode="&#xe119;" horiz-adv-x="631" 
d="M244 589l148 -314q13 -26 23.5 -54.5t14.5 -44.5l5 -15h4q7 64 20 138l51 290h108l-103 -589h-102l-151 310q-13 27 -24.5 56.5t-16.5 45.5l-5 16h-4q-3 -62 -17 -141l-50 -287h-109l103 589h105zM344 -122q0 -43 -31 -66t-79 -23q-64 0 -95 37l25 56q27 -36 62 -36
q37 0 37 31q0 38 -58 42l36 92h47l-22 -50q41 -8 59.5 -27.5t18.5 -55.5z" />
    <glyph glyph-name="ncedilla" unicode="&#xe11a;" horiz-adv-x="533" 
d="M469 317l-33 -195q-8 -43 27 -43q13 0 29 4l-16 -78q-30 -10 -60 -10q-108 0 -89 114l34 192q15 84 -56 84q-39 0 -73 -32.5t-46 -102.5l-44 -250h-106l81 462h92l-3 -94q48 105 148 105q55 0 87 -30t32 -83q0 -18 -4 -43zM296 -122q0 -43 -31 -66t-79 -23q-66 0 -95 37
l24 56q27 -36 62 -36q37 0 37 31q0 38 -58 42l36 92h47l-22 -50q41 -8 60 -27.5t19 -55.5z" />
    <glyph glyph-name="Ocommaturnedabove" unicode="&#xe11b;" horiz-adv-x="627" 
d="M287 -12q-111 0 -172.5 65.5t-61.5 176.5q0 170 88 270.5t217 100.5q111 0 172.5 -66t61.5 -177q0 -170 -88 -270t-217 -100zM349 508q-85 0 -135 -78.5t-50 -192.5q0 -74 34.5 -116t97.5 -42q83 0 133.5 79t50.5 193q0 71 -33 114t-98 43zM312 725q0 55 39 83.5
t103 28.5v-40q-75 -2 -75 -41q27 5 45 -8.5t18 -40.5q0 -28 -17 -42.5t-44 -14.5q-31 0 -50 19.5t-19 55.5z" />
    <glyph glyph-name="ocommaturnedabove" unicode="&#xe11c;" horiz-adv-x="509" 
d="M283 473q89 0 139.5 -53.5t50.5 -147.5q0 -120 -65 -202t-181 -82q-86 0 -138.5 51t-52.5 145q0 122 65 205.5t182 83.5zM273 388q-58 0 -93 -57.5t-35 -140.5q0 -59 24 -90t67 -31q59 0 93.5 58t34.5 143q0 57 -23.5 87.5t-67.5 30.5zM246 605q0 55 39 83.5t103 28.5
v-39q-75 -4 -75 -41q27 5 45 -9t18 -41t-17 -42t-44 -15q-30 0 -49.5 19.5t-19.5 55.5z" />
    <glyph glyph-name="uni004F02D900AF" unicode="&#xe11d;" horiz-adv-x="627" 
d="M287 -12q-111 0 -172.5 65.5t-61.5 176.5q0 170 88 270.5t217 100.5q111 0 172.5 -66t61.5 -177q0 -170 -88 -270t-217 -100zM349 508q-85 0 -135 -78.5t-50 -192.5q0 -74 34.5 -116t97.5 -42q83 0 133.5 79t50.5 193q0 71 -33 114t-98 43zM545 782h-276l14 84h277z
M314 685q0 30 19 48t48 18q30 0 49.5 -18t19.5 -48q0 -29 -19.5 -47t-49.5 -18q-28 0 -47.5 18t-19.5 47z" />
    <glyph glyph-name="Ocedilla" unicode="&#xe11f;" horiz-adv-x="627" 
d="M341 -122q0 -43 -31 -66t-79 -23q-66 0 -95 37l24 56q28 -36 63 -36q37 0 37 31q0 38 -59 42l29 74q-85 16 -131 78.5t-46 158.5q0 170 88 270.5t217 100.5q111 0 172.5 -66t61.5 -177q0 -170 -88 -270t-217 -100h-13l-11 -27q41 -8 59.5 -27.5t18.5 -55.5zM349 508
q-85 0 -135 -78.5t-50 -192.5q0 -74 34.5 -116t97.5 -42q83 0 133.5 79t50.5 193q0 71 -33 114t-98 43z" />
    <glyph glyph-name="Ounderlineaccent" unicode="&#xe121;" horiz-adv-x="627" 
d="M287 -12q-111 0 -172.5 65.5t-61.5 176.5q0 170 88 270.5t217 100.5q111 0 172.5 -66t61.5 -177q0 -170 -88 -270t-217 -100zM349 508q-85 0 -135 -78.5t-50 -192.5q0 -74 34.5 -116t97.5 -42q83 0 133.5 79t50.5 193q0 71 -33 114t-98 43zM297 -203h-80l19 150h80z" />
    <glyph glyph-name="ounderlineaccent" unicode="&#xe122;" horiz-adv-x="509" 
d="M283 473q89 0 139.5 -53.5t50.5 -147.5q0 -120 -65 -202t-181 -82q-86 0 -138.5 51t-52.5 145q0 122 65 205.5t182 83.5zM273 388q-58 0 -93 -57.5t-35 -140.5q0 -59 24 -90t67 -31q59 0 93.5 58t34.5 143q0 57 -23.5 87.5t-67.5 30.5zM237 -203h-80l19 150h80z" />
    <glyph glyph-name="Pmacron" unicode="&#xe123;" horiz-adv-x="506" 
d="M232 500l-36 -205h71q128 0 128 127q0 40 -22.5 59t-70.5 19h-70zM145 0h-109l103 589h181q98 0 141.5 -39.5t43.5 -118.5q0 -107 -66 -165.5t-168 -58.5h-90zM460 671h-276l15 83h276z" />
    <glyph glyph-name="pmacron" unicode="&#xe124;" horiz-adv-x="544" 
d="M187 260l-13 -76q-10 -45 13.5 -81t70.5 -36q63 0 100.5 60.5t37.5 147.5q0 54 -23 84.5t-64 30.5q-44 0 -78 -35t-44 -95zM155 73l-49 -276h-105l117 665h92l-4 -89q45 100 149 100q72 0 112.5 -49t40.5 -143q0 -126 -63 -209.5t-169 -83.5q-49 0 -81.5 23t-39.5 62z
M464 552h-272l15 84h273z" />
    <glyph glyph-name="Rdoublegrave" unicode="&#xe125;" horiz-adv-x="559" 
d="M500 0h-117q-16 15 -23 57l-16 97q-7 45 -26 60t-63 15h-70l-40 -229h-109l103 589h209q95 0 137 -36t42 -110q0 -81 -47.5 -124.5t-111.5 -48.5v-4q41 -6 60 -25.5t27 -64.5l20 -114q7 -37 25 -62zM232 499l-32 -182h99q54 0 85.5 26t31.5 82q0 74 -86 74h-98zM450 651
h-77l-101 130h119zM297 651h-82l-116 130h125z" />
    <glyph glyph-name="rdoublegrave" unicode="&#xe126;" horiz-adv-x="360" 
d="M382 470l-26 -123q-55 18 -107 -7.5t-63 -90.5l-44 -249h-106l81 462h92l-6 -114q24 63 74 98.5t105 23.5zM373 528h-77l-101 148h119zM220 528h-82l-116 148h125z" />
    <glyph glyph-name="Rcedilla" unicode="&#xe127;" horiz-adv-x="559" 
d="M500 0h-117q-16 15 -23 57l-16 97q-7 45 -26 60t-63 15h-70l-40 -229h-109l103 589h209q95 0 137 -36t42 -110q0 -81 -47.5 -124.5t-111.5 -48.5v-4q41 -6 60 -25.5t27 -64.5l20 -114q7 -37 25 -62zM232 499l-32 -182h99q54 0 85.5 26t31.5 82q0 74 -86 74h-98zM329 -122
q0 -43 -31 -66t-79 -23q-64 0 -95 37l25 56q27 -36 62 -36q37 0 37 31q0 38 -58 42l36 92h47l-22 -50q41 -8 59.5 -27.5t18.5 -55.5z" />
    <glyph glyph-name="rcedilla" unicode="&#xe128;" horiz-adv-x="360" 
d="M175 -122q0 -43 -31 -66t-79 -23q-64 0 -95 37l25 56q27 -36 62 -36q37 0 37 31q0 38 -58 42l31 81h-31l81 462h92l-6 -114q24 63 74 98.5t105 23.5l-26 -123q-55 18 -107 -7.5t-63 -90.5l-44 -249h-28l-17 -39q41 -8 59.5 -27.5t18.5 -55.5z" />
    <glyph glyph-name="Tcedilla" unicode="&#xe129;" horiz-adv-x="488" 
d="M283 -122q0 -43 -31 -66t-79 -23q-66 0 -95 37l24 56q28 -36 63 -36q37 0 37 31q0 38 -59 42l32 81h-28l87 496h-168l16 93h446l-16 -93h-170l-86 -496h-35l-16 -39q41 -8 59.5 -27.5t18.5 -55.5z" />
    <glyph glyph-name="tcedilla" unicode="&#xe12a;" horiz-adv-x="330" 
d="M228 -122q0 -38 -25.5 -60.5t-65.5 -26.5q-22 -2 -33 -1q-56 3 -81 36l24 56q29 -36 63 -36q37 0 37 31q0 38 -59 42l30 77q-78 24 -65 130q1 10 5 35l39 219h-65l15 82h65l17 97l108 14l-19 -111h120l-14 -82h-120l-43 -240q-11 -61 39 -61q38 0 78 23v-89
q-37 -20 -91 -24h-26l-11 -28q41 -8 59.5 -27.5t18.5 -55.5z" />
    <glyph glyph-name="Umacronbelow" unicode="&#xe12b;" horiz-adv-x="596" 
d="M485 589h108l-69 -394q-20 -113 -86.5 -160t-173.5 -47q-50 0 -90 13t-70 39.5t-41 74t0 110.5l64 364h109l-65 -366q-25 -146 107 -146q63 0 96 33.5t45 107.5zM363 -186h-272l15 84h273z" />
    <glyph glyph-name="umacronbelow" unicode="&#xe12c;" horiz-adv-x="530" 
d="M321 88q-21 -53 -57.5 -76.5t-91.5 -23.5q-73 0 -104 46t-17 129l52 299h106l-54 -309q-14 -87 57 -87q41 0 73.5 31.5t42.5 90.5l48 274h106l-59 -340q-8 -43 26 -43q14 0 30 4l-16 -78q-30 -10 -60 -10q-48 0 -67.5 23t-14.5 70zM317 -186h-273l16 84h272z" />
    <glyph glyph-name="R.alt" unicode="&#xe141;" horiz-adv-x="527" 
d="M351 232l126 -232h-120l-115 222h-61l-39 -222h-106l103 589h185q182 0 182 -157q0 -82 -44 -133t-111 -67zM230 496l-34 -192h76q124 0 124 114q0 78 -83 78h-83z" />
    <glyph glyph-name="Racute.alt" unicode="&#xe142;" horiz-adv-x="527" 
d="M375 651h-96l64 130h136zM351 232l126 -232h-120l-115 222h-61l-39 -222h-106l103 589h185q182 0 182 -157q0 -82 -44 -133t-111 -67zM230 496l-34 -192h76q124 0 124 114q0 78 -83 78h-83z" />
    <glyph glyph-name="Rcaron.alt" unicode="&#xe143;" horiz-adv-x="527" 
d="M362 651h-66l-104 134h104l25 -32q6 -8 10 -16.5t5 -12.5l1 -4h3q6 14 28 33l37 32h108zM351 232l126 -232h-120l-115 222h-61l-39 -222h-106l103 589h185q182 0 182 -157q0 -82 -44 -133t-111 -67zM230 496l-34 -192h76q124 0 124 114q0 78 -83 78h-83z" />
    <glyph glyph-name="Rinvertedbreve.alt" unicode="&#xe144;" horiz-adv-x="527" 
d="M359 791q68 0 97.5 -37t17.5 -101h-80q4 31 -7 46.5t-42 15.5t-47 -15t-24 -47h-80q11 64 54 101t111 37zM351 232l126 -232h-120l-115 222h-61l-39 -222h-106l103 589h185q182 0 182 -157q0 -82 -44 -133t-111 -67zM230 496l-34 -192h76q124 0 124 114q0 78 -83 78h-83z
" />
    <glyph glyph-name="Rdoublegrave.alt" unicode="&#xe145;" horiz-adv-x="527" 
d="M450 651h-77l-101 130h119zM297 651h-82l-116 130h125zM351 232l126 -232h-120l-115 222h-61l-39 -222h-106l103 589h185q182 0 182 -157q0 -82 -44 -133t-111 -67zM230 496l-34 -192h76q124 0 124 114q0 78 -83 78h-83z" />
    <glyph glyph-name="Rcommaaccent.alt" unicode="&#xe146;" horiz-adv-x="527" 
d="M288 -138q0 -55 -39 -83.5t-103 -28.5v39q75 4 75 42q-27 -5 -45 8.5t-18 40.5q0 28 17 42.5t44 14.5q30 0 49.5 -19.5t19.5 -55.5zM351 232l126 -232h-120l-115 222h-61l-39 -222h-106l103 589h185q182 0 182 -157q0 -82 -44 -133t-111 -67zM230 496l-34 -192h76
q124 0 124 114q0 78 -83 78h-83z" />
    <glyph glyph-name="Rcedilla.alt" unicode="&#xe147;" horiz-adv-x="527" 
d="M318 -122q0 -43 -31 -66t-79 -23q-64 0 -95 37l24 56q29 -36 63 -36q37 0 37 31q0 38 -58 42l36 92h46l-21 -50q41 -8 59.5 -27.5t18.5 -55.5zM351 232l126 -232h-120l-115 222h-61l-39 -222h-106l103 589h185q182 0 182 -157q0 -82 -44 -133t-111 -67zM230 496l-34 -192
h76q124 0 124 114q0 78 -83 78h-83z" />
    <glyph glyph-name="Rdotbelow.alt" unicode="&#xe148;" horiz-adv-x="527" 
d="M147 -137q0 30 19 48t48 18q30 0 49.5 -18t19.5 -48q0 -29 -19.5 -47t-49.5 -18q-28 0 -47.5 18t-19.5 47zM351 232l126 -232h-120l-115 222h-61l-39 -222h-106l103 589h185q182 0 182 -157q0 -82 -44 -133t-111 -67zM230 496l-34 -192h76q124 0 124 114q0 78 -83 78h-83
z" />
    <glyph glyph-name="Rdotbelowmacron.alt" unicode="&#xe149;" horiz-adv-x="527" 
d="M147 -137q0 30 19 48t48 18q30 0 49.5 -18t19.5 -48q0 -29 -19.5 -47t-49.5 -18q-28 0 -47.5 18t-19.5 47zM476 671h-276l14 83h276zM351 232l126 -232h-120l-115 222h-61l-39 -222h-106l103 589h185q182 0 182 -157q0 -82 -44 -133t-111 -67zM230 496l-34 -192h76
q124 0 124 114q0 78 -83 78h-83z" />
    <glyph glyph-name="aogonek.school" unicode="&#xe150;" horiz-adv-x="505" 
d="M303 145l10 59q-79 7 -126 -16.5t-47 -69.5q0 -53 60 -53q38 0 67 21.5t36 58.5zM295 70q-36 -82 -138 -82q-59 0 -91.5 31t-32.5 86q0 83 75.5 124.5t214.5 33.5l8 46q15 83 -62 83q-73 0 -87 -73l-99 17q16 71 70 104t129 33q182 0 154 -160l-33 -191q-8 -43 27 -43
q13 0 29 4l-16 -78q-29 -5 -50.5 -11t-44.5 -17t-35 -30t-12 -44q0 -44 42 -44q38 0 62 35l29 -51q-37 -54 -111 -54q-50 0 -79.5 25.5t-29.5 72.5q0 45 29 79.5t70 52.5q-18 26 -18 51z" />
    <glyph glyph-name="a.school" unicode="&#xe151;" horiz-adv-x="499" 
d="M299 145l10 59q-79 7 -126 -16.5t-47 -69.5q0 -53 60 -53q38 0 67 21.5t36 58.5zM432 313l-33 -191q-8 -43 27 -43q13 0 29 4l-16 -78q-30 -10 -60 -10q-85 0 -88 75q-36 -82 -138 -82q-59 0 -91.5 31t-32.5 86q0 83 75.5 124.5t214.5 33.5l8 46q15 83 -62 83
q-73 0 -87 -73l-99 17q16 71 70 104t129 33q182 0 154 -160z" />
    <glyph glyph-name="agrave.school" unicode="&#xe152;" horiz-adv-x="499" 
d="M299 145l10 59q-79 7 -126 -16.5t-47 -69.5q0 -53 60 -53q38 0 67 21.5t36 58.5zM432 313l-33 -191q-8 -43 27 -43q13 0 29 4l-16 -78q-30 -10 -60 -10q-85 0 -88 75q-36 -82 -138 -82q-59 0 -91.5 31t-32.5 86q0 83 75.5 124.5t214.5 33.5l8 46q15 83 -62 83
q-73 0 -87 -73l-99 17q16 71 70 104t129 33q182 0 154 -160zM344 528h-94l-116 148h137z" />
    <glyph glyph-name="aacute.school" unicode="&#xe153;" horiz-adv-x="499" 
d="M299 145l10 59q-79 7 -126 -16.5t-47 -69.5q0 -53 60 -53q38 0 67 21.5t36 58.5zM432 313l-33 -191q-8 -43 27 -43q13 0 29 4l-16 -78q-30 -10 -60 -10q-85 0 -88 75q-36 -82 -138 -82q-59 0 -91.5 31t-32.5 86q0 83 75.5 124.5t214.5 33.5l8 46q15 83 -62 83
q-73 0 -87 -73l-99 17q16 71 70 104t129 33q182 0 154 -160zM325 528h-94l73 148h136z" />
    <glyph glyph-name="acircumflex.school" unicode="&#xe154;" horiz-adv-x="499" 
d="M299 145l10 59q-79 7 -126 -16.5t-47 -69.5q0 -53 60 -53q38 0 67 21.5t36 58.5zM432 313l-33 -191q-8 -43 27 -43q13 0 29 4l-16 -78q-30 -10 -60 -10q-85 0 -88 75q-36 -82 -138 -82q-59 0 -91.5 31t-32.5 86q0 83 75.5 124.5t214.5 33.5l8 46q15 83 -62 83
q-73 0 -87 -73l-99 17q16 71 70 104t129 33q182 0 154 -160zM274 678h63l102 -151h-99l-27 39q-7 10 -11 19t-4 13l-1 4h-4q-6 -14 -29 -36l-40 -39h-105z" />
    <glyph glyph-name="adieresis.school" unicode="&#xe155;" horiz-adv-x="499" 
d="M299 145l10 59q-79 7 -126 -16.5t-47 -69.5q0 -53 60 -53q38 0 67 21.5t36 58.5zM432 313l-33 -191q-8 -43 27 -43q13 0 29 4l-16 -78q-30 -10 -60 -10q-85 0 -88 75q-36 -82 -138 -82q-59 0 -91.5 31t-32.5 86q0 83 75.5 124.5t214.5 33.5l8 46q15 83 -62 83
q-73 0 -87 -73l-99 17q16 71 70 104t129 33q182 0 154 -160zM122 595q0 29 18.5 47t45.5 18q28 0 46.5 -18t18.5 -47q0 -28 -18.5 -46t-46.5 -18q-27 0 -45.5 18t-18.5 46zM325 595q0 29 19 47t45 18q28 0 47 -18t19 -47t-19 -47t-47 -18q-26 0 -45 18.5t-19 46.5z" />
    <glyph glyph-name="atilde.school" unicode="&#xe156;" horiz-adv-x="499" 
d="M299 145l10 59q-79 7 -126 -16.5t-47 -69.5q0 -53 60 -53q38 0 67 21.5t36 58.5zM432 313l-33 -191q-8 -43 27 -43q13 0 29 4l-16 -78q-30 -10 -60 -10q-85 0 -88 75q-36 -82 -138 -82q-59 0 -91.5 31t-32.5 86q0 83 75.5 124.5t214.5 33.5l8 46q15 83 -62 83
q-73 0 -87 -73l-99 17q16 71 70 104t129 33q182 0 154 -160zM348 526q-18 0 -33 4.5t-20 7.5t-22 14q-39 25 -55 25q-36 0 -39 -50h-61q-12 56 18 95t81 39q35 0 74 -26q37 -25 53 -25q32 0 36 50h64q12 -59 -15 -96.5t-81 -37.5z" />
    </font>
</defs>
</svg>
