<?xml version="1.0" encoding="utf-8"?>
<!-- Generator: Adobe Illustrator 16.0.0, SVG Export Plug-In . SVG Version: 6.00 Build 0)  -->
<!DOCTYPE svg PUBLIC "-//W3C//DTD SVG 1.1//EN" "http://www.w3.org/Graphics/SVG/1.1/DTD/svg11.dtd">
<svg version="1.1" id="Layer_1" xmlns="http://www.w3.org/2000/svg" xmlns:xlink="http://www.w3.org/1999/xlink" x="0px" y="0px"
	 width="1599px" height="46.364px" viewBox="0 0 1599 46.364" enable-background="new 0 0 1599 46.364" xml:space="preserve">
<g id="timeline" transform="translate(-158 -0.636)">
	<g id="Lines" transform="translate(177 1.136)">
		<path id="line34" fill="none" stroke="#9B9B9B" stroke-linecap="square" stroke-miterlimit="10" d="M1469.5,0v5.682"/>
		<path id="line29" fill="none" stroke="#9B9B9B" stroke-linecap="square" stroke-miterlimit="10" d="M1246.5,0v5.682"/>
		<path id="line24" fill="none" stroke="#9B9B9B" stroke-linecap="square" stroke-miterlimit="10" d="M1024.5,0v5.682"/>
		<path id="line19" fill="none" stroke="#9B9B9B" stroke-linecap="square" stroke-miterlimit="10" d="M801.5,0v5.682"/>
		<path id="line8" fill="none" stroke="#9B9B9B" stroke-linecap="square" stroke-miterlimit="10" d="M311.5,0v5.682"/>
		<path id="line13" fill="none" stroke="#9B9B9B" stroke-linecap="square" stroke-miterlimit="10" d="M534.5,0v5.682"/>
		<path id="line33" fill="none" stroke="#9B9B9B" stroke-linecap="square" stroke-miterlimit="10" d="M1425.5,0v5.682"/>
		<path id="line28" fill="none" stroke="#9B9B9B" stroke-linecap="square" stroke-miterlimit="10" d="M1201.5,0v5.682"/>
		<path id="line23" fill="none" stroke="#9B9B9B" stroke-linecap="square" stroke-miterlimit="10" d="M978.5,0v5.682"/>
		<path id="line17" fill="none" stroke="#9B9B9B" stroke-linecap="square" stroke-miterlimit="10" d="M712.5,0v5.682"/>
		<path id="line2" fill="none" stroke="#9B9B9B" stroke-linecap="square" stroke-miterlimit="10" d="M44.5,0v5.682"/>
		<path id="line7" fill="none" stroke="#9B9B9B" stroke-linecap="square" stroke-miterlimit="10" d="M267.5,0v5.682"/>
		<path id="line12" fill="none" stroke="#9B9B9B" stroke-linecap="square" stroke-miterlimit="10" d="M490.5,0v5.682"/>
		<path id="line27" fill="none" stroke="#9B9B9B" stroke-linecap="square" stroke-miterlimit="10" d="M1157.5,0v5.682"/>
		<path id="line22" fill="none" stroke="#9B9B9B" stroke-linecap="square" stroke-miterlimit="10" d="M934.5,0v5.682"/>
		<path id="line10" fill="none" stroke="#9B9B9B" stroke-linecap="square" stroke-miterlimit="10" d="M400.5,0v5.682"/>
		<path id="line35" fill="none" stroke="#9B9B9B" stroke-linecap="square" stroke-miterlimit="10" d="M1513.5,0v5.682"/>
		<path id="line30" fill="none" stroke="#9B9B9B" stroke-linecap="square" stroke-miterlimit="10" d="M1291.5,0v5.682"/>
		<path id="line25" fill="none" stroke="#9B9B9B" stroke-linecap="square" stroke-miterlimit="10" d="M1068.5,0v5.682"/>
		<path id="line20" fill="none" stroke="#9B9B9B" stroke-linecap="square" stroke-miterlimit="10" d="M845.5,0v5.682"/>
		<path id="line4" fill="none" stroke="#9B9B9B" stroke-linecap="square" stroke-miterlimit="10" d="M133.5,0v5.682"/>
		<path id="line9" fill="none" stroke="#9B9B9B" stroke-linecap="square" stroke-miterlimit="10" d="M356.5,0v5.682"/>
		<path id="line14" fill="none" stroke="#9B9B9B" stroke-linecap="square" stroke-miterlimit="10" d="M578.5,0v5.682"/>
		<path id="line32" fill="none" stroke="#9B9B9B" stroke-linecap="square" stroke-miterlimit="10" d="M1379.5,0v5.682"/>
		<path id="line5" fill="none" stroke="#9B9B9B" stroke-linecap="square" stroke-miterlimit="10" d="M177.5,0v5.682"/>
		<path id="line15" fill="none" stroke="#9B9B9B" stroke-linecap="square" stroke-miterlimit="10" d="M624.5,0v5.682"/>
		<path id="line31" fill="none" stroke="#9B9B9B" stroke-linecap="square" stroke-miterlimit="10" d="M1336,0v11.364"/>
		<path id="line16" fill="none" stroke="#9B9B9B" stroke-linecap="square" stroke-miterlimit="10" d="M669,0v11.364"/>
		<path id="line36" fill="none" stroke="#9B9B9B" stroke-linecap="square" stroke-miterlimit="10" d="M1559,0v11.364"/>
		<path id="line26" fill="none" stroke="#9B9B9B" stroke-linecap="square" stroke-miterlimit="10" d="M1113,0v11.364"/>
		<path id="line11" fill="none" stroke="#9B9B9B" stroke-linecap="square" stroke-miterlimit="10" d="M446,0v11.364"/>
		<path id="line6" fill="none" stroke="#9B9B9B" stroke-linecap="square" stroke-miterlimit="10" d="M224,0v11.364"/>
		<path id="line1" fill="none" stroke="#9B9B9B" stroke-linecap="square" stroke-miterlimit="10" d="M1,0v11.364"/>
		<path id="line21" fill="none" stroke="#9B9B9B" stroke-linecap="square" stroke-miterlimit="10" d="M890.5,0v11.364"/>
		<path id="line3" fill="none" stroke="#9B9B9B" stroke-linecap="square" stroke-miterlimit="10" d="M89.5,0v5.682"/>
		<path id="line18" fill="none" stroke="#9B9B9B" stroke-linecap="square" stroke-miterlimit="10" d="M757.5,0v5.682"/>
	</g>
	<g id="Dates" transform="translate(158 20)">
		<text transform="matrix(1 0 0 1 7.04 20.0007)" fill="#1D1B23" font-family="'Dubai-Light'" font-size="12">2000</text>
		<text transform="matrix(1 0 0 1 231.04 20.0007)" fill="#1D1B23" font-family="'Dubai-Light'" font-size="12">2005</text>
		<text transform="matrix(1 0 0 1 452.04 20.0007)" fill="#1D1B23" font-family="'Dubai-Light'" font-size="12">2010</text>
		<text transform="matrix(1 0 0 1 1118.04 20.0007)" fill="#1D1B23" font-family="'Dubai-Light'" font-size="12">2025</text>
		<text transform="matrix(1 0 0 1 896.04 20.0007)" fill="#1D1B23" font-family="'Dubai-Light'" font-size="12">2020</text>
		<text transform="matrix(1 0 0 1 674.04 20.0007)" fill="#1D1B23" font-family="'Dubai-Light'" font-size="12">2015</text>
		<text transform="matrix(1 0 0 1 1340.04 20.0007)" fill="#1D1B23" font-family="'Dubai-Light'" font-size="12">2030</text>
		<text transform="matrix(1 0 0 1 1566.04 20.0007)" fill="#1D1B23" font-family="'Dubai-Light'" font-size="12">2035</text>
	</g>
</g>
</svg>
